<?xml version="1.0" encoding="UTF-8"?><svg id="Layer_2" xmlns="http://www.w3.org/2000/svg" width="178.58" height="249.45" viewBox="0 0 178.58 249.45"><defs><style>.cls-1{fill:#fff;}.cls-2{fill:#fceef4;}.cls-3{fill:#c19676;}.cls-4{fill:#ddb294;}.cls-5{fill:#231f20;}</style></defs><g id="cartes-couleurs"><g id="card-bg"><rect id="bg" class="cls-1" width="178.58" height="249.45" rx="8.5" ry="8.5"/><path id="fg" class="cls-2" d="M171.5,58.26V10.09c0-1.66-1.35-3.01-3.01-3.01H10.09c-1.66,0-3,1.35-3,3.01V239.35c0,1.66,1.34,3.01,3,3.01H168.49c1.66,0,3.01-1.35,3.01-3.01V91.4m0-.01V58.29M29.01,44.95s.01-.03,.02-.04c-.01,.02-.02,.04-.02,.06"/></g></g><g id="cartes"><g id="bear"><path class="cls-4" d="M108.09,87.47c-.86-2.94-4.11-8.3-7.49-5.75-.65-.19-1.36-.27-2.07-.25-3.88,.13-5.95,3.27-6.62,6.76-1.14,5.93,2.14,14.46,8.51,14.41,1.77,.32,3.12-.28,4.29-1.29,.23-.12,.45-.27,.66-.48,.44-.44,.75-.8,1.05-1.23,2.68-3.54,2.95-7.76,1.65-12.16Z"/><path class="cls-3" d="M139.12,170.91c-.22-1.92-.51-3.83-.84-5.74-.15-2.45-.84-5.24-1.45-7.39,.2-1.57,.12-3.4-1.06-4.4-1.2-6.26-2.58-12.49-3.54-18.8-.65-4.27-1.51-8.5-2.12-12.78-.36-2.52-.57-5.14-1.08-7.67-.04-.59-.06-1.19-.05-1.77,.05-3.36,.74-7.13-.41-10.27,.16-3.49,.23-6.97,.04-10.46-.31-5.64-1.55-11.1-2.25-16.69-.32-2.59-.43-5.13-.06-7.72,.11-.75,.28-1.48,.46-2.2,2.36-3.5,3.96-9.98-1.73-10.44-4.79-.39-6.37,3.88-6.67,8.04-6.3-1.25-12.53-.29-18.95,.54-3.71,.48-7.47,.45-11.2,.69-3.44,.22-7.13-.12-10.46,.85-.22,.07-.41,.17-.58,.28-1.1,.01-2.21,.07-3.27,.29,.29-2.93-.77-5.84-3.5-7.41-.82-.47-1.63-.7-2.39-.72-.26-.18-.55-.32-.84-.4-1-.27-2.15,.03-2.88,.77-.35,.36-.61,.78-.82,1.23-.1,.12-.19,.26-.28,.41-.49,.89-.59,1.93-.27,2.9,.05,.16,.12,.31,.2,.45,0,3.04,1.24,6.32,1.56,9.15,.24,2.13,.26,4.6,.69,6.89-.73,1.28-.54,3.01-.43,4.73,.29,4.44-.02,8.93-.27,13.37-.25,4.43-.88,8.81-2.06,13.09-1.11,4.05-3.14,8.22-3.4,12.41-4.57,6.92-5.67,16.96-7.34,24.77-.98,4.6-1.9,9.24-2.41,13.92-.04,.39-.09,.82-.15,1.25-.03,.01-.05,.02-.08,.03-.47-.12-.98-.08-1.4,.21-.48,.33-.9,.72-1.35,1.07-.11,.04-.21,.07-.32,.13-1.73,.92-3.61,2.03-4.06,4.1-.49,2.29,1.09,4.31,3.06,5.27,1.07,.52,2.26,.75,3.34,.11,.18-.11,.33-.23,.47-.36-.29,9.28,5.04,19.79,13.93,22.75,7.93,2.64,26.12-.41,24.64-11.89,0-.02,0-.05-.01-.07,1.03,.04,2.09-.02,3.06-.22,2.21,5.28,5.8,9.75,11.49,9.75,3.77,0,6.4-1.45,8.22-3.68,2.12-.85,3.35-3.82,3.95-6.11,.45-1.73,.34-3.56-.38-5.21-.02-.04-.03-.07-.05-.11,.01-.26,.02-.53,.03-.79,1.23,.59,2.54,.97,3.84,.91-.12,1.31-.26,2.63-.39,3.98-1.11,1.86-.35,5.1,1.39,6.7,.79,1.27,1.87,2.29,3.24,2.92,.29,.28,.61,.51,.98,.66,3.49,1.36,6.92,.96,9.67-.87,.46-.13,.93-.37,1.38-.77,2.45-2.19,3.73-4.67,4.37-7.47,2.45-2.93,1.2-8.88,.82-12.24Zm-35.91-68.74c-.14,.07-.3,.12-.45,.17-.06,.02-.12,.05-.18,.07h0c-.06,.02-.12,.05-.19,.07-3.83,1.18-6.99-2.39-9.4-5.33-.32-1.09-.5-2.27-.6-3.48-1.11-4.16-.86-8.95,3.13-11.13,.22-.12,.43-.16,.62-.14,1.23-.58,2.55-.6,3.87-.9,.38-.08,.69,0,.93,.2,.7-.06,1.39-.02,2.04,.15,2.46,.65,3.98,3.15,4.76,5.76,.18,.13,.32,.31,.41,.55,1.85,5.13,.32,11.9-4.95,14.01Z"/><path class="cls-5" d="M140.17,174.03c-.2-7.62-2.23-15.16-4-22.56-1.99-8.31-4.06-16.62-5.17-25.08-1.13-8.61-1.09-17.34-1.46-26-.35-8.34-.87-16.69-2.11-24.97-.37-2.49-1.04-5.03-.62-7.54,.31-1.86,1.31-3.4,2.08-5.1,1.08-2.41,.93-5.54-1.33-7.38-1.99-1.62-5.03-1.07-7,.32-2.34,1.65-3.06,4.43-3.07,7.04-7.3-1.62-15.02-.31-22.34,.57-4.39,.53-8.88,.4-13.3,.44-2.37,.02-5.04,.02-7.16,1.11-.22-3.9-4.06-9.76-8.81-8.38-2.64,.77-4.1,3.49-3.79,5.91,.22,1.76,1.06,3.41,1.52,5.13,.64,2.36,.74,4.79,.75,7.22,.07,9.16,.19,18.4-1.05,27.51-1.3,9.57-4.97,18.54-7.78,27.78-2.78,9.13-5.1,18.38-6.48,27.78-.19,1.27-.36,2.56-.51,3.85-.02,0-.03,0-.05,.01-3.43,1.48-9.51,5.23-6.52,9.46,1.06,1.5,4.39,3.14,6.14,2.2,.16,2.54,.52,5.06,1.17,7.53,1.69,6.49,6.52,11.39,13.27,13.75,5.65,1.97,12.66,1.25,18.12-1.02,.59-.24,1.15-.53,1.68-.84,1.37,.9,2.58,2.07,3.72,3.14,.41,.39,1.06-.21,.64-.6-1.1-1.04-2.28-2.14-3.58-3.04,1.12-.77,2.08-1.69,2.82-2.71,.91,.27,1.8,.63,2.63,1.06,.51,.27,.97-.46,.46-.73-.82-.43-1.7-.79-2.6-1.07,.94-1.56,1.43-3.31,1.35-5.13,.5,.06,1.01,.12,1.5,.2,.57,.09,.82-.72,.24-.82-.61-.1-1.22-.18-1.83-.25-.16-1.12-.53-2.26-1.16-3.39-1.4-2.52-4.04-4.04-7.02-4.45-4.85-.67-8.81,2.35-13.5,2.71-.58,.04-.59,.89,0,.85,3.39-.26,6.25-1.93,9.52-2.58,3.55-.7,7.56,.18,9.69,3.08,.88,1.2,1.38,2.46,1.58,3.71-1.74-.11-3.48,0-5.11,.6-.54,.2-.3,1.02,.24,.82,1.59-.59,3.27-.68,4.95-.57,.08,1.74-.44,3.45-1.39,4.95-1.3-.32-2.65-.47-3.99-.42-.58,.02-.59,.87,0,.85,1.16-.04,2.32,.08,3.46,.33-.72,.93-1.64,1.75-2.68,2.44-.78-.45-1.59-.83-2.48-1.06-.57-.14-.81,.67-.24,.82,.67,.17,1.3,.43,1.89,.75-.34,.18-.68,.37-1.04,.52-5.17,2.21-11.95,2.94-17.35,1.14-7.03-2.34-11.65-7.51-13.16-14.22-.54-2.42-.83-4.88-.94-7.35,.09-.21,.15-.44,.19-.71,.03-.2-.08-.32-.22-.37-.09-4.06,.27-8.15,.82-12.14,1.13-8.18,3-16.26,5.27-24.23,2.17-7.61,5.1-15.03,7.19-22.65,1.96-7.15,2.68-14.52,2.92-21.87,.15-4.43,.12-8.87,.12-13.3,0-3.92-.04-7.71-1.33-11.47-.75-2.2-1.62-4.4-.12-6.52,1.25-1.77,3.31-2.42,5.35-1.39,2.79,1.4,4.73,4.83,4.6,7.74-.06,.04-.12,.07-.17,.12-.45,.36,.2,.95,.64,.6,2.49-1.99,6.47-1.5,9.52-1.56,3.99-.07,8.01,.01,11.98-.5,7.17-.92,14.93-2.15,22.07-.4,.28,.07,.59-.13,.58-.41-.11-3.36,1.11-7.07,5.09-7.91,4.9-1.03,5.85,4.45,4.32,7.57-1.13,2.32-2.15,4.4-2.05,7.02,.13,3.5,1.02,7.02,1.43,10.5,1.72,14.73,.99,29.61,2.7,44.32,1.61,13.86,6.1,27.2,8.47,40.94,1.14,6.6,1.88,14.33-1.21,20.59-1.64,3.32-4.6,5.58-7.89,6.27,.07-.96,.1-1.92,.11-2.9,0-.54-.91-.55-.91,0,0,1.02-.03,2.04-.11,3.05-1.41,.17-2.87,.06-4.3-.38,.14-.89,.19-1.79,.16-2.66-.02-.54-.93-.55-.91,0,.03,.76,0,1.55-.11,2.34-.94-.38-1.86-.9-2.74-1.59-.04-.03-.08-.07-.12-.1,.68-1.47,1.08-3.06,1.15-4.6,.03-.54-.89-.54-.91,0-.06,1.33-.39,2.7-.95,3.97-1.13-1.06-2.06-2.38-2.38-3.83-.46-2.14,.25-4.65,.59-6.77,.6-3.7,.74-7.31,.36-11.03-.8-7.69-3.2-15.13-5.54-22.51-.16-.52-1.04-.3-.88,.23,2.54,8.03,5.21,16.18,5.69,24.59,.24,4.14-.59,8.07-1.06,12.16-.35,3.02,.13,5.35,2.42,7.62,.13,.13,.26,.24,.4,.36-.62,1.17-1.45,2.24-2.47,3.1-.44,.36,.21,.96,.64,.6,1.03-.86,1.87-1.93,2.52-3.1,.96,.76,2.01,1.35,3.11,1.78-.34,1.56-1.04,3.03-2.33,4.1-.44,.37,.21,.96,.64,.6,1.38-1.15,2.16-2.73,2.55-4.4,1.41,.44,2.89,.59,4.36,.46-.19,1.46-.55,2.89-1.24,4.27-.25,.49,.54,.92,.79,.43,.78-1.55,1.17-3.16,1.37-4.8,1.71-.29,3.38-.99,4.9-2.14,5.39-4.1,6.27-11.34,6.11-17.39Zm-95.63-1.86c-1.38-.73-2.42-1.88-2.34-3.42,.16-3.06,3.52-4.91,6.24-6.12-.34,3.18-.52,6.4-.39,9.59-.66,.99-2.56,.44-3.51-.06Z"/><path class="cls-5" d="M111.96,188.56c3.54-5.12,3.08-12.06,1.62-17.71-1.19-4.58-2.5-9.09-3.48-13.72-.83-3.94-2.22-9.12-.22-12.94,.26-.49-.53-.92-.79-.43-2.58,4.93-.28,11.59,.8,16.64,1.49,6.99,4.61,13.83,3.64,21.08-.37,2.8-1.3,5.77-3.39,7.89-.41-.67-.8-1.35-1.12-2.06-.22-.49-1.11-.28-.88,.23,.38,.83,.86,1.63,1.35,2.43-1.3,1.07-2.92,1.74-4.64,2.02-.38-1.1-.68-2.22-.67-3.43,0-.54-.91-.55-.91,0,0,1.25,.29,2.4,.68,3.54-1.5,.12-3.04-.02-4.44-.46-.35-.11-.67-.24-1-.38,.03-.81,.1-1.61,.2-2.42,.07-.54-.84-.54-.91,0-.09,.67-.15,1.34-.18,2.01-6.05-3.09-8.02-10.68-8.95-16.55-1.54-9.72-.82-19.71,.92-29.36,.1-.53-.78-.76-.88-.23-1.63,9.05-2.37,18.35-1.24,27.49,.8,6.52,2.3,14.18,8.26,18.46,.59,.42,1.22,.78,1.87,1.09-.02,1.97,.28,3.9,1.18,5.76,.24,.5,1.03,.07,.79-.43-.78-1.59-1.05-3.26-1.07-4.95,1.83,.69,3.81,.94,5.73,.75,.31,.84,.63,1.68,.88,2.56,.15,.53,1.03,.3,.88-.23-.24-.84-.56-1.65-.86-2.45,1.75-.3,3.41-.99,4.81-2.06,.81,1.32,1.56,2.67,1.85,4.18,.1,.54,.98,.31,.88-.23-.32-1.65-1.18-3.08-2.06-4.51,.5-.46,.96-.99,1.36-1.57Z"/><path class="cls-5" d="M80.09,76.84c-.07-.09-.15-.17-.24-.23,0-.15-.06-.3-.21-.37-.84-.42-2.01-.39-2.34,.6-.06,.19-.08,.37-.07,.55-.07,.08-.13,.17-.17,.27-.1,.3,0,.55,.2,.77h0s0,.02,.01,.02c.08,.09,.17,.16,.27,.24,0,.01,.01,.02,.02,.03,.03,.06,.08,.1,.13,.13,.35,.36,.88,.58,1.45,.61,.07,0,.13-.02,.2-.05,.65,.04,1.54-.92,1.66-1.48,.13-.64-.32-.96-.91-1.09Z"/><path class="cls-5" d="M117.56,78.2c.05-.08,.09-.17,.12-.25,.32-.35,.54-.76,.57-1.17,.09-1.28-1.66-1.73-2.64-1.1,0,0-.02,0-.03,0-.01,0-.03,0-.04,0,0,0-.02,0-.03,0-.2,0-.36,.1-.43,.3,0,.01,0,.02-.01,.04-.03,.06-.07,.12-.1,.18-.04,0-.07,0-.11,.01-.15,.03-.28,.16-.32,.3-.19,.62-.41,1.46,0,2.06,.19,.28,.5,.42,.83,.45,.26,.2,.59,.31,.95,.21,.09-.02,.17-.06,.24-.1,.04-.01,.09-.03,.13-.05,.01,0,.02,0,.04-.01,.12-.05,.23-.11,.33-.21,.07-.07,.13-.16,.18-.24,.02-.02,.04-.05,.06-.07,.13-.06,.22-.18,.23-.33Z"/><path class="cls-5" d="M104.13,98.44c-.61-.1-1.12-.9-1.44-1.33-.37-.5-.73-1.03-1.02-1.58h0c.06-.17,.1-.34,.12-.5,.11-1.06-.35-2.16-.38-3.23-.01-.38-.12-1.17-.13-1.9,.18-.06,.36-.14,.52-.26h.01c.65-.18,1.03-.93,1.16-1.63,0-.02,0-.03,0-.05,.02-.11,.03-.22,.03-.33,.06-.16,.11-.34,.16-.55,.04-.19-.03-.37-.21-.48-.02-.01-.04-.02-.06-.04-.3-.34-.86-.58-1.27-.63-.02,0-.03,0-.05,0-.02,0-.03-.01-.04-.01-.06,0-.12,0-.18,0-.08,0-.16,0-.23,.01-.02,0-.04,0-.07,.01h-.02c-.38-.13-.8-.15-1.24-.02-.74,.21-1.17,.71-1.18,1.27-.04,.09-.08,.19-.1,.29-.05,.22,0,.43,.08,.62,.02,.51,.37,.89,.85,1.1,.24,.32,.55,.58,.92,.71,0,.79,.1,1.59,.13,2.1,.07,1.2,.66,2.78-.03,3.8-.34,.5-1.03,1.2-1.54,1.55-.47,.32-.01,1.05,.46,.73,.59-.4,1.29-1,1.78-1.67,.31,.51,.65,1.01,1.02,1.48,.41,.51,.97,1.24,1.7,1.36,.57,.09,.82-.72,.24-.82Z"/><path class="cls-5" d="M108.58,87.72c-.87-2.35-3.05-7.33-6.46-6.45-.06-.03-.14-.06-.23-.06-2.43,0-5.08,.03-7.2,1.27-2.17,1.26-3.17,3.61-3.51,5.88-.7,4.65,1.33,10.7,5.46,13.65,4.16,2.98,9.14,.72,11.28-3.2,1.98-3.62,2.07-7.33,.67-11.09Zm-4.05,13.7c-6.03,4.22-11.04-3.34-12.18-7.99-.74-3.03-.7-7.1,1.81-9.48,1.82-1.72,4.55-1.87,7.02-1.89,0,.01,.02,.02,.02,.03,.43-.09,.91-.12,1.36-.05,3.23-.54,5.32,6.06,5.83,8.09,.96,3.79-.42,8.88-3.86,11.29Z"/><path class="cls-5" d="M88.41,84.96c-.37,.22-.13,.87,.38,.76l.09-.02c.15-.03,.28-.16,.32-.3l.02-.09c.12-.48-.58-.7-.81-.35Z"/><path class="cls-5" d="M86.72,88.05l-.02-.09c-.04-.14-.17-.26-.32-.3l-.09-.02c-.51-.11-.76,.53-.38,.76,.24,.35,.94,.12,.81-.35Z"/><path class="cls-5" d="M88.79,90.07h-.11c-.59,0-.59,.85,0,.85h.11c.59,0,.59-.85,0-.85Z"/><path class="cls-5" d="M86.28,92.82c-.59,0-.59,.85,0,.85s.59-.85,0-.85Z"/><path class="cls-5" d="M109.74,82.46c-.19,.04-.29,.1-.43,.21-.45,.35,.2,.95,.64,.6h.03c.57-.11,.33-.93-.24-.81Z"/><path class="cls-5" d="M113.05,84.78c-.59,0-.59,.85,0,.85s.59-.85,0-.85Z"/><path class="cls-5" d="M111.22,86.47c-.59,0-.59,.85,0,.85s.59-.85,0-.85Z"/><path class="cls-5" d="M112.25,90.59c-.59,0-.59,.85,0,.85s.59-.85,0-.85Z"/></g></g></svg>