<?xml version="1.0" encoding="UTF-8"?><svg id="Layer_2" xmlns="http://www.w3.org/2000/svg" width="178.58" height="249.45" viewBox="0 0 178.58 249.45"><defs><style>.cls-1{fill:#fff;}.cls-2{fill:#fdba74;}.cls-3{fill:#ea580c;opacity:.4;}</style></defs><g id="cartes-couleurs"><g id="card-back"><rect id="bg" class="cls-1" width="178.58" height="249.45" rx="8.5" ry="8.5"/><path id="fg" class="cls-2" d="M171.5,10.09V239.35c0,1.66-1.35,3.01-3.01,3.01H10.09c-.93,0-1.76-.42-2.3-1.09h-.01c-.43-.53-.69-1.19-.69-1.92V10.09c0-.83,.34-1.57,.87-2.12h.01c.54-.55,1.29-.89,2.12-.89H168.49c1.66,0,3.01,1.35,3.01,3.01Z"/><g id="topology"><path class="cls-3" d="M74.93,7.08c-1.07,1-2.21,2.17-3.45,3.51-4.6,4.97-5.09,5.46-6.93,6.84-2.47,1.88-5.09,3.57-7.84,5.04-.57,.31-2.16,1.13-2.37,1.25-.7,.36-1.13,.63-1.47,.9-1.22,1-1.36,2.01-1.36,9.7,0,1.54,.05,2.96,.14,4.55,0,.14,.17,2.74,.2,3.36,.09,2.3-.1,3.59-.9,4.78-1.39,2.09-1.9,2.34-15.84,8.14-4.58,1.92-7.52,4.15-9.37,6.89-1.42,2.1-2.06,3.95-3.04,8.11-.69,2.93-1.01,4.11-1.62,5.71-1.82,4.79-5.06,8.52-10.95,11.86-1.04,.58-2.05,1.26-3.04,2.05v-2.1c.72-.52,1.46-.99,2.21-1.42,5.57-3.14,8.53-6.57,10.22-10.99,.65-1.79,1.17-3.63,1.55-5.5,1.03-4.35,1.72-6.35,3.29-8.66,2.05-3.03,5.24-5.46,10.11-7.5,13.2-5.5,13.99-5.88,15.09-7.53,.55-.82,.7-1.8,.62-3.77-.02-.61-.19-3.19-.2-3.34-.09-1.55-.14-3.1-.14-4.64,0-8.4,.15-9.51,1.98-11,.44-.35,.95-.67,1.73-1.08,.23-.12,1.82-.94,2.38-1.24,2.66-1.43,5.21-3.07,7.62-4.91,1.72-1.29,2.21-1.79,6.7-6.63,.82-.89,1.57-1.68,2.26-2.38h2.42Z"/><path class="cls-3" d="M149.04,7.08c-1.59,.42-3.25,.62-4.91,.58-1.97,0-3.19-.1-6.23-.58h11.14Z"/><path class="cls-3" d="M7.09,100.1c.66-.67,1.35-1.31,2.06-1.93,2.31-2,11.29-9.39,13.3-11.22,5.43-4.92,8.79-9.43,11.89-16.52,2.37-5.42,5.49-6.94,13.05-8.01,4.16-.57,5.84-.93,7.79-1.83,2.59-1.17,4.53-3.08,5.91-6.03,1.32-2.84,1.91-5.05,2.93-10.14,1.34-6.69,2.33-9.65,4.97-13.21,3.46-4.69,9.3-8.71,18.62-12.39,13.3-5.24,20.59-5,31.09-.93l2.66,1.04c7.42,2.95,12,4.1,18.77,4.1,9.37,0,15.25-.99,20.73-2.95,.86-.31,3.93-1.51,4.66-1.76,2.1-.73,3.85-1.1,5.98-1.13v-.84c-2.13,.03-4.25,.43-6.25,1.18-.75,.26-3.83,1.46-4.67,1.76-5.38,1.93-11.18,2.9-20.45,2.9-6.65,0-11.13-1.12-18.47-4.03l-2.66-1.05c-10.68-4.15-18.19-4.39-31.69,.93-9.46,3.73-15.42,7.83-19,12.67-2.73,3.69-3.74,6.74-5.11,13.55-1,5.01-1.59,7.19-2.87,9.95-1.29,2.76-3.08,4.53-5.5,5.62-1.84,.85-3.48,1.2-7.27,1.73-4.09,.57-5.96,.99-7.97,1.97-2.63,1.29-4.62,3.37-6.02,6.57-3.05,6.97-6.33,11.4-11.68,16.24-2,1.8-10.96,9.18-13.28,11.21-.52,.45-1.03,.91-1.52,1.4v1.15Z"/><path class="cls-3" d="M7.09,77.49c6.93-5.74,9.73-11.08,9.73-19.76,0-6.91,3.28-10.45,10.62-13.84,.72-.32,3.21-1.43,3.21-1.43,5.69-2.55,7.9-4.46,7.9-8.14,0-6.23,.43-9.57,1.95-12.79,1.82-3.86,5.28-7.09,11.2-10.25,2.04-1.09,3.81-2.33,5.93-4.2h-1.29c-1.79,1.51-3.31,2.54-5.03,3.46-6.08,3.24-9.66,6.6-11.57,10.64-1.58,3.36-2.02,6.78-2.02,13.14,0,3.22-2.01,4.95-7.41,7.37,0,.01-2.49,1.11-3.22,1.45-7.6,3.5-11.11,7.28-11.11,14.59,0,8.17-2.55,13.25-8.89,18.67v1.09Z"/><path class="cls-3" d="M7.09,118.2c2.61-4.56,5.06-7.88,7.03-9.13,10.76-6.85,27.21-23.59,30.26-31.98,1.48-4.08,4.26-5.61,10.79-7.14,5.99-1.41,8.18-2.27,10.04-4.43,1.35-1.58,2.4-4.2,3.78-8.92,.2-.67,1.59-5.6,2.04-7.08,2.95-9.83,5.91-15.01,10.7-16.48,2.12-.65,2.57-.83,8.21-3.12,6.19-2.51,9.87-3.66,14.08-4.06,5.46-.52,10.62,.61,15.83,3.79,4.69,2.87,10.5,4.07,17.31,3.93,5.11-.1,10.33-.91,16.75-2.36,1.53-.34,6.18-1.45,6.91-1.62,2.19-.5,3.52-.73,4.39-.73,2.24,0,4.24-.01,6.29-.06v-.82c-2.05,.04-4.05,.05-6.29,.05-.95,0-2.33,.24-4.58,.74-.73,.17-5.38,1.29-6.9,1.62-6.38,1.45-11.54,2.24-16.58,2.35-6.67,.13-12.33-1.04-16.87-3.82-5.36-3.27-10.7-4.44-16.34-3.9-4.31,.41-8.05,1.58-14.31,4.11-5.61,2.28-6.06,2.46-8.15,3.1-5.15,1.58-8.23,6.94-11.26,17.04-.44,1.49-1.84,6.42-2.03,7.08-1.35,4.6-2.37,7.15-3.62,8.61-1.7,1.98-3.78,2.8-8.92,4-7.46,1.76-10.44,3.4-12.06,7.83-2.97,8.19-19.3,24.8-29.93,31.57-1.87,1.19-4.14,4.14-6.57,8.19v1.64Z"/><path class="cls-3" d="M171.5,200.03c-2.03-.32-2.22-2.64,0-6.3v-1.54c-3.3,4.81-3.11,8.37,0,8.69v-.85Z"/><path class="cls-3" d="M171.5,124.46c-5.17-6.94-12.43-12.6-21.59-17.4-3.56-1.84-7.2-3.52-10.92-5.01-1.55-.64-3.11-1.26-5.04-1.99l-4.54-1.76c-6.98-2.72-17.16-.54-31.49,5.56-2.97,1.26-6.05,2.67-9.74,4.42-1.89,.89-9.16,4.39-10.87,5.2-3.02,1.46-6.1,2.81-9.23,4.05-3.52,1.38-6.95,2.97-10.29,4.75-1.33,.69-6.58,3.5-7.83,4.14-2.09,1.14-4.26,2.11-6.5,2.91-4.04,1.34-6.32,.71-7.44-2.35-1.08-2.97,.57-6.46,4.65-10.62,2.28-2.33,5.1-4.68,9.24-7.84,.66-.51,5.37-4.06,6.64-5.05,2.37-1.83,4.03-3.23,5.29-4.48,5.34-5.34,4.95-4.99,5.97-5.22,.56-.14,5.27,.32,7.95,.32,4.5,0,6.14-.29,7.73-1.24l1.12-.72c.5-.32,.95-.58,1.47-.85,1.83-.92,3.73-1.66,5.69-2.23,5.93-1.82,7.41-4.44,8.33-11.95,.77-6.23,1.24-8.63,2.8-12.53,1.53-3.84,3.82-5.56,7.08-5.76,2.5-.16,4.42,.3,10.56,2.14,3.46,1.06,5.45,1.58,7.64,1.92,1.25,.19,2.45,.29,3.59,.29,16.45,0,31.57-1.36,39.73-4.47v-.9c-7.96,3.14-23.19,4.53-39.73,4.53-1.09,0-2.25-.1-3.46-.28-2.56-.44-5.08-1.08-7.54-1.89-6.25-1.88-8.19-2.34-10.84-2.17-3.6,.21-6.15,2.14-7.81,6.28-1.59,3.98-2.07,6.44-2.85,12.74-.88,7.21-2.2,9.55-7.75,11.26-2.01,.58-3.96,1.34-5.82,2.27-.55,.3-1.02,.56-1.54,.9l-1.1,.7c-1.43,.86-2.94,1.13-7.3,1.13-2.55,0-7.42-.47-8.15-.3-1.26,.29-.72-.19-6.36,5.44-1.64,1.58-3.38,3.05-5.21,4.41-1.26,.98-5.97,4.54-6.64,5.04-4.17,3.19-7.02,5.57-9.32,7.92-4.29,4.38-6.07,8.13-4.85,11.49,1.3,3.58,4.08,4.33,8.51,2.87,2.27-.82,4.48-1.81,6.6-2.96,1.26-.65,6.51-3.45,7.83-4.15,3.31-1.76,6.72-3.34,10.21-4.71,2.47-.94,5.35-2.22,9.29-4.08l10.87-5.2c3.68-1.73,6.76-3.15,9.71-4.4,14.13-6.03,24.15-8.15,30.86-5.54l4.54,1.73c1.93,.75,3.48,1.37,5.02,1.99,4,1.65,7.52,3.24,10.86,5,9.46,4.96,16.86,10.83,21.97,18.09v-1.44Z"/><path class="cls-3" d="M144.51,84.19c-.13,.47,1.24,1.49,4.43,2.89,1.26,.56,9.53,3.83,12.08,4.96,4.28,1.88,7.77,3.75,10.48,5.75v2.12c-2.7-2.2-6.41-4.25-11.16-6.34-2.51-1.11-10.77-4.38-12.06-4.95-4.15-1.82-5.89-3.11-5.37-4.89,.56-1.94,4.43-3.39,12.94-5.09,6-1.19,11.01-1.95,15.65-2.37v1.68c-4.53,.42-9.44,1.17-15.32,2.34-4.09,.81-7.06,1.57-9.02,2.3-1.69,.64-2.54,1.21-2.65,1.6Z"/><path class="cls-3" d="M15.34,144.97c-1.38,6.94,3.07,7.97,15.91,1.01,12.16-6.59,24.58-12.7,37.23-18.31,2.93-1.3,11.74-5.18,13.11-5.81,4.22-1.88,6.94-3.18,9.02-4.31l1.63-.89,1.82-.99c1.47-.78,2.82-1.47,4.18-2.13,15.13-7.29,28.83-8.74,42.08-1,16.32,9.51,28.09,25.32,31.18,39.84v25c-.63,3.93-1.7,6.82-3.51,10.1-1.18,2.11-2.57,4.11-4.13,5.95-5.41,6.5-9.87,13.55-10.67,17.79-1,5.3,3.92,5.87,16.86-.05,.49-.22,.97-.45,1.45-.68v.92c-.36,.19-.72,.36-1.09,.53-13.46,6.15-19.23,5.47-18.05-.87,.84-4.43,5.35-11.57,10.86-18.17,1.53-1.81,2.88-3.76,4.03-5.82,3.64-6.59,4.23-11.51,4.23-27.36s-12.7-35.44-31.53-46.44c-13.02-7.59-26.44-6.17-41.34,1.01-2.02,.98-4.02,2.01-5.97,3.1l-1.63,.9c-2.97,1.56-6,3.01-9.07,4.34-1.38,.62-10.19,4.5-13.12,5.81-12.63,5.6-25.03,11.69-37.17,18.28-13.34,7.24-18.71,5.98-17.13-1.92,1.04-5.18,4.88-12.56,9.89-20.42,2.38-3.74,6.47-8.19,12.35-13.66,1.65-1.54,3.44-3.17,5.48-4.96,1.22-1.08,10.89-9.48,13.17-11.56,2.4-2.18,6.55-6.91,6.81-7.25,2.36-2.35,4.81-2.89,13.54-2.89,6.27,0,10.06-2.03,12.33-6.2,1.84-3.4,2.6-7.39,3.51-16.38l.22-2.28,.25-2.35c.47-4.53,3.74-7.11,9.39-8.03,4.55-.73,10.46-.42,18.27,.72,2.26,.34,4.58,.72,7.56,1.25,12.82,2.25,13.34,2.34,16.19,2.34,4.53,0,10.14-.77,28.02-3.67v.86c-17.85,2.88-23.44,3.64-28.02,3.64-2.92,0-3.41-.07-16.34-2.35-2.98-.53-5.28-.91-7.52-1.25-16.92-2.47-25.92-1-26.72,6.57-.09,.71-.15,1.44-.25,2.35l-.22,2.28c-.92,9.12-1.69,13.15-3.61,16.69-2.42,4.47-6.49,6.65-13.06,6.65-8.49,0-10.78,.5-12.93,2.63h-.01c-.13,.2-4.38,5.05-6.84,7.29-2.3,2.09-11.98,10.49-13.19,11.56-1.84,1.63-3.66,3.28-5.47,4.95-5.82,5.43-9.87,9.84-12.2,13.51-4.95,7.77-8.76,15.08-9.78,20.13Z"/><path class="cls-3" d="M112.09,78.48c1.69,4.41,4.05,7.2,7.39,8.98,2.73,1.45,5.65,2.17,11.56,3.1,7.87,1.24,9.14,1.46,12.96,2.44,5.43,1.38,10.66,3.45,15.56,6.16,4.64,2.56,8.52,6,11.94,10.34l-.15,.89c-3.5-4.67-7.35-7.83-12.19-10.49-4.84-2.68-10.01-4.73-15.38-6.09-3.76-.98-5.04-1.2-12.88-2.42-5.99-.94-8.98-1.68-11.81-3.19-3.53-1.88-6.02-4.82-7.78-9.42-2.03-5.34-.65-8.58,3.63-9.89,3.35-1.02,8.21-.88,15.12,.14,1.54,.23,3.12,.48,5.16,.84,9.21,1.58,9.59,1.65,11.6,1.65,9.18,0,13.22-.31,24.68-2.68v.85c-11.4,2.35-15.49,2.67-24.68,2.67-2.08,0-2.42-.06-11.75-1.68-2.02-.35-3.6-.61-5.14-.83-6.78-1-11.56-1.14-14.75-.17-3.79,1.17-4.95,3.89-3.09,8.8Z"/><path class="cls-3" d="M92.69,169.45c.38,.22,.8,.45,1.36,.74l1.58,.79c2.94,1.47,6.5,2.15,9.26,1.51,3.51-.8,5.55-3.56,5.55-8.33h0c0-9.83-11.79-11.42-17.47-3.85-3.74,4.98-3.69,7.15-.28,9.14Zm.95-8.64c2.33-3.11,6.31-4.79,9.85-4.31,3.72,.51,6.12,3.23,6.12,7.65,0,4.39-1.78,6.8-4.9,7.52-2.56,.59-5.92-.06-8.71-1.45l-1.56-.78c-.55-.28-.96-.5-1.33-.71-2.89-1.7-2.93-3.29,.54-7.92Z"/><path class="cls-3" d="M171.5,37.88c-2.33,.32-4.65,.67-6.97,1.04-17.98,2.71-23.07,3.34-30.25,3.34-5.68,0-10.02-.87-17.11-2.99l-3.11-.93c-1.17-.35-2.14-.62-3.08-.86-6.86-1.75-12.21-1.74-18.64,.62-3.55,1.27-6.45,3.87-8.11,7.24-1.39,2.64-2.15,5.2-3.33,10.44-1.35,5.97-2.04,8.33-3.37,10.86-1.56,3.17-4.36,5.56-7.75,6.57-3.22,1.02-5.84,1.96-8.02,2.89-5.61,2.4-8.7,4.81-11.88,9.02-1.13,1.48-.87,1.1-4.57,6.65-1.6,2.41-3.79,4.72-6.94,7.47-1.67,1.46-8.94,7.37-10.77,8.94-6.21,5.37-10.63,10.28-14.07,16.22-2.35,4.05-4.45,9.42-6.44,16.18v3.03c2.22-8.03,4.54-14.26,7.16-18.79,3.39-5.85,7.74-10.69,13.9-16,1.82-1.57,9.09-7.48,10.77-8.95,3.19-2.79,5.44-5.16,7.09-7.64,3.68-5.52,3.43-5.14,4.54-6.6,3.09-4.1,6.06-6.42,11.54-8.76,2.6-1.08,5.25-2.03,7.94-2.86,3.6-1.08,6.58-3.61,8.24-6.99,1.37-2.61,2.08-5.01,3.33-10.56,1.27-5.66,2.02-8.18,3.36-10.73,1.57-3.19,4.32-5.65,7.67-6.84,6.25-2.31,11.45-2.32,18.14-.6,.93,.23,1.89,.51,3.05,.85l2.33,.69c7.93,2.39,12.34,3.27,18.13,3.27,7.24,0,12.34-.63,30.37-3.36,2.28-.36,4.56-.7,6.85-1.02v-.84Z"/><path class="cls-3" d="M87.94,242.36c10.91-15,22.61-25.84,41.52-36.28,11.11-6.13,17.9-12.63,21.39-19.62,2.53-5.03,3.08-8.9,3.08-15.86,0-9.4-.62-15.82-3.15-23.2-2.68-7.87-7.14-14.31-13.75-18.94-17.88-12.52-25.35-13.94-41.36-6.74,0,0-14.26,6.36-17.72,7.96-7.96,3.66-15.74,7.71-23.3,12.13-4.79,2.79-9.74,5.29-14.83,7.49l-3.66,1.57c-.88,.38-1.62,.7-2.32,1.04-3.56,1.63-6.56,3.32-10.15,5.81h0c-1.46,.99-2.96,1.94-4.5,2.81-.63,.36-3.26,1.85-3.93,2.25-3.66,2.14-6.21,4.33-8.17,7.68v1.76c1.99-4,4.6-6.38,8.59-8.72l3.93-2.23c1.55-.89,3.07-1.85,4.55-2.87,3.15-2.21,6.51-4.13,10.02-5.73,.7-.33,1.44-.65,2.31-1.03l3.65-1.57c5.12-2.21,10.11-4.73,14.92-7.54,6.25-3.64,12.65-7.04,19.18-10.17,1.3-.63,2.64-1.25,4.06-1.92,3.45-1.59,17.71-7.96,17.72-7.96,15.71-7.07,22.87-5.7,40.53,6.66,6.46,4.52,10.81,10.82,13.45,18.53,2.47,7.27,3.09,13.63,3.09,22.93,0,6.84-.54,10.59-2.98,15.49-3.41,6.83-10.08,13.21-21.05,19.26-19.23,10.61-31.08,21.66-42.16,37.01h1.04Z"/><path class="cls-3" d="M76.63,242.36c.1-.16,.21-.31,.31-.47,4.13-6.34,12.83-22.35,13.41-23.27,2.65-4.27,5.05-6.79,8.16-8.35,5.74-2.87,14.03-8.11,21.09-13.73,9.73-7.77,16.59-15.69,19.25-23.3,2.7-7.71-1.67-17.59-10.64-27.17-7.5-8.01-17.06-14.35-21.52-14.35-9.12,0-21.64,4.67-30.36,11.8-3.02,2.48-6.37,3.89-10.95,4.93-1.16,.26-1.93,.41-4.23,.85-7.01,1.32-10.08,2.34-13.26,5.1-2.67,2.31-5.17,3.38-10.29,4.78-9.51,2.59-13.36,4.2-19.8,9.42-4.59,3.73-6.89,5.61-8.18,6.8-1.29,1.2-1.55,1.73-2.06,2.75-.18,.35-.34,.71-.47,1.12v3.56c.48-2.4,.73-3.35,1.21-4.31,.94-1.87,1.03-1.96,10.04-9.27,6.32-5.14,10.07-6.7,19.49-9.27,5.22-1.42,7.82-2.52,10.61-4.95,3.03-2.63,6-3.62,12.86-4.91,2.31-.44,3.1-.59,4.27-.85,4.69-1.08,8.15-2.53,11.29-5.1,8.57-7.01,20.91-11.61,29.83-11.61,4.16,0,13.55,6.22,20.91,14.08,8.78,9.38,13.03,18.99,10.47,26.33-2.6,7.41-9.37,15.23-19,22.9-7,5.6-15.25,10.81-20.92,13.65-3.28,1.64-5.78,4.27-8.51,8.67-.6,.94-9.3,16.94-13.4,23.24-.2,.31-.41,.62-.62,.93h1.01Z"/><path class="cls-3" d="M127.59,166.29c0,6.32-.5,9.13-2.17,11.95-.92,1.54-6.41,8.4-7.19,9.45-4.98,6.64-7.8,8.59-14.43,11.5-1.12,.49-1.84,.84-2.54,1.26-.46,.27-1,.55-1.67,.85-.59,.28-3.73,1.59-4.61,2-5.06,2.32-7.52,4.85-7.52,8.97,0,6.94-9.06,20.65-19.11,30.09h-2.49c10.25-9.14,19.93-23.39,19.93-30.09,0-4.93,2.9-7.93,8.49-10.49,.92-.42,4.06-1.74,4.62-1.99,.62-.29,1.1-.54,1.5-.78,.77-.46,1.55-.84,2.72-1.35,6.4-2.81,8.99-4.6,13.77-10.97,.85-1.14,6.25-7.88,7.08-9.29,1.5-2.52,1.95-5.07,1.95-11.11,0-5.44-3.55-12.95-8.77-18.66-5.58-6.12-11.84-8.98-16.86-7.19-11.48,4.1-13.15,4.9-20.74,9.83-1.87,1.22-7.83,5.58-9.2,6.44-3.18,1.97-6.02,2.89-9.64,2.89-6.76,0-8.35,1.03-11.82,7.1-.91,1.6-2.09,2.41-3.63,2.59-1.09,.12-1.59,.04-4.37-.51-4.62-.92-7.58-.74-11.53,1.57-13.15,7.67-22.16,19.69-22.16,34.4,0,.89-.04,1.77-.11,2.64v-13.22c3.19-10.57,11.09-19.23,21.43-25.26,4.36-2.55,7.72-2.77,12.71-1.77,4.21,.84,5.06,.75,6.21-1.27,3.76-6.56,5.89-7.94,13.27-7.94,3.28,0,5.83-.82,8.75-2.65,1.31-.81,7.25-5.15,9.19-6.42,7.69-5,9.48-5.85,21.07-9.99,5.81-2.07,12.69,1.07,18.67,7.63,2.74,3.01,5.04,6.47,6.65,9.93,1.62,3.46,2.55,6.9,2.55,9.86Z"/><path class="cls-3" d="M90.6,177.64c9.86,5.48,20.07,5.43,22.34-2.76h0c3.08-11.09,1.55-19.17-6.1-22.23-4.33-1.74-7.75-1.43-11.7,.6-1.12,.59-2.21,1.23-3.28,1.92l-1.7,1.09c-1.22,.8-2.47,1.55-3.75,2.26-7.36,4.09-4.32,14.41,4.18,19.12Zm-3.78-18.38c.65-.36,1.3-.74,1.99-1.16,.55-.33,1.1-.69,1.81-1.13l1.7-1.09c1.04-.68,2.11-1.3,3.21-1.88h0c3.75-1.93,6.91-2.21,11.01-.58,7.15,2.87,8.59,10.51,5.6,21.24-2.07,7.47-11.68,7.52-21.14,2.26-8.02-4.45-10.82-13.98-4.18-17.66Z"/><path class="cls-3" d="M52.85,242.36c13.23-6.19,22.76-21.3,29.15-41.54,1.18-3.73,3.24-6.21,6.27-7.9,2.36-1.31,4.65-1.97,9.7-3.05,1.61-.34,1.91-.4,2.62-.57,7.81-1.76,12.27-4.07,15.65-9.29,8.57-13.24,4.75-25.67-7.68-32.36-5-2.69-7.08-3.3-9.23-2.61-.61,.2-1.23,.5-2.03,.98-.46,.28-2.34,1.46-2.46,1.54h0c-2.67,1.65-5.47,3.08-8.37,4.25-1.54,.64-2.92,1.3-4.18,1.99-2.07,1.13-3.98,2.54-5.67,4.18-.85,.84-3.02,3.29-3.22,3.53-1.91,2.04-3.55,2.81-6.84,2.81-5.04,0-7.5,1.28-10.31,4.63-.21,.24-1.7,2.09-2.2,2.66-.86,1.02-1.8,1.97-2.81,2.85-.51,.43-1.02,.8-1.53,1.11-1.94,1.18-3.55,1.49-7.52,1.71-6.26,.36-9.56,.89-15.07,2.95-4.68,1.76-7.75,4.77-9.8,9.31-1.67,3.66-2.57,7.72-3.76,15.59-.35,2.48-.72,4.96-1.13,7.44-.46,2.97-.93,5.55-1.46,8.1-.8,3.82-3.2,13.18-3.88,16.4v2.28c0,.73,.26,1.39,.69,1.91-.22-.89-.21-1.93-.03-3.21,.25-1.72,3.14-12.88,4.04-17.21,.54-2.56,1-5.16,1.47-8.14l.59-3.82,.54-3.62c1.18-7.8,2.07-11.81,3.69-15.38,1.96-4.35,4.87-7.19,9.34-8.86,5.41-2.03,8.63-2.55,14.81-2.9,4.11-.25,5.83-.57,7.92-1.83,.55-.34,1.09-.74,1.64-1.2,1.04-.9,2.01-1.88,2.9-2.93,.5-.59,2.01-2.45,2.2-2.68,2.66-3.16,4.89-4.32,9.67-4.32,3.54,0,5.39-.87,7.45-3.07,1.04-1.2,2.1-2.37,3.19-3.51,1.64-1.59,3.49-2.96,5.5-4.05,1.23-.68,2.58-1.32,4.08-1.95,2.96-1.19,5.8-2.63,8.5-4.32,.13-.08,1.99-1.25,2.45-1.52,.75-.45,1.32-.74,1.86-.9,1.86-.6,3.76-.04,8.57,2.55,12.02,6.47,15.67,18.35,7.38,31.17-3.23,4.99-7.51,7.2-15.14,8.92-.7,.16-1,.24-2.6,.57-5.13,1.1-7.48,1.78-9.93,3.15-3.22,1.79-5.42,4.43-6.66,8.36-6.51,20.64-16.3,35.84-29.86,41.55-.2,.08-.4,.17-.59,.25h2.09Z"/><path class="cls-3" d="M41.61,221.15c10.73-3.57,18.68-9.93,18.68-17.95,0-4.24-2.76-6.96-7.29-8.44-2.32-.72-4.73-1.12-7.16-1.17-2.52,.29-4.93,1.14-7.08,2.48-3.7,2.33-6.19,6-6.89,11.25-1.64,12.33,1.54,16.57,9.75,13.83Zm-8.91-13.71c.66-5,3-8.46,6.5-10.67,1.87-1.17,3.96-1.95,6.14-2.28,.26-.04,.44-.07,.55-.07,2.33,.03,4.64,.41,6.86,1.13,4.22,1.38,6.71,3.84,6.71,7.65,0,7.52-7.69,13.69-18.11,17.16-7.51,2.5-10.22-1.13-8.64-12.93Z"/><path class="cls-3" d="M22.84,234.48c5.48,3.91,16.35,3.08,22.21-.83,7.39-4.93,20.6-19.03,22.74-26.15,1.96-6.52,2.67-9.97,2.32-13.33-.49-4.7-3.45-7.27-9.41-7.27-1.64,0-2.93-.03-6.17-.13l-3.25-.08c-6.64-.14-10.94,.11-14.61,1.11-4.71,1.27-7.73,3.74-8.97,7.75l-.31,1c-.89,2.81-1.74,5.64-2.55,8.48-.75,2.6-1.41,5.02-1.98,7.32-2.97,12.02-3.35,19.74-.02,22.12Zm.83-21.92c.57-2.29,1.22-4.71,1.97-7.3,.46-1.61,.95-3.26,1.52-5.1,.45-1.45,.9-2.9,1.34-4.36,1.14-3.71,3.94-5.99,8.39-7.19,3.58-.98,7.82-1.23,14.38-1.09l3.24,.08c3.24,.09,4.55,.13,6.2,.13,5.53,0,8.13,2.26,8.57,6.52,.34,3.22-.36,6.6-2.28,13.01-2.07,6.89-15.17,20.86-22.41,25.69-5.59,3.72-16.09,4.53-21.25,.84-2.9-2.07-2.53-9.63,.33-21.24Z"/><path class="cls-3" d="M74.4,187.04c-5.11-5.96-13.64-7.55-27.14-5.15-1.36,.24-2.51,.39-3.87,.52-1.36,.13-2.94,.22-5.17,.34-5.69,.28-7.96,.68-10.31,2.19-2.94,1.9-4.86,5.43-6.07,11.49-.64,3.2-1.3,6.13-2.62,11.82l-.11,.42c-2.39,10.26-3.3,14.47-3.95,19.22-.87,6.34-.67,10.66,.89,13.15,.3,.48,.66,.92,1.09,1.32h1.29c-.69-.5-1.26-1.09-1.68-1.76-1.41-2.26-1.61-6.44-.75-12.6,.64-4.71,1.53-8.91,3.93-19.14l.1-.42c1.33-5.7,1.99-8.64,2.63-11.85,1.17-5.86,2.98-9.19,5.7-10.95,2.18-1.4,4.37-1.78,9.9-2.06,4.5-.22,6.39-.38,9.15-.87,13.23-2.35,21.47-.81,26.36,4.88,3.91,4.56,.66,17.33-5.08,28.8-3.94,7.88-8.7,13.32-19.09,20.74-3.14,2.24-6.71,4-10.33,5.23h2.41c2.95-1.18,5.82-2.7,8.4-4.54,10.5-7.51,15.36-13.05,19.36-21.06,5.91-11.81,9.21-24.76,4.96-29.72Z"/><path class="cls-3" d="M45.83,7.08c-.63,.53-1.27,1.06-1.91,1.58-4.17,3.37-7.44,5.18-9.97,5.18-2.94,.04-3.61,0-4.29-.33-.95-.47-1.26-1.44-.95-2.99,.18-.87,.57-2,1.2-3.44h.92c-.7,1.55-1.12,2.72-1.29,3.61-.25,1.21-.07,1.79,.49,2.07,.51,.25,1.13,.29,2.91,.25,3.28,0,6.43-1.76,10.45-5,.37-.3,.74-.61,1.13-.93h1.31Z"/><path class="cls-3" d="M171.5,236.72c-4.5,1.7-10.04,3.49-16.63,5.4-.28,.08-.56,.16-.83,.24h2.94c5.65-1.67,10.49-3.24,14.52-4.75v-.89Z"/><path class="cls-3" d="M171.5,219.41v.88c-3.83,1.43-8.11,2.8-12.92,4.15-3.66,1.03-15.92,4.25-16.09,4.29-5.79,1.56-9.76,2.79-13.07,4.11-5.24,2.11-9.79,4.84-15.73,9.52h-1.35c6.42-5.14,11.2-8.05,16.77-10.28,3.35-1.34,7.36-2.59,13.17-4.15,.18-.05,12.43-3.26,16.07-4.29,4.91-1.39,9.27-2.78,13.15-4.23Z"/><path class="cls-3" d="M7.96,7.97c-.27,.72-.55,1.64-.87,2.77v-.65c0-.83,.34-1.57,.87-2.12Z"/><path class="cls-3" d="M7.09,59.92c.55-2.32,1.1-5.2,1.75-9.11,.2-1.21,1.67-10.41,2.15-13.19,2.36-13.86,4.73-22.17,8.24-26.45,1.11-1.36,2.2-2.72,3.25-4.09h-1.07c-.92,1.19-1.87,2.37-2.83,3.55-3.63,4.44-6.02,12.82-8.42,26.84-.47,2.78-1.95,12-2.14,13.2-.34,2-.64,3.73-.93,5.25v4Z"/></g></g></g></svg>