<?xml version="1.0" encoding="UTF-8"?><svg id="Layer_2" xmlns="http://www.w3.org/2000/svg" width="178.58" height="249.45" viewBox="0 0 178.58 249.45"><defs><style>.cls-1{fill:#fff;}.cls-2{fill:#fceef4;}.cls-3{fill:#c8cacc;}.cls-4{fill:#231f20;}</style></defs><g id="cartes-couleurs"><g id="card-bg"><rect id="bg" class="cls-1" width="178.58" height="249.45" rx="8.5" ry="8.5"/><path id="fg" class="cls-2" d="M171.5,58.26V10.09c0-1.66-1.35-3.01-3.01-3.01H10.09c-1.66,0-3,1.35-3,3.01V239.35c0,1.66,1.34,3.01,3,3.01H168.49c1.66,0,3.01-1.35,3.01-3.01V91.4m0-.01V58.29M29.01,44.95s.01-.03,.02-.04c-.01,.02-.02,.04-.02,.06"/></g></g><g id="cartes"><g id="cat"><path class="cls-3" d="M136.74,107.84c-.54-7-.25-13.96-.37-20.97-.07-3.93-.23-8.22-1.3-12.14-.04-3.46-.06-6.93-.57-10.33-.07-.5-.84-.43-.96,0-.07,.25-.12,.51-.18,.77-.22,.06-.43,.18-.57,.39-1.59,2.3-3.77,4.12-5.63,6.2-.54,.6-1.12,1.27-1.52,1.98-5.39,.73-10.72,1.5-16.19,1.59-5.98,.09-11.86-.6-17.81-1.1-5.72-.49-11.56-.65-17.29-.15-5.49,.48-10.24,1.39-15.71,.65-2.12-2.43-5.19-4.55-7.71-6.14-.5-.72-1.03-1.43-1.62-2.12-.21-.24-.56,.02-.5,.29,.09,.41,.18,.82,.28,1.23-.11,.14-.18,.33-.15,.53,.71,4.77,2.26,9.3,2.55,14.14,.27,4.48-.08,9-.22,13.48-.14,4.53-.26,9.05-.37,13.58-.05,2.03-.2,3.98-.04,5.88-.71,6-.9,12.39-.47,18.37-.04,2.17-.04,4.34-.04,6.49,0,4.21,0,8.43,.04,12.64,.03,2.81-.06,5.08,1.76,7.31,.01,.01,.03,.02,.04,.03,.01,.32,.03,.64,.06,.95-5.36-2.3-10.7-5.22-15.12-8.95-1.83-3.31-4.37-6.21-5.72-9.82-1.62-4.34-.99-8.32-.8-12.53,.23-.11,.43-.28,.56-.53,.57-1.11,.92-2.22,1.08-3.32,.12-.22,.2-.48,.22-.78,.17-2.09-.28-3.76-1.56-5.46-.69-.92-1.66-1-2.38-.63-1.5-.42-3.3,.07-5.16,1.82-4.73,4.43-4.85,10.86-2.46,16.5,5.21,12.28,16.7,23.04,29.52,28.12,1.21,.91,2.52,1.69,3.99,1.7h.02c1.93,6.14,7.95,11.17,14.56,11.21,5.73,.03,8.64-3.58,7.72-7.97,.5-.18,1-.45,1.47-.77,1.78,3.58,4.29,6.73,7.59,8.97,3.83,2.59,9.03,3.54,12.79,.08,1.39-1.28,1.86-2.81,1.58-4.69-.2-1.29-.8-2.43-1.18-3.67-.06-.18-.1-.36-.15-.55,1.99,1.28,4.38,1.91,6.75,1.84-.07,.34-.13,.68-.14,1.02-.18,6.66,9.87,5.8,13.94,4.19,7.56-2.99,11.81-9.93,14.03-17.29,.53-1.76,1-3.56,1.42-5.39,1.54-4.56,2.4-9.57,2.24-14.25,2.84-10.29,.5-22.12-.29-32.39Zm-37.36,4.06c-3.43,1.49-7.68,1.37-10.9-.62-3.26-2.02-3.84-6.17-3.73-9.66,.1-3.14,1.24-7.35,4.59-8.59,.47-.17,.97-.27,1.49-.3,.11-.06,.21-.12,.32-.17,3.49-1.57,7.68,1.06,10.01,3.49,4.68,4.87,5.21,12.81-1.78,15.85Z"/><path class="cls-4" d="M75.81,155.27c.36-2.36,1.12-4.73,.38-7.09-.21-.67,.86-.96,1.07-.29,.84,2.67-.08,5.29-.41,7.97-.5,4.1,.79,8.24,2.01,12.13,1.89,6.05,5.72,13.11,13.31,12.68,.09,0,.19-.02,.28-.03-.02-.4-.04-.81-.04-1.22,0-.7,1.11-.7,1.11,0,0,.35,.01,.69,.03,1.04,.77-.17,1.53-.43,2.26-.76-.26-.48-.5-.97-.76-1.44-.34-.61,.62-1.16,.96-.55,.27,.48,.51,1,.78,1.51,.39-.21,.78-.43,1.14-.65,.33-.2,.59-.4,.83-.6-.48-.59-.88-1.23-1.21-1.88-.31-.63,.65-1.18,.96-.55,.26,.53,.59,1.08,.98,1.59,.38-.67,.36-1.45,.02-2.6-1.05-3.6-3.09-6.91-4.41-10.43-1.12-2.97-1.87-6.01-1.45-9.18,.42-3.18,1.82-6.17,2.8-9.21,.21-.66,1.29-.38,1.07,.29-1.4,4.33-3.48,8.54-2.7,13.2,.73,4.37,3.03,8.34,4.72,12.39,.79,1.9,2.24,4.56,.81,6.48,.38,.33,.81,.6,1.29,.76,.67,.22,.38,1.27-.3,1.05-.65-.22-1.24-.58-1.75-1.02-.61,.53-1.36,1-2.17,1.41,.37,.5,.83,.93,1.43,1.2,.65,.29,.09,1.23-.56,.94-.83-.37-1.41-.98-1.89-1.68-.92,.38-1.88,.65-2.79,.83,.07,.65,.18,1.3,.35,1.93,.18,.68-.89,.97-1.07,.29-.18-.68-.3-1.37-.38-2.06-.12,.01-.25,.03-.37,.04-6.43,.36-10.97-4.67-13.16-10.01-1.48-3.61-2.67-7.59-3.18-11.45-.22-1.69-.27-3.34-.02-5.02Z"/><path class="cls-4" d="M30.79,132.95c-.52,2.74,.06,5.75,.92,8.36,3.12,9.47,10.85,14.19,19.18,18.51,.2,.51,.39,1.02,.57,1.54-6.9-3.47-14.1-7.16-18.16-13.85-2.17-3.57-3.7-7.92-3.77-12.1-.06-3.24,1.36-5.72,2.38-8.71,.81-2.37,1-5.29-1.77-6.57-1.69-.78-3.83-.32-5.4,.53-4.2,2.26-5.38,7.49-4.78,11.81,1.18,8.55,7.24,16.74,13.69,22.33,5.72,4.96,12.81,9.46,19.93,12.59,.17,.48,.35,.95,.54,1.42-4.57-1.98-8.84-4.56-12.98-7.3-4.39-2.9-8.59-5.85-12.13-9.74-5.4-5.94-10.93-14.43-10.27-22.73,.42-5.23,6.13-13.5,12.45-9.59,2.66,1.65,2.74,4.66,1.88,7.32-.67,2.08-1.86,4.02-2.27,6.18Z"/><path class="cls-4" d="M137.65,105.74c-.27-6.97-.12-14-.62-20.95-.49-6.74-1.62-13.41-1.47-20.18,0-.12-.03-.21-.09-.29,0-.17-.02-.35-.09-.53-.08-.23-.28-.4-.54-.4-.1,0-.18,.04-.28,.06-.36-.08-.68,.09-.87,.41-.11,.03-.21,.09-.29,.2-.94,1.3-2.45,2.22-3.65,3.27-1.09,.95-1.92,2.05-2.79,3.19-1.43,1.89-2.4,3.47-4.91,3.8-1.61,.21-3.29,.09-4.9,.07-9.01-.11-17.98-.13-26.99-.5-8.93-.37-18.27-.87-27.05,1.05-2.66,.58-4.01-.53-5.78-2.28-.87-.86-1.71-1.69-2.64-2.49-1.17-1-3.41-2.53-4.72-4.19,0,0,0-.01,0-.02-.38-.53-.8-1.41-1.63-1.14-.44,.15-.63,.59-.58,1.02v.02c-.05,2.64,1.02,5.8,1.44,7.8,1.35,6.38,1.18,13.09,1.16,19.58-.05,13.09-1.26,26.15-1.24,39.23,0,4.42,.11,8.86,.3,13.29-.06,0-.13,0-.2,.03,0,.02,.01,.04,.02,.07,0,.46,.03,.91,.05,1.36,.06-.06,.13-.14,.19-.2,.07,1.4,.14,2.79,.22,4.18,.04,.69,.09,1.38,.14,2.08l-.06,.08c.05,.52,.1,1.04,.14,1.56l.05-.06c.36,3.96,1.01,7.97,2.58,11.6,3.21,7.42,10.7,13.44,19.3,12.21,.44,.97,1.02,1.89,1.86,2.5,.57,.42,1.13-.53,.56-.94-.57-.42-.99-1.07-1.32-1.78,1.15-.3,2.18-.84,2.98-1.58,.56,.37,1.15,.69,1.88,.77,.71,.08,.7-1.01,0-1.09-.43-.05-.82-.23-1.19-.46,.45-.62,.77-1.34,.88-2.15,.4,.1,.8,.18,1.21,.17,.71-.02,.71-1.11,0-1.09-.41,.01-.8-.06-1.18-.16,0-.1,0-.2-.02-.3-.59-4.69-5.88-6.54-7.21-10.82-.21-.67-1.28-.38-1.07,.29,1.23,3.96,6.69,6.4,7.16,10.53-.37-.09-.75-.16-1.14-.14-.71,.03-.71,1.11,0,1.09,.4-.01,.78,.05,1.16,.15,0,.03,0,.06,0,.1-.08,.7-.3,1.27-.6,1.77-.41-.32-.82-.64-1.25-.85-.64-.31-1.2,.62-.56,.94,.42,.2,.79,.46,1.16,.73-.67,.62-1.56,1.01-2.57,1.22-.13-.37-.25-.74-.35-1.07-.2-.67-1.27-.38-1.07,.29,.09,.31,.2,.63,.31,.95-3.23,.29-7.2-.81-9.19-1.85-9.01-4.68-10.85-15.16-11.44-24.19-.71-10.71-.76-21.5-.17-32.22,.62-11.22,1.03-22.43,.75-33.66-.1-4.17-.27-8.35-1.14-12.44-.37-1.73-1.34-4.53-1.45-6.9,.03-.03,.06-.07,.08-.11,.04,.05,.07,.1,.11,.14,.08,.11,.18,.16,.28,.2,.66,.75,1.42,1.43,2.04,2,2.08,1.91,4.16,3.84,6.26,5.72,1.77,1.59,3.07,2.17,5.46,1.64,4.3-.95,8.68-1.24,13.09-1.34,9.2-.21,18.39,.58,27.58,.72,4.09,.06,8.17,.05,12.26,0,2.48-.02,5.28,.42,7.68-.33,2.38-.75,3.69-3.41,5.15-5.22,1.56-1.94,3.92-3.17,5.42-5.14,.05,.1,.12,.19,.21,.26-.1,6.63,1,13.16,1.47,19.76,.49,6.96,.34,13.98,.62,20.95,.48,12.19,1.03,24.59,.07,36.77-.71,8.99-2.68,18.67-7.72,26.38-2.32,3.55-5.49,6.72-9.61,8.16-1.22,.43-3.01,.82-4.88,.96,.14-.43,.27-.87,.4-1.31,.2-.67-.87-.96-1.07-.29-.16,.52-.3,1.1-.49,1.65-1.17,.02-2.33-.09-3.35-.37,.29-.43,.6-.85,.95-1.23,.48-.52-.3-1.29-.79-.77-.47,.5-.86,1.05-1.23,1.62-.81-.37-1.47-.91-1.9-1.63,.46-.32,.93-.63,1.35-.98,.54-.46-.25-1.23-.79-.77-.31,.26-.64,.5-.97,.74-.08-.32-.13-.67-.13-1.05-.01-2.9,2.4-5.36,4.05-7.59,1.38-1.85,2.71-3.74,3.59-5.88,1.97-4.78,.63-8.85-.42-13.64-.15-.68-1.22-.39-1.07,.29,.88,4.01,2.19,7.6,.9,11.71-1.06,3.36-3.34,6.07-5.41,8.87-1.66,2.24-3.37,5.5-2.56,8.06-.39,.31-.76,.64-1.07,1.04-.43,.56,.54,1.1,.96,.55,.17-.22,.37-.41,.57-.6,.43,.66,1.08,1.26,2.03,1.74,.07,.04,.15,.06,.22,.09-.28,.43-.56,.87-.87,1.28-.42,.57,.54,1.11,.96,.55,.34-.46,.65-.95,.96-1.43,1.07,.33,2.26,.48,3.47,.51-.24,.39-.54,.74-.96,.99-.6,.37-.04,1.31,.56,.94,.78-.49,1.28-1.18,1.64-1.95,1.89-.1,3.77-.46,5.3-.96,3.73-1.22,6.8-3.73,9.16-6.76,5.44-6.98,7.8-16.24,8.88-24.81,1.69-13.45,.88-27.39,.35-40.9Z"/><path class="cls-4" d="M115.12,91.52c.05-.05,.12-.09,.18-.14,.19-.29,.46-.55,.79-.75,.04-.03,.09-.03,.14-.04,.1-.1,.2-.2,.33-.29,.2-.14,.51-.07,.67,.08,.12,.12,.22,.24,.31,.37,.07,.01,.14,0,.2,.02,.46,.12,.68,.36,.78,.64,.04,.06,.09,.12,.13,.2,.41,.88,.11,2.15-.93,2.43-.03,0-.07,0-.1,0-.01,0-.02,.02-.03,.03-.13,.08-.34,.09-.49,.02-.04,0-.07-.02-.11-.02-.07,.03-.14,.06-.22,.06-.04,.01-.06,.03-.1,.04-.24,.07-.5-.04-.63-.25-.02-.03-.02-.06-.04-.09-.19-.06-.37-.17-.53-.32-.03-.03-.04-.07-.07-.1-.6-.51-.96-1.19-.3-1.91Z"/><path class="cls-4" d="M70.42,91.8c-.03-.27,.19-.46,.43-.52,.03-.37,.16-.7,.47-.91,.7-.47,1.66,.07,2.06,.68,.06,.09,.1,.18,.14,.28,.12,.11,.21,.26,.21,.41,0,.04-.02,.06-.02,.1,.02,.08,.03,.16,.03,.24,0,.38-.14,.74-.39,1.03,0,.03,0,.06,.01,.09,0,.18-.12,.37-.29,.47-.01,.18-.13,.34-.28,.44-.03,.02-.06,.03-.08,.05-.01,.05-.01,.09-.03,.14-.13,.43-.78,.55-1.01,.13-.05-.08-.07-.16-.11-.23-.27,.03-.52-.1-.61-.38-.09-.29-.23-.63-.23-.95-.17-.32-.27-.7-.31-1.07Z"/><path class="cls-4" d="M93.38,99.42s-.1-.05-.14-.07c-.12-.05-.19-.15-.23-.25-.07-.04-.14-.08-.2-.13-.01,0-.03-.01-.04-.02-.35-.22-.64-.47-.87-.88-.04-.03-.08-.05-.11-.08-.11-.07-.16-.16-.21-.25-.63-.09-.61-1.07,.08-1.07,.56,0,1.12,0,1.68,0,.69-.41,1.72-.42,2.67-.19,.15,.04,.25,.12,.31,.23,.03,0,.06,0,.09,0,.32,.01,.53,.24,.56,.54,0,.1,0,.19,0,.29,.32,.18,.42,.55,.15,.85-.44,.5-.97,.79-1.54,.92-.19,.11-.39,.19-.59,.23-.07,.05-.15,.07-.25,.08-.08,.04-.17,.07-.26,.09v5.19c.14,.11,.23,.28,.24,.47,.8,.66,1.33,1.54,1.87,2.4,.26,.42-.17,.9-.63,.8-.48-.1-.58-.41-.84-.75-.12-.15-.13-.3-.08-.42-.29-.42-.61-.81-1-1.16-.69,.67-1.16,1.55-1.57,2.4-.31,.63-1.26,.08-.96-.55,.5-1.02,1.08-2,1.93-2.77-.03-.06-.06-.13-.06-.22v-5.67Z"/><path class="cls-4" d="M83.74,104.16c.55,6,4.83,9.71,10.95,9.65,6.16-.07,11.9-4.26,10.92-10.78-.53-3.51-2.76-6.88-5.66-8.97-2.7-1.95-5.8-2.24-9.07-2.27-.04,0-.07,.01-.11,.02-.01,0-.02,0-.04,0-5.58,.84-7.42,7.62-6.99,12.36Zm7.19-11.29c2.98,.03,5.8,.26,8.28,2.03,2.53,1.81,4.49,4.6,5.17,7.62,1.44,6.42-4.43,10.44-10.39,10.19-5.57-.23-9.02-3.95-9.2-9.36-.13-4.07,1.4-9.69,6.13-10.47Z"/><path class="cls-4" d="M122.69,117.3c.29-.35,.73-.76,1.22-.78,.14,0,.24,.02,.34,.07,1.22-.4,2.53-.29,3.83-.28,.39-.07,.79-.14,1.19-.25,1.51-.4,3.01-.99,4.47-1.66,1.13-.7,2.32-1.23,3.1-1.53,.59-.22,.97,.7,.43,.99-.14,.07-.28,.14-.43,.22,.06,.08,.11,.17,.12,.29,.02,.32,.06,.63,.09,.95,.24,.04,.46,.2,.46,.51v4.82c0,.45-.46,.61-.78,.47-.28,.17-.71,.08-.84-.28-2.31,.78-4.7,.17-7.05-.44-1.7,.44-3.65-.24-5.34-.79-.07-.02-.1-.07-.15-.11-.52-.02-1.05-.18-1.2-.73-.15-.54,.19-1.09,.53-1.48Z"/><path class="cls-4" d="M120.81,134.15c.17,.27,.48,.31,.72,.2,.05,.16,.16,.3,.35,.35,1.68,.49,3.33,1.04,5.01,1.32,2.59,1.38,6,3.05,8.9,2.34,.31,.36,1.07,.31,1-.29v-.05c.16-.08,.29-.23,.3-.46,0-.16,0-.31,0-.47,.28,0,.56-.17,.56-.52,0-.29,0-.58-.01-.87,.25-.09,.46-.32,.41-.64-.16-1.13-.29-2.22-.56-3.34-.03-.12-.09-.2-.17-.26-.02-.1-.04-.2-.05-.3-.01-.07-.02-.15-.03-.22-.02-.14-.1-.23-.2-.29,.37-.37,.06-1.05-.52-.91-.87,.21-1.75,.33-2.64,.43-.16-.04-.33-.02-.47,.05-.06,0-.12,.01-.18,.02-.23-.34-.84-.26-.98,.12-.76,.1-1.52,.23-2.26,.44-.88,.25-1.75,.66-2.66,.82-.2-.09-.46-.06-.63,.07-1.21,.05-2.38-.29-3.57-.44-.1-.22-.32-.39-.63-.32-1.95,.45-2.85,1.39-1.7,3.21Z"/><path class="cls-4" d="M50.08,121.57c1.86,1.3,4.88,.48,6.56-.76,.01,0,.01-.03,.03-.04,1.52,.24,2.97,.04,4.43-.48,.05-.02,.09-.04,.13-.07,.8-.09,1.62-.21,2.48-.26,1.27-.08,2.06,.19,2.67-1.02,.2-.4-.13-.96-.63-.8-.08,.03-.13,.05-.2,.07-.22-1.5-2.07-1.94-3.67-2.25-2.36-.45-5.06-2.21-7.52-1.83-.97-.31-1.92-.68-2.88-1.04-.35-.13-.69,.2-.7,.52-.01,.33-.02,.51,0,.67-.13,.03-.24,.1-.31,.23-.85,1.61-.8,3.82-.19,5.56-.07,.28-.19,.55-.39,.77-.19,.25-.02,.59,.2,.74Z"/><path class="cls-4" d="M50,135.62c.03,.1,.06,.19,.08,.29-.06,.34-.04,.48,0,1.22,.02,.35,.34,.62,.7,.52,.06-.02,.11-.04,.17-.05,.11,.25,.38,.35,.62,.31,.02,0,.03,.01,.04,.02,1.57,.48,3.25-1.19,4.4-1.93,.11-.07,.18-.16,.22-.26,.3-.04,.6-.08,.89-.12,2.72-.18,5.57-.72,7.92-2.07,.04-.02,.05-.06,.08-.09,.21,0,.43,.01,.64,0,.2,0,.34-.11,.43-.24,.12-.08,.21-.18,.25-.3,.68-2.04-2.4-2.5-3.79-2.71-4.07-.59-8.01-.66-12-1.92-.32-.1-.74,.18-.7,.52,.03,.27,.09,.51,.17,.73-.12,.09-.2,.22-.19,.41,.06,1.7,.21,3.39,.26,5.09-.17,.11-.27,.3-.19,.57Z"/></g></g></svg>