<?xml version="1.0" encoding="UTF-8"?><svg id="Layer_2" xmlns="http://www.w3.org/2000/svg" width="178.58" height="249.45" viewBox="0 0 178.58 249.45"><defs><style>.cls-1{fill:#f4d6be;}.cls-2{fill:#fff;}.cls-3{fill:#ffe9ed;}.cls-4{fill:#fceef4;}.cls-5{fill:#ca8f70;}.cls-6{fill:#dbad9a;}.cls-7{fill:#231f20;}</style></defs><g id="cartes-couleurs"><g id="card-bg"><rect id="bg" class="cls-2" width="178.58" height="249.45" rx="8.5" ry="8.5"/><path id="fg" class="cls-4" d="M171.5,58.26V10.09c0-1.66-1.35-3.01-3.01-3.01H10.09c-1.66,0-3,1.35-3,3.01V239.35c0,1.66,1.34,3.01,3,3.01H168.49c1.66,0,3.01-1.35,3.01-3.01V91.4m0-.01V58.29M29.01,44.95s.01-.03,.02-.04c-.01,.02-.02,.04-.02,.06"/></g></g><g id="cartes"><g id="cow"><path class="cls-1" d="M146.67,83.23c1.03,1.21,1.42,2.59,1.17,4.16-.02,.45,.32,.8,.72,.94,7.78,2.79,16.11-.35,18.01-7.48,2.05-4.88,.88-12.12-2.8-15.46-1.92-1.74-9.94-8.08-12.69-4.92-.35,0-.7,.02-1.06,.05-.76,.07-.97,1.14-.19,1.37,.29,.09,.58,.18,.87,.26,.14,.3,.39,.55,.75,.61,.39,.07,.75,.15,1.11,.23,1.9,1.96,3.77,3.92,5.49,6.01,.89,3.05,1.24,6.27-.85,8.97-1.86,2.4-6.75,4-9.79,3.93-.62-.01-1.13,.76-.75,1.31Z"/><path class="cls-1" d="M101.22,70.02c1.71-4.5,8.13-11.79,13.31-7.97,.15,.02,.3,.03,.45,.07,.51,.11,.54,.81,.14,1.07-1.74,1.1-3.6,1.81-5.01,3.39-2.15,2.4-3.09,6.09-2.48,9.22,.96,4.93,4.74,6.36,8.11,8.82,1.86,.3,3.53,0,5.51-.57,.09-.03,.18-.02,.28,0,.11-.09,.24-.15,.38-.16,.39-.24,1.03,.03,1.01,.55-.02,.52-.15,1.03-.16,1.56,0,.1,0,.2,0,.29,.19,.29,.21,.69,0,.97,0,.07,0,.14-.02,.21-.04,.17-.12,.29-.23,.37,.06,.16,.1,.33,.17,.49,.15,.41-.17,.87-.56,.99-2.37,.71-6.16,1.51-9.03,.69-2.71-.23-5.47-1.82-7.53-3.76-4.58-3.17-6.17-11.43-4.34-16.24Z"/><path class="cls-6" d="M123.25,83.64c.67-2.71,3.31-4.15,5.7-5.16,5.09-2.16,11.54-2.21,15.49,1.82,2.3,1.92,3.63,5.02,3.47,8.35-.05,.94-1.36,1.14-1.64,.22-.08-.26-.19-.52-.32-.76h-.01c-1.04-.98-2.21-1.8-3.41-2.58-.09,.05-.17,.1-.24,.16l-.03,.06c.04,1.46,0,2.89-.12,4.34v.04c.04,.18,.01,.32-.03,.45,0,.1,0,.2-.02,.3-.07,.72-1.04,.9-1.28,.17-.4-1.23-1.03-2.3-1.77-3.29-.8-.81-1.56-1.65-2.29-2.52-.23,1.79-1.04,3.58-1.45,5.34,.18,.65,.37,1.3,.54,1.95,.31,1.16-1.27,1.8-1.9,.8-.9-1.43-1.83-2.84-2.76-4.24,.05,1.17,0,2.36,.04,3.41,.03,1.21-1.49,1.43-2.1,.57-.48-.68-.89-1.36-1.27-2.05-.3,1.03-.58,2.06-.74,3.08-.03,.21-.13,.36-.25,.48,.04,.21,.08,.41,.13,.61,.19,.83-.97,1.39-1.41,.6-1.14-2.07-3.1-4.88-2.35-7.43-.28-1.57-.34-3.16,.05-4.72Z"/><path class="cls-5" d="M17.91,117.19c.19-.56,.4-1.13,.62-1.71,.12-1.19,.97-2.48,1.63-3.35,.56-.88,1.23-1.65,2.04-2.27,.52-.77,1.52-1.36,2.18-1.83,1.1-.79,1.96-.52,3.07-.31,.31-.14,.61-.31,.93-.4,.26-.07,.49,0,.66,.13,.16-.23,.32-.45,.5-.66,.32-.85,.85-1.65,1.34-2.35,.62-.89,1.32-1.98,2.36-2.4,2.06-2.79,4.8-5.07,8.46-6.55,4.48-1.81,10.54-2.81,15.56-1.45,1.12-.38,2.61,.09,3.67,.42,.5,.16,1,.34,1.5,.54,.17,0,.33-.01,.5,0,2.93,.07,5.67,.88,8.37,1.86,6.85,.67,13.76,1.24,20.54-.3,6.37-1.44,12.49-3.87,18.73-5.78,.5-.5,1.34-.34,1.83,.07,1.58,.26,3.79-.28,5.35-.03,.73,.12,.53,1.08,0,1.29-1.65,.67-4.19,1.51-6.16,1.27-.1,.04-.21,.09-.31,.13-.01,0-.01,.02-.03,.03-2.47,1.94-1.43,7.24,1.96,7.06,1.5-.08,2.78-.66,4.1-1.38,1.4-.77,2.62,.98,1.64,2.13-.33,.39-.61,.8-.87,1.21,.06,.14,.09,.3,.07,.49-.66,5.49-1.39,10.84-2.58,16.25-.09,1.8-.13,3.61,.05,5.43,.2,2,.54,3.98,.85,5.97,1.44,2.8,3.35,5.41,5.52,7.64,1.48,1.52,4.48,2.79,5.31,4.74,.49,1.14-.11,3.03-.17,4.21-.1,2.05-.06,4.12-.08,6.17-.04,3.74,.05,7.49-.83,11.15-.01,.05-.03,.1-.05,.15,.06,2.28,.1,4.56,.05,6.84-.02,.88-.71,1.55-1.58,1.58-2.45,.09-4.89,.31-7.34,.49-.79,.06-1.57-.75-1.53-1.53,.24-4-.07-7.79-.55-11.76-.52-4.33-.18-8.88-1.96-12.95-.08-.18-.12-.36-.13-.53-.13-.15-.26-.31-.39-.46-.73,.18-1.26,.79-1.64,1.65-.46,3.51-.33,7.24-.79,10.78,.11,3.26,.38,6.53,.27,9.79,.05,.27,.1,.54,.12,.84,.06,.88-.02,1.73-.16,2.6-.13,.81-.92,.98-1.52,.7-.05,0-.09,.01-.14,.01-2.55,0-5.25-.11-7.77,.24-.95,.13-1.8-.36-1.84-1.41-.26-6.75-.75-13.48-.61-20.25,.02-1.08-.07-2.69-.05-4.38-2.29,1.04-4.89,1.67-7.57,2.03-4.1,1.53-9,1.61-13.07,1.15-4.79-.54-10.27-1.85-14.9-4.08-.8-.12-1.57-.28-2.29-.49,.16,3.65-.62,7.41-.99,11.01-.11,1.12-.19,2.26-.26,3.4,.17,.19,.29,.45,.3,.79,.11,2.89-.11,5.76-.48,8.63-.09,.74-.1,1.73-.3,2.59-.01,.53-.03,1.05-.03,1.58,0,1.35-1.76,1.57-2.33,.67-.23,.05-.46,.04-.68-.05-2.48,.18-5.81-.83-7.44-1.06-.71-.1-1.09-1.01-.92-1.63,1.32-4.93,2.39-9.74,2.08-14.88-.21-3.63-.54-7.31-1.01-10.95-.47-.76-.98-1.48-1.66-2.11-.75-.68-1.23-.98-2.24-.48-.31,.15-.55,.38-.8,.6-2.01,9.08,.21,18.88-1.46,28.03-.19,1.05-1.79,1.48-2.47,.65-1.3-1.57-4.23-1.46-6.03-1.39-.47,.02-.81-.17-1.04-.45-.24-.01-.48-.04-.79-.12-.4-.1-.59-.45-.63-.83-.27-2.26,.1-5.05,.37-7.34,.25-2.17,.42-4.24,.53-6.32-.25-6.23-1.58-12.38-2.81-18.48-1.23-6.1-2.92-12.82-1.89-19.07-.02-.15-.05-.29-.07-.44-.22-1.83-.22-3.66-.27-5.5,0-.28,0-.56,.03-.84-.26,0-.48-.08-.68-.23-.75,.28-1.5,.56-2.24,.86-.71,.29-1.43,.7-2.17,.64-.32,.43-.63,.9-.99,1.32-.31,.98-.58,2.02-1.35,2.68-1.62,5.39-1.22,11.63-2.14,17.02-.13,.76-1.42,.59-1.35-.18,.47-5.37-.46-11.41,1.3-16.55Z"/><path class="cls-5" d="M108.89,97.48s0,.04,0,.06c.19,2.21,1.43,2.85,3.03,2.74,2.19,.74,4.91,.16,6.82-1.26-.92,3.53-1.81,7.08-2.48,10.66-.87,4.7-.62,9.3-.86,14.04-.04,.91,1.07,1.21,1.67,.69,5.9-5.15,13.18-7.64,20.63-9.59,3.97-1.04,7.84-1.48,11.94-1.35,4.12,.12,9.07-.1,12.79,1.8,.88,.45,1.73-.45,1.31-1.31-3.41-7.06-7.11-13.76-11.06-20.46,1.48,1.31,3.28,2.36,5.05,2.91,1.19,.37,3.06,.78,4.44,.35,1.5-.13,2.73-.89,3.36-2.65,.84-2.37-.7-4.49-3.05-4.89-3.29-.56-6.6-.13-9.93-.37-.35-.1-.71-.2-1.07-.3-.34-.09-.63-.05-.87,.07-.16-.03-.32-.04-.48-.07-.12-.02-.23-.02-.33,0-.13-.08-.25-.16-.38-.24h0c-.41-.42-1.19-.41-1.44,.33-.2,.58-.28,1.16-.31,1.75-.38-.4-.76-.78-1.09-1.13-.88-.93-2.31-2.83-3.74-2.61-.12,.02-.2,.16-.2,.27,0,.24,.06,.48,.16,.71-.31,1.16-.16,2.52-.39,3.7-.19,.29-.4,.58-.61,.88-.61-1.02-1.43-1.99-2.07-2.9-.83-1.19-1.7-2.64-2.93-3.46-.2-.13-.53,.04-.5,.29,.03,.26,.09,.52,.15,.78-.48,1.56-.5,3.32-.77,4.92-.14,.8-.32,1.59-.42,2.38-.49-.32-.96-.72-1.37-1.14-.94-.96-1.69-2.16-2.44-3.28-.13-.2-.53-.15-.5,.14,.05,.42,.14,.81,.26,1.19-.14,.95-.13,1.92-.29,2.87-.06,.02-.12,.03-.19,.04-.32,.04-.62-.03-.93-.09-.16-.23-.32-.45-.46-.67-.32-.52-.72-1.4-1.37-1.54-.1-.02-.22,.01-.27,.11-.15,.29-.13,.61-.04,.94-.33,.95-.64,1.91-.95,2.87-.14,.43-.32,.88-.47,1.33-.68-.82-1.3-1.6-1.71-2.74-.4-1.12-.4-2.57-1.31-3.41-.02-.02-.04-.02-.06-.03,0-.13-.01-.26-.02-.38-.07-.65-.66-1.05-1.28-.74-.76,.38-1.69,.82-2.23,1.52-.04,.06-.09,.15-.13,.25-.03,0-.05,.01-.08,.02-.54,.22-1.1,.42-1.65,.61-1.59,.26-3.15,.65-4.7,1.11-1.17,.34-2.76,.57-3.69,1.42-.88,.8-.89,1.88-.5,2.86Z"/><path class="cls-3" d="M62.84,150.03c-.35-.81-.52-1.74-.88-2.52-.34-.73,.51-1.47,1.14-.88,.05,.05,.09,.11,.14,.16,.14-.03,.3-.03,.47,0,4.62,.71,8.36,3.16,13.25,3.29,3.36,.09,7.85-1.15,11,.1,.04,.02,.08,.04,.11,.07,.18-.09,.35-.18,.54-.26,.28-.12,.48,.21,.45,.45-.11,.66-.37,1.29-.71,1.88-.35,2.33-1.84,4.17-3.8,5.55,.6,1.02,1.17,2.06,1.79,3.06,.86,1.37,1.04,2.38,1.02,3.99-.02,1.19-1.43,1.39-2.06,.56-1.38-1.82-2.89-3.81-3.86-5.95-1.22,.5-2.48,.85-3.7,1.09,.47,1.89,.59,3.85,.95,5.79,0,.04,0,.09,.01,.13,0,.05,.02,.1,.03,.15h-.01s0,.08-.01,.12c0,.32-.05,.65-.2,.98-.13,.29-.53,.51-.85,.49-1.58-.09-2.03-2.34-2.41-3.59-.33-1.09-.72-2.46-.86-3.78-.97-.07-1.94-.28-2.87-.62,.06,.55,.09,1.1,.15,1.65,.16,1.51,.31,3.05,.03,4.55-.25,1.32-2.1,1.11-2.44,0h-.01s0-.04,0-.05c-.02-.09-.04-.18-.04-.28,0-.07,0-.15,0-.22-.02-.24-.04-.49-.05-.74-.18-1.98-.7-4.33-.33-6.27-.49-.33-.96-.71-1.41-1.1-.03,.03-.05,.06-.08,.09-.12,.12-.24,.24-.37,.37-.23,.81-.53,1.6-.83,2.33-.46,1.09-1.24,2.76-2.69,2.32-.55-.17-.92-.66-.93-1.23-.03-1.21,.7-2.5,1.16-3.58,.39-.92,.88-1.91,1.63-2.6-.96-1.35-1.66-2.87-1.97-4.46-.15-.33-.32-.66-.46-.99Z"/><path class="cls-3" d="M115.79,126.34c.39-2.06,3.27-3.28,4.86-4.27,5.03-3.13,10.72-5.23,16.64-6.44,8.25-2.87,17.36-2.97,25.98-.2,.41,.13,.59,.52,.49,.91,1.3,1.74,.41,4.8,.02,6.77-.56,2.8-1.55,5.61-2.89,8.14-5.64,10.6-20.17,16.11-31.28,11.72-5.08-2.01-9.36-5.8-11.93-10.65-.83-1.57-2.24-4.1-1.88-5.97Z"/><g><path class="cls-7" d="M144.94,97.47s.07-.07,.11-.09c.13-.27,.33-.49,.61-.6,.47-.19,.82,.22,1.04,.61,.32,.21,.5,.71,.43,1.13-.05,.28-.2,.52-.41,.69-.09,.11-.2,.21-.35,.28-.14,.07-.3,.09-.45,.09-.27,.05-.54,.01-.77-.18-.13-.11-.23-.25-.31-.4-.21,.03-.47-.07-.51-.3-.09-.52,.21-1,.62-1.23Z"/><path class="cls-7" d="M124.12,99.99c.12-.35,.36-.57,.64-.68,.1-.11,.24-.17,.4-.13,.05,.01,.09,.03,.14,.05,.02,0,.04,0,.06,0,.06-.04,.11-.09,.17-.12,.97-.45,1.57,.78,1.36,1.58-.11,.41-.38,.79-.73,1.02,0,.05,0,.09-.02,.14-.04,.23-.29,.32-.49,.29-.23-.04-.44-.13-.63-.27-.03,0-.06-.01-.09-.02-.7-.29-1.06-1.17-.82-1.87Z"/><path class="cls-7" d="M151.29,126.29s-.01-.07-.01-.1c-.03-.35,.45-.6,.72-.38,.22-.1,.46-.18,.71-.23,.69-.16,1.4-.14,2.1-.15,1.03-.02,2.12-.15,3.12,.12,.19,.05,.19,.31,0,.38-.75,.26-3.16,.06-4.75,.4,.01,.06,.01,.13,0,.21-.27,.91-.96,1.43-1.91,1.37-.23-.01-.47-.18-.46-.44,.03-.5,.22-.87,.5-1.16Z"/><path class="cls-7" d="M121.8,131.35c1.26-.66,2.31-1.21,3.75-1.37,.52-.06,1.04-.08,1.57-.08-.17,.14-.32,.31-.44,.52-.13,.23-.04,.49,.17,.62,.81,.51,1.96,.81,2.58-.14,.48-.74,.18-1.58-.65-1.83-1.2-.36-3.02-.07-4.22,.2-1.15,.26-2.4,.77-2.98,1.86-.08,.15,.09,.3,.23,.22Z"/><path class="cls-7" d="M11.24,143.24c.98-.94,1.97-1.87,2.95-2.81-.52,1.12-.97,2.27-1.35,3.45-.16,.52,.61,.8,.86,.35,.36-.64,.7-1.3,1.02-1.96-.13,.79-.25,1.59-.35,2.39-.05,.39,.42,.78,.74,.41,.89-1.03,1.49-2.24,1.62-3.61,.07-.68,.17-1.94-.39-2.48,2.49-3.82,2.47-8.41,2.47-12.88,0-5.52,1.3-14.2,8.44-14.02-.07,.32-.13,.65-.19,.97-1.31,7.46,.03,14.96,1.49,22.29,1.71,8.65,2.93,17.21,2.46,26.05-.13,2.52-.38,5.03-.74,7.53-.24,1.66-.91,3.55-.79,5.23,.08,1.17,.69,1.87,1.75,2.26,1.71,.64,3.74,.92,5.54,1.26,2.7,.52,4.81-.19,5.65-2.97,1.06-3.52,.93-7.69,1.2-11.33,.32-4.32,.55-8.65,.68-12.99,.04-1.31,.07-2.63,.09-3.94,0-.27-.09-1.06,.02-1.33v-.13c-.01-.74,.62-1.45,1.38-1.43,.59,.02,1.03,.33,1.26,.8h.03c.13,.3,.27,.6,.4,.9,.7,1.98,.87,4.28,1.08,6.36,.87,8.79-.37,17.61-1.6,26.29-.06,.43,.18,.75,.61,.78,2.07,.15,4.14,.31,6.22,.46,1.4,.1,3.22,.55,4.56-.08,2.35-1.11,1.66-5.49,1.76-7.54,.39-7.82,.81-15.64,1.21-23.46,.68,2.68,1.7,5.38,3.13,7.75-1.22,1.17-2.07,2.63-2.35,4.31-.18,1.06-.33,2.74,.89,3.26,2.22,.95,4.1-2.26,3.9-4.42,.48,.43,1,.82,1.55,1.15-.22,1.76-.16,3.56,.11,5.31,.16,1.04,.31,2.59,1.69,2.62,2.69,.05,2.38-4.49,1.64-6.57,.78,.18,1.58,.3,2.37,.36,.12,1.58,.44,3.31,.96,4.74,.36,.97,1.11,2.15,2.26,2.26,2.83,.26,1.25-5.5,.41-7.2,1.32-.25,2.63-.68,3.87-1.27,.34,.85,.76,1.66,1.15,2.49,.45,.96,.84,2.05,1.45,2.93,.61,.89,1.78,1.57,2.79,.88,2.59-1.76-.77-6.83-2.35-8.15,2.69-2.1,4.66-5.04,4.97-8.45,.47-.07,.95-.14,1.42-.22,1.87-.34,5.62-.83,7.31-2.43-.14,7.09-.21,14.18-.19,21.27,0,1.76-.02,3.53,.03,5.29,.03,1.03,.06,2.17,.65,3.07,1.19,1.81,4.21,1.77,6.11,1.84,1.7,.07,4.85,.47,5.76-1.49,.47-1,.36-2.54,.42-3.59,.1-1.85,.13-3.7,.13-5.55-.02-7.16-.6-14.36,.37-21.48,2.21,1.3,2.26,4.7,2.49,6.96,.27,2.64,.48,5.29,.63,7.95,.3,5.44,.32,10.89,.12,16.34,0,.22,.18,.48,.4,.51,1.87,.31,3.74,.49,5.63,.46,1.2-.01,2.92,.14,3.9-.75,.99-.9,.97-2.56,1.12-3.77,.24-1.89,.46-3.79,.65-5.69,.86-8.43,1.3-16.94,1.03-25.42,2.03,.88,4.19,1.49,6.39,1.77,8.5,1.09,17.15-2.44,23.39-8.13,6.01-5.47,8.31-13.33,6.94-21.21,.2-.05,.25-.34,.01-.43-.03-.01-.07-.02-.1-.03-.05-.28-.1-.56-.16-.83-.97-4.33-3.14-8.15-5.51-11.85-1.75-2.74-3.53-5.46-5.32-8.18,1.95,1.49,4.54,2.62,6.68,2.97,2.2,.35,4.67-.33,5.92-2.31,1.21-1.9,.52-4.14-1.18-5.47-.9-.7-2.05-1.1-3.25-1.24,.71-.34,1.39-.75,2-1.25,3.8-3.12,5.29-8.58,4.66-13.34-.65-4.92-3.58-9.19-7.75-11.8-3.43-2.15-8.92-4.03-12.42-1.12-.26,.22-.18,.74,.13,.88,4.79,2.05,9.75,5.63,9.76,11.4,0,2.95-1.51,5.43-4.14,6.75-1.93,.97-5.4,1.99-7.56,.93-.67-.85-1.48-1.59-2.42-2.18,.04-.2-.03-.41-.26-.54-5.9-3.24-14.09-2.59-19.16,1.98-.88,.79-1.41,1.72-1.71,2.73-5.66,2.4-12.33,.25-14.21-6.09-1.76-5.94,2.19-11.77,8.04-13.12,.41-.1,.56-.69,.24-.97-4.04-3.5-9.75-2.25-13.2,1.45-3.42,3.67-4.67,8.93-3.81,13.82,1.06,6.04,5.31,10.45,10.54,12.31-4.15,1.17-8.26,2.44-12.39,3.69-4.81,1.46-9.6,2.78-14.67,2.83-9.43,.1-18.5-3.03-27.88-3.54-6.44-.35-13.33,.46-18.81,4.12-3.69,2.46-6.27,6.05-7.88,10.08-5.52-1.4-10.14,4.02-11.44,8.88-1.91,7.13,.34,14.58-1.78,21.66l-.05,.05c.04-.41-.51-.78-.92-.43-.96,.81-2.08,1.36-3.33,1.51-.8,.09-.62,1.22,.16,1.08,.37-.07,.73-.15,1.08-.26-.7,.87-1.34,1.78-1.94,2.74-.32,.52,.41,1,.81,.61Zm111.33-54.54c-.14-.05-.29-.05-.45,.02-8.22,3.73-18.36-.6-20.88-9.41-1.2-4.2-.68-8.93,1.72-12.61,2.6-3.98,7.89-6.62,12.12-3.87-6,2.03-9.7,8.54-7.46,14.78,2.12,5.91,9.3,9.2,14.83,6.17-.26,1.57-.08,3.28,.12,4.92Zm24.56,.47c-1.23-1.7-2.82-2.99-4.79-3.85-.39-.17-.85,.13-.73,.58,.49,1.84,.42,3.56-.19,5.29-1.37-2.19-2.94-4.22-4.73-6.1-.19-.2-.59-.11-.64,.18-.39,2.62-.8,5.23-1.2,7.84-1.45-1.4-2.62-3-3.46-4.86-.18-.39-.72-.14-.73,.21-.05,.98,.25,3.15-.2,4.02-.73,1.43-1.91-1.31-2.34-2.1-.16-.3-.68-.23-.74,.11-.33,1.82-.69,3.63-1.04,5.45-1.93-1.96-2.6-4.62-2.85-7.34-.11-1.17-.18-2.39-.15-3.57,.02-.8,.15-1.48,.38-2.08,.04-.05,.07-.11,.07-.17,.43-1.01,1.17-1.8,2.25-2.58,4.98-3.57,11.49-3.71,16.91-1.15,.68,.46,1.29,.98,1.82,1.56-.09,.17-.08,.38,.1,.57,.25,.26,.54,.47,.85,.64,1.41,2.09,1.97,4.67,1.41,7.35Zm5.05,2.97c-.14-.13-.29-.14-.41-.1-.71-1.07-1.42-2.15-2.14-3.21,2.69,.69,5.82,1.04,8.7,.55,1.7-.09,3.36-.43,5.04,.41,2.63,1.32,3.08,4.53,.45,6.1-3.65,2.18-8.97-1.26-11.64-3.76Zm11.07,22.81c-7.58-2.38-16.33-2.13-24.02-.73-8.38,1.53-16.39,4.93-23.28,9.96-.54-8.37,2.31-16.48,3.03-24.76,0-.07,0-.14-.02-.19,2.31-1.61,4.16-4.34,4.16-7.15,0-.55-.76-.59-.91-.11-.97,3.01-2.09,5.58-5.1,7.07-2.28,1.12-8.1,1.99-8.16-1.99-.05-3.41,5.41-3.61,7.81-4.36,1.37-.42,2.84-1.06,3.82-2.15,.72-.21,1.44-.47,2.14-.79,.41,2.83,1.32,5.51,3.6,7.38,.23,.19,.65,.14,.72-.2,.31-1.68,.61-3.35,.93-5.03,.68,1.34,1.84,3.28,2.91,2.64,.44-.27,.39-.88,.42-1.32,.09-1.05,.1-2.12,.12-3.19,.9,1.61,2.02,3.02,3.44,4.25,.21,.18,.64,.14,.69-.2,.37-2.61,.75-5.23,1.14-7.84,1.71,1.93,3.17,4.01,4.41,6.27,.17,.31,.68,.31,.84-.01,.9-1.89,1.18-3.82,.86-5.82,1.71,.94,3.09,2.27,4.11,4.01,.24,.4,.81,.27,.94-.14,.92-2.85,.61-5.81-.68-8.24,1.96,.35,4.32-.3,5.97-.92,2.67-1.02,4.81-2.99,5.54-5.82,1.72-6.65-3.65-11.78-9.12-14.38,3.66-2.09,9.37,.79,12.19,3.16,3.22,2.7,5.24,6.61,5.45,10.83,.22,4.43-1.49,9.41-5.38,11.85-3.85,2.41-8.42,1.28-12.63,1.04-.26-.01-.36,.24-.3,.44-.11,.1-.16,.25-.06,.41,2.79,4.6,5.74,9.11,8.65,13.64,2.49,3.88,4.81,7.86,5.78,12.41Zm-47.16,10.82s0-.09-.01-.13c.03-.02,.06-.02,.09-.04,6.76-5.01,14.48-8.5,22.72-10.21,4.24-.88,8.57-1.27,12.9-1.17,3.94,.09,7.74,.76,11.6,1.42,1.6,8.76-1.67,16.78-8.71,22.16-6.58,5.03-15.34,7.67-23.48,5.41-8.22-2.28-14.11-8.91-15.11-17.44Zm-33.61,34.24c.78-.42,1.52-.89,2.21-1.43,.74,2,3.07,4.38,2.34,6.64-.48,1.5-2.06,.03-2.5-.87-.27-.55-.52-1.11-.78-1.67-.42-.89-.8-1.81-1.27-2.68Zm-7.44,1.87s.07,0,.11,0c.84,.01,1.69-.06,2.54-.21,.09,1.17,.37,2.32,.47,3.49,.01,.17,.03,.35,.04,.52,.03,.05,.06,.08,.08,.14,.17,.55,.21,1.21-.12,1.69h0c-.07,.1-.14,.19-.24,.27-.53,.42-1.15,.17-1.5-.34-.25-.36-.41-.79-.54-1.23-.52-1.33-.56-2.92-.84-4.34Zm-5.9,3.61c0-.11,.03-.19,.06-.28-.11-.8-.08-1.72-.1-2.37-.02-.78,.02-1.56,.06-2.34,.73,.36,1.51,.65,2.3,.86,.07,.89,.22,1.77,.19,2.68-.01,.48,.02,1.08-.13,1.54-.05,.48-.27,.93-.7,1.21-.37,.24-.83,.25-1.19-.01-.41-.3-.5-.81-.5-1.29Zm-4.21-8.95c.33,.5,.67,.98,1.03,1.44,.1,.13,.21,.24,.32,.36-.15,.87-.14,1.73-.54,2.58-.45,.97-2.31,2.95-2.9,.7-.45-1.73,.84-3.87,2.08-5.08Zm-2.63-9.51c6.2,2.38,12.77,3.63,19.41,3.63,2.41,0,4.82-.17,7.21-.5-.98,2.65-2.14,5.08-4.33,7.05-2.67,2.4-6.23,3.61-9.8,3.46-4.07-.18-7.13-1.91-9.2-5.41-1.53-2.58-2.59-5.35-3.29-8.24ZM28.84,111.26c1.8-7.26,6.51-12.98,13.69-15.34,6.96-2.29,14.46-1.54,21.55-.33,8,1.37,16.14,3.29,24.28,1.98,4-.64,7.86-1.96,11.72-3.19,3.86-1.22,7.72-2.43,11.55-3.75,2.09,.55,4.31,.72,6.51,.42-1,.48-2.05,.85-3.25,1.12-1.76,.41-3.76,.66-5.29,1.7-1.99,1.35-2.25,4.38-.42,6,2.22,1.96,6.22,1.25,8.65,.02-1.41,5.44-2.25,11.29-2.88,16.85-.58,5.13-.59,10.49,1.41,15.34,2.01,4.89,5.94,8.66,10.63,10.91-.09,6.75-.27,13.49-.81,20.23-.25,3.16-.59,6.31-.98,9.45-1.32-.29-2.77,.08-4.13,0-1.73-.1-3.23-.66-4.87-1.04,0-1.34,0-2.69-.04-4.03-.08-3.32-.26-6.64-.54-9.95-.3-3.63,.12-10.41-4.11-12.03-.21-.08-.52,.1-.55,.33-.76,5.56-.7,11.14-.59,16.73,.06,2.91,.12,5.82,.03,8.73,0,.18-.02,.36-.02,.54-1.61-.24-3.25,.04-4.88,.08-1.9,.04-3.79-.05-5.68-.25-.23-.03-.38,.09-.45,.24-.02-2.62-.03-5.24-.03-7.86,0-5.87,.07-11.73,.19-17.59-.12-.02-.24-.04-.36-.09-.06-.02-.28-.14-.38-.22-.05,.02-.11,.03-.16,.05-.14,.05-.1,.03-.12,.05,0,.04,0,.07,0,.11-.12,.02-.23,.04-.35,.07l-.05,.02c-.19,.1-.4,.15-.6,.17-.83,.3-1.64,.76-2.47,1.01-1.37,.42-2.78,.71-4.19,.96-.32,.05-.63,.09-.95,.14-.19,.08-.4,.11-.62,.09-2.75,.38-5.54,.56-8.31,.51-6.44-.12-12.8-1.46-18.79-3.82-.08-.03-.15-.04-.22-.04,0-.02-.02-.03-.03-.05-.16-.01-.32-.03-.48-.05h-.08c-.1-.02-.2-.03-.31-.03-.03,.02-.06,.03-.08,.06-.33-.05-.73,.13-.75,.57-.36,7-.73,14.01-1.09,21.01-.09,1.75-.18,3.5-.28,5.25,0,.17-.01,.37-.01,.58-1.38-.42-3.01-.14-4.44-.24-1.81-.12-3.58-.59-5.38-.69h0c.93-7.29,1.54-14.65,.6-21.95-.31-2.4-.4-7.16-3.45-7.82-3.36-.73-3.01,3.82-3.06,5.82-.1,4.2-.29,8.4-.57,12.6-.23,3.47-.31,7.12-.81,10.61-1.55-.46-3.36-.04-4.98-.35-1.71-.32-3.18-1.11-4.81-1.68-.14-.05-.27,.01-.36,.11,.5-3.41,.8-6.85,.89-10.29,.21-8.18-1.03-16.1-2.62-24.09-1.54-7.78-2.98-15.83-1.03-23.68Zm-11.55,23.43c.62-4.36,.04-8.91,.23-13.31,.28-6.48,3.54-13.88,10.97-13.56-.42,1.1-.76,2.22-1.04,3.37-4.79-.32-8.14,4.12-9.03,8.47-.99,4.81,.19,10.28-1.12,15.02Zm-1.75,8.07c.13-.8,.26-1.6,.41-2.4,0,.13,0,.23,0,.29,0,.44-.06,.88-.16,1.31-.06,.28-.15,.54-.26,.8Z"/></g></g></g></svg>