<?xml version="1.0" encoding="UTF-8"?><svg id="Layer_2" xmlns="http://www.w3.org/2000/svg" width="178.58" height="249.45" viewBox="0 0 178.58 249.45"><defs><style>.cls-1{fill:#fff;}.cls-2{fill:#ffe9ed;}.cls-3{fill:#fceef4;}.cls-4{fill:#cadae8;}.cls-5{fill:#231f20;}</style></defs><g id="cartes-couleurs"><g id="card-bg"><rect id="bg" class="cls-1" width="178.58" height="249.45" rx="8.5" ry="8.5"/><path id="fg" class="cls-3" d="M171.5,58.26V10.09c0-1.66-1.35-3.01-3.01-3.01H10.09c-1.66,0-3,1.35-3,3.01V239.35c0,1.66,1.34,3.01,3,3.01H168.49c1.66,0,3.01-1.35,3.01-3.01V91.4m0-.01V58.29M29.01,44.95s.01-.03,.02-.04c-.01,.02-.02,.04-.02,.06"/></g></g><g id="cartes"><g id="elephant"><path class="cls-4" d="M166.76,150.48c.24-.29-.08-.82-.37-.58-1.46,1.19-3.15,2.13-4.94,1.57-.1-.03-.18,0-.24,.05-1.62-.57-3-2.02-4.23-3.4-1.53-1.7-2.81-3.67-3.85-5.84-1.91-3.99-2.97-8.46-3.87-12.91-.86-4.21-1.58-8.48-2.73-12.59-1.43-5.08-3.11-10.31-5.12-15.09-3.41-8.13-12.21-11.12-19.03-12.6-9.2-2-18.77-1.48-27.81-4.56-4.56-1.56-8.65-4.16-12.82-6.82-3.34-2.13-6.71-3.58-10.48-4.05-7.76-.99-15.97,.71-22.6,5.8-3.49,2.68-6.27,5.89-8.79,9.83-2.75,4.31-5.97,7.93-9.33,11.55-6.03,6.49-13.36,13.1-15.79,22.84-1.87,7.51-1.18,19.03,5.1,23.42,3.14,2.2,7.23,1.75,10.48,.14,1.85-.91,3.44-2.33,4.6-4.3,1.26-2.14,2-4.65,3.1-6.9h0c-.09-.02-.18-.03-.27-.04,.39-.27,.58-.71,.34-1.4-.63-1.83-3.6-2.59-4.98-2.84-1.12-.2-2.46-.27-3.58-.03-.77,.17-1.05,.55-1.43,1.18-.08,.04-.15,.13-.17,.23l-.03,.15s0,.06,0,.09c-.1,.16-.11,.39,.08,.51,1.46,.87,2.24,3.42,1.73,5.28-.68,2.5-3.09,2.26-4.68,1.35-2.79-1.6-4.33-5.37-4.14-9.01,.39-7.65,6.19-12.78,11.88-14.51,5.13-1.55,10.78-.75,15.4,2.4,2.34,1.6,4.39,3.8,5.9,6.49,1.8,3.21,2.62,6.97,3.29,10.71,.88,4.89,1.29,9.88,1.67,14.86,.3,3.91,.06,7.69-.02,11.61-.06,3.32,.11,6.89,1.69,9.73,.02,.04,.05,.07,.07,.11,0,.15,.09,.27,.21,.32,1.47,2.33,3.67,3.53,6.08,3.76,2.08,.2,4.51-.02,6.02-1.98,1.78-2.3,2.01-5.99,1.93-8.96-.05-2.01-.47-4.21-.2-6.2,.3-2.22,2.21-5.38,3.86-2.37,1.35,2.46,.64,6.57,.59,9.34-.04,2.38,.08,5.54,1.61,7.29,1.64,1.88,4.63,2.24,6.77,1.95,2.3-.31,4.75-1.57,5.65-4.34,.62-1.92,.53-4.09,.45-6.11-.1-2.42-.1-4.7,.16-7.07-.02-.07-.04-.16-.05-.23,.45-2.55,3.18-2.75,4.95-2.62,2.2,.16,4.22,1.16,5.16,3.72,1.56,4.22,.35,9.13,1.61,13.43,1.2,4.12,5.31,4.97,8.51,4.65,1.8-.18,3.46-.91,4.25-2.99,.69-1.83,.71-4,.74-5.97,.06-3.54-.16-8.15,1.63-10.93,.09,.02,.18,0,.25-.11,.56-.85,1.95-.87,2.77-.73,1.39,.23,1.86,1.51,2.21,2.99,.61,2.57,.5,5.3,.61,7.95,.16,3.66,.91,7.25,3.88,8.94,2.64,1.5,6.24,1.6,8.65-.58,3.01-2.72,2.98-7.23,3.48-11.3,0-.06,0-.12,0-.17,.1-1.6,0-3.23-.08-4.79-.22-4.54-.58-9.11-.49-13.66,.07-3.29-.38-6.79,.25-10.02,.15-.74,.43-2.05,1.2-2.24,.79-.2,1.39,.86,1.75,1.53,.64,1.16,1.09,2.46,1.58,3.72,1.48,3.74,3.53,7.69,6.03,10.56,1.07,1.23,2.34,2.43,3.78,2.91,1.33,.44,2.71,.17,4.07,.01,0,.05-.01,.09,0,.14,.41,1.78,.98,3.55,.98,5.42,0,.48,.62,.48,.62,0,0-1.71-.45-3.32-.85-4.95,.05,.03,.1,.07,.15,.1,.84,1.2,1.69,2.39,2.41,3.7,.19,.34,.66,.14,.56-.29-.27-1.2-1.01-2.58-1.94-3.49,.24,.09,.47,.18,.71,.27,.86,.48,1.71,.96,2.67,1.12,.38,.06,.55-.56,.16-.72-.89-.37-1.77-.76-2.67-1.12-.2-.11-.39-.22-.59-.32,1.41-.26,2.74-.64,3.84-1.97ZM28.71,133.29c.95-1.19,2.53-1.02,3.85-.87,1.19,.13,4.21,.75,4.56,2.36,.38,.57,.31,.8-.2,.72-.22,.04-.45,.06-.67,.08-.36,.03-.72,.05-1.08,.04-.88,0-1.77-.11-2.63-.31-1.28-.3-2.89-.84-3.82-2.02Z"/><path class="cls-5" d="M57.2,98.63c-.35-.16-.64-.41-.91-.72,.27-.7,.48-1.46,.67-2.14,.13-.45-.47-.65-.59-.2-.48,1.72-1.03,4.38-3,3.94-.15-.03-.29-.09-.43-.15h-.02c-.52-.24-.9-.63-1.17-1.13,0-.11-.05-.21-.13-.27-.47-1.09-.51-2.54-.39-3.78,.05-.47-.57-.47-.62,0-.06,.61-.07,1.26-.02,1.89-.06,.04-.12,.1-.15,.21-.07,.23-.29,.34-.47,.24-.36-.19-.67,.45-.31,.64,.37,.2,.77,.14,1.05-.13,.08,.42,.19,.82,.34,1.19-.18,.25-.42,.45-.61,.69-.28,.34,.16,.87,.43,.53,.16-.2,.34-.38,.5-.57,.28,.46,.66,.83,1.11,1.08-.09,.32-.17,.64-.21,.98-.06,.47,.54,.67,.59,.2,.04-.32,.1-.64,.2-.95,.13,.04,.26,.08,.41,.1,.36,.04,.67,0,.95-.1,.07,.26,.16,.51,.27,.76,.19,.42,.72,.04,.53-.37-.1-.22-.17-.44-.23-.68,.41-.31,.73-.77,1-1.31,.31,.32,.65,.59,1.04,.77,.37,.17,.53-.55,.16-.72Z"/><path class="cls-5" d="M93.48,104.23c-2.77-4.96-7.07-8.15-11.3-11.04-2.3-1.57-4.92-2.77-6.9-4.91-.91-.99-2.11-3.03-3.37-3.36-.39-.1-.55,.61-.16,.72,1.15,.31,2.37,2.4,3.23,3.32,1.32,1.41,2.89,2.26,4.44,3.25,3.95,2.55,8.11,5.25,11.29,9.12,5.93,7.21,8.01,19.49,3.71,28.48-4.32,9.04-13.5,11.21-21.41,8.92-3.84-1.11-7.18-3.36-9.35-7.44-1.99-3.74-2.84-8.29-2.71-12.7,.25-8.79,4.85-19.57-1.41-26.88-.28-.33-.72,.19-.43,.53,6.57,7.67,.77,19.51,1.25,28.76,.22,4.23,1.33,8.48,3.47,11.88,2.31,3.65,5.58,5.62,9.22,6.63,7.35,2.05,15.99,.44,20.75-7.23,5.08-8.19,4.28-19.8-.32-28.04Z"/><path class="cls-5" d="M166.76,150.48c.24-.29-.08-.82-.37-.58-1.46,1.19-3.15,2.13-4.94,1.57-.1-.03-.18,0-.24,.05-1.62-.57-3-2.02-4.23-3.4-1.53-1.7-2.81-3.67-3.85-5.84-1.91-3.99-2.97-8.46-3.87-12.91-.86-4.21-1.58-8.48-2.73-12.59-1.43-5.08-3.11-10.31-5.12-15.09-3.41-8.13-12.21-11.12-19.03-12.6-9.2-2-18.77-1.48-27.81-4.56-4.56-1.56-8.65-4.16-12.82-6.82-3.34-2.13-6.71-3.58-10.48-4.05-7.76-.99-15.97,.71-22.6,5.8-3.49,2.68-6.27,5.89-8.79,9.83-2.75,4.31-5.97,7.93-9.33,11.55-6.03,6.49-13.36,13.1-15.79,22.84-1.87,7.51-1.18,19.03,5.1,23.42,3.14,2.2,7.23,1.75,10.48,.14,1.85-.91,3.44-2.33,4.6-4.3,1.26-2.14,2-4.65,3.1-6.9h0c-.09-.02-.18-.03-.27-.04,.39-.27,.58-.71,.34-1.4-.63-1.83-3.6-2.59-4.98-2.84-1.12-.2-2.46-.27-3.58-.03-.77,.17-1.05,.55-1.43,1.18-.08,.04-.15,.13-.17,.23l-.03,.15s0,.06,0,.09c-.1,.16-.11,.39,.08,.51,1.46,.87,2.24,3.42,1.73,5.28-.68,2.5-3.09,2.26-4.68,1.35-2.79-1.6-4.33-5.37-4.14-9.01,.39-7.65,6.19-12.78,11.88-14.51,5.13-1.55,10.78-.75,15.4,2.4,2.34,1.6,4.39,3.8,5.9,6.49,1.8,3.21,2.62,6.97,3.29,10.71,.88,4.89,1.29,9.88,1.67,14.86,.3,3.91,.06,7.69-.02,11.61-.06,3.32,.11,6.89,1.69,9.73,.02,.04,.05,.07,.07,.11,0,.15,.09,.27,.21,.32,1.47,2.33,3.67,3.53,6.08,3.76,2.08,.2,4.51-.02,6.02-1.98,1.78-2.3,2.01-5.99,1.93-8.96-.05-2.01-.47-4.21-.2-6.2,.3-2.22,2.21-5.38,3.86-2.37,1.35,2.46,.64,6.57,.59,9.34-.04,2.38,.08,5.54,1.61,7.29,1.64,1.88,4.63,2.24,6.77,1.95,2.3-.31,4.75-1.57,5.65-4.34,.62-1.92,.53-4.09,.45-6.11-.1-2.42-.1-4.7,.16-7.07-.02-.07-.04-.16-.05-.23,.45-2.55,3.18-2.75,4.95-2.62,2.2,.16,4.22,1.16,5.16,3.72,1.56,4.22,.35,9.13,1.61,13.43,1.2,4.12,5.31,4.97,8.51,4.65,1.8-.18,3.46-.91,4.25-2.99,.69-1.83,.71-4,.74-5.97,.06-3.54-.16-8.15,1.63-10.93,.09,.02,.18,0,.25-.11,.56-.85,1.95-.87,2.77-.73,1.39,.23,1.86,1.51,2.21,2.99,.61,2.57,.5,5.3,.61,7.95,.16,3.66,.91,7.25,3.88,8.94,2.64,1.5,6.24,1.6,8.65-.58,3.01-2.72,2.98-7.23,3.48-11.3,0-.06,0-.12,0-.17,.1-1.6,0-3.23-.08-4.79-.22-4.54-.58-9.11-.49-13.66,.07-3.29-.38-6.79,.25-10.02,.15-.74,.43-2.05,1.2-2.24,.79-.2,1.39,.86,1.75,1.53,.64,1.16,1.09,2.46,1.58,3.72,1.48,3.74,3.53,7.69,6.03,10.56,1.07,1.23,2.34,2.43,3.78,2.91,1.33,.44,2.71,.17,4.07,.01,0,.05-.01,.09,0,.14,.41,1.78,.98,3.55,.98,5.42,0,.48,.62,.48,.62,0,0-1.71-.45-3.32-.85-4.95,.05,.03,.1,.07,.15,.1,.84,1.2,1.69,2.39,2.41,3.7,.19,.34,.66,.14,.56-.29-.27-1.2-1.01-2.58-1.94-3.49,.24,.09,.47,.18,.71,.27,.86,.48,1.71,.96,2.67,1.12,.38,.06,.55-.56,.16-.72-.89-.37-1.77-.76-2.67-1.12-.2-.11-.39-.22-.59-.32,1.41-.26,2.74-.64,3.84-1.97ZM28.71,133.29c.95-1.19,2.53-1.02,3.85-.87,1.19,.13,4.21,.75,4.56,2.36,.38,.57,.31,.8-.2,.72-.22,.04-.45,.06-.67,.08-.36,.03-.72,.05-1.08,.04-.88,0-1.77-.11-2.63-.31-1.28-.3-2.89-.84-3.82-2.02Zm127.87,18.49c-1.76-.68-3.27-2.43-4.46-4.09-2.09-2.92-3.8-6.44-5.16-9.93-.57-1.47-1.53-4.55-3.17-4.68-1.71-.14-2.15,2.63-2.3,4.12-.3,2.95-.04,5.95-.1,8.91-.09,4.63,.28,9.28,.5,13.9,.08,1.68,.19,3.52,0,5.26-.03,.92-.12,1.83-.29,2.73-.17,1.35-.39,2.69-.76,3.9-.15,0-.31,.12-.32,.36,.02-.54,.29-.28,.03-.47-.22-.16-.49-.21-.74-.2-.55,.02-1.12,.42-1.53,.82-.82,.81-1.11,1.8-1.25,2.9-1.21-2.24-3.65-2.51-4.89-.3-.14-1.13-.53-2.13-1.55-2.61-.88-.42-1.8-.17-2.33,.69-.35-.69-.62-1.46-.78-2.32-.77-4.2,.37-9.33-1.57-13.18-.94-1.86-4.1-2.47-5.34-.69-.04-.04-.08-.07-.11-.11-1.2,1.65-1.72,3.99-1.88,6.46-.15,2.25-.05,4.52-.15,6.77-.05,1.06-.11,2.19-.36,3.24-1.59-.59-3.53,.45-4.08,2.31-.54-1.04-1.22-1.83-2.38-1.8-.95,.02-1.62,.56-2.1,1.41-.23-1.07-.61-2.19-1.54-2.48-.67-.2-1.22,.1-1.51,.73-.81-1.83-.82-4.16-.9-6.16-.18-4.03-.09-9.38-3.57-11.46-2.16-1.29-7.07-1.74-8.43,1.33l-.03-.11s-.07,.1-.08,.19c-.01,.08-.02,.16-.03,.25-.08,.23-.14,.48-.17,.74-.02,.11,0,.2,.05,.27-.2,1.74-.3,3.46-.24,5.23,.09,2.38,.4,4.93-.19,7.25,0,.03-.02,.06-.03,.1-1.71-1.4-3.49,.81-4,2.83-1.31-1.86-3.57-2.12-4.57-.05-.24-.97-.68-1.91-1.46-2.28-.86-.4-1.69,.04-2.16,.9-.56-1.29-.69-2.96-.75-4.34-.13-3.12,.48-6.35-.15-9.44-.39-1.94-2-4.22-3.75-2.82-2.37,1.9-1.77,5.96-1.63,8.78,.12,2.37,.14,5.48-.71,7.87-1.8-1.17-3.37,.72-4.13,2.67-.58-1.04-1.34-1.66-2.52-1.6-.84,.05-1.47,.43-1.85,1.19-.39-1.17-.69-2.51-1.69-3.09-.83-.48-1.7-.21-2.3,.51-.06-.1-.12-.2-.17-.3-1.87-3.81-1.38-8.69-1.2-12.92,.2-4.61-.22-9.17-.66-13.74-.74-7.66-1.66-16.36-6.18-22.26-6.96-9.1-20.7-10.36-28.36-1.78-4.22,4.73-6.47,13.79-1.29,18.84,1.67,1.63,4.75,2.94,6.4,.57,1.03-1.48,.96-3.78,.16-5.49,1.4,.78,3.11,1.07,4.46,1.17,.5,.04,1.92,.2,2.89-.08-1.86,3.99-3,8.08-6.77,10.12-3.37,1.83-7.78,2.27-10.93-.39-5.85-4.95-6.01-16.46-3.74-23.73,1.52-4.86,4.33-8.65,7.35-12.24,3.05-3.63,6.32-6.97,9.49-10.44,3.08-3.37,5.78-6.84,8.33-10.79,2.58-3.99,5.71-7.14,9.34-9.66,6.8-4.69,15.56-6.04,23.22-4.32,4.12,.93,7.6,3.44,11.26,5.75,3.54,2.24,7.27,4.05,11.16,5.19,8.59,2.52,17.56,2.18,26.24,4.06,4.01,.87,8.05,2.15,11.68,4.46,3.6,2.29,6.07,5.27,7.74,9.75,1.93,5.19,3.82,10.58,5.1,16.06,1.06,4.53,1.77,9.16,2.86,13.67,1.04,4.27,2.45,8.47,4.75,12,1.46,2.24,3.55,4.97,5.94,6.16-1.24,.16-2.48,.34-3.67-.12Z"/><path class="cls-2" d="M91.73,116.08c-.7-5.83-3.79-11.02-7.51-14.67-4.35-4.27-9-8.44-14.04-11.4-.21-.13-.42-.2-.63-.25-.03-.04-.06-.08-.09-.12-.13-.18-.26-.32-.4-.44-1.42-1.67-4.58-.05-4.13,3.05,.77,5.26,2.37,10.23,2.61,15.65,.22,4.97-.11,10.02,1.04,14.86,.9,3.79,2.58,7.37,5.75,8.84,2.88,1.34,6.52,1.2,9.37-.21,.83-.41,1.53-.91,2.1-1.5,.17-.08,.34-.16,.51-.25,4.19-2.19,6.04-8.42,5.42-13.58Z"/></g></g></svg>