<?xml version="1.0" encoding="UTF-8"?><svg id="Layer_2" xmlns="http://www.w3.org/2000/svg" width="178.58" height="249.45" viewBox="0 0 178.58 249.45"><defs><style>.cls-1{fill:#ef9f5e;}.cls-2{fill:#fff;}.cls-3{fill:#fceef4;}.cls-4{fill:#231f20;}</style></defs><g id="cartes-couleurs"><g id="card-bg"><rect id="bg" class="cls-2" width="178.58" height="249.45" rx="8.5" ry="8.5"/><path id="fg" class="cls-3" d="M171.5,58.26V10.09c0-1.66-1.35-3.01-3.01-3.01H10.09c-1.66,0-3,1.35-3,3.01V239.35c0,1.66,1.34,3.01,3,3.01H168.49c1.66,0,3.01-1.35,3.01-3.01V91.4m0-.01V58.29M29.01,44.95s.01-.03,.02-.04c-.01,.02-.02,.04-.02,.06"/></g></g><g id="cartes"><g id="fox"><path class="cls-1" d="M157.14,167.93c-.32-1.17-.97-2.93-2.08-3.74-1.75-5.25-8.95-8.12-13.69-9.89-3.87-1.44-7.85-1.7-11.85-2.57-3.13-.68-6.03-2.8-9.18-3.19-.43-.27-.87-.51-1.34-.72-.38-.17-.83-.14-1.21,.02-.08-.02-.16-.04-.24-.06-.39-.06-.85,.17-.82,.63,.05,.94,.59,1.65,1.26,2.26,.12,.13,.26,.24,.39,.36-.83-.37-1.79,.53-1.28,1.38,1.99,3.33,5,3.14,8.45,3.84,2.11,.43,4.06,1.25,5.85,2.46,1.07,.73,1.99,1.63,2.95,2.47,.48,1.67,1.8,2.94,2.61,4.54,.87,1.72,.43,4.56,2.26,5.67,1.89,1.15,3.17-.37,3.98-2.6,.29,1.23,.99,2.43,1.67,3.58,.74,1.27,2.53,.9,2.98-.39,.35-1,.74-1.99,1.15-2.97,.25,.59,.63,1.11,1.14,1.42,.37,1.14,1.12,2.12,2.21,2.46,1.07,.33,2.06-.4,2.41-1.37,.13-.36,.46-.57,.74-.8,.15-.12,.28-.24,.41-.38,.89-.36,1.53-1.36,1.25-2.4Z"/><path class="cls-1" d="M130.09,82.13c-.1-.09-.2-.17-.3-.26-.48-.41-1.23-.39-1.68,0-5.17,.66-9.79,1.84-14.68,4-2.67,1.18-5.24,2.52-7.83,3.86-1.32,.69-2.74,1.3-4.07,2.02-4.46-1.07-7.57,3.46-9.9,6.52-1.8,2.36-3.19,5.43-3.5,8.51-1.24,3.09-2.19,6.38-3.68,9.24-1.23,2.36-2.4,4.76-3.64,7.11-1.15,2.17-1.63,2.98-4.19,3.36-1.59,.24-2.22,.14-2.96-.26-1.3-6.33-4.46-12.81-7.39-18.32-2.51-4.73-6.68-13.29-12.58-14.43-6.28-3.91-13.21-7.85-20.66-7.46-2.06-.43-4.41-1.03-6.15-.62-.17,.04-.31,.13-.43,.25-.79-.2-1.6-.25-2.42-.11-.33,.06-.43,.47-.3,.73,.78,1.53,.72,1.19,2.2,2.15,.36,.24,.69,.49,1,.75,1.25,3.67,4.11,6.75,5.26,10.55,.61,2.03,1.2,4.17,1.36,6.28,.07,.95-.01,1.86-.16,2.76h0c-.98,1.96-3.01,3.85-3.49,5.95-.06,.28,.11,.5,.35,.56,.02,.04,.02,.08,.05,.13,.56,.89,1.46,.57,2.15,1.27,.74,.74,1.44,3.45,.45,4.24-.76,.6-.16,2.15,.83,2.01,1.94-.26,3.35,2.48,4.68,3.64,.19,.16,.38,.29,.57,.38,.44,1.31,.99,2.59,1.49,3.86-.49,3.04,.35,6.3,.21,9.38-.01,.27-.03,.54-.06,.81-1.18,6.01-1.99,12.29-1.78,18.3,.16,4.53,1.15,11.17,4.91,14.5,1.78,3.19,6.82,5.16,9.86,5.81,3.55,.77,8.3,1.07,11.92-.45,2.34,1.65,5.08,1.49,7.22,.21,.26-.07,.52-.17,.75-.3,.19-.11,.36-.28,.54-.41,.03-.02,.08-.04,.17-.09,.72-.41,1.33-1.08,1.58-1.88,.13-.41,.18-.84,.15-1.26,.21-.63,.34-1.3,.37-2.01,.02-.61-.04-1.18-.16-1.71,1.65,.6,3.48,.78,5.27,.59-.07,.5-.11,.99-.13,1.48-.02,.12-.05,.24-.06,.37-.15,1.19-.03,2.46,.53,3.54,1.37,2.66,4.51,3.35,7.27,3.2,.64-.04,1.12-.21,1.48-.46,1.42-.3,2.77-1.23,3.72-2.42,.65-.81,1.16-1.74,1.59-2.73,0-.01,.02-.03,.02-.04,.02-.06,.05-.12,.07-.18,.13-.31,.26-.63,.38-.96,.01-.03,.02-.07,.04-.1,.5-1.23,1.02-2.49,1.37-3.77,.27,3.07,3.24,6.47,5.78,7.45,3.54,1.37,7.51,.82,10.86-.92,.77,.1,1.59-.06,2.24-.41,.76-.41,1.38-1.26,1.71-2.11,1.42-.99,2.62-2.24,3-3.07,1.33-2.87,.58-6.85,.31-9.88-.3-3.35-.52-6.99-2.12-9.99-.1-.19-.21-.34-.33-.48-.21-.87-.44-1.73-.68-2.59-.55-4.19-1.83-8.27-2.53-12.44-.42-2.5-.46-5.17-.11-7.69,.36-2.55,2.54-6.59,5.64-6.73,.52-.02,.86-.68,.44-1.07-.1-.1-.21-.19-.31-.29,0-.28-.1-.56-.37-.81-.46-.42-.67-.9-.7-1.53,0-.11,.02-.26,0-.38-.01-.05,0-.07,0-.1,.35-.05,.79,.08,1.13,.07,.26-.01,.46-.11,.61-.25,.23,.14,.46,.32,.69,.53,.5,.46,1.45,.02,1.21-.7-.23-.69-.73-1.11-1.34-1.37,.15-.55-.05-1.23-.43-1.6-.87-.86-1.89-1.75-.69-2.79,.72-.62,1.44-1.01,2.04-1.77,.14-.02,.28-.04,.41-.08,.6-.18,.73-1.02,.18-1.35-.48-.28-1.03-.39-1.51-.67-.46-.26-.8-.64-1.17-1.02-.25-.25-.44-.56-.64-.88-.08-.25-.14-.47-.16-.64-.17-1.44,.62-3.5,1.03-4.9,.78-2.64,1.66-5.23,3.1-7.59,1.14-1.88,4.95-5.33,4.91-8.01,.64-.46,.86-1.49,.2-2.06Z"/><g><path class="cls-4" d="M148.81,157.1c-4.04-2.63-8.54-3.88-13.34-4.67-3-.49-5.98-1.07-8.85-2.06-2.56-.89-5.95-1.63-7.65-3.76-.04-.05-.08-.08-.12-.1h0c-.82-3.41-1.55-6.82-1.97-10.29-.54-4.47-1.68-14.87,5.8-14.7,.41,0,.58-.46,.32-.72-.7-.7-2.92-3.07-.68-3.09,.74,0,1.51,.26,2.28,.27,.31,0,.5-.27,.44-.54-.4-1.87-2.36-2.66-3.23-4.25-1.26-2.28,2.75-3.12,4.03-4.52,.17-.19,.19-.54-.09-.66-2.69-1.17-4.36-2.22-4.01-5.3,.34-2.99,2.02-5.91,3.2-8.68,1.07-2.52,2.14-4.91,3.79-7.14,1.1-1.48,2.43-3.1,2.29-4.99-.02-.24-.2-.4-.46-.42-6.18-.49-12.06,1.58-17.46,4.18-5.12,2.46-9.89,5.98-15.7,6.58-.12-.04-.26-.03-.38,.04-.5,.04-1,.07-1.51,.06-3.34-.04-6.66-.77-9.99-1.05-3.59-.31-7.22-.43-10.82-.31-3.45,.12-6.89,.47-10.31,.93-3.21,.43-6.47,1.78-9.63,1.11-.03-.01-.07-.02-.1-.04-.62-.01-1.24-.21-1.76-.55-.03,0-.06,0-.08,0-4.02-2.8-7.95-5.18-13-6.18-5.56-1.11-11.32-1.5-16.97-.77-.43,.06-.39,.59-.11,.77,4.36,2.81,7.02,8.14,8.77,12.64,2.23,5.74,1.94,11.07-2.37,15.88-.23,.26-.13,.58,.2,.71,1.4,.53,3.12,1.26,3.65,2.7,.51,1.39-.47,2.79-1.3,3.87-.19,.25,.03,.53,.27,.62,4.04,1.57,6.82,3.21,7.78,7.52,.9,4.06,.21,8.51-.24,12.59-.71,6.45-1.59,12.97-.83,19.45,.61,5.19,2.35,10.58,6.66,14.17,5.48,4.57,12.75,4.19,19.6,3.62,.08,0,.15-.03,.2-.06,.08,.04,.15,.08,.24,.12,.87,.38,1.81,.64,2.76,.76,.62,1.41,1.41,2.88,2.95,2.99,.58,.04,.58-.8,0-.85-.96-.07-1.52-1.36-1.86-2.05v-.02c.74,.02,1.47-.06,2.19-.21,.54,.71,1.19,1.34,1.95,1.8,.49,.3,.95-.43,.46-.73-.57-.35-1.08-.81-1.5-1.32,.93-.32,1.77-.81,2.49-1.47,.64,.4,1.36,.66,2.2,.62,.58-.02,.59-.87,0-.85-.61,.03-1.13-.15-1.61-.42,.12-.14,.24-.27,.35-.43,3.16-4.71,.02-9.15-2.83-13.14-3.46-4.83-6.43-11.72-5.5-17.63,.08-.53-.79-.76-.88-.23-.78,4.95,1.12,10.4,3.41,14.81,1.34,2.57,3.32,4.76,4.79,7.26,1.59,2.71,2.07,6.43-.03,8.89-.36-.28-.69-.6-1.03-.89-.42-.38-1.07,.22-.64,.6,.34,.31,.69,.62,1.06,.9-.31,.27-.66,.53-1.06,.76-.4,.23-.8,.41-1.2,.55-.22-.34-.43-.68-.59-1.04-.23-.5-1.02-.07-.79,.43,.14,.3,.3,.59,.48,.88-.7,.16-1.39,.21-2.06,.16-.26-.57-.5-1.14-.82-1.68-.28-.48-1.07-.05-.79,.43,.18,.31,.35,.68,.52,1.09-4.31-.98-7.89-5.69-9.68-9.09-2.91-5.52-4.07-11.65-5.96-17.5-.17-.52-1.05-.3-.88,.23,1.68,5.21,2.81,10.59,5.05,15.63,1.57,3.52,3.96,7.67,7.52,9.94-7.65,.58-15.6,.37-20.41-6.13-3.61-4.89-4.23-11.21-4.15-16.97,.09-7.12,1.59-14.15,1.71-21.26,.05-3.19-.26-6.6-2.36-9.27-1.48-1.88-3.66-2.71-5.88-3.56,2.2-3.19,.92-5.65-2.59-7.16,3.99-4.75,4.53-10.02,2.4-15.74-1.7-4.57-4.27-9.81-8.43-12.97,5.38-.56,10.91-.1,16.17,1.03,4.73,1.02,8.43,3.4,12.2,6.05,.18,.07,.35,.15,.53,.23,.17,0,.35,.02,.52,.08,.12,.04,.23,.09,.35,.13,0,0,0-.01,.01-.02,.18,.05,.36,.08,.53,.12,2.44,.96,4.12,3.3,5.56,5.26,1.84,2.52,3.75,4.99,5.4,7.63,1.91,3.05,3.47,6.26,4.44,9.67-3.06-.96-6.16-.97-9.35-.57-.58,.07-.33,.89,.24,.82,3.16-.4,6.24-.34,9.27,.69,.04,.01,.07,.01,.11,.02,.13,.47,.26,.94,.4,1.41-2.35-.15-4.53-.24-6.88,.18-2.76,.5-5.4,1.42-8.03,2.34-.54,.19-.31,1.01,.24,.82,2.38-.83,4.77-1.66,7.25-2.18,2.66-.56,5.02-.47,7.69-.29,.14,.46,.3,.92,.45,1.37-2.64,.59-5.25,2.07-7.54,3.34-.5,.28-.05,1.01,.46,.73,2.22-1.24,4.8-2.7,7.36-3.27,.31,.83,.64,1.65,1.02,2.47,.33,.71,.75,1.7,1.34,2.52,0,.71,.18,1.41,.51,1.92,.52,.79,1.36,1.04,2.14,.89,.05,0,.1,.01,.15,0,.5,.14,1.09,.02,1.73-.51,.73-.61,.95-1.58,.82-2.52,.18-.19,.35-.38,.5-.55,1.26-1.48,2.31-3.13,3.24-4.86,3.34,.35,6.55,3.48,8.83,5.52,.42,.38,1.07-.22,.64-.6-2.41-2.16-5.57-5.16-9.06-5.72,.23-.46,.44-.93,.65-1.39h0c2.29,.13,4.43,.98,6.62,1.54,2.02,.52,4.04,1,6.01,1.67,.55,.19,.79-.63,.24-.82-2.23-.76-4.54-1.27-6.82-1.88-1.9-.5-3.72-1.15-5.68-1.33,.19-.44,.38-.89,.56-1.33,1.63-.17,3.14-.76,4.81-.9,1.99-.16,3.99-.11,5.98-.08,.59,0,.59-.84,0-.85-1.99-.03-3.99-.08-5.98,.08-1.53,.12-2.96,.63-4.45,.84,.63-1.6,1.2-3.21,1.75-4.77,1.32-3.76,1.99-7.79,4.06-11.29,.98-1.66,2.16-3.28,3.68-4.54,.88-.73,1.93-1.34,2.66-2.22,.67-.05,1.34-.12,2.01-.25,3.44-.67,6.4-2.41,9.4-4.03,3.65-1.97,7.39-3.87,11.4-5.15,2.01-.64,4.08-1.13,6.19-1.33,.87-.08,1.75-.14,2.62-.1,.23,.01,.89-.06,1.07,.11,.28,.26-.59,1.76-.68,1.93-.7,1.26-1.71,2.35-2.51,3.56-.94,1.41-1.59,2.99-2.26,4.51-1.56,3.55-4.16,7.74-3.94,11.67,.13,2.46,1.84,3.51,3.97,4.47-1.43,1.05-4.15,1.78-4.33,3.52-.21,2.02,2.67,3.32,3.55,5.08-.99-.09-1.95-.32-2.95-.33-.26,0-.44,.2-.46,.42-.11,1.42,.35,2.49,1.2,3.53-10.01,.83-5.41,18.94-4.18,24.34,.14,.61,.29,1.22,.43,1.83,0,1.76,.66,3.36,1.26,5,.22,.84,.43,1.69,.64,2.53-.08,.14-.08,.33,.05,.48,.03,.03,.06,.06,.09,.09,.39,1.6,.76,3.21,1.07,4.83,.85,4.47,1.38,10.01-2.09,13.69-2.91,3.08-8.06,4.46-12.35,4.05-1.84-.17-3.57-.77-4.99-1.78,.61-.18,1.21-.39,1.77-.7,.5-.28,.05-1.01-.46-.73-.66,.37-1.38,.58-2.11,.78-.44-.41-.84-.86-1.19-1.36,.34-.12,.68-.24,1.02-.38,.54-.21,.07-.94-.46-.73-.34,.13-.67,.26-1.02,.37-1.37-2.68-.09-4.99,2.96-5.87,2.75-.79,6.57-.83,7.38-3.97,.14-.53-.74-.76-.88-.23-.9,3.49-6.62,2.6-9.21,4.44-.38,.27-.68,.57-.93,.89,.38-2.73,.51-5.48,.64-7.9,.16-2.92,.04-5.81-.48-8.69-.26-1.46-.48-4.47-2.11-5.28-.52-.26-.98,.47-.46,.73,1.64,.82,1.82,5.26,2,6.77,.41,3.37,.19,6.79-.19,10.16-.63,5.56-1.07,15.26-8.51,16.71-.51,.1-1.03,.13-1.55,.12,.03-.3,.05-.6,.04-.9-.02-.54-.93-.55-.91,0,0,.29-.02,.57-.04,.85-.65-.08-1.29-.23-1.89-.46,.24-.57,.44-1.15,.55-1.76,.1-.53-.78-.76-.88-.23-.1,.55-.27,1.08-.48,1.59-.65-.36-1.25-.82-1.72-1.4,.3-.54,.57-1.09,.8-1.66,.21-.51-.67-.73-.88-.23-.15,.37-.31,.72-.48,1.07-1.67-3.06,.02-6.82,1.19-9.78,1.32-3.33,2.15-6.52,2.5-10.05,.4-4.12-.47-8.13-.26-12.23,.03-.54-.88-.54-.91,0-.19,3.84,.64,7.63,.33,11.48-.32,4-1.33,7.51-2.8,11.25-1.26,3.2-2.4,7.31-.54,10.21-.46,.74-.99,1.45-1.63,2.09-.4,.4,.24,1,.64,.6,.61-.6,1.12-1.25,1.57-1.94,.48,.53,1.08,1,1.83,1.4-.43,.87-.93,1.71-1.38,2.57-.25,.49,.53,.92,.79,.43,.45-.88,.97-1.74,1.41-2.62,.7,.28,1.42,.44,2.15,.52-.14,.91-.32,1.81-.31,2.73,0,.54,.91,.55,.91,0,0-.9,.17-1.79,.31-2.68,2.66,.01,5.29-1.17,6.94-3.21,1.06-1.31,1.85-2.83,2.44-4.47,.1,.12,.26,.2,.45,.18,.4-.05,.79-.14,1.18-.24,.28,.44,.58,.86,.93,1.23,.05,.06,.12,.1,.17,.16-.16,.05-.31,.09-.47,.15-.54,.2-.3,1.02,.24,.82,.31-.12,.62-.21,.94-.31,5.28,4.3,15.16,2.55,19.36-2.34,3.39-3.95,3.1-9.38,2.04-14.48-.05-.3-.1-.59-.16-.89,.07,.05,.14,.09,.21,.14-.11-.27-.23-.55-.34-.82-.12-.6-.25-1.19-.39-1.78,.69,.32,1.45,.54,2.18,.73,2.23,.59,4.35,.94,6.38,2.07,3.97,2.23,6.61,5.77,7,10.06,.43,4.81-1.12,11.7,4.7,14.23,6.68,2.91,14.53-1.31,16.43-7.65,2.09-6.96-3.34-14.43-9.21-18.25Zm-54.67-62.4c-.99,.82-1.82,1.81-2.57,2.83-1.79,2.43-2.86,5.11-3.72,7.93-1.79,5.87-3.66,11.75-6.85,17.12-.41,.69-1.13,1.95-2.01,2.98-.24-.86-.77-1.62-1.54-1.94-.21-.08-.38-.06-.55,.07h-.01c-.41-.13-.88-.06-1.4,.35h-.01c-.22,.07-.45,.17-.67,.35-.37,.3-.61,.72-.77,1.18-.81-1.32-1.32-3.09-1.78-4.24-1.27-3.19-1.76-6.56-3.18-9.71-1.3-2.88-2.96-5.6-4.79-8.21-1.58-2.25-3.2-4.54-4.96-6.68-.81-.98-1.7-1.95-2.75-2.72,1.73-.02,3.47-.44,5.33-.84,4.4-.95,9.12-1.28,13.64-1.39,4.73-.11,9.49,.16,14.16,.79,2.17,.29,4.33,.58,6.5,.56-.64,.57-1.42,1.03-2.06,1.57Zm3.25,78.74c.17-.53,.33-1.07,.47-1.62,.11,.49,.29,.97,.52,1.43-.32,.08-.65,.15-.99,.19Zm40.08-6.91c-.75-3.21-3.14-5.96-5.96-7.85-1.52-1.02-3.18-1.78-4.99-2.22-1.67-.41-4.05-.63-5.46-1.73-.08-.32-.16-.65-.25-.97-.48-1.76-1.35-3.45-1.73-5.23-.01-.21-.04-.42-.05-.63,2.05,1.78,5.21,2.56,7.75,3.41,4.39,1.48,9.06,1.7,13.51,2.92,7.83,2.15,14.83,7.55,16.78,15.13-1.02-.41-2.13,1.31-2.61,1.95-.28,.36-.65,1.15-1.07,1.37-1.12,.58-2.14-.62-2.65-1.34-.8-1.13-1.3-2.44-1.76-3.72-.16-.46-.86-.37-.89,.11-.09,1.42,.17,3.4-.74,4.62-1.78,2.41-3.56-2.65-4.02-3.75-.15-.36-.76-.44-.88,0-.18,.69-.31,1.62-.76,2.2-1.49,1.91-3.47-.09-3.51-1.84,0-.26-.21-.39-.43-.4-.04-.72-.12-1.41-.27-2.04Zm15.86,14.06c-3.3,2.61-8.55,3.51-12.3,1.15-3.57-2.24-3.27-6.79-3.25-10.88,.54,1.02,1.46,1.88,2.66,1.87,1.43-.02,2.1-1.31,2.5-2.55,.69,1.81,1.79,4.16,3.84,3.65,1.61-.4,2-2.17,2.12-3.82,.67,1.57,1.64,3.17,3.21,3.63,.82,.24,1.42,.06,2.02-.45,.34-.29,2.35-3.3,2.7-2.92,.14,.15,.32,.16,.46,.1,.68,3.86-.66,7.62-3.96,10.22Z"/><path class="cls-4" d="M57.3,104.57c-.15-.51-.57-.92-1.05-1.13-.38-.35-.87-.51-1.41-.27-.19,.08-.33,.2-.44,.32-.02,0-.04,0-.06,.01-.54,.24-.68,.86-.57,1.38-.06,.87,.59,1.83,1.66,1.56,.05-.01,.09-.04,.13-.06,.04,0,.08,0,.12,0,.11,0,.22-.03,.32-.06,.23,.01,.47-.03,.69-.16,.57-.33,.79-1.01,.62-1.6Z"/><path class="cls-4" d="M98.94,101.8c-.32-.09-.64-.04-.91,.08-.18,.05-.34,.13-.47,.25-.01,0-.03,0-.04,.01-.71,.3-.84,1.05-.6,1.69,.01,.08,0,.16,.03,.24,.02,.07,.05,.14,.08,.2,.06,.17,.13,.33,.24,.46,.42,.54,1.1,.51,1.64,.2,.16-.06,.31-.14,.44-.25,0,0,.02,0,.02,0,.46-.21,.63-.6,.61-1,0-.02,.02-.04,.02-.06,.12-.72-.26-1.6-1.07-1.82Z"/></g></g></g></svg>