<?xml version="1.0" encoding="UTF-8"?><svg id="Layer_2" xmlns="http://www.w3.org/2000/svg" width="178.58" height="249.45" viewBox="0 0 178.58 249.45"><defs><style>.cls-1{fill:#edd7c8;}.cls-2{fill:#fff;}.cls-3{fill:#ffe9ed;}.cls-4{fill:#fceef4;}.cls-5{fill:#c19676;}.cls-6{fill:#231f20;}</style></defs><g id="cartes-couleurs"><g id="card-bg"><rect id="bg" class="cls-2" width="178.58" height="249.45" rx="8.5" ry="8.5"/><path id="fg" class="cls-4" d="M171.5,58.26V10.09c0-1.66-1.35-3.01-3.01-3.01H10.09c-1.66,0-3,1.35-3,3.01V239.35c0,1.66,1.34,3.01,3,3.01H168.49c1.66,0,3.01-1.35,3.01-3.01V91.4m0-.01V58.29M29.01,44.95s.01-.03,.02-.04c-.01,.02-.02,.04-.02,.06"/></g></g><g id="cartes"><g id="horse"><path class="cls-1" d="M140,145.54c-.3-2.62-.88-5.82-2-8.57-.19-1.15-.54-2.3-.77-3.09-.07-.23-.18-.4-.31-.53-.13-.46-.28-.92-.43-1.36-1.36-3.88-3.64-7.29-6.95-9.05-2.3-1.22-6.18-2.26-8.82-1.12-.51,.02-1.01,.07-1.5,.17-.03,0-.05,.02-.08,.03-.32-.18-.73-.16-1.03,.04-1,.67-.91,1.91-.9,3.11-2.66-2.21-6.45-2.91-9.46-2.54-6.4,.77-12.51,2.35-18.62-1.09-2.62-1.48-4.05-3.95-6.28-5.85-1.99-1.69-4.46-1.82-6.39-3.92-1.92-2.1-2.91-5.01-4.78-7.2-1.82-2.13-3.49-4.93-5.93-5.97-.69-.29-1.17,.57-1.07,1.26,.22,1.64,.98,3.06,1.89,4.36-.08,.16-.14,.33-.19,.5-.1,.07-.19,.15-.28,.23-.79,.78-1.37,1.96-1.53,3.16-.06,.49-.07,.94,.13,1.38-.62,1.08-1.31,2.1-2.04,3.08-.98,1.31-2.02,2.53-2.78,3.97-.5-.65-1.02-1.28-1.58-1.84-.32-.33-.74-.09-.79,.38,0,.07,0,.15-.01,.22-.4-.16-.83,.2-.74,.78,.42,2.68,1.24,5.27,2.1,7.86,.67,8.52,3.01,16.98,3.84,25.46,.46,4.67,.95,9.34,1.29,14.02,.28,3.97,.39,8.07,.92,12.03-.18,.96-.44,2.11-.17,3.06,.3,1.05,1.12,1.54,2.01,1.51,1.06-.04,2.56-.26,3.55-.67,.74-.31,1.02-1.08,.97-1.81,.54-1.45,.68-3.32,1.01-4.81,.51-2.31,.96-4.64,1.34-6.99,.69-4.21,.67-9.03,1.77-13.1,.4-1.47,1.11-2.71,1.9-3.9,.55,1.17,1.11,2.32,1.41,3.67,.57,2.65,.59,5.63,.59,8.35,0,5.82,.01,11.62,.09,17.44,.02,1.47,1.2,2.54,2.42,2.17,.64-.13,1.27-.27,1.91-.4,.78-.07,1.64-.63,1.81-1.62,.86-5.01,1.31-10.08,1.91-15.14,.32-2.66,.9-5.27,1.47-7.86,4.09,3.21,9.06,3.47,13.95,3.27,5.83-.24,12.38-.28,18.1-2.26,.68,7.67,1.98,15.24,2.5,22.96,.09,1.28,.88,2.5,2.08,2.45,.35-.01,.66-.04,.97-.09,1.09,.82,2.96,.06,2.94-1.81-.07-8.72-1.74-16.86-.37-25.16,.64,3.02,1.76,5.98,2.46,8.93,1.12,4.73,1.87,9.59,3.1,14.28,.3,1.15,1.46,2.18,2.53,1.69,1.48-.68,2.03-1.65,2.2-3.5,.16-1.71,.19-3.69,.04-5.62,.1-1.1,.08-2.22,.04-3.32,0-.19-.01-.39-.02-.59,.28-.45,.46-.99,.48-1.62,.08-2.68,.02-5.37-.12-8.07,.82-3.7,.57-8.18,.21-11.35Z"/><path class="cls-5" d="M157.26,168.27c-2.08-3.87-2.84-7.6-3.44-11.66,.07-.13,.13-.28,.15-.46,.56-7.19,1.57-15.95-1.1-22.73-1.79-4.53-5.53-8.72-9.85-9.32-2.49-1.02-5.12-1.25-6.91-.33-.35,.03-.7,.07-1.03,.18-.11,.03-.2,.09-.27,.15-.45-.04-.94,.07-1.48,.41-.38,.23-.49,.98-.14,1.31,1.27,1.22,2.02,2.86,2.89,4.44h0c.48,1.86,1.31,2.54,2.52,3.78,2.08,2.12,3.42,4.75,4.27,7.83,.37,1.36,.64,2.75,.83,4.14-.04,.06-.07,.12-.08,.21-.82,5.92,.19,12.86,2.62,18.15,1.3,2.83,4.66,7.06,7.37,4.7,.81,.84,1.52,1.15,2.67,1.22,.85,.05,1.44-1.18,.99-2.02Z"/><path class="cls-5" d="M62.95,82.22c-.9-.66-1.82-1.16-2.82-1.57-.35-.14-.72,0-.99,.27-1.21,.19-2.36,1.34-3.27,2.17-1.33,1.21-2.2,2.47-3.04,4.17-.29,.58,.29,1.28,.79,.93,.69-.5,1.68-.92,2.53-.77,.08,.02,.15,.04,.21,.06,.13,.37,.37,.7,.7,.86,.07,.25,.13,.54,.22,.85,.21,.72,1.1,1.19,1.59,.49,.28-.4,.55-.81,.83-1.21,.02,.03,.04,.06,.06,.09,.33,.44,1.01,.42,1.34,0,.53-.68,1-1.38,1.36-2.22,.29-.68,.37-1.61,.64-2.29,.45-.48,.54-1.35-.14-1.85Z"/><path class="cls-5" d="M115.06,119.27c-.65-.54-1.59-1.34-2.52-1.67-2.76-6.23-8.82-7.08-14.31-6.99-.71-.26-1.41-.5-1.9-.83-1.21-.82-2.38-2.12-3.71-2.73,.02-2.9-1.85-6.08-3.04-8.47-1.39-2.76-3.07-5.59-5.31-7.48-2.3-1.94-5.03-2.53-7.8-2.76-2.19-.18-5.87-.94-7.79,.82-.55-.49-1.55-.11-1.55,.89,0,1.6,.06,3.31,.3,4.98-.29,4.58,2.45,7.98,5.89,10.53-.08,2.6,1.6,4.97,3.27,6.5,1.84,1.69,4.18,2.22,6.21,3.38,.58,.97,1.39,1.8,2.11,2.47,.18,.16,.36,.33,.55,.5,1.46,1.8,3.25,3.13,5.71,4.03,3.16,1.15,6.78,1.03,10.19,.24,.49,0,.96,0,1.4,0,2.59-.04,5.22-.85,7.78-.1,.93,.27,2.12,.59,3.25,1.01,.66,.49,1.33,.94,2.02,1.11,.1,.02,.19,.02,.28,.02,.16,.11,.33,.22,.47,.35,.41,.36,.82-.24,.69-.71,.51-2.24-.76-3.87-2.2-5.07Z"/><path class="cls-1" d="M80.08,77.49c-3.48-.75-6.57,.16-9.66,2.14-1.59,1.02-3.99,2.44-5.6,4.28-.32-.74-1.31-.48-1.55,.26-.36,1.11-.78,2.17-1.16,3.27-.13,.37-.29,.74-.45,1.12-.11,.03-.22,.07-.34,.12-.07,.03-.51,.42-.58,.42-.06,0-.56-.45-.64-.48-.25-.11-.5-.13-.76-.06-.52,.12-.94,.66-1.36,1.01-.11,.09-.22,.18-.33,.27-.15-.82-.39-1.62-1-2.04-1.04-.72-2.23,.51-3.18,.92-.39,.17-.88,.32-1.34,.53,.34-1.47,.85-2.85,1.75-4.07,.54-.73,1.18-1.32,1.69-2.08,.18-.27,.38-.8,.63-1.27,.84-.07,1.33-.25,1.82-1.15,.24-.43-.12-1.11-.55-1.03-.49-.07-.85,.04-1.26,.2-.34-.12-.65-.35-.95-.58,.3-3.29-1.17-6.9-2.38-9.73-.31-.74-2.23-4.7-3.72-4.96-.09-.08-.19-.15-.29-.2-.52-.63-1.62-.48-1.67,.74-.21,5.14-.11,11.61,1.74,16.66-.62,.51-1.22,1.08-1.79,1.68-1.49,1.03-2.88,2.29-4.32,3.4-2.07,1.6-4.21,3.14-6.15,4.96-2.12,1.98-3.97,4.32-5.73,6.73-1.08,1.48-2.28,2.93-3.03,4.67-.49,.65-.98,1.29-1.48,1.93h0c-.51,.6,.15,1.85,.83,1.28,.18-.15,.36-.31,.54-.46,2.41,.73,4.93,.77,7.34,1.68,2.84,1.07,5.63,2.72,8.23,4.44,2.38,1.59,4.93,3.32,6.79,5.71,1.3,1.69,4.64,6.14,4.52,8.57-.05,.99,1.25,.98,1.31,0,.06-1.02,.08-1.92,.04-2.74,.56-1.07,1.05-2.19,1.65-3.24,.93-1.61,2.23-2.5,3.45-3.75,1.3-1.35,2.59-2.78,3.48-4.55,2.14-4.29,2.79-9.78,3.02-14.73,.01-.05,.03-.1,.04-.15,.51-2.5,.65-5.48-.07-8,2.33,.16,4.89-1.17,6.91-2.27,2.7-1.47,5.1-3.5,6.58-6.59,.49-1.02,.09-2.65-1-2.88Z"/><g><path class="cls-3" d="M43.58,112.47c-.82-.67-1.67-1.25-2.57-1.63-1.99-1.57-4.21-2.88-6.41-3.08-3.94-2.02-8.74-2.56-10.44,2.99-.73,2.4-1.01,5.28-.98,7.83,0,.17,0,.36,.01,.54-1.22,2.93,.22,7.48,1.18,10.09,1.31,3.57,3.34,6.75,6.08,8.33,1.86,1.46,4.4,2.51,6.48,3.25,4.36,1.57,10.67,.54,14.35-2.75,8.66-7.76,.24-21.24-7.7-25.58Z"/><g><path class="cls-6" d="M157.04,167.37c-.74-1.6-1.53-2.95-1.96-4.74-1.19-4.92-.55-10-.18-14.99,.53-7.15,0-14.68-4.73-19.85-4.32-4.71-12.26-6.99-17.5-3.11-.08,.06-.12,.13-.14,.21-.6-.57-1.24-1.1-1.94-1.57-3.97-2.66-8.7-3.13-13.04-1.58-.76-2.13-2.63-3.3-4.65-3.9,0-.07,0-.14-.04-.22-1.1-2.65-3.17-4.98-5.45-6.22-2.14-1.16-4.57-1.19-6.91-1.06-2.88-.56-5.38-1.95-7.67-3.9,.08-.07,.14-.18,.14-.34,.03-1.91-1.44-4.04-2.18-5.64-1.34-2.87-2.52-5.83-4.56-8.14-3.02-3.42-7.31-4.83-11.45-4.72,1.44-.76,2.77-1.68,3.95-2.92,1.41-1.48,4.33-4.97,2.01-7.04-3.03-2.72-8.58,.03-11.18,2.33-.92,.81-1.76,1.85-2.78,2.5-1.86,1.19-2.85-.18-4.41-1.05-2.09-1.17-4.33-1.85-6.62-2.17-.17-6.16-2.73-13.56-7.97-15.82-.21-.09-.4,.11-.47,.32-1.9,5.31-.14,10.86,1.16,16.03,.38,1.52-.35,1.99-1.35,2.78-1.33,1.05-2.62,2.13-3.92,3.23-2.02,1.7-4.06,3.36-6.03,5.15-7.37,6.72-14.03,15.58-14.9,26.98-.74,9.65,3.54,19.3,11.5,22.62,8.38,3.49,19.32,.4,21.93-10.69,.64-2.71,.59-5.98,1.82-8.43,1.51,3.05,1.63,7.04,2.23,10.43,.73,4.15,1.22,8.32,1.74,12.51,1.12,9.05,1.99,18.09,2.48,27.21,.1,1.87,.25,3.75,.24,5.63,0,1.48-.2,3.07,.16,4.52,.57,2.29,2.3,2.3,4.04,2.3,1.56,0,2.34-.44,2.86-2.22,.53-1.81,.64-3.75,.92-5.62,.35-2.31,.85-4.6,1.29-6.89,.7-3.67,1.23-7.32,1.68-11.04,.34-2.78,.65-6.49,2.28-8.76,1.7,5.47,1.02,11.43,1.09,17.15,.06,5.37-.37,11.19,1.05,16.37,.05,.2,.19,.32,.37,.33,1.64,.11,3.73,.47,4.94-1.18,1.48-2,1.61-5.72,1.89-8.19,.45-3.96,.73-7.95,1.2-11.9,.25-2.08,.69-4.13,1.01-6.2,.58,1.35,4.19,2.18,4.92,2.38,5.32,1.45,10.79,.92,16.18,.5,2.41-.19,4.65-.44,7.01-1.03,.68-.17,1.35-.33,2.04-.41,.78-.1,.92-.22,1.37,.46,.32,.48,.28,1.88,.37,2.54,.12,.84,.24,1.68,.35,2.52,.75,5.64,1.3,11.31,1.66,17,0,.03,0,.05,0,.08,.08,1.28,.16,2.56,.22,3.84,.01,.31,.23,.49,.49,.44,1.67-.34,4.33,.8,5.67-.82,1.42-1.72,.6-5.24,.4-7.28-.39-4-.33-8.02-.46-12.04-.09-2.82-.71-6.14,.04-8.93,.81,4.61,1.63,9.27,2.79,13.76,.58,2.26,1.28,4.47,1.72,6.78,.43,2.25,.74,4.51,1.41,6.68,.07,.24,.25,.37,.47,.32,1.59-.37,3.07-1.09,4.71-1.12,.23,0,.46-.29,.37-.57-1.04-3.26-.9-6.88-.74-10.3,.16-3.62,.34-7.24,.46-10.87,.24-7.38,.2-14.91-1.51-22.08-.32-1.35-.7-2.67-1.14-3.96,5.73,4.25,5.38,15.05,5.84,21.97,.24,3.66,.75,7.56,2.74,10.52,1.57,2.33,4.49,5.2,7.05,3.41,.05,.04,.09,.09,.13,.13,.94,.81,3.64,2.23,4.14,.08,.19-.81-.32-1.81-.63-2.48ZM59.18,80.95c1.17,.4,2.3,.92,3.37,1.58,.23,.14,.45,.3,.67,.46-.53,1.44-1.98,6.92-3.37,5.17-.14-.17-.4-.17-.54,0-.2,.24-.76,1.33-1.02,1.36-1.05,.12-.55-.89-.72-1.33-.25-.65-.22-.9-.87-1.15-1.1-.42-2.61,.42-3.74,1.2,.99-3.58,3.03-5.87,6.15-7.25,.03-.01,.05-.03,.07-.05Zm-4.43,49.5c-.89,3.2-2.72,5.88-5.11,7.72-4.18,3.23-9.66,3.46-14.38,1.95-8.91-2.85-13.48-13.61-12.04-23.96,.44-3.14,1.31-6.04,2.49-8.74,.04,0,.08-.01,.11-.04,2.54-1.55,5.89-.41,8.46,.5,2.63,.93,5.22,2.11,7.67,3.56,5.94,3.53,11.15,9.17,13.04,16.9,.03,.13,.1,.21,.17,.26-.12,.62-.26,1.23-.42,1.83Zm1.24-6.79c-.2,1.13-.36,2.27-.54,3.41-2.21-7.64-7.58-13.24-13.65-16.71-2.75-1.57-5.66-2.87-8.62-3.77-2.18-.66-4.72-1.26-6.92-.39,3.14-6.51,8.1-11.79,13.25-16.24,2.26-1.95,4.55-3.87,6.86-5.74,.93-.75,2.84-1.66,3.06-3.19,.12-.85-.33-1.84-.55-2.61-.37-1.25-.7-2.51-.97-3.8-.69-3.33-1.03-6.9-.01-10.17,4.71,2.32,6.98,9.35,7.08,14.98,0,.22,.12,.36,.26,.41,.06,.13,.16,.25,.31,.27,.81,.11,1.62,.27,2.43,.48-3.16,1.68-5.2,4.37-6.05,8.54-.07,.37,.27,.73,.56,.51,.8-.6,2.63-2.12,3.59-1.76,1.22,.45,.43,1.66,1.05,2.45,1.08,1.38,2.09-1.17,2.47-1.19,.36-.02,.68,.48,1.16,.35,.53-.14,.92-.72,1.22-1.21,.91-1.46,1.26-3.25,1.9-4.86,.61,.38,1.25,.65,1.98,.49,1.65-.36,3.01-2.29,4.3-3.38,1.71-1.45,3.8-2.42,5.88-2.8,1.96-.36,5.97,.06,4.29,3.42-.72,1.44-1.86,2.67-2.98,3.68-1.48,1.34-3.33,2.36-5.13,2.97-1.31,.44-2.77,.3-4.02,.96-.45,.24-.06,1.02,.39,.78,.91-.48,1.99-.41,2.96-.63,.32-.07,.63-.17,.94-.28,.07,.04,.14,.06,.23,.05,4.71-.77,10.02,.61,13.37,4.79,1.71,2.13,2.76,4.71,3.93,7.26,.66,1.44,2.05,3.41,2.15,5.13-1.18-1.07-2.32-2.28-3.44-3.59-3.61-4.22-7.54-8.46-12.74-9.49-.48-.1-.69,.78-.2,.87,6.21,1.23,10.08,6.96,14.51,11.63,2.29,2.41,4.74,4.2,7.48,5.23-2.54,.14-4.97,.12-7.49-.64-2.59-.78-5.74-1.98-7.35-4.69-.28-.47-.95-.02-.66,.46,2.38,4.02,7.81,5.59,11.73,5.87,2.16,.16,4.32-.15,6.48-.27,.18,.03,.36,.05,.53,.08,.6-.1,1.57-.2,2.24-.03,0-.02,.02-.03,.03-.05,.21,.01,.42,.02,.63,.05,3.37,.39,6.44,2.8,8.07,6.3-.41-.09-.82-.16-1.22-.2-2.43-.3-4.82,.2-7.26,.18-4.06-.03-8-1.1-11.69-3.05-.45-.24-.84,.54-.39,.78,5.37,2.83,10.55,3.27,16.34,2.91,2.98-.19,7.85,.3,9.07,3.9-.01,.02-.01,.04-.02,.06,0,.02,.02,.03,.02,.05,.01,.06,.02,.13,.03,.19,.04,.08,.08,.16,.08,.28,0,.02,0,.04,0,.05,.02,.02,.03,.03,.05,.04,.07,.35,.11,.73,.11,1.13-.02,.34-.08,.67-.17,.99-2.46-1.33-4.74-2.81-7.49-3.01-3.53-.26-6.98,.65-10.47,1.06-6.12,.71-12.12-2.24-16.02-7.75,1.57,.14,3.31,.28,4.47,1.44,.37,.37,.92-.26,.54-.64-1.52-1.52-3.69-1.55-5.66-1.76l-.03-.04c-.28-.03-.57-.05-.85-.1,0,0,0,.01,0,.02-.1-.02-.21-.03-.32-.05-3.15-.61-6.54-3.43-7.25-7.25,1.84,1.14,3.88,1.71,5.86,2.52,.06,.12,.16,.2,.31,.2,.05,0,.08-.01,.12-.03h.03c.46,.21,.66-.66,.2-.86-2.37-1.02-4.93-1.56-7.06-3.23-2.25-1.76-3.82-4.39-5.39-6.93,.05-1.17,.07-2.34,.07-3.49,0-.58-.77-.58-.77,0,0,1.08-.02,2.18-.06,3.28-.1,.12-.13,.3-.02,.48-.21,5.02-.99,10.08-3.55,14.23-2.38,3.86-6.76,5.69-7.65,10.64Zm83.06,18.89c1,7,.75,14.13,.46,21.19-.17,4.18-.77,8.82-.37,13.15-.43-.19-.97,.18-1.38,.29-.92,.24-1.88,.62-2.83,.65-.13-.69-.25-1.37-.38-2.06-.45-2.43-1.17-4.75-1.78-7.13-1.27-4.94-2.13-10.08-3.03-15.14-.07-.38-.55-.44-.7-.11-1.05,2.22-.93,4.86-.8,7.31,.18,3.28,.19,6.55,.32,9.84,.12,2.94,.6,5.93,.66,8.87-.01,0-.03,0-.04,0-.92,.3-1.84,.29-2.79,.24-.82-.04-1.97,.1-2.77-.22-.5-7.63-1.37-15.21-2.51-22.76-.03-.2-.21-.32-.37-.33-2.59-.16-5.06,1-7.62,1.28-3.28,.35-6.61,.57-9.89,.67-3.08,.09-6.21-.1-9.22-.94-.33-.09-2.7-.87-3.78-1.43-.1,0-.21-.04-.31-.14-.03-.03-.06-.07-.09-.1-.06-.05-.1-.09-.12-.13-.19-.21-.4-.45-.61-.51-.39-.11-.63,.21-.85,.54-.26,1.67-.61,3.33-.85,5.02-.47,3.31-.6,6.67-.99,9.99-.31,2.6-.52,5.25-1.06,7.8-.01,0-.02-.01-.03,0-1.04,.15-1.99,.29-3.04,.22-.96-.07-1.87-.42-2.81-.51-.12-1.73-.07-3.51-.08-5.12-.01-2.83-.11-5.65-.08-8.48,.06-5.36,.43-10.92-1.36-15.98-.11-.31-.41-.45-.64-.2-2.69,2.93-2.74,8.59-3.21,12.56-.43,3.63-1.17,7.21-1.86,10.78-.38,1.96-.74,3.91-1,5.9-.04,.28-.07,.59-.1,.92,0,0,0,0-.02,0-.82-.19-1.68,.15-2.51,.19-1.25,.06-2.48-.08-3.65-.58,0-.09,0-.18,0-.27,.08-3.8-.29-7.65-.54-11.44-.52-7.76-1.36-15.43-2.3-23.13-.51-4.18-1.05-8.3-1.77-12.44-.59-3.41-.7-7.23-2.34-10.22,.07-.1,.14-.21,.22-.31,1.77-2.26,4.07-3.74,5.71-6.2,2.7-4.07,3.65-9.08,3.96-14.13,1.33,2.14,2.72,4.26,4.54,5.85,.2,.17,.4,.32,.6,.48,.37,3.53,2.57,6.07,5.19,7.64,1.13,.68,2.27,1.01,3.53,1.19,.06,0,.12,.01,.17,.02,3.29,4.99,8.19,8.27,13.58,8.81,3.49,.35,6.94-.74,10.41-1.04,1.98-.17,4.04-.24,5.97,.41,1.68,.57,3.22,1.62,4.8,2.47,.03,.02,.07,.02,.1,.03,.1,.34,.52,.51,.68,.11,.2-.5,.33-1.01,.4-1.54,.02-.06,.04-.12,.04-.19,0-.08,0-.15,0-.23,0-.02,0-.05,0-.07,0-.03,0-.05,0-.07,0-.42-.04-.82-.12-1.19,4.63-1.64,9.71-.89,13.7,2.46,4.72,3.95,6.64,11.04,7.57,17.49Zm13.63,25.07c-1.97-2.6-2.99-5.88-3.57-9.25-.74-4.32-.95-8.83-1.1-13.23-.13-3.81-.41-7.49-2.16-10.81-.26-.49-.92-.04-.66,.46,2.33,4.4,1.93,9.6,2.26,14.57,.29,4.34,.53,8.79,1.76,12.93,.73,2.45,1.88,4.95,3.54,6.74-1.95,1.03-4.07-1.07-5.35-2.72-1.29-1.66-2.03-3.69-2.46-5.86-.8-4.01-.61-8.16-.97-12.23-.51-5.7-1.86-13.12-6.7-15.85h-.01c-1.03-2.62-2.37-5-4.18-6.92,4.7-3.46,11.88-1.61,15.95,2.37,4.54,4.43,5.58,11.21,5.23,17.81-.23,4.28-.93,8.99-.58,13.43-2.56-6.71-.94-14.25-2.28-21.31-.87-4.56-3.8-9.46-7.89-10.39-.48-.11-.69,.76-.2,.87,5.62,1.29,7.56,8.76,7.83,14.56,.29,6.08-.23,12.23,2.3,17.77,.1,.22,.27,.25,.43,.19,.26,1.8,.73,3.54,1.53,5.17,.38,.78,1.54,2.37,1.47,3.31-.18,2.42-3.6-.81-4.2-1.6Z"/><path class="cls-6" d="M49.14,89.73c-.68,.87-1.86,1.93-2.93,1.54-1.4-.5-1.29-3,.04-3.5,.47-.17,.27-1.05-.2-.87-1.59,.59-2.18,3.21-.95,4.61,1.41,1.6,3.49,.27,4.59-1.14,.33-.43-.21-1.07-.54-.64Z"/><path class="cls-6" d="M64.88,99.45c-1.03,1.02-2.04,3.24-3.51,3.37-1.82,.16-2.94-3.78-1.4-4.92,.42-.31,.03-1.09-.39-.78-1.78,1.32-1.16,5.05,.47,6.18,2.29,1.59,3.89-1.75,5.37-3.21,.38-.37-.17-1.01-.54-.64Z"/><path class="cls-6" d="M29.92,116.69c-.06-.15-.15-.34-.27-.54,0-.04-.02-.08-.02-.12-.02-.14-.12-.22-.22-.27-.81-1.21-2.25-2.63-3.09-1.39-.31,.45,.23,1.09,.54,.64,.37-.55,1.13,.2,1.7,.99-.01,.04-.02,.08-.02,.12,0,.39,.02,.74,.11,1.12,.1,.38,.6,.44,.72,.06,.32,.27,.7-.18,.54-.6Z"/><path class="cls-6" d="M46.36,125.42c-.06-.22-.27-.37-.47-.3-.09,.03-.17,.07-.25,.1-.33-.07-.65-.11-.97-.11-.32,0-.52,.5-.27,.77,.11,.12,.22,.22,.34,.31,0,.01,0,.03,.01,.04,.21,.45,.45,.78,.83,1.04,.37,.26,.72-.31,.51-.65,.1-.03,.19-.12,.23-.27,1.12,.44,2.1,1.34,2.14,2.79,.01,.58,.78,.58,.77,0-.05-1.96-1.37-3.19-2.87-3.72Z"/></g></g></g></g></svg>