<?xml version="1.0" encoding="UTF-8"?><svg id="Layer_2" xmlns="http://www.w3.org/2000/svg" width="178.58" height="249.45" viewBox="0 0 178.58 249.45"><defs><style>.cls-1{fill:#f4c17d;}.cls-2{fill:#efd2af;}.cls-3{fill:#fff;}.cls-4{fill:#fceef4;}.cls-5{fill:#231f20;}</style></defs><g id="cartes-couleurs"><g id="card-bg"><rect id="bg" class="cls-3" width="178.58" height="249.45" rx="8.5" ry="8.5"/><path id="fg" class="cls-4" d="M171.5,58.26V10.09c0-1.66-1.35-3.01-3.01-3.01H10.09c-1.66,0-3,1.35-3,3.01V239.35c0,1.66,1.34,3.01,3,3.01H168.49c1.66,0,3.01-1.35,3.01-3.01V91.4m0-.01V58.29M29.01,44.95s.01-.03,.02-.04c-.01,.02-.02,.04-.02,.06"/></g></g><g id="cartes"><g id="kangaroo"><path class="cls-2" d="M87.19,74.02c-6.54-.29-13.06-1.03-19.63-.56-.64,.05-1.18,.32-1.56,.69-.93,0-1.83,.09-2.54,.27-1.09,.27-.8,1.36,.26,1.45,2.82,.25,7.39,6.76,8.93,8.54,2.94,3.4,3.88,7.29,6.47,10.72,.38,.5,1.38,.38,1.58-.16,.16-.41,.25-.83,.31-1.25,.07-.07,.13-.15,.16-.25,1.86-6.07,4.82-11.97,7.66-17.8,.41-.84-.63-1.6-1.64-1.64Z"/><path class="cls-2" d="M101.61,154.53c.06-.1,.13-.2,.19-.31,.13-.25-.06-.45-.33-.54h0c-.06-.41-.83-.56-.99-.11-.04,.1-.06,.2-.09,.31-3.45,1.41-6.93,3.18-10.69,4.23,.12-.46,.21-.92,.28-1.38,2.94-2.9,2.52-7.01,1.13-10.58,.69-2.68,1.11-5.36,.19-7.8,0-.02-.04-.04-.05-.06-.02-.12-.04-.24-.09-.36-.03-.06-.12-.12-.21-.09-2.63,.78-4.05,3.38-4.33,5.88-.29-.2-.68-.34-1.18-.35-1.42-.02-2.75,.64-4.2,.69-.57,.02-1.11-.09-1.65-.16-.31-.94-.71-1.85-1.12-2.63-.74-1.39-1.86-3.42-4.03-3.58h0c-.18-.13-.47-.12-.6,.05-1.61,2.05-.21,4.65,.71,6.75,.25,.57,.46,1.16,.65,1.77-.49,.76-.7,1.59-.72,2.46-.37,1.28-.32,2.62,.36,3.93,1.04,2,2.07,3.93,3.03,5.9-1.8-.25-3.61-.55-5.4-.79-1.2-.64-2.56-1.39-3.85-1.48-.55-.32-1.15-.61-1.82-.87-1.03-.4-2.04,.26-1.85,1.09,.64,2.8,.61,5.74,.93,8.61-.61,6.92,4.99,11.61,15.71,12.21,5.3,.3,9.78-.73,13.43-3.53,.84-.47,1.59-.96,2.15-1.39,.97-.74,2.11-1.83,2.85-3,3.67-3.83,2.37-10.32,1.59-14.88Z"/><path class="cls-1" d="M146.78,125.86c0-1.54-.11-3.08-.36-4.62-.68-4.15-2.59-9.9-7.19-12.82-2.67-3.59-8.47-5.69-13.88-5.17-3.39,.32-6.77,1.61-9.17,3.47-3,2.32-2.94,5.32-3.5,8.37h0c-.01,.09-.04,.18-.05,.27-.07,.51,.29,.81,.75,.92,.05,.22,.16,.5,.35,1.01,.26,.72,1.57,.53,1.64-.17,.26-2.8,2.72-4.84,3.82-7.28,2.62-1.83,5.69-3.32,9.35-1.96,3.33,1.23,5.63,4,6.88,6.56,2.29,4.72,1.19,9.76,2.71,14.55,.06,.18,.14,.32,.24,.46-.25,2.31-.41,4.64-.3,6.95-.76,2.65-1.4,5.3-3.16,7.85-1.93,2.8-4.59,5.08-7.67,7.08-.19,.06-.38,.16-.54,.31-.04,.04-.07,.07-.11,.11-.41,.26-.83,.51-1.25,.76-.15-1.83-.74-3.55-2.09-4.96-.55-2.08-1.82-4.14-4.14-6.2-3.61-3.21-10.02-4.27-14.56-2.26,2.06-1.9,3.08-4.76,3.56-6.95,.24-1.11,.33-2.21,.35-3.3,.1-.25,.15-.53,.12-.85-.06-.46-.14-.91-.2-1.37-.22-2.22-.76-4.43-1.34-6.64-.24-.95-.49-1.89-.75-2.82-.08-.3-.25-.53-.46-.72-.75-2.44-1.73-4.83-2.99-7.14-2.27-4.16-3.76-7.73-4.52-12,.27-.9,.57-1.8,.88-2.72,1.46-4.4,2.53-8.99,2.33-13.53,.12-.14,.21-.31,.26-.5v-.04s.08-.05,.11-.08c3.61-3.67,6.24-7.9,7.93-12.3,1.01-2.65,2.14-5.55,.31-7.96,.12-.09,.23-.19,.35-.28,.81-.66,.02-2.08-1.27-1.67-6.17,1.95-11.47,3.47-15.4,7.86-2.11,2.36-3.45,4.99-4.09,7.73-3.66,6.2-5.22,12.98-8.19,19.39-.74,1.59-1.52,2.91-2.52,4.21-3.09-8.88-7.3-18.42-17.98-23.53-2.08-3.07-4.67-6.02-8.21-8.09-2.5-1.46-5.46-2.45-8.28-3.49-2.28-.84-4.17-1.78-6.68-1.44l-.02-.02c-.8-.64-1.77,.37-1.25,.85,.6,.98,.93,1.97,1.21,2.96,.49,5.33,3.59,11.39,8.93,14.71,.94,.58,1.97,1.06,3.02,1.51,.61,.36,1.23,.69,1.88,.98,.38,.17,.75,.23,1.12,.24,.27,.11,.54,.24,.8,.36,.49,.53,.98,1.06,1.44,1.6,.24,.28,.47,.57,.71,.86,.38,2.49,.66,4.88,1.32,7.26,.04,3.35,.62,6.47,1.93,9.99,.5,1.34,.82,2.7,1.07,4.07-.54,10.2-11.71,23.28-5.4,32.95-7.38,2.33-11.07,7.13-12.17,12.51-1.16,2.88-1.34,6.08-.63,8.64,1.63,5.91,6.56,11.39,12.03,15.77-8.43,.54-25.42,10.32-15.41,14.25,4.84,1.9,11.71-1.04,15.63-3.1,3.85-2.02,8.24-4.8,10.6-8.15,3.4,.75,6.64,1.72,10.25,1.75,4.18,.03,9.05,.42,13.19,.05,2.36,.38,4.93-.1,7.23-.66,1.76-.43,3.79-.93,5.67-1.6,4.4,5.08,22.36,15.37,29.22,9.5,3.29-2.81-1.69-6.45-4.31-8.11-3.35-2.12-8.06-4.19-12.77-5.13,1.89-1.67,3.74-3.45,5.39-5.31,4.19,1.1,9.22-1.87,12.63-4.61,6.09-3.89,9.86-10.63,12.27-15.9,3.16-6.93,6.33-15.82,3.4-23.18Zm-47.95,46.28c-4.54,1.92-7.72,5.36-13.96,5.24-3.33-.06-6.87-.3-10.38-.68-.16-.14-.34-.26-.58-.34-.62-.23-1.18-.37-1.81-.44-.13-.05-.25-.1-.38-.15-.01,0-.02-.02-.03-.03-1.69-1.32-3.18-2.71-4.97-3.9-.91-4.01-1.73-7.98-1.5-12.07,.09-1.63,.17-3.13,.02-4.58,3.19,1.73,7.41,2.46,10.98,3.24,1.06,.23,1.97-.69,1.42-1.41-1.23-1.62-3.13-3.47-3.74-5.3-.93-2.78,1.13-3.7,1.1-6-.02-1.25-1.03-2.56-1.33-3.79-.4-1.62-.49-3.27-.38-4.91,.89,.25,1.82,.4,2.67,.72,.78,.65,1.45,1.33,2.03,2.04-.07,.07-.1,.16-.05,.25,.55,1.04,1.01,3.01,2.45,3.61,1.09,.46,3.8,.27,4.9-.17,1.61-.65,1.81-2.39,2.72-3.5,.91-1.09,2.22-1.93,3.36-2.85,.44,1.41,.96,2.77,1.03,4.16-.2,.62-.38,1.22-.54,1.82-.11,.2-.18,.43-.19,.69,0,.04,0,.08,0,.13-.18,1.01-.2,2.02,.15,3.12,1.07,3.42,.22,6.42-1.57,9.61-.24,.43,.26,.86,.84,.65,1.32-.48,2.62-.97,3.9-1.49,.15-.03,.29-.08,.43-.14,.18-.09,.35-.18,.53-.27,1.15-.5,2.29-1.04,3.37-1.64,.89-.5,1.88-1.01,2.68-1.63,.7,7.29,1.21,13.29-3.2,20.03Z"/><g><path class="cls-5" d="M145.17,114.16c-3.18-6.33-10.4-12.52-20.09-11.88-9.91,.66-16.03,9.05-11.12,15.74,.24,.33,1.02,.11,.84-.26,.05,.2,.4,.22,.49,.02,1.93-4.01,3.08-11.17,11.21-9.49,7.62,1.57,8.73,8.89,9.75,13.87,2.08,10.14,1.25,22.22-10.43,28.85-.02-.13-.04-.25-.06-.38-1.3-6.56-9.05-15.1-18.84-12.83,1.59-2.09,2.48-4.48,2.8-6.88,1.07-8.01-4-16.14-7.31-23.54-.8-1.78-1.69-3.57-2.25-5.41-.82-2.7-.43-5.15,.21-7.85,.93-3.93,.41-8.11,1.8-11.95,1.51-4.17,5.39-7.59,7.27-11.67,1.82-3.97,2.32-8.18,1.67-12.34-.05-.34-.38-.57-.85-.49-10.71,1.69-19.43,8.11-22,16.22-8.62-1.98-17.88-1.86-26.29,.67-.14-.06-.26-.13-.4-.19,0,0-.02,0-.03,0-3.65-8.12-14.65-13.6-25.46-14.66-.56-.06-.85,.43-.77,.77,1.79,7.69,4.03,16.5,13.33,21.03,2.58,1.26,5.19,1.59,6.33,4.05,1.03,2.22,.48,5.18,.61,7.51,.26,4.64,3.32,8.74,3.63,13.34,.62,9.31-7.93,17.46-7.17,26.78,.15,1.89,.89,4.02,2.13,5.98-9.08,1.76-13.38,9.53-13.58,16.13-.23,7.64,4.12,15.1,11.65,20.09-3.12,1.13-6.26,2.24-9.35,3.41-2.54,.96-5.22,2.12-6.82,3.99-1.22,1.42-1.68,3.1-1.31,4.6-2.16-.38-5.02,.59-6.62,1.61-.37,.24,.03,.78,.49,.64,1.14-.34,2.23-.78,3.37-1.12,.94-.28,1.97-.45,2.84-.85,.17,.53,.45,1.03,.84,1.48-1.28,.77-2.34,1.86-2.71,2.89-.13,.36,.52,.7,.86,.38,.75-.7,1.39-1.45,2.24-2.09,.17-.13,.35-.24,.52-.35,.57,.41,1.26,.75,2.09,1,.15,.04,.3,.08,.45,.12-.93,.84-1.63,1.88-1.92,2.8-.14,.45,.64,.69,.96,.31,.6-.71,1.17-1.44,1.82-2.13,.22-.24,.48-.46,.74-.67,4.34,.53,9.08-1.04,12.55-2.83,4.66-2.41,8.45-5.82,11.66-9.33,5.1,2.53,12.81,2.36,18.62,2.5,5.32,.12,11.84-.06,16.25-2.72,3.57,3.46,8.21,6.6,13.25,8.68,3.13,1.29,7.65,2.67,11.79,2.78,.03,.06,.07,.12,.11,.18,.45,.83,.83,1.72,1.56,2.43,.32,.32,.86-.04,.79-.35-.18-.79-.71-1.55-1.18-2.28,1.25-.05,2.46-.23,3.55-.59,.22-.07,.41-.16,.59-.25,.04,.04,.08,.07,.12,.11,.86,.85,1.36,1.94,2.31,2.71,.29,.23,.94,.07,.89-.28-.16-1.1-1.24-2.1-2.14-2.93-.08-.07-.17-.14-.25-.21,1.02-.93,1.1-2.24,.71-3.57,1.49,.46,2.85,1.12,4.31,1.98,.44,.26,1.11-.25,.77-.59-1.31-1.32-3.36-2.21-5.54-2.58-.53-1.1-1.29-2.13-1.99-2.85-3.57-3.67-9.78-5.65-15.5-6.53,1.5-1.32,2.93-2.71,4.25-4.16,2.95,1.18,7.43-1.03,9.77-2.28,3.68-1.98,6.65-4.65,9.14-7.5,5.93-6.79,9.62-14.72,11.03-22.8,1.38-7.88,.76-16.49-3-23.97Zm-56.9-39.23c-2.83,6.84-5.7,13.67-8.51,20.52-1.68-3.95-3.73-7.8-6.52-11.38-2.59-3.31-6.04-6.96-10.42-9.1,8.38-1.98,17.04-2.1,25.45-.04Zm24.39,99.28c-.59,.53,.23,1.26,.9,.99,.03,.03,.04,.06,.09,.08,4.18,1.54,8.71,2.51,12.23,4.94,1.53,1.06,2.9,2.38,3.71,3.87-.65-.02-1.29,0-1.91,.07-.44,.06-.29,.53,.1,.56,.8,.05,1.53,.15,2.23,.27,.36,.96,.67,2.15-.12,3-.66-.45-1.38-.85-2.15-1.17-.39-.16-.84,.24-.49,.48,.61,.42,1.22,.83,1.79,1.27-.18,.08-.38,.16-.6,.23-.92,.27-2.13,.23-3.18,.19-.28-.45-.59-.89-1.01-1.26-.17-.15-.59-.04-.56,.18,.06,.34,.19,.68,.35,1.02-10.15-.6-16.94-6.14-23.68-11.35-.57-.45-1.64,.1-1.31,.63-2.09,.71-4.08,1.54-6.35,1.96-3.17,.59-6.42,.55-9.66,.48-2.92-.06-5.84-.14-8.74-.41-3.05-.28-5.96-.99-8.96-1.37,.03-.03,.06-.07,.09-.1,.55-.61-.71-1.13-1.27-.57-5.23,5.22-11.84,11.87-21.33,12.12-.27,0-.54,0-.81-.02,.04-.04,.08-.08,.12-.12,.2-.24-.14-.6-.51-.5-.39,.11-.77,.28-1.13,.48-.97-.16-1.9-.43-2.65-.88,.34-.19,.67-.38,.99-.59,.34-.23-.04-.57-.4-.52-.49,.06-.99,.2-1.48,.39-.29-.32-.54-.67-.69-1.09-.93-2.65,1.72-4.99,4.38-6.33,4.1-2.07,8.99-3.46,13.44-5.05,.44-.16,.53-.72,.16-.95-7.2-4.53-11.85-11.26-12.23-18.43-.37-6.91,3.51-14.42,12.53-16.95,2.21,3.16,5.8,5.7,10.49,5.67,.47,.51,1.02,1,1.78,1.25,.35,.11,.6-.24,.45-.45-.22-.32-.53-.6-.85-.87,.63-.08,1.23-.23,1.78-.43,.47,.31,1.03,.54,1.6,.62,.44,.06,.71-.37,.31-.56-.33-.16-.67-.31-1-.48,.66-.37,1.18-.83,1.56-1.34,.2,.06,.4,.12,.61,.15,.61,.1,.83-.55,.26-.71-.16-.04-.31-.1-.46-.15,.39-.95,.29-2.02-.58-3.06-1.62-1.94-3.96-3.04-4.8-5.42-.87-2.48-.5-5.11-.15-7.63,.08-.6-1.13-.59-1.22,0-.48,3.05-.91,6.4,.78,9.29,.75,1.29,1.91,2.17,3.11,3.21,1.22,1.05,1.59,2.06,1.4,2.92-.21-.12-.41-.25-.63-.38-.31-.2-.74,.04-.56,.33,.2,.31,.5,.57,.85,.8-.31,.45-.8,.83-1.41,1.12-.14-.13-.29-.26-.43-.38-.19-.17-.52,.01-.46,.2,.05,.15,.12,.31,.21,.45-.57,.18-1.21,.3-1.89,.34-.32-.46-.65-1.05-1.2-1.23-.15-.05-.28,0-.34,.11-.16,.32,.01,.72,.27,1.1-.36-.03-.72-.08-1.09-.16-11.25-2.41-10.36-13.66-7.86-20.25,2.7-7.12,7.2-14.34,4.34-21.86-.67-1.77-1.6-3.48-2.09-5.29-.65-2.39-.5-4.85-.61-7.28-.12-2.59-.12-5.53-3.2-7.12-2.28-1.18-4.73-1.85-6.8-3.32-1.96-1.39-3.54-3.08-4.8-4.88-2.81-4-3.91-8.54-4.87-12.98,11.03,1.36,19.07,7.07,24.31,14.41,.18,.25,.7,.08,.6-.19,0-.02-.02-.04-.03-.07,3.97,3.02,7.66,5.84,10.48,9.66,2.72,3.69,4.71,7.68,6.36,11.72,0,.06,0,.12,.02,.18-.16,.07-.29,.17-.4,.27-.13,.07-.25,.15-.35,.25-.26,.24-.39,.52-.43,.8-.18,.28-.29,.6-.27,.93,.05,.82,.93,1.84,2.09,1.75,.23,.07,.5,.02,.71-.11,.08-.05,.15-.11,.22-.17h.02c.42-.07,.83-.28,1.16-.68,.33-.41,.38-.93,.2-1.39,.49-.77,.04-1.63-.86-2.04,3.04-7.38,5.99-14.78,9-22.17,.08-.21-.02-.37-.19-.47,2.66-7.37,10.42-13.16,20.19-14.92,.45,3.48,.1,6.96-1.23,10.33-1.41,3.57-4.17,6.52-6.25,9.84-1.8,2.87-2.25,5.8-2.46,8.94-.25,3.72-1.83,7.41-1.71,11.13,.11,3.28,1.83,6.41,3.19,9.47,1.64,3.69,3.39,7.37,4.85,11.11,1.43,3.65,2.51,7.48,1.98,11.31-.47,3.43-2.44,8.01-6.88,9.48,0-.02,0-.04-.01-.06-.08-.29-.6-.25-.71,0-.04,.1-.06,.21-.1,.31-.69,.19-1.14,.28-1.62,.13,.15-.19,.29-.38,.38-.59,.07-.15-.16-.24-.31-.18-.28,.1-.54,.25-.78,.4-.06-.04-.12-.08-.18-.13-.47-.36-.83-.9-1.06-1.41,.38-.15,.76-.32,.98-.58,.1-.12,0-.32-.18-.34-.35-.04-.7,.01-1.05,.1-.2-1.29,.44-2.55,1.13-3.71,.87-1.46,2-2.85,2.42-4.44,.58-2.19-.15-4.64-2.97-5.65-.78-.28-1.47,.59-.68,.89,5.87,2.24-.11,7.83-1.11,10.9-.24,.74-.3,1.57-.15,2.37-.43,.11-.86,.25-1.04,.55-.14,.23-.03,.47,.29,.55,.35,.09,.7,0,1.04-.12,.29,.69,.78,1.32,1.46,1.82-.45,.33-.96,.69-1.14,1.14-.13,.34,.35,.54,.71,.42,.55-.18,.96-.64,1.34-1.03,.07,.03,.12,.07,.2,.1,.68,.27,1.35,.36,2.01,.33-.08,.87-.06,1.76-.04,2.58,.01,.52,.95,.49,1.03,0,.14-.88,.3-1.85,.32-2.8,1.61-.48,3.04-1.61,4.06-2.6,.19-.18,.36-.37,.53-.56,11.19-2.65,18.24,7.36,18.45,14.52,.23,8-5.34,15.02-11.89,20.91Zm28.39-22.01c-2.13,3.77-4.8,7.49-8.22,10.67-1.7,1.58-3.61,3.06-5.8,4.25-1.39,.76-5.64,3.04-7.73,2.4,4.33-5.09,7.21-10.86,6.72-16.97,.02,0,.04,0,.06-.02,14.83-7.79,14.22-23.14,10.61-35.1-1.44-4.77-5.57-11.27-13.44-10.2-5.82,.79-8.65,6.45-8.45,10.48-2.34-4.44-1.3-9.57,3.98-12.5,4.82-2.68,11.05-2.19,15.88,.21,9.34,4.64,11.62,14.74,12.11,22.6,.51,8.26-1.43,16.59-5.71,24.18Z"/><path class="cls-5" d="M66.85,86.8c.47-.41,.57-1.05-.07-1.54-.25-.2-.54-.28-.83-.31-.1-.08-.21-.15-.33-.21-.19-.09-.47-.09-.65,0-.44,.22-.73,.56-.84,.93-.51,.42-.47,1.11,0,1.57,.48,.47,1.36,.58,1.93,.21,.42-.07,.7-.33,.79-.65Z"/><path class="cls-5" d="M92.28,83.9c-1.56-.49-2.98,.87-1.72,1.84,0,0,.02,0,.03,.02,.07,.2,.29,.36,.6,.43,.31,.13,.68,.14,1.09-.07,.09-.05,.18-.11,.26-.17,.86-.52,.98-1.65-.27-2.05Z"/><path class="cls-5" d="M102.38,152.5c-.07-.4-.66-.67-1.09-.34-3.01,2.28-6.63,3.99-10.59,5.04-.07-1.91,1.96-3.39,2.38-5.23,.3-1.34,.03-2.75-.47-4.04-.43-1.13-.98-2.14-.88-3.36,.06-.81,.59-1.67,.71-2.49,.26-1.73,0-3.4-.69-5.05-.1-.23-.45-.29-.68-.14-1.79,1.23-3.28,2.61-4.29,4.29-.38,.63-.52,1.57-1.25,1.93-.57,.28-4.04,.34-4.68,.16-1.5-.41-2.1-3.18-3.14-4.25-1.09-1.12-2.44-1.81-4.16-2.21-.27-.06-.48,.11-.51,.3-.45,2.8-.09,5.79,1.89,8.23,.13,.16,.48,.06,.41-.13-.41-1.09-.92-2.16-1.21-3.28-.13-.5-1.02-3.6-.38-4.06,1.07-.77,3.2,1.52,3.6,2.03,.96,1.21,1.45,2.6,1.94,3.95,.05,.15,.26,.3,.48,.28,2.16-.18,4.25-.18,6.41,0,.05,0,.11,0,.16-.02-.44,2.05-1.06,4.04-1.91,6.01-.77-1.04-1.56-2.08-2.4-3.1-.78-.95-1.46-2.02-2.69-2.66-.08-.04-.17,.03-.15,.09,.28,1.16,1.4,2.2,2.19,3.21,.9,1.16,1.79,2.33,2.64,3.51-.95,.4-1.04,1.5-.12,2,.18,.1,.42,.04,.57-.06,0,0,.01-.01,.02-.02,.1,0,.19,0,.28,0,0,0,.02,.01,.02,.02,.23,.13,.53,.17,.75,0,.31-.24,.39-.54,.35-.85,.02-.09,.04-.17,.04-.24,0-.44-.28-.85-.75-1.1,1.15-2.52,1.92-5.13,2.25-7.78,.02-.19-.17-.3-.39-.33,.82-1.95,2.15-3.66,4.06-5.12,.62,2.22,.48,4-.19,6.28-.41,1.39-.15,2.07,.4,3.39,.9,2.19,1.11,4.24-.23,6.36-.78,1.24-1.56,2.1-1.59,3.5,0,.09,.03,.15,.07,.22-1.72,.39-3.49,.67-5.31,.8-1.91,.14-3.71,.08-5.46-.11-.59-2.05-2.62-3.49-3.6-5.42-1.32-2.58-.24-4.65-.03-7.23,0-.01-.02-.02-.03-.01-1.8,1.35-1.94,3.68-1.64,5.5,.46,2.68,3.06,4.52,3.94,6.98-4.37-.65-8.4-2.11-12.7-3.59-.45-.15-.82,.31-.39,.51,.03,.02,.07,.03,.1,.05-.04,.07-.07,.15-.07,.24-.05,3.58-.19,7.16-.1,10.74,.07,2.58,.61,5.05,2.79,7.1,4.11,3.87,11.9,5.4,18.17,5.13,6.54-.28,11.87-3.1,14.94-7.48,3.95-5.65,3.24-12.08,2.18-18.2Zm-2.52,15.86c-2.52,4.8-7.67,8.29-14.6,8.62-5.91,.27-13.78-1.2-17.38-5.11-2.28-2.48-2.01-5.59-2-8.47,.01-2.6,0-5.2,0-7.8,5.92,2.57,12.34,4.16,19.26,3.56,6.06-.53,11.67-2.5,16.12-5.66,.78,4.94,1.04,10.19-1.41,14.86Z"/><path class="cls-5" d="M79.78,149.07c-.02-.22-.18-.42-.53-.45-.94-.08-1.29,1.38-.31,1.45,.66,.05,1.08-.59,.84-1Z"/><path class="cls-5" d="M89,148.01c-.45,.02-.72,.25-.83,.53-.05,.05-.11,.08-.15,.15-.14,.21,0,.4,.21,.48,.11,.18,.29,.34,.58,.4,.15,.03,.34,0,.46-.08h0c.96-.27,.85-1.52-.28-1.48Z"/></g></g></g></svg>