<?xml version="1.0" encoding="UTF-8"?><svg id="Layer_2" xmlns="http://www.w3.org/2000/svg" width="178.58" height="249.45" viewBox="0 0 178.58 249.45"><defs><style>.cls-1{fill:#f4c17d;}.cls-2{fill:#fff;}.cls-3{fill:#fceef4;}.cls-4{fill:#231f20;}</style></defs><g id="cartes-couleurs"><g id="card-bg"><rect id="bg" class="cls-2" width="178.58" height="249.45" rx="8.5" ry="8.5"/><path id="fg" class="cls-3" d="M171.5,58.26V10.09c0-1.66-1.35-3.01-3.01-3.01H10.09c-1.66,0-3,1.35-3,3.01V239.35c0,1.66,1.34,3.01,3,3.01H168.49c1.66,0,3.01-1.35,3.01-3.01V91.4m0-.01V58.29M29.01,44.95s.01-.03,.02-.04c-.01,.02-.02,.04-.02,.06"/></g></g><g id="cartes"><g id="leopard"><path class="cls-1" d="M131.35,153.15c.02-.42,.04-.85,.06-1.27,.23-1.79,.28-3.62,.31-5.44,0-.12,0-.24-.01-.36,.41-7.96,.71-16.11-.48-23.83-.36-2.33-.98-4.54-1.52-6.81-.5-2.09-.46-4.19-.85-6.28-.11-.58-.4-1.48-.83-2.36,.06-1.76,.04-3.54,.12-5.2,.19-3.85,.34-7.67-.12-11.5-.43-3.68-1.2-7.31-1.72-10.99-.38-2.69-.81-4.8-2.15-6.61-.02-.32-.04-.65-.05-.97-.01-.56-.03-1.09-.07-1.59,2.3-2.38,3.92-5.2,3.47-8.88-.49-3.96-3.78-6.23-7.21-4.34-2.64,1.45-4.45,5.08-4.58,8.31-.75-.45-1.7-.66-2.86-.46-2.55,.45-5.16-.92-7.62-1.43-2.16-.44-4.39,0-6.55,.01-1.08-.13-2.17-.25-3.25-.36v.03c-.96,0-1.74,.37-2.31,.95-.47,.05-.94,.11-1.41,.17-.1,0-.19,0-.29,.01-1.97,.18-3.9,.41-5.79,1.05-.67,.23-1.17,.62-1.51,1.11-.68,.27-1.33,.57-1.97,.93-.3-.94-.81-1.76-1.4-2.59-.16-.23-.4-.42-.67-.57-1.54-2.5-4.64-4.21-7.25-3.29-3.96,1.41-3.86,6.38-2.65,9.86,.54,1.54,1.48,3.07,2.68,4.12-1.97,7-3.47,15.1-2.81,22.32,.26,2.85,.54,6.09,1.17,9.23-.28,2.39-.03,5.03-.14,7.14-.17,3.16-.93,6.85-.16,9.95-.82,1.91-1.3,4.08-1.73,5.94-1.05,4.45-1.84,9.01-2.7,13.5-1.2,6.26-2.39,13.06-.98,19.35-.59,1.62-.64,3.55-.44,5.46-.74-.39-1.5-.75-2.25-1.11-1.08-.52-2.36-1.13-3.64-1.45-1.31-1.18-1.99-2.76-3.5-4.03-3.26-2.74-5.06-7.17-5.75-11.6-.69-4.42,.52-9.06,3.17-12.49,3.05-3.95,7.98-5.65,11.9-8.33,.55-.38,.92-.86,1.12-1.38,.27-.31,.53-.63,.75-.97,.15-.17,.3-.34,.43-.51,.64-.8,.89-1.69,.86-2.53,.42-2.07-.03-4.26-1.74-6.05-3.82-3.98-9.45-2.32-13.7-.33-4.67,2.19-8.03,5.58-9.8,10.83-1.38,4.1-2.43,9.67-1.65,14.13-.55,4.01,.65,8.84,1.78,12.18,1.13,3.33,3.5,10.01,7.1,11.63,2.45,3.08,5.45,5.64,8.87,7.5,1.37,1.38,3.09,2.5,4.63,3.38,1.47,.83,2.99,1.63,4.49,1.83,.1,.21,.19,.43,.29,.64,.38,1.51,1.03,2.99,1.62,4.13,1.5,2.9,3.91,5.24,6.88,6.21,3.32,1.09,6.77,.31,7.68-3.79,.39-1.77,.27-3.86-.29-5.77,.65,.04,1.29-.13,1.86-.48,2.59,5.26,7.39,11.43,13.28,8.95,1.15-.49,2.02-1.13,2.65-1.89,.99-.57,1.75-1.5,2.2-2.65,.59-1.52,.71-3.49,.16-5.12,.59,.3,1.22,.56,1.91,.77,.9,.27,1.87,.43,2.87,.47-.22,2.67,.62,5.2,3.44,6.84,4.4,2.56,10.18,.47,13.02-3.67,3.02-4.4,4.83-10.86,5.41-16.25,.43-4.03,.62-8.72,.11-13.11,0-.09,.01-.18,.02-.28h.06Zm-26.96-56.01c-.05,.08-.11,.14-.16,.22-1.6,2.73-5.96,5.1-8.88,4.99-2.69-.1-5.22-2.09-6.53-4.59-1.47-3.84-1.88-8.16,1.09-11.37,.14-.15,.26-.32,.37-.48,1.67-1.49,3.49-2.24,5.9-2.28,.31,0,.61,0,.9,.03,1.9,1.6,4.16,2.64,5.76,4.71,1.41,1.83,2.3,5.97,1.55,8.76Z"/><path class="cls-4" d="M67.54,177.52c-.63-.32-1.25-.63-1.87-.96,.46,.17,.94,.26,1.4,.25,.08,0,.14-.02,.21-.04-.39-1.27-.61-2.62-.66-3.88-.55-.32-1.16-.49-1.73-.38-.47,.1-.83,.26-1.1,.7-.24,.4-.33,.9-.17,1.36,.21,.63,.62,1.12,1.12,1.49-6.9-3.72-13.44-8.17-18-15.12-3.18-4.85-4.8-10.53-5.09-16.44-.05-1.07-.05-2.15-.03-3.22,.13,.23,.29,.45,.46,.66,.28,.36,.57,.63,1.01,.73,.39,.09,.9,0,1.23-.27,.68-.55,.95-1.63,.42-2.42-.49-.73-.99-1.38-1.86-1.55-.42-.08-.82,.03-1.14,.33,.08-1.14,.19-2.28,.35-3.41,.41-2.99,.93-6.11,2.13-8.86,2.19-5.01,6.99-8.88,11.76-10.66,2.55-.95,5.45-1.27,7.95,.03,2.18,1.13,4.07,3.47,4.13,6.18,.14,6.52-7.84,8.22-11.76,11.01-3.47,2.47-5.95,6.48-6.79,10.87-1.08,5.63,.73,11.54,4.08,15.89,.77,1.01,1.62,1.92,2.53,2.76-.4,.1-.75,.39-.89,.84-.12,.4-.1,.81,.05,1.16,.09,.65,.75,1.2,1.35,1.13,.75-.09,1.19-.69,1.21-1.48,0-.07,0-.14-.02-.21,1.39,1.07,2.88,1.99,4.44,2.76,0,0-.02,0-.03,0-.22-.03-.46-.08-.68-.04-.24,.03-.47,.11-.7,.19-.59,.19-.92,1.11-.51,1.65,.3,.4,.58,.73,1.02,.97,.38,.21,.8,.32,1.22,.44,.66,.2,1.36-.33,1.56-.98,.14-.45,.06-1.05-.24-1.45,.54,.23,1.09,.44,1.65,.64-.02-.03-.03-.06-.05-.1h0v-.03s-.05-.08-.07-.11c-.06-.12-.11-.23-.16-.35-.06-.13-.12-.25-.17-.38-.05-.13-.01-.25,.07-.34-4.73-1.83-9.13-4.87-11.96-9.45-3.22-5.21-4.04-11.87-1.29-17.51,1.26-2.58,3.13-4.75,5.43-6.27,2.51-1.65,5.41-2.57,7.8-4.45,3.36-2.65,5.25-7.15,2.65-11.2-6-9.32-19.1-1.14-23.43,5.92-2.93,4.78-3.63,11.29-3.83,16.9-.21,5.86,.68,11.8,3.19,17.04,4.98,10.4,14.67,16.42,24.38,20.98-.22-.41-.41-.84-.58-1.29Z"/><path class="cls-4" d="M131.12,117.5c-.82-3.92-2.14-7.67-2.35-11.72-.2-3.95,.25-7.9,.1-11.85-.15-3.89-.73-7.75-1.5-11.56-.79-3.9-1.64-8.05-3.1-11.72,3.78-3.2,5.96-10.34,1.69-14.08-2.01-1.77-4.72-1.39-6.74,.17-2.27,1.76-3.32,4.66-4.24,7.42-.83-.25-1.67-.47-2.52-.67-.26-.21-.57-.32-.93-.27-.05,0-.1,.01-.14,.02-8.87-1.94-18.09-1.44-26.73,1.47-.06-.01-.13-.03-.19-.05-.82-.27-1.72,.14-2.17,.91-.24,.09-.48,.18-.72,.28-.79-4.8-7.11-7.76-10.76-4.71-1.97,1.64-2.1,4.85-1.67,7.29,.37,2.14,1.6,5.63,3.75,6.51-5.18,11.58-2.49,24.77-2.17,37.08,.16,6.19-.55,12.22-1.77,18.27-.63,3.13-1.35,6.25-2,9.38,0,.03,.02,.06,.01,.1-.03,.5-.13,.98-.24,1.47-.02,.1-.07,.16-.14,.2-.41,2.04-.79,4.08-1.09,6.14-.32,2.23-.56,4.48-.71,6.74h0s0,.07,0,.1c-.04,.23-.07,.46-.1,.69-.01,.17-.02,.35-.04,.52,0,.03,.02,.06,.01,.1,0,.05-.01,.09-.02,.13,.02-.02,.04-.03,.05-.05-.14,2.93-.14,5.86,.01,8.79,.28,5.28,1,10.68,3.19,15.47,1.83,4,4.83,7.71,8.72,9.43,2.02,.9,4.44,1.03,6.16-.12,.39,.6,.88,1.13,1.41,1.5,.33,.23,.61-.3,.37-.57-.41-.46-.83-.91-1.18-1.42,.48-.46,.88-1.05,1.16-1.79,.19,.16,.38,.32,.56,.47,.71,.61,1.45,1.45,2.3,1.82,.28,.12,.68-.21,.44-.53-.56-.78-1.49-1.32-2.23-1.9-.27-.21-.55-.44-.83-.66,.19-.77,.29-1.53,.3-2.29,.1,.07,.2,.13,.29,.2,.69,.46,1.54,1.11,2.35,1.19,.28,.03,.51-.32,.27-.56-.59-.57-1.47-.85-2.17-1.24-.26-.15-.51-.32-.77-.48-.22-3.06-1.75-5.95-3.77-8.12-2.77-2.97-6.32-5.26-7.45-9.56-.12-.46-.84-.33-.77,.15,.57,3.92,3.66,6.36,6.23,8.84,1.69,1.62,3.28,3.36,4.13,5.67,.25,.69,.46,1.53,.58,2.42-.1-.05-.2-.1-.3-.13-.13-.05-.25,.15-.17,.26,.15,.23,.34,.42,.55,.61,.06,.83,.02,1.67-.13,2.45-.23-.15-.46-.28-.7-.39-.15-.07-.36,.11-.23,.28,.22,.3,.48,.57,.75,.83-.2,.61-.49,1.15-.9,1.6-.17-.35-.33-.7-.5-1.05-.11-.22-.45-.09-.43,.15,.05,.47,.18,.95,.38,1.4-3.76,2.67-8.96-1.97-11.18-4.97-2.41-3.25-3.78-7.18-4.55-11.23,.12,.18,.25,.36,.4,.54,.55,.68,1.53,.73,2.27,.53l.09-.03c.95-.26,1.48-1.36,1.49-2.34,0-.5-.15-.84-.33-1.23,0-.02,.01-.04,.02-.07,.32-.75,.13-1.72,.07-2.51-.11-1.38-1.64-1.98-2.54-.99-.35,.39-.74,.76-1.03,1.2-.34,.51-.53,1.11-.72,1.71-.03,.1-.09,.26-.15,.43,0-.07-.02-.13-.03-.2-.6-4.89-.64-9.75-.31-14.58,.08-.15,.08-.31,.03-.46,.13-1.77,.32-3.54,.55-5.31,.11,.37,.25,.71,.39,1.01,.79,1.65,3.44,1.09,3.68-.71,.16-1.18,.46-2.41,.33-3.6-.12-1.01-.98-1.46-1.73-1.11-.29-.13-.61-.2-.9-.18-.46,.02-.84,.2-1.16,.49,.41-2.48,.88-4.95,1.42-7.42,.08-.36,.16-.72,.23-1.08,.07,.2,.17,.39,.29,.54,.01,.33,.03,.66,.07,.99,.21,1.6,2.16,2.27,2.94,.7,.27-.55,.43-1.12,.48-1.71,.48-.04,.91-.23,1.33-.47,.03-.02,.18-.11,.29-.18,1.96-.14,2.19-3.72,.16-3.99-.62-.08-1.47-.05-2.05,.36-.2-.09-.41-.18-.62-.23-.89-.2-1.68,.19-2.22,.84,.4-1.88,.79-3.77,1.12-5.66,.61,.81,1.89,1.05,2.62,.28,.22,.03,.45,0,.69-.09,.53-.21,.98-.51,1.36-.97h0c.47,.29,1.02,.41,1.56,.37,1.48-.1,2.44-1.31,2.47-2.85,.03-1.53-1.27-2.2-2.43-1.97-.15-.14-.32-.26-.51-.33-.65-.26-1.33-.18-1.95,.12h-.01c-.47-.2-1-.19-1.39,.17-.21-.2-.5-.27-.77-.08-.43,.31-.76,.77-1.02,1.3,.07-.52,.14-1.05,.2-1.57,.18-1.63,.29-3.26,.34-4.9,.06,.12,.11,.24,.18,.35,.91,1.48,3.26,1.15,3.57-.69,.09-.54,.13-.64,.5-1.03-.1,.1-.07,.09,.07,0,.03-.01,.08-.03,.17-.07,.08-.02,.13-.04,.16-.05,.11,0,.22-.02,.32-.04,1.15-.17,2.09-1.07,2.03-2.41-.05-1.24-1.08-2.26-2.23-2.2-.82,.04-1.62,.36-2.33,.86-.02-.04-.03-.07-.05-.11-.35-.74-1.24-.59-1.71-.15-.27,.26-.48,.56-.66,.89-.05-2.1-.16-4.21-.31-6.31-.1-1.38-.2-2.77-.29-4.16,.69,.45,1.75,.25,1.89-.8,.03-.23,.05-.5,.08-.79,.86,.68,2.36,.43,2.61-.92,.84-.2,1.48-1.14,1.25-2.26l-.04-.17c-.15-.72-1.01-1.37-1.68-1.26-.25,.04-.49,.13-.73,.24-.4-1.32-2.17-1.39-2.81-.27-.28-.2-.66-.13-.91,.13-.08-2-.11-4-.05-5.99,.9,.61,2.5,.14,2.4-1.27,.02-.14,.03-.29,.05-.43,.28,.19,.71,.14,.92-.14,.58-.79,.4-1.69,.3-2.63-.07-.7-.25-1.47-.89-1.71-.05-.18-.11-.36-.22-.54-.21-.35-.67-.55-1.04-.4-.48,.21-.79,.55-1.02,.96,.41-2.93,1.09-5.81,2.17-8.62,.08,.02,.16,.04,.24,.05,.35,.04,.55-.44,.22-.64-2.05-1.2-3.24-3.4-3.76-5.82-.5-2.35-.5-5.6,1.54-7.1,1.76-1.29,4.12-1.13,5.96-.13,1.82,.99,2.9,2.65,3.72,4.59-.33,.33-.05,1.06,.44,.85,.1-.04,.21-.08,.31-.12,.02,.92,.63,1.7,1.5,1.99,.35,.12,.69,.17,1.02,.17,.4,.46,1.04,.67,1.62,.46l.04-.02c.34,.05,.72-.11,.97-.38,.53-.21,1.07-.4,1.64-.52,.91-.18,1.31-1.31,1.11-2.23,.09-.67-.17-1.39-.64-1.82,1.64-.4,3.3-.71,4.97-.93-.54,.81-.48,2.09,.51,2.59,.39,.2,.82,.34,1.1,.72,.91,1.23,2.34,.93,2.89-.24,0,0,.01,0,.02,0,.19,.04,.55-.08,.77-.14,.62-.17,1.1-.47,1.56-.96,.74-.79,.56-1.77,0-2.41,.85,0,1.69,.03,2.54,.08-.05,.07-.1,.14-.15,.21-.42,.59-.52,1.32-.15,1.98l.17,.3c.35,.62,1.07,1.03,1.74,.97,.14-.01,.34-.05,.56-.08,.13,.38,.35,.75,.66,1.1,.63,.72,1.63,.61,2.37,.21,.46-.25,.68-.53,.81-.84,.32,.05,.65,.1,.81,.08,.68-.06,1.25-.31,1.84-.63,.08,0,.15,.01,.23,.01,.98,.06,1.15-1.11,.73-1.81,.64,.17,1.27,.34,1.91,.54,.24,.07,.43-.12,.51-.35,.83-2.53,1.72-5.26,3.69-7.02,1.08-.96,2.38-1.5,3.64-1.45-.48,.1-.91,.36-1.2,.81-.27,.41-.07,.93,.41,.95,.53,.02,.97,.32,1.34,.56,.35,.22,.74,.38,1.14,.23,.46-.17,.69-.7,.61-1.2-.05-.31-.2-.57-.41-.78,.42,.26,.81,.6,1.16,1.04,1.53,1.92,1.75,4.53,1.03,6.87-.47,1.52-1.3,2.75-2.16,3.97,0-.05,.02-.1,.02-.14,0-.3-.12-.6-.35-.79-.3-.25-.69-.32-1.02-.09l-.05,.03c-.46,.31-.44,.96-.1,1.36,.09,.1,.2,.17,.32,.22,.06,.02,.24,.13,.1,.03,.21,.15,.43,.13,.63,.03-.28,.39-.55,.78-.81,1.19-.14-.08-.35-.06-.44,.08-.17,.24-.31,.49-.42,.75-1.09,1.54-.71,3.75,.99,4.65,.12,.06,.25,.05,.36,0,.22,.14,.59,0,.54-.33,0-.03-.01-.06-.02-.09,.15,.04,.28-.08,.34-.23,.45,1.91,.95,3.81,1.38,5.71-.25-.72-.49-1.38-1.15-1.78-.27-.16-.53-.17-.77-.1-.84-.43-1.89-.1-2.33,.83-.94,1.95-.19,4.45,1.48,5.6,.37,.25,.82,.24,1.22,.07,.28,.11,.59,.16,.9,.1,.76-.15,1.2-.73,1.32-1.43,.34,1.92,.62,3.86,.81,5.8-.39-.5-.94-.77-1.53-.81-.74-.5-1.81-.57-2.49,.04-.07,.01-.14,.04-.21,.06-.19-.25-.4-.49-.62-.72-.32-.32-.97-.16-1.03,.35-.22,1.84-.02,3.62,.06,5.47,.1,2.58,3.33,2.33,3.76,.38,.37-.16,.69-.43,.9-.8,.21-.11,.39-.26,.54-.43,.36-.17,.64-.46,.83-.81,.06,1.18,.09,2.37,.08,3.56-.05,3.83-.48,7.69,0,11.51,.24,1.91,.7,3.77,1.17,5.62-.61-.6-1.68-.67-2.21,.35-.21,.4-.3,.81-.31,1.23-.43,.26-.74,.72-.65,1.28,.12,.75,.24,1.51,.34,2.26,0,.22,.02,.43,.08,.61l.03,.1c.19,.57,.52,.93,.9,1.1,.04,.04,.08,.09,.13,.13,.74,.67,2.21,.65,2.62-.5,.16-.47,.25-.9,.28-1.33,.59,3.28,.87,6.62,.98,9.97-.08-.17-.16-.35-.26-.51-.05-.08-.11-.15-.18-.21-.29-1.05-1.8-1.17-2.31-.17-.02,.04-.04,.07-.06,.11-.56-.02-1.11,.25-1.32,.84,.19-.3,.15-.23-.13,.2-.09,.18-.14,.37-.17,.56-.21,1.22,.81,2.29,1.85,2.07,0,.01,0,.03,0,.04h.02c.06,.88,.62,1.62,1.5,1.7,.44,.04,.82-.1,1.12-.34,0,1.48,0,2.95-.03,4.43-.45-.67-1.38-1.03-2.12-.76-.78-1.12-2.34-.63-2.7,.64-.24,.87-.41,1.82-.12,2.69,.07,.21,.17,.4,.29,.57-.05,.94,.77,1.73,1.53,1.96,.4,.12,.82,.05,1.19-.12,.14,.05,.28,.09,.44,.1,.49,.05,1.03-.14,1.44-.49v.11c-.02,1.81-.02,3.63-.04,5.44-.56-1.17-2.57-1.2-2.74,.35-.09,.83-.17,1.67-.26,2.5-.06,.12-.11,.25-.15,.4-.06,.29-.06,.58,0,.87-.02,.15-.04,.3-.06,.44-.33,2.19,2.1,2.98,3.13,1.5-.09,4.02-.26,8.05-.66,12.03-.71,7.08-2.57,14.43-7.51,19.45-.12,.12-.14,.26-.1,.38-1.98,.77-3.83,1.71-6.02,1.71h-.01s.03-.08,.04-.12c.18-.6,.55-1.53,.05-2.03-.04-.05-.11-.05-.16-.01-.37,.23-.34,.52-.44,.95-.09,.4-.22,.78-.36,1.16-.87-.09-1.74-.34-2.54-.72,.32-.66,.55-1.35,.6-2.04,.01-.15-.21-.23-.29-.11-.38,.55-.64,1.2-.96,1.8-.7-.42-1.33-.97-1.85-1.64-.15-.2-.28-.4-.41-.6,.42-.6,.83-1.22,1.14-1.89,.09-.2-.14-.36-.28-.21-.43,.45-.83,.95-1.22,1.45-1.52-3.19-.19-6.87,1.27-10.18-.07,.24-.13,.48-.17,.72-.12,.74-.04,1.35,.24,2.03,.23,.56,.61,.95,1.19,1.01,.49,.05,1.14-.24,1.34-.78,.18-.5,.39-.94,.45-1.48,.05-.45,.15-.89,.28-1.33,.25-.83-.33-1.73-1.02-2.01-.49-.2-1.16-.1-1.6,.28,.28-.61,.55-1.21,.78-1.77,3.45-8.24,4.09-17.9,1.61-26.56-.16-.55-.92-.27-.78,.28,1.45,5.59,1.86,11.35,.93,17.09-.44,2.74-1.16,5.44-2.17,8-.93,2.38-2.17,4.6-2.98,7.03-.93,2.79-1.06,5.87,.12,8.31-.11,.14-.22,.28-.33,.41-.64,.77-1.41,1.46-1.93,2.32-.2,.32,.23,.7,.5,.49,.82-.62,1.45-1.58,2.07-2.42l.08-.11c.56,.9,1.32,1.69,2.33,2.31-.42,.71-1.17,1.88-1.63,1.65-.22-.11-.51,.11-.42,.38,.45,1.26,1.65-.04,2.05-.63,.22-.32,.45-.68,.66-1.05,.81,.39,1.68,.65,2.59,.78-.47,.89-1.68,2.89-2.78,2.13-.3-.21-.63,.24-.45,.54,.91,1.51,2.6-.11,3.27-1.03,.35-.48,.64-1,.88-1.55,2.43,.1,4.96-.7,6.83-2.24,.08-.01,.17-.04,.24-.12,5.23-5.64,7.21-13.34,7.87-21.1,.66-7.79,.63-15.67,.69-23.48,.06-7.92,.36-15.99-1.26-23.78Z"/><path class="cls-4" d="M85.11,135.08c.15-.64,1.08-.42,.93,.23-3.16,13.99-5.59,30.51,.7,43.97,1.42,3.03,3.47,5.81,6.36,7.31,1.54,.8,3.36,1.21,5.08,1.02-.1-.6-.17-1.19-.17-1.79,0-.29,.35-.35,.45-.09,.23,.55,.4,1.14,.54,1.73,.73-.17,1.43-.44,2.07-.86-.49-.78-.84-1.49-.91-1.78-.04-.2,.15-.33,.3-.21,.48,.4,.87,.96,1.26,1.5,.2-.17,.39-.35,.57-.55,.44-.48,.75-.99,.97-1.51-.48-.58-.92-1.26-1-1.99-.01-.09,.1-.13,.16-.08,.42,.34,.77,.79,1.12,1.23,.63-2.68-.9-5.66-1.85-8.27-1.17-3.21-2.15-6.5-2.82-9.87-1.41-7.01-1.61-14.61,1.27-21.23,.08-.17,.36-.07,.3,.12-2.41,7.76-2.15,15.78-.15,23.62,.96,3.75,2.42,7.23,3.68,10.86,.66,1.91,.86,3.83,.29,5.55,.02,.02,.04,.05,.07,.07,.37,.34,.76,.65,1.18,.91,.37,.24,.8,.37,1.08,.73,.17,.21,.1,.58-.2,.59-.85,.02-1.83-.89-2.45-1.53-.31,.62-.73,1.21-1.29,1.75-.12,.11-.24,.22-.36,.32,.58,.69,1.24,1.67,2.11,1.86,.18,.04,.28,.28,.19,.45-.57,1.12-1.93-.26-2.99-1.78-.75,.52-1.55,.85-2.36,1.06,.08,.36,.17,.72,.26,1.08,.3,1.14,.75,2.27,.85,3.45,.03,.41-.53,.62-.72,.25-.58-1.1-.78-2.43-1.05-3.66-.07-.32-.14-.64-.21-.96-3.82,.47-7.94-2-10.33-5.2-4.22-5.67-5.63-13.77-6.01-20.85-.49-9.27,1.04-18.52,3.07-27.49Z"/><path class="cls-4" d="M109.15,78.02c.44-.28,.96-.14,1.26,.26h.02s.06-.01,.09-.02c.12-.02,.24,.07,.31,.17,0,0,0,.02,.01,.02,.01,0,.02,.02,.04,.03,.57,.24,.82,.96,.62,1.59-.15,.46-.5,.74-.9,.82-.01,.01-.03,.02-.04,.04-.02,.03-.03,.06-.06,.09-.51,.69-1.19,.22-1.46-.44-.02-.06-.04-.12-.06-.18-.56-.69-.66-1.85,.16-2.39Z"/><path class="cls-4" d="M82.25,78.67c.24-.33,.6-.43,.92-.3,.1-.03,.21-.04,.32-.04,.18,0,.36,.06,.52,.14,.58,.1,1.09,.53,1.11,1.29,.02,.66-.36,1.27-.87,1.52-.04,.06-.08,.11-.13,.15-.76,.71-2.16,.11-2.13-1.02,0-.08,.03-.14,.04-.21-.16-.5-.07-1.14,.22-1.53Z"/><path class="cls-4" d="M92.73,95.55c.01-.11,.14-.22,.24-.22h.09c.6-.33,1.16-1.85,1.37-2.43,.27-.75,.4-1.51,.5-2.29-.09-.05-.17-.11-.24-.18-.42-.13-.78-.41-1.03-.87-.49-.92,.45-1.27,1.13-1.36,.64-.08,1.26,.02,1.83,.27,.53,.03,1.05,.26,1.47,.66,.13,.13,.12,.33,.02,.46,.01,.73-1.06,1.24-1.61,1.32-.18,.02-.42,.03-.66,0,.05,.51,.11,1.02,.25,1.53,.25,.94,.83,1.75,1.03,2.68,.05,.24-.18,.41-.36,.26-.84-.7-1.31-2.13-1.46-3.54-.09,.59-.26,1.18-.47,1.73-.27,.68-.97,2.47-1.79,2.5-.21,0-.33-.19-.31-.4v-.1Z"/><path class="cls-4" d="M92.8,102.02c3.43,1.4,8.21,.35,10.49-2.84,4.57-6.39-.51-14.61-6.98-15.6-.04-.03-.08-.04-.14-.05-.29-.04-.57-.05-.86-.05-.7-.02-1.42,.04-2.14,.2-.1,.02-.1,.12-.06,.19-3.08,1.08-5.46,4.28-5.77,7.82-.34,3.85,1.97,8.9,5.45,10.31Zm-2.73-14.98c1.6-1.87,3.64-2.52,5.9-2.72,3.56,.75,6.73,2.72,7.91,6.88,1.38,4.82-1.49,9.66-6.09,10.31-2.3,.33-4.73,.22-6.51-1.58-1.56-1.58-2.85-4.07-3.1-6.37-.26-2.32,.41-4.8,1.89-6.53Z"/><path class="cls-4" d="M120.31,104.25c.1-.14,.2-.3,.31-.45,.26-.46,.45-.99,.58-1.49,.2-.73,1-1.17,1.65-1.04,.25-.14,.5-.25,.79-.3,.19-.03,.37-.03,.55,0,.18-.11,.37-.19,.57-.23,.64-.28,1.39-.23,2,.14,.84,.51,1.21,1.66,.76,2.61-.21,.43-.48,.83-.76,1.2-.27,.36-.6,.54-.96,.6-.45,.47-1.04,.74-1.65,.66-.17,.27-.35,.55-.52,.82-.69,1.08-1.88,1.6-2.97,.77-1-.75-1.17-2.29-.35-3.28Z"/><path class="cls-4" d="M112.17,97.55c.46-.02,.94,0,1.4-.08,.03,0,.16-.04,.25-.06,.36-1.31,1.79-1.48,2.68-.76,.37-.12,.81,.04,.96,.52,.17,.54,.27,1.05,.2,1.53,.05,.27,.07,.56,.04,.88-.05,.51-.28,.87-.59,1.08-.03,.31-.1,.61-.22,.87-.48,.99-1.43,1.31-2.4,1.2-.72-.08-1.38-.52-2.12-.57-1.15-.09-2.17-.85-2.23-2.2-.05-1.25,.87-2.36,2.03-2.41Z"/><path class="cls-4" d="M119.46,117.45c.05-.5,.16-.96,.32-1.43,.19-.57,.37-1.2,.75-1.65,.47-.56,1.13-.83,1.82-.71,.64,.11,1.29,.68,1.43,1.38,.15,.8-.05,1.37-.62,1.88-.03,.03-.06,.04-.09,.07-.08,.41-.25,.76-.55,1.1-.4,.46-.86,.76-1.39,1.01-.41,.2-.97,.01-1.28-.3-.37-.37-.45-.84-.4-1.36Z"/><path class="cls-4" d="M112.07,114.59c-.06-.12-.12-.24-.18-.38-.4-1.01,.3-2.23,1.2-2.55,.51-.18,1.02-.16,1.53,0,.02,0,.15,.04,.25,.07,.07,0,.14,0,.2,0,.84-.04,1.76,.58,2,1.49,.23,.9-.03,1.99-.81,2.49-.35,.22-.65,.31-.98,.34h-.01s0,0-.01,0c-.03,0-.06,.01-.1,.02-.15,.08-.31,.16-.46,.23-.02,0-.11,.06-.19,.09-.06,.03-.15,.08-.16,.1-.08,.05-.24,.25-.13,.08,.02-.02,.02-.02,.03-.03l.04-.06s-.08,.09-.12,.15c-.05,.11-.11,.21-.19,.29,0,.01-.02,.03-.02,.04h0c-.61,.66-1.87,.6-2.19-.51-.2-.69-.04-1.33,.31-1.86Z"/><path class="cls-4" d="M101.76,110.42c.19-.36,.49-.69,.88-.8,.29-.09,.54-.08,.8-.02v-.03c.5,.14,.97,.39,1.44,.6,.74,.34,1.04,1.5,.64,2.23-.19,.36-.49,.69-.88,.8-.42,.13-.78,.06-1.18-.11-.35-.14-.73-.26-1.06-.46-.7-.42-1.06-1.44-.64-2.22Z"/><path class="cls-4" d="M85.59,110.12c.28-.21,.63-.3,.96-.3,.27,0,.51,.08,.73,.19,.09,.02,.19,.05,.27,.09,.12,.05,.23,.11,.34,.17,.62,.31,.73,1.11,.5,1.73-.2,.54-.61,.82-1.08,.95-.44,.24-.94,.31-1.41,.02-.4-.24-.79-.58-.89-1.09-.14-.69,.02-1.34,.57-1.76Z"/><path class="cls-4" d="M74.75,104.22c.89-.18,1.77,.28,2.23,1.06,.42-.24,.95-.27,1.5-.04,.42,.17,.81,.3,1.11,.68,.23,.3,.42,.63,.67,.93,.35,.44,.39,1.39-.3,1.53-.32,.06-.62,.16-.93,.24-.32,.67-.94,1.09-1.61,1.07-.52,.4-1.14,.59-1.94,.38-1.33-.34-1.95-1.57-2.39-2.84-.47-1.33,.46-2.78,1.68-3.02Z"/><path class="cls-4" d="M121.32,125.56c.12-.25,.28-.49,.45-.7h0c.19-.32,.39-.61,.71-.78,.58-.31,1.28-.37,1.83-.06,.12-.03,.24-.05,.38-.03,.55,.06,.99,.52,1.02,1.14,.04,.81-.04,1.64-.54,2.28-.28,.36-.64,.62-1.04,.77l-.31,.4c-.43,.55-1.19,.7-1.78,.46-.65-.26-.99-.85-1.08-1.58-.08-.63,.09-1.34,.37-1.9Z"/><path class="cls-4" d="M113.07,126.79c.4-.57,1.11-.89,1.75-.93,1.01-.06,2.32,.78,2.23,2.04-.03,.4-.08,.74-.29,1.08-.12,.53-.49,.99-1.04,1.19-.66,.25-1.45,0-1.99-.51-.33-.13-.6-.37-.83-.75-.41-.7-.28-1.49,.16-2.12Z"/><path class="cls-4" d="M119.01,149.56c.23-.67,.67-1.19,1.26-1.5,.72-1.06,2.28-1.43,3.2-.41,1.02,1.14,1.12,3.04-.05,4.13-.1,.1-.22,.18-.33,.25-.27,.85-1.13,1.59-2,1.28-.38-.14-.67-.27-.97-.48-1.08-.54-1.55-1.96-1.11-3.27Z"/><path class="cls-4" d="M116.25,138.35c0,.92,.81,1.61,1.62,1.59,.02,0,.18,0,.27,0h.02c.07,.05,.14,.11,.22,.15,.03,.03,.07,.06,.1,.09,.75,.69,1.86,.58,2.43-.3,.26-.41,.34-1,.22-1.52,.03-.45-.06-.92-.29-1.31-.4-.67-1.02-.92-1.72-.96-.53-.03-1.01,.17-1.4,.52-.86,.06-1.47,.84-1.47,1.75Z"/><path class="cls-4" d="M105.53,140.89c.18-.51,.45-.84,.87-1.14,.08-.06,.53-.44,.34-.22,.53-.62,1.28-.77,1.94-.58,.22-.05,.45-.05,.67,0,.91,.22,1.43,1.2,1.27,2.17,0,.33-.04,.38-.12,.15l.09,.52c.03,.42-.05,.85-.09,1.26-.05,.64-.11,1.28-.16,1.92-.09,1.08-1.27,1.79-2.17,1.69-1.06-.12-1.73-.96-1.86-2.08-.04-.38-.06-.76-.06-1.14-.07-.06-.13-.12-.19-.19-.57-.7-.85-1.44-.52-2.36Z"/><path class="cls-4" d="M108.31,152.97c.24-.18,.49-.34,.75-.45,.09-.16,.21-.3,.37-.4,.54-.35,1.39-.26,1.72,.4,.01,.03,.02,.05,.04,.08,.51,.26,.87,.74,1.08,1.32h-.03c.17,.52,.14,1.06-.09,1.58-.55,1.23-2.08,1.51-3.14,.92-.64-.36-1.06-.92-1.28-1.66-.2-.67,.06-1.39,.58-1.79Z"/><path class="cls-4" d="M102.89,154.96c.48,.19,.97,.2,1.46,.05,.01,0,.03-.01,.04-.01,.62-.1,1.26-.57,1.5-1.17,.21-.54,.29-1.06,.12-1.64-.04-.13-.08-.24-.14-.34-.22-.83-.82-1.49-1.66-1.74-1.18-.35-2.44,.6-2.7,1.84l-.05,.23c-.25,1.19,.39,2.38,1.42,2.79Z"/><path class="cls-4" d="M104.66,166.54c.52,.75,1.3,1.26,2.19,1.16,.78-.08,1.41-.43,1.86-1.13,.41-.63,.64-1.56,.33-2.31-.3-.75-.67-1.19-1.21-1.54v-.26c-.09-1.59-2.37-1.47-2.29,.12v.21c-.71,.44-1.23,1.36-1.23,2.23-.06,.53,.03,1.07,.34,1.52Z"/><path class="cls-4" d="M103.02,127.86c.9,.57,1.97,.06,2.5-.81h0c.15-.16,.26-.34,.33-.55,0-.03,.02-.05,.03-.07,.03-.02,.05-.04,.08-.05l.07-.03,.06-.02c.07,0,.15-.01,.22-.02,1.4-.11,1.92-1.89,.98-2.94-.77-.86-2.27-1.37-3.09-.3-.12,.15-.19,.32-.25,.49-.12,.06-.36,.15-.06,.03-.2,.08-.51,.23-.66,.33-.44,.3-.73,.73-1,1.21-.55,.96-.03,2.21,.79,2.73Z"/><path class="cls-4" d="M97.42,122.51c.39-.26,.8-.25,1.24-.25,.53,0,1.06,.43,1.06,1.04,0,.61-.4,1.09-.96,1.14-.44,.04-.84,.1-1.26-.13-.64-.34-.69-1.4-.08-1.81Z"/><path class="cls-4" d="M91.95,126.51c.24-.03,.46-.06,.69,.03,.18,.07,.37,.15,.55,.23,.42,.18,.58,.81,.43,1.23-.16,.44-.62,.78-1.06,.63-.19-.06-.38-.12-.56-.19-.22-.09-.38-.26-.55-.44-.5-.55-.19-1.4,.5-1.5Z"/><path class="cls-4" d="M88.63,119.18c.09-.35,.28-.75,.59-.92,.26-.14,.5-.28,.79-.34,.23-.04,.42-.03,.65-.01,.61,.04,1.21,.24,1.54,.86,.24,.44,.34,.94,.24,1.44-.1,.46-.38,.91-.75,1.17-.48,.34-1.25,.45-1.76,.09-.44-.32-.89-.61-1.13-1.14-.16-.36-.29-.73-.19-1.14Z"/><path class="cls-4" d="M83.99,118.94c1.8-.09,1.93,2.93,.13,3.02-1.8,.09-1.93-2.93-.13-3.02Z"/><path class="cls-4" d="M101.18,130.71c2.13-.11,2.29,3.47,.16,3.58-2.13,.11-2.29-3.47-.16-3.58Z"/><path class="cls-4" d="M94.62,134.69c2.71-.14,2.91,4.42,.2,4.55-2.71,.14-2.91-4.42-.2-4.55Z"/><g><path class="cls-4" d="M79.39,130.25h-.07s.06,0,.08,0c.03,0,.06,.01,.09,.02-.02,0-.03-.01-.05-.02,.21,.02,.42,.04,.62,.1-.12-.03,.28,.13,.54,.23,0,0,.04,0,.1,.03,.02,0,.03,0,.05,0,.43-.01,.85,.1,1.19,.46,.32,.35,.54,.79,.56,1.29,.05,1.25-1,2.1-2.1,1.9,.58,.1-.22-.01-.34-.03s-.23-.03-.34-.06c-.41-.11-.89-.29-1.2-.63-.52-.55-.8-1.27-.79-2.06,.01-1.02,.83-1.52,1.66-1.24Z"/><path class="cls-4" d="M79.39,130.25h0Z"/><path class="cls-4" d="M79.43,130.25c-.21-.1,.39,.01,0,0h0Z"/></g><path class="cls-4" d="M72.44,142.17c.12-.93,.86-1.64,1.64-1.93,.33-.12,.66-.13,.99-.13,.05-.12,.09-.23,.13-.35,.23-.67,1.13-1.05,1.74-.87,.7,.21,1.14,.8,1.22,1.58,.12,1.13-.03,2.35-.81,3.19-.42,.46-.92,.72-1.48,.94-.06,.03-.15,.08-.22,.09,.4-.21,.42-.22,.06-.03-.1,.06-.2,.12-.31,.15-.45,.17-.91,.17-1.37,.1-1.19-.19-1.74-1.58-1.59-2.73Z"/><path class="cls-4" d="M65.93,158.17c.26-.85,.52-1.69,.74-2.56,.23-.89,.94-1.49,1.8-1.41,.78,.07,1.59,.81,1.55,1.73-.01,.32-.03,.63-.05,.95,.97,.72,1.08,2.49-.02,3.17-.49,.3-.98,.4-1.48,.62-1.33,.58-3.01-.98-2.54-2.5Z"/><g><path class="cls-4" d="M73.69,156.6c.94,.37,1.71-.16,2.1-1.01l.03-.04s.07,0,.09-.02c.01,0,.03,0,.04,0h-.03c.19,0,.37,.04,.56,0,.23-.05,.46-.13,.65-.28,.55-.41,.87-1.22,.63-1.93-.46-1.35-1.91-1.59-3.05-1.15-.83,.32-1.61,1-1.94,1.9-.37,1.01-.09,2.13,.91,2.53Z"/><path class="cls-4" d="M75.83,155.52h0Z"/></g><path class="cls-4" d="M73.94,173.59c.33-.61,1.1-.98,1.71-.58,.08,.05,.16,.1,.24,.15,.24,.01,.47,.06,.69,.22,.6,.45,.82,.96,.74,1.74-.04,.4-.33,.76-.63,.97-.43,.32-1.01,.33-1.47,.07-.14-.08-.29-.17-.4-.29l-.24-.31-.04-.08s-.06-.04-.08-.06c-.57-.37-.89-1.18-.54-1.85Z"/><path class="cls-4" d="M78.81,180.01c-.07,.29-.12,.6-.08,.91,.13,1.02,.68,1.81,1.61,2.08,.83,.24,1.95-.28,2.29-1.15,.37-.94,.32-1.76-.13-2.64-.17-.33-.41-.64-.67-.89-.51-.5-1.49-.76-2.18-.68-.5,.05-.91,.36-1.08,.87-.15,.44-.06,1.02,.26,1.36,0,.03,0,.06,0,.09,0,.02,0,.03-.02,.06Z"/><path class="cls-4" d="M76.15,185.85c0,.44,.2,.88,.45,1.2,.14,.21,.32,.38,.55,.49l.46,.18c.78,.07,1.47,.01,2.05-.66,.49-.57,.64-1.38,.41-2.11-.22-.73-.77-1.19-1.43-1.39-.21-.06-.42,0-.61,.11-.3,.04-.6,.14-.9,.33l.44-.23s-.08,.04-.13,.05c-.81,.24-1.29,1.16-1.29,2.02Z"/><path class="cls-4" d="M70.76,181.11c.02-.58,.17-1.05,.59-1.44,.39-.36,.92-.54,1.42-.39,.31,.09,.63,.22,.86,.46,.14,.15,.26,.33,.39,.5,.12,.17,.25,.35,.37,.52,.26,.37,.33,1,.24,1.44-.09,.44-.38,.93-.75,1.17-.84,.53-1.85,.31-2.41-.55-.33-.52-.74-1.04-.71-1.71Z"/><path class="cls-4" d="M76.6,163.33c.02-.63,.06-1.17,.4-1.6,.09-.48,.26-.88,.57-1.32,.4-.59,1.3-.55,1.76-.09,.49,.48,.55,1.38,.08,1.91-.07,.08-.15,.15-.22,.23,.46,.54,.66,1.24,.54,1.97-.12,.74-.97,1.39-1.66,1.13-.92-.34-1.51-1.15-1.47-2.23Z"/><path class="cls-4" d="M77.82,149.37c.14-.57,.35-1.03,.74-1.42,.61-.61,1.37-.65,2.03-.1,.43,.36,.68,.79,.86,1.34,.42,1.26-.52,2.62-1.71,2.68-1.19,.06-2.24-1.2-1.93-2.5Z"/><path class="cls-4" d="M87.86,130.74c.62-.03,1.24,.53,1.24,1.22,0,.69-.46,1.3-1.13,1.34-.62,.03-1.24-.53-1.24-1.22,0-.69,.46-1.3,1.13-1.34Z"/><path class="cls-4" d="M109.74,132.12c.13,.05,.26,.09,.38,.17,.54,.35,.57,1.11,.07,1.51-.11,.09-.24,.14-.36,.2-.55,.26-1.16-.29-1.18-.88-.03-.59,.53-1.2,1.1-1Z"/><path class="cls-4" d="M101.54,114.41c2.18-.11,2.35,3.56,.16,3.67-2.18,.11-2.35-3.56-.16-3.67Z"/><path class="cls-4" d="M127.43,162.04c.06-.66,.79-1.25,1.38-1.25,.6,0,1.35,.4,1.48,1.1,.06,.3,.15,.61,.15,.92,0,.29-.06,.57-.11,.86-.12,.65-.64,1.4-1.33,1.4-.68,0-1.22-.53-1.43-1.2-.09-.28-.19-.61-.2-.9-.01-.31,.04-.62,.07-.93Z"/><path class="cls-4" d="M125.21,171.89c.11-.32,.17-.64,.29-.96,.04-.1,.07-.2,.11-.3l.02-.05c.15-.46,.27-.94,.38-1.41,.21-.96,1.17-1.69,2.08-1.42,.94,.28,1.49,1.21,1.32,2.25-.2,1.18-.43,2.67-1.22,3.56-.52,.58-1.41,.82-2.08,.4-.61-.38-1.15-1.28-.89-2.07Z"/><path class="cls-4" d="M120.4,165.5c.25-.44,.58-.75,1.05-.84,.5-.1,.84,.11,1.23,.4,.4,.31,.54,1.03,.44,1.52-.13,.61-.6,1.08-1.16,1.19-.52,.1-1.03-.09-1.37-.53-.36-.45-.5-1.21-.19-1.75Z"/><path class="cls-4" d="M120.32,158.95c.25-.46,.63-.87,1.11-1.02,.47-.14,1.08-.17,1.5,.14l.63,.46c.43,.32,.77,.64,.94,1.2,.15,.49,.12,1.16-.12,1.62-.25,.46-.63,.87-1.11,1.02-.47,.14-1.08,.17-1.5-.14l-.63-.46c-.43-.32-.77-.64-.94-1.2-.15-.49-.12-1.16,.12-1.62Z"/><path class="cls-4" d="M114.92,165.02c.21-.52,.54-1,.89-1.41,.59-.68,1.7-.81,2.34-.12,.58,.62,.81,1.87,.11,2.53-.13,.13-.26,.26-.38,.41-.02,.02-.08,.11-.11,.15l-.02,.04c-.25,.44-.62,.9-1.04,1.17-.55,.36-1.34,.24-1.7-.39-.4-.72-.41-1.63-.09-2.39Z"/><path class="cls-4" d="M116.87,177.14c.33-.66,.72-1.29,1.46-1.44,.41-.09,.83-.13,1.22,.11,.34,.21,.67,.55,.76,.98,.11,.53,.14,.97-.04,1.47-.13,.38-.38,.68-.6,1-.53,.73-1.59,.76-2.25,.26-.69-.52-.96-1.55-.55-2.38Z"/><path class="cls-4" d="M123.19,177.99c.34-.33,.68-.53,1.13-.58,.51-.05,.99,.22,1.31,.63,.61,.77,.5,2.07-.35,2.62-.38,.25-.75,.42-1.21,.38-.27-.03-.5-.12-.74-.23-.44-.2-.67-.73-.71-1.21-.06-.63,.13-1.19,.57-1.61Z"/><path class="cls-4" d="M115.4,179.88c2.46-.12,2.64,4.01,.18,4.14-2.46,.12-2.64-4.01-.18-4.14Z"/><path class="cls-4" d="M106.6,171c1.93-.1,2.08,3.15,.14,3.25-1.93,.1-2.08-3.15-.14-3.25Z"/><path class="cls-4" d="M95.19,144.87c.09-.51,.32-.9,.63-1.27,.58-.69,1.7-.8,2.34-.12,.64,.68,.73,1.79,.11,2.53-.31,.37-.66,.66-1.11,.8-1.14,.35-2.18-.67-1.97-1.94Z"/><path class="cls-4" d="M87.01,140.79c.38-.59,1.29-.66,1.84-.35,.55,.31,1,1.15,.78,1.83-.18,.55-.33,1.11-.45,1.68-.19,.89-.43,1.65-1.18,2.17-.95,.66-1.99,.1-2.41-.92-.63-1.52,.65-3.21,1.43-4.4Z"/><path class="cls-4" d="M85.58,149.9c.46-.87,1.42-1.22,2.26-.77,.44,.24,.92,.44,1.32,.75,.66,.5,1.1,1.61,.66,2.44-.41,.77-1.23,1.03-2.01,.88-.52-.1-1.07-.57-1.53-.85-.76-.47-1.17-1.58-.71-2.45Z"/><path class="cls-4" d="M90.92,148.52c.18-.34,.44-.65,.75-.86,.39-.43,.93-.66,1.52-.6,.51,.05,1,.28,1.38,.66,.69,.71,1.02,1.74,.8,2.76-.21,.98-1.11,2-2.12,1.76-.67-.16-1.05-.75-1.34-1.37h0v0c-.19-.05-.36-.13-.52-.25-.6-.46-.86-1.39-.48-2.11Z"/><path class="cls-4" d="M92.68,156.45c.13-.91,1.03-1.5,1.83-1.43,.84,.08,1.53,.82,1.57,1.75,0,.24,.02,.48,.06,.72,.01,.01,.1,.4,.11,.46,.1,.34,.19,.67,.22,1.03,0,.24,0,.49-.04,.73-.18,.54-.22,.64-.11,.33-.33,1.02-1.3,1.73-2.29,1.15-1.62-.95-1.59-3-1.34-4.74Z"/><g><path class="cls-4" d="M92.09,162.99s-.03,.02-.05,.03c-.11,.05-.15,.07,.05-.03Z"/><path class="cls-4" d="M92.05,163.02c.11-.05,.28-.12,.35-.14,.25-.05,.49-.02,.73,.08,.53-.07,1.1,.25,1.25,.83,.16,.63-.12,1.35-.73,1.56-.16,.05-.32,.08-.48,.1-.15,.06-.3,.11-.48,.12-.41,.03-.92-.21-1.12-.62-.07-.14-.13-.29-.19-.43-.26-.63,.19-1.24,.67-1.51Z"/></g><path class="cls-4" d="M86.49,160.19c.34-.46,.91-.45,1.37-.26,.61,.25,.96,.96,1.07,1.7,.01,.09,.01,.1,0,.04-.02-.1-.01-.05,.02,.15,.03,.2,.03,.41-.01,.61,.07,.1,.12,.21,.19,.32,.3,.43,.13,1.1-.27,1.38-.44,.31-.98,.14-1.28-.29-.08-.12-.15-.25-.23-.37-.41-.16-.76-.54-.99-.93-.42-.71-.35-1.68,.12-2.33Z"/><path class="cls-4" d="M85.2,159.08c-.21-.22-.35-.53-.38-.9-.05-.55,.22-1.18,.61-1.53,.36-.33,.77-.45,1.23-.48,.51-.03,.98,.3,1.19,.78,.23,.52,.12,1.06-.2,1.51,.21-.3,.06-.08,.02,0-.12,.21-.24,.36-.41,.52-.2,.19-.5,.39-.75,.45-.23,.06-.45,.06-.66,.01,0,.23-.12,.46-.39,.48-.46,.02-.56-.62-.26-.85Z"/><path class="cls-4" d="M85,167.72c.43-.85,1.54-1.34,2.36-.8,1.5,.98,2.79,3.67,2.26,5.58-.28,1-1.07,1.56-2.03,1.39-2.3-.4-3.64-4.06-2.58-6.17Z"/><path class="cls-4" d="M93.6,171.99l.23-.79c.1-.35,.18-.77,.37-1.07,.2-.32,.39-.57,.72-.74,.31-.16,.69-.24,1.02-.14,.63,.18,1.26,.82,1.23,1.59-.02,.44-.09,.73-.22,1.13-.09,.26-.17,.52-.26,.78-.14,.44-.31,.8-.69,1.06-.33,.23-.83,.35-1.22,.24-.77-.23-1.47-1.14-1.2-2.06Z"/><path class="cls-4" d="M97.23,174.98c-.14-.62,.21-1.36,.79-1.54,.59-.18,1.18,.1,1.45,.68,.39,.25,.69,.63,.84,1.14,.19,.66,.14,1.29-.19,1.89-.38,.7-1.04,.85-1.72,.58-.59-.24-.98-.74-1.19-1.38-.16-.49-.14-.95,0-1.37Z"/><path class="cls-4" d="M95.41,180.47c.24-.36,.64-.56,1.02-.71,.11-.05,.23-.09,.35-.12l.14-.06,.04-.02c.15-.11,.32-.16,.5-.17l.1-.02c.07-.03,.18-.07,.21-.08,.13-.03,.25-.06,.38-.07,.54-.33,1.3-.23,1.75,.22,.53,.52,.59,1.29,.31,1.93-.03,.34-.13,.66-.34,.99-.33,.51-.86,1.04-1.42,1.23-1.03,.36-2.66,.25-3.2-.93-.37-.79-.31-1.47,.16-2.18Z"/><path class="cls-4" d="M89.13,177.74c.01-.81,.56-1.67,1.39-1.65,.37,0,.73,0,1.08,.14,.4,.16,.71,.47,1.05,.73-.13-.1-.26-.2-.39-.3,.35,.26,.58,.48,.86,.79,.62,.7,.78,1.71,.25,2.53-.21,.33-.53,.63-.9,.74-.49,.15-.91,.07-1.38-.12-.46-.19-.85-.48-1.21-.86-.35-.37-.61-.76-.7-1.29-.04-.24-.06-.45-.05-.69Z"/><path class="cls-4" d="M58.57,171.79c.55,.04,1.04-.05,1.42-.52,.34-.43,.45-1.03,.28-1.57-.34-1.06-1.53-1.37-2.31-.73-.11,.02-.22,.04-.32,.07-.46,.12-.67,.65-.68,1.1-.03,.86,.88,1.6,1.61,1.66Z"/><path class="cls-4" d="M52.93,167.48c.55,.2,1.25,.05,1.62-.46,.33-.45,.46-1.04,.29-1.59-.24-.75-.84-1.05-1.51-1.1-.1,0-.2-.01-.31-.02-.64-.04-1.17,.74-1.13,1.38l.02,.37c.04,.66,.45,1.22,1.02,1.43Z"/><path class="cls-4" d="M48.51,160.21c.12,.25,.26,.5,.42,.72,.06,.08,.12,.16,.19,.23l.11,.13c.04,.06,.17,.24,.17,.23,.36,.51,.95,.77,1.53,.55,.59-.22,.88-.81,.9-1.45,.02-.74-.09-1.59-.52-2.2-.51-.73-1.16-1.05-2-1.04-.45,0-.95,.45-1.01,.95-.08,.69-.08,1.23,.22,1.87Z"/><path class="cls-4" d="M46.85,153.1c1.02,.17,1.87-.47,2.13-1.53,.28-1.13,.22-2.43-.64-3.25-.8-.77-2.18-.49-2.64,.58-.21,.5-.25,.97-.22,1.49,0,.03,0,.05,0,.08-.02,.11-.02,.22-.04,.32-.21,1,.46,2.14,1.41,2.3Z"/><path class="cls-4" d="M42.99,151.2l.04,.08c.47,.92,1.74,.66,2.14-.16l.04-.09c.14-.29,.17-.72,.07-1.03h0c.02-.06,.04-.12,.06-.17,.25-.6,.05-1.4-.53-1.68-.56-.27-1.28-.06-1.55,.57-.1,.23-.18,.46-.24,.7-.02,.07-.04,.14-.05,.21h0c-.26,.46-.21,1.1,.02,1.57Z"/><path class="cls-4" d="M44.17,156.06c.14,.38,.3,.57,.56,.87,.25,.29,.61,.46,.93,.66,.53,.32,1.33,.14,1.7-.37,.41-.55,.44-1.26,.1-1.87-.2-.35-.38-.7-.69-.97-.36-.32-.77-.46-1.21-.61-.99-.33-1.84,.93-1.53,1.88,.04,.14,.08,.28,.13,.41Z"/><path class="cls-4" d="M46.35,144.3c.2,.32,.58,.62,.95,.68,.86,.15,1.54-.4,1.77-1.27l.26-.98c.15-.56,.04-1.04-.06-1.59-.21-1.1-1.88-1.45-2.45-.52-.28,.46-.55,.86-.6,1.43l-.09,1.02c-.04,.45-.01,.86,.23,1.24Z"/><path class="cls-4" d="M42.53,134.1c.11,.36,.4,.74,.73,.9,.64,.31,1.66,.11,1.93-.71,.05-.17,.23-.49,.21-.67,.05-.1,.03-.1-.05,0l.08-.12c.09-.19,.25-.35,.33-.55,.3-.71,.37-1.43,.09-2.16-.34-.88-1.16-1.14-1.91-.69-.44,.27-.74,.62-.94,1.13-.09,.23-.18,.47-.22,.71-.03,.17-.03,.35-.04,.53-.05,.15-.1,.3-.15,.46-.13,.41-.2,.76-.07,1.19Z"/><path class="cls-4" d="M50.48,135.49c.45,.1,.94-.01,1.32-.29,.19-.14,.37-.36,.55-.53,.47-.47,.55-1.38,.36-2-.22-.68-.76-1.2-1.41-1.34-.66-.15-1.37,.11-1.81,.67-.45,.57-.54,1.3-.36,2,.19,.73,.63,1.34,1.35,1.5Z"/><path class="cls-4" d="M54.87,130.89c.34,.74,1.22,1.22,1.98,.89,.54-.24,1.09-.44,1.49-.92,.2-.25,.39-.52,.48-.83,.06-.19,.11-.38,.15-.57,.16-.74-.34-1.37-.96-1.56-.38-.12-.73-.15-1.13-.07-.41,.08-.75,.21-1.08,.48-.14,.11-.27,.23-.4,.35-.64,.56-.91,1.42-.53,2.24Z"/><path class="cls-4" d="M60.82,126.86c.52,.44,1.12,.41,1.61,.02,.52-.2,.96-.68,1.06-1.28,.12-.73-.04-1.37-.55-1.87-.39-.39-.95-.37-1.4-.12l.11-.06c-.05,.02-.1,.05-.15,.08,0,0-.02,0-.02,.01h-.02c-.16,.1-.3,.21-.42,.36-.13,.16-.29,.39-.36,.57-.09,.2-.13,.41-.15,.61-.27,.53-.13,1.32,.3,1.69Z"/><path class="cls-4" d="M60.26,121.1c.96,.48,2.26,1,3.27,.36,.32-.2,.59-.74,.52-1.14-.09-.53-.27-.84-.62-1.22-.24-.26-.51-.42-.83-.54-.39-.15-.81-.34-1.23-.32-.32,.02-.64,.11-.95,.19-.51,.12-.85,.75-.89,1.27-.04,.56,.24,1.15,.73,1.39Z"/><path class="cls-4" d="M55.12,120.68c.52-.03,1.03-.15,1.51-.37,.36-.17,.72-.35,1.11-.43,1.27-.24,1.39-1.96,.15-2.39-1.38-.49-2.84-.47-3.9,.73-.84,.95,0,2.52,1.12,2.46Z"/><path class="cls-4" d="M53.4,126.7c1.08,.73,2.25,.58,3.43,.23,1.08-.32,1.51-1.77,1.04-2.78-.5-1.09-1.73-1.41-2.68-.77-.04,.03-.42,.27-.41,.27-.21,.12-.43,.23-.63,.37-.32,.22-.62,.5-.88,.75-.61,.58-.58,1.45,.13,1.93Z"/><path class="cls-4" d="M48.55,126.09c.13-.11,.27-.2,.41-.29,.12-.08,.23-.23,.34-.34,0,.01,.03,0,.13-.08,.16-.13,.3-.27,.46-.39,.03-.03,.09-.05,.13-.08,.04-.02,.07-.03,.11-.04,.96-.35,1.59-1.61,1.21-2.66-.36-1-1.46-1.76-2.46-1.3-.87,.39-1.68,.96-2.15,1.87-.44,.84-.5,1.69-.21,2.6,.26,.83,1.33,1.33,2.01,.73Z"/><path class="cls-4" d="M51.27,130.46c2.33-.86,1.1-4.78-1.24-3.92-2.33,.86-1.1,4.78,1.24,3.92Z"/><path class="cls-4" d="M78.48,62.73c-.3-.3-.71-.46-1.1-.58-.43-.13-.82-.18-1.26-.05-.51,.16-.66,.94-.26,1.31,.34,.31,.71,.45,1.15,.52,.41,.07,.84,.11,1.24-.03,.46-.16,.58-.82,.23-1.17Z"/><path class="cls-4" d="M72.79,62.8c-.47-.19-.93-.12-1.29,.29-.33,.38-.4,.79-.31,1.29,.08,.4,.62,.48,.84,.19,.26-.34,.61-.57,.9-.87,.23-.23,.16-.78-.15-.9Z"/><path class="cls-4" d="M72.8,69.43c-.12-.31-.22-.63-.4-.9-.18-.28-.42-.53-.63-.79-.25-.31-.75-.26-1.01-.01-.27,.26-.38,.74-.15,1.08,.19,.28,.37,.57,.59,.82,.21,.24,.48,.41,.73,.6,.43,.33,1.06-.29,.86-.79Z"/><path class="cls-4" d="M118.36,59.77c-.93,.68-1.51,2.03-.98,3.19,.1,.22,.46,.3,.63,.15,.65-.57,1.12-1.4,1.52-2.18,.4-.78-.5-1.65-1.18-1.16Z"/><path class="cls-4" d="M127.12,62.69c-.07-.2-.15-.41-.25-.59-.11-.19-.29-.3-.42-.47-.21-.27-.55-.04-.63,.21-.04,.13-.17,.23-.23,.36-.08,.17-.14,.38-.21,.56-.08,.24-.15,.47-.14,.73,0,.29,.12,.52,.24,.77,.26,.57,.98,.47,1.33,.12,.45-.46,.51-1.09,.31-1.7Z"/></g></g></svg>