<?xml version="1.0" encoding="UTF-8"?><svg id="Layer_2" xmlns="http://www.w3.org/2000/svg" width="178.58" height="249.45" viewBox="0 0 178.58 249.45"><defs><style>.cls-1{fill:#efcdb4;}.cls-2{fill:#fff;}.cls-3{fill:#fceef4;}.cls-4{fill:#dbb395;}.cls-5{fill:#231f20;}</style></defs><g id="cartes-couleurs"><g id="card-bg"><rect id="bg" class="cls-2" width="178.58" height="249.45" rx="8.5" ry="8.5"/><path id="fg" class="cls-3" d="M171.5,58.26V10.09c0-1.66-1.35-3.01-3.01-3.01H10.09c-1.66,0-3,1.35-3,3.01V239.35c0,1.66,1.34,3.01,3,3.01H168.49c1.66,0,3.01-1.35,3.01-3.01V91.4m0-.01V58.29M29.01,44.95s.01-.03,.02-.04c-.01,.02-.02,.04-.02,.06"/></g></g><g id="cartes"><g id="lion"><path class="cls-4" d="M148.25,163c-.31-.28-.78,.07-.59,.42,2.23,3.95,3.51,7.35,1.32,11.67-.39,.77-.84,1.48-1.32,2.16-.14,.19-.28,.38-.41,.58-.14,.05-.27,.12-.39,.22-1.2,.99-5.89,3.28-7.6,1.48-.63-.66-2.13-.17-2,.77-.11,.6-.23,1.21-.34,1.81-.44,.73-.03,1.58,.8,1.83,1.35,.41,2.65,.48,3.89,.31,1.61,.27,3.65-.42,4.75-1.17,1.57-1.08,4.29-3.54,4.15-5.62,.14-.24,.27-.47,.39-.71,2.48-4.79,1.54-9.99-2.63-13.75Z"/><path class="cls-4" d="M132.17,163.66c-.09-.11-.2-.18-.31-.21-.48-.93-.96-1.87-1.41-2.83-1.21-2.57-2.89-4.97-3.89-7.63-.93-2.47-.93-5.06-1.51-7.58,.14-.33,.25-.67,.33-1.01,.07-.29-.29-.47-.52-.28-1.16,.95-1.84,2.22-2.86,3.3-1.08,1.14-2.37,2.12-3.67,3.03-1.34,.94-2.8,1.74-4.21,2.58-.08-.39-.17-.78-.23-1.15-.16-1.04-.21-2.18-.66-3.16,.05-.16,.1-.33,.14-.49,.08-.36-.41-.7-.71-.39-2.04,2.12-3.45,4.14-6.05,5.79-2.73,1.72-5.81,3.88-9.27,3.15-.13-.03-.25-.03-.37-.02-.5-.42-.88-.97-1.13-1.84-.15-.53-1.02-.67-1.3-.16-1.05,1.9-3.96,2.94-5.98,4.24-.78-1.99-2-3.99-3.22-5.55-.32-.41-.96-.58-1.38-.17-1.06,1.05-1.93,2.25-2.95,3.34-.64,.69-1.38,1.34-1.97,2.07-.35-.18-.74-.34-1.18-.54-.69-.32-1.38-.63-2.06-.97-.47-.41-.97-.79-1.41-1.16-.76-.64-1.53-1.26-2.34-1.83-.18-.17-.36-.34-.54-.49,.18-.58-.13-1.31-.94-1.36-.04-.06-.07-.12-.12-.17-.13-.15-.37-.23-.53-.06-.8,.78-.74,2.32-.77,3.34,0,.23-.02,.48-.03,.75-.15-.04-.3-.07-.44-.12-1.68-.55-3.28-1.38-4.7-2.39-2.59-1.85-4.49-4.18-5.85-6.92-.19-.39-.82-.41-1.11-.13-.22,.21-.79,.1-1.38-.09,.34-.81-1.4-1.93-1.8-.55-1.77,6.08-2.26,12.62-2.2,18.91,.02,2.3,.01,5.05,.25,7.79-.21,5.16,1.44,11.15,4.35,15.38,.64,4.57,9.08,8.42,13.15,7.84,5.92-.84,6.96-6.05,5.17-10.33,2.68,1.3,7.23,1.28,10.24,.17-1.79,4.6,.09,11.02,5.95,11.4,5.13,.33,9.37-4.87,10.68-9.79,.91,.22,1.92,.27,2.83,.24-.18,3.32,2.02,6.86,5.86,8.28,.3,.11,.58,.12,.84,.06,2.81,1.2,5.7,1.3,9.48,.79,4.98-.67,9.09-3.36,12.2-6.96,6.72-7.79,5.82-18.26-.47-26.11Z"/><path class="cls-4" d="M119.95,96.24c-.82-3.21-1.79-8-4.13-11.11-.14-.33-.27-.66-.41-.99-.32-.77-.65-1.54-1.04-2.28,2.44-.09,4.98-1.05,6.33-2.78,2.22-2.85-.14-5.73-2.69-7.49-4.56-3.16-11.35-.26-12,4.36-1.67-.89-3.38-1.72-5.16-2.4-5.6-2.16-11.7-2.45-17.69-2.08-.48,.03-.95,.07-1.43,.11-1.54-.01-3.06,.15-4.43,.52-3.6,.56-7.13,1.5-10.4,3.03-3.36,1.57-7.27,3.85-9.1,7.08-.33-.18-.66-.35-.91-.53-.09-.06-.18-.13-.26-.19-.04-2.1-.19-4.42-1.66-6.03-1.75-1.91-4.57-1.93-6.88-.89-4.06,1.82-6.71,8.96-1.67,10.82,.78,.65,1.79,.68,2.99,.66,1.23-.03,2.46-.19,3.69-.21,.1,0,.25,0,.42-.01,.17,.14,.34,.29,.48,.46,.2,.24,.31,.5,.4,.78-2.32,3.31-2.39,7.97-2.62,11.76-.11,1.92-.13,3.88,.02,5.83-.43,2.97,.23,6.16,1.41,9.2,1.29,4.45,3.87,8.8,7.4,11.98,3.01,2.71,7.81,5.21,12.28,6.19,1.36,.49,2.73,.85,3.93,1.12,.23,.05,.45,.04,.65,0,10.05,4.35,24.45,.97,32.47-5.18,4.34-3.33,7.34-7.96,9.07-12.9,.52-1.48,2.05-5.54,1.67-8.19,.87-3.42,.05-7.59-.73-10.62Zm-24.52,10.8c-4.71,4.05-14.25,3.43-18.78-.64-2.85-2.56-3.26-6.41-2.18-9.83,.33-2.44,1.74-4.94,4.09-5.91,.67-.49,1.38-.88,2.14-1.14,4.14-1.96,9.69-.43,13.52,2.41,5.07,3.76,6.27,10.78,1.22,15.12Z"/><path class="cls-1" d="M144.95,105.18c-.95-4.29-2.25-8.06-4.41-11.97-1.23-2.23-2.48-5.19-4.56-7.05,1.29-.02,2.55,.08,3.85,.54,.16,.06,.31,.06,.45,.05,.51,.24,1.25-.3,.87-.8,.07-.25,.06-.52-.07-.75-1.61-2.81-2.26-5.97-4.13-8.78-1.9-2.85-4.32-5.38-7.09-7.54-1.39-1.09-7.1-5.41-10.77-6.15,.58-.43,1.29-.67,2.15-1.02,.69-.28,.47-1.11,0-1.44-4.55-3.21-10.35-3.94-15.92-4.12-6.03-.2-12.72-.48-18.33,1.89-3.21-1.11-6.89-1.56-10.17-1.14-1.63-.07-3.21,0-4.69,.31-.08,.02-.14,.06-.19,.11-.11,0-.21,0-.33,0-.13,.01-.24,.11-.2,.24,.22,.7,.76,1.21,1.19,1.81,.06,.09,.12,.18,.19,.27-3.21-.38-6.61-.37-9.53-.33-2.7,.04-5.92,.15-8.53,1.21-1.33,.18-2.67,.39-4.01,.62-.32,.06-.55,.26-.69,.52-.05,0-.11-.02-.16-.03-.91-.11-1,1.06-.42,1.45,1.02,.69,1.89,1.54,2.72,2.43-3,.34-5.86,2.04-8.36,3.56-2.59,.8-5.45,2.12-6.16,4-1.45,1.12-2.75,2.36-3.65,3.77-.8,.13-1.15,1.22-.54,1.74,1.45,1.25,3.33,1.55,5.01,2.31-.58,.62-1.43,1.25-1.87,1.72-.91,.98-1.78,1.99-2.59,3.05-1.52,1.98-3,4.13-3.77,6.48-.8,1.36-1.54,2.76-2.35,4.12-.34,.57,.08,1.39,.84,1.36,1.33-.06,2.61-.08,3.91-.04-.43,1.27-.78,2.57-1.2,3.68-.77,2.02-1.87,4.57-1.74,6.89-.17,.91-.3,1.82-.38,2.73-.23,2.59,.4,5.14,.31,7.69-.02,.11-.03,.22-.02,.34,0,.11,0,.21-.01,.32-.08,.93,1.07,1.3,1.83,.98l2.14-.78c1,.12,2.1,.57,2.61,.88,.57,.34,.88,.67,1.23,1.07-.45,2.57,.19,5.19,.5,7.82,.4,3.31,1.59,5.1,3.74,7.62,.48,.57,1.48,.32,1.83-.22,.67-1.03,1.53-1.38,2.3-1.74,.31,.66,.69,1.3,1.12,1.91,1.13,3.53,4.89,7.02,7.78,9.2,1.09,.82,2.11,1.15,3.3,.21,.08-.06,.15-.13,.23-.2,.53,1.32,1.46,2.58,2.32,3.61,.85,1.01,2.01,2.53,3.34,3.45,1.11,1.13,2.38,2.15,3.86,2.58,.79,.23,1.61-.39,1.61-1.14,0-1.08,.49-1.94,1.09-2.76,1.54,2.68,4.78,4.36,7.2,6.28,.49,.39,1.25,.48,1.73,0,1.73-1.71,3.83-3.18,5.75-4.77,.72,1.73,1.68,3.42,2.47,5.08,.21,.45,1,.62,1.42,.35,2.2-1.45,4.4-2.81,6.51-4.29,.45,2.02,3.51,3.07,6.16,2.15,2.77-.96,5.1-3.26,7.24-5.04,1.32-1.1,2.94-2.25,4.39-3.5,.06,1.28,.13,2.57,.25,3.85,.07,.8,1.18,1.43,1.86,.72,1.22-1.27,2.82-1.99,4.24-3.04,1.53-1.14,2.74-2.54,3.92-3.98,.78-.95,1.77-2.09,2.58-3.3,.27,.21,.55,.4,.87,.53,.13,.7,1.09,1.25,1.73,.57,1.52-1.79,3.72-2.26,5.03-4.33,1.18-1.85,1.82-4.06,2.22-6.17,1.78-4.01,2.45-8.28,.65-12.05,1.33,.73,2.61,1.53,3.67,2.67,.45,.49,1.52,.26,1.64-.4,1.01-5.81,0-11.23-.91-16.93,.68,.03,1.36,.02,2.06-.04,.12,.07,.25,.13,.36,.21,.78,.53,1.66-.34,1.49-1.07Zm-77.7-30.35c2.6-1.28,5.25-2.43,8.02-3.26,3.51-.38,7.02-.74,10.55-.78,7.12-.08,13.16,1.91,19.7,4.22,1.06,.37,1.78-.7,1.64-1.53,0-.05,0-.1-.01-.15,2.95-2.55,6.89-4.75,10.74-2.13,3.64,2.48,4.76,11.69-2.13,10.33-.73-.14-1.08,.69-.49,1.09,.06,.04,.12,.07,.18,.11,2.17,4.87,4.4,9.75,5.42,14.98,.62,3.19,.91,6.42,.23,9.62-.5,2.34-1.43,4.56-1.7,6.92-1.58,3.56-3.33,7.05-5.38,10.49-3.78,3.75-8.03,5.82-13.17,8.02-.26,.11-.31,.33-.25,.53-1.25,.37-2.52,.7-3.82,.94-3.43,.62-6.93,.75-10.38,1.14-4.23-.25-8.54-1-12.53-2.19-4.19-1.25-7.9-3.48-11.36-5.95-2.34-1.67-3.95-4.25-6.35-5.79-2.31-4.3-4.15-8.14-4.58-13.14-.37-4.33,0-8.6,0-12.9,.61-2.77,1.12-5.99,2.67-8.11,.4-.55-.13-1.36-.82-1.33-4.55,.18-9.65,.34-9.6-5.38,.03-2.94,2.09-5.22,5.19-5.96,2.4-.57,3.8,.24,5.78,.85,1.15,1.58,1.9,3.33,1.76,5.38-.06,.87,1.4,1.26,1.81,.46,1.64-3.17,5.66-4.86,8.88-6.45Z"/><g><path class="cls-5" d="M121.4,79.2c1.26-2.61,.02-5.41-2.17-7.21-2.39-1.95-5.5-3.02-8.53-1.78-1.95,.8-4.5,2.63-4.27,4.78-8.46-3.39-17.74-5.32-26.96-4.17-7.75,.97-17.03,4.35-21.64,10.59-1-1.44-1.09-3.18-1.94-4.68-.69-1.22-1.84-2.15-3.2-2.68-2.8-1.08-5.95-.18-7.84,1.97-2.13,2.43-2.09,6.01-.22,8.56,2.21,3.01,5.76,2.42,9.1,1.61,.19-.05,.21-.34,0-.38-2.93-.57-5.58,1.32-7.95-1.32-2.1-2.35-2.18-6.09,.2-8.31,2.13-1.98,5.55-2.3,7.87-.37,1.96,1.63,1.69,4.29,3.17,6.2,.33,.43,1.05,.13,.97-.3,3.13-2.56,6.1-5,9.87-6.73,3.77-1.72,7.87-2.79,12.04-3.25,9.34-1.01,18.74,1.1,27.22,4.68,.66,.28,1.23-.63,.57-.9-.22-.09-.45-.18-.67-.27,.12-1.99,1.88-3.42,3.79-4.24,2.76-1.18,5.6-.17,7.73,1.63,1.61,1.36,2.8,3.38,2.17,5.44-.79,2.58-3.5,3.85-6.24,3.2-.6-.14-.88,.63-.41,.88,0,0,0,.02,0,.02,5.09,8.51,8.03,18.48,6.05,28.21-1.73,8.49-7.05,16.23-15.36,20.34-8.22,4.05-18.16,4.42-27.09,2.53-9.5-2-18.17-6.69-22.49-15.1-5.1-9.93-4.01-21.65-.43-31.83,.07-.2-.25-.26-.33-.08-4.1,9.2-4.8,20.41-1.12,29.84,3.44,8.81,11.12,14.47,20.59,17.19,9.19,2.64,19.63,2.93,28.63-.5,8.85-3.38,15.12-10.44,17.8-18.9,3.36-10.62,.63-21.9-4.87-31.48,2.48,.16,4.87-.97,5.95-3.2Z"/><path class="cls-5" d="M65.73,90.1c-.07-.44-.26-.86-.59-1.21-.18-.19-.49-.11-.62,.07-.04,.05-.07,.11-.1,.16-.48-.19-1.04-.21-1.5,.06-.83,.48-.95,1.65-.35,2.34,.21,.24,.5,.39,.82,.47,.09,.1,.21,.19,.35,.27,.22,.26,.51,.43,.86,.47,.76,.07,1.18-.4,1.29-.98,.02-.04,.05-.07,.07-.12,.24-.51,.12-1.1-.22-1.53Z"/><path class="cls-5" d="M106.83,89.27c-.18-.29-.48-.46-.79-.48-.01,0-.03,0-.04-.01,0-.04-.01-.07-.04-.1-.41-.4-.9-.29-1.28,0-1,.12-1.48,1.12-1.1,1.96,.24,.53,.76,.79,1.27,.76,.11,.07,.27,.06,.38,0,.06-.03,.12-.08,.18-.12,1.06,.23,1.95-1.14,1.42-2.01Z"/><path class="cls-5" d="M89.79,102.58l-.14-.07c-.18-.09-.4,.02-.4,.21,0-.21-.96-.72-1.13-.87-.38-.35-.7-.75-.96-1.18-.36-.61-.51-1.24-.66-1.89,.06-.7,.05-1.41-.08-2.08,.41-.1,.79-.28,1.08-.55,.28-.1,.55-.24,.8-.41,.03-.02,.07-.04,.1-.06,.01,0,.02-.02,.03-.03,.06-.04,.11-.07,.17-.11,.2-.16,.14-.5-.08-.61-.22-.11-.45-.2-.68-.27-.05-.11-.12-.21-.21-.3-.09-.12-.2-.23-.33-.32-.68-.47-1.56-.43-2.42-.2-.16,.02-.33,.04-.49,.09-.22,.06-.46,.18-.69,.33-.36,.15-.7,.31-.99,.45-.21,.1-.27,.27-.23,.43-.04,.03-.08,.05-.12,.07-.21,.16-.13,.5,.08,.61,.28,.15,.57,.26,.87,.36,.41,.24,.85,.38,1.3,.42h.05c.34,.14,.73,.19,1.12,.18,.02,.91,0,1.82-.2,2.74-.31,1.4-1.01,2.56-1.73,3.8-.18,.31,.28,.69,.55,.39,.89-.97,1.52-2.25,1.85-3.59,.16,.48,.39,.93,.65,1.32,.49,.72,1.53,1.94,2.56,1.92,.13,0,.26-.06,.33-.17l.1-.17c.09-.15,.05-.37-.13-.46Z"/><path class="cls-5" d="M98.94,98.06c-1.39-5.69-7.43-9.68-13.6-9.77-.11,0-.21,.04-.27,.11-4.2-.22-8.75,1.65-10.49,5.26-2.16,4.48-2.33,10.59,2.07,13.89,2.07,1.55,4.63,2.31,7.25,2.57,3,.29,6.59,.26,9.4-.88,4.57-1.86,6.72-6.79,5.64-11.18Zm-3.51,8.82c-2.54,2.29-6.16,2.56-9.53,2.51-3.23-.05-6.56-.71-9.04-2.75-2.81-2.31-3.12-5.48-2.59-8.75,.48-2.98,1.56-5.89,4.56-7.42,2.13-1.09,4.4-1.23,6.72-1.39,2.84,.4,5.53,1.04,7.9,2.66,2.75,1.89,4.68,4.86,4.9,8.06,.18,2.62-.88,5.24-2.92,7.08Z"/><path class="cls-5" d="M148.68,162.65s-.09-.08-.13-.12c.09,.01,.19,0,.29-.07,1.36-.81,2.57-1.76,3.59-2.93,.54-.61,1.44-1.42,1.22-2.27-.05-.2-.26-.37-.49-.37-.34,0-.5,.08-.69,.35-.13,.18-.1,.44,.06,.59l.04,.04c-.32,.68-1.53,1.72-1.81,1.98-.45,.42-.94,.79-1.44,1.14,.41-2.18,.68-4.38,.78-6.6,.03-.61-.99-.64-1.02-.03-.09,2-.58,3.86-1.47,5.63-.2-2.59-.68-5.15-1.48-7.66-.16-.51-1-.46-1.02,.1-.12,2.43,.23,4.78,1.04,7.05-1.83-1.64-3.51-3.39-5.05-5.28-.33-.4-1.01,0-.9,.45,.75,2.88,3.01,4.76,5.33,6.61,1.04,1.88,2.56,3.52,3.54,5.43,1.12,2.17,.75,4.96,.06,7.2-.65,2.12-2.04,4.21-4.18,5.27-2.46,1.22-4.45,.65-6.59-.48,.12-2.66-.3-5.34-1.31-7.85-1.76-4.37-4.96-8.03-7.28-12.14-2.61-4.63-3.96-9.76-4.24-14.97,0-.06-.03-.11-.07-.14,.24-.37,.49-.73,.72-1.1,.37,.63,.73,1.25,1.1,1.88,.11,.19,.44,.32,.65,.18,7.73-5.14,11.48-14.41,9.39-22.98,1.3,1,2.45,2.12,3.48,3.38,.23,.28,.73,.13,.83-.18,2.02-5.98,1.97-12.34-.13-18.27,1.17,.27,2.33,.55,3.5,.82,.39,.09,.68-.2,.63-.55-1.04-7.28-3.94-14.15-8.43-20.18,1.51,.02,2.88,.45,4.16,1.3,.37,.25,.79-.13,.73-.49-2-11.22-10.61-20.9-22.12-24.75,.77-.31,1.58-.47,2.47-.46,.37,0,.69-.39,.48-.71-3.16-4.66-10.24-5.38-15.61-5.86-7.21-.63-14.49,.05-21.45,1.91-4.97-.99-9.99-1.25-15.06-.72-.24,.03-.4,.36-.26,.54,.44,.58,.87,1.15,1.31,1.73-7.97-1.25-16.12-.37-23.55,2.65-.32,.13-.29,.56-.03,.72,1.22,.76,2.2,1.64,3.05,2.72-7.81,2.11-14.57,6.69-19.11,12.98-.15,.2-.03,.53,.23,.59,1.95,.46,3.68,1.25,5.27,2.38-5.24,4.27-8.77,10.03-10.02,16.41-.05,.26,.15,.56,.48,.48,1.32-.33,2.53-.35,3.82-.09-3.2,7.2-4.04,15.09-2.4,22.74,.04,.21,.3,.35,.51,.29,1.34-.34,2.7-.56,4.09-.57,.33,0,.66,0,.98,.02,.58,.53,1.15,1.06,1.73,1.6,.1,.3-.11,1.14-.13,1.43-.15,1.77-.04,3.56,.33,5.3,.76,3.6,2.61,6.9,5.26,9.6,.23,.23,.67,.14,.77-.16,.38-1.21,1.03-2.19,1.96-3.04,2.11,4.02,4.98,7.58,8.51,10.59-.04,.02-.07,.05-.09,.1-2.42,6.79-2.78,14.28-2.49,21.37,.26,6.49,.65,13.53,3.41,19.59,2.26,4.97,6.87,9.5,12.91,10.1,1.2,.12,2.28,.02,3.24-.24,.96,1.05,2.22,1.89,3.5,2.27,.43,.13,.73-.46,.33-.67-1.04-.57-2.05-1.12-2.9-1.92,.61-.26,1.15-.61,1.63-1.01,.96,.79,2.15,1.39,3.27,1.62,.49,.1,.67-.49,.23-.68-.9-.38-1.79-.73-2.6-1.27-.11-.07-.2-.15-.3-.22,.89-.94,1.49-2.13,1.83-3.42,1.48,1.33,2.84,2.77,4.33,4.12,.28,.25,.78-.05,.57-.38-1.17-1.83-2.88-3.3-4.72-4.6,.22-1.3,.19-2.67-.12-4.03-1.69-7.5-10.4-13.34-7.52-21.6,.2-.58-.71-.82-.96-.28-2.36,5.11,1.02,10.42,3.78,14.71,1.6,2.49,3.19,5.05,3.69,7.96,.14,.81,.17,1.68,.1,2.53-.69-.45-1.39-.89-2.07-1.32-.29-.18-.58,.25-.29,.42,.81,.5,1.55,1.05,2.26,1.64-.23,1.34-.76,2.61-1.69,3.58-.35-.32-.69-.66-1.06-.98-.19-.16-.46,.02-.36,.24,.21,.43,.51,.85,.87,1.24-.46,.37-1,.68-1.62,.9-.51-.65-.92-1.35-1.36-2.07-.15-.24-.53-.1-.48,.17,.14,.74,.48,1.47,.94,2.16-6.27,1.38-12.1-4.44-14.36-9.18-2.68-5.62-3.25-12.3-3.6-18.36-.45-7.56,.36-14.83,2.01-22.23,.69,.58,1.4,1.14,2.14,1.67,.16,.11,.44,.08,.57-.05,.35-.34,.71-.68,1.06-1.02,2.08,4.69,6.11,8.33,11.28,10.07,.31,.1,.66-.14,.67-.44,0-1.29,.17-2.53,.5-3.77,2.48,2.76,5.39,5.08,8.76,6.89,.24,.13,.58,.08,.72-.15,1.41-2.24,3.11-4.24,5.11-6.04,1.25,1.99,2.29,4.06,3.1,6.25,.13,.36,.54,.47,.87,.24,2.23-1.58,4.39-3.24,6.5-4.95,.24,2.61,4.02,3.57,6.54,2.6,2.27-.87,4.23-2.57,5.99-4.12,1.87-1.65,3.6-3.42,5.3-5.21,.17,1.75,.33,3.5,.49,5.24,.03,.34,.38,.62,.75,.43,4.38-2.32,8.05-5.53,10.79-9.42,0,7.23,2.73,13.55,6.76,19.66,2.08,3.16,4.17,6.37,4.98,10.05,.76,3.5,.42,7.21-.89,10.56-2.58,6.6-9.19,11.31-16.65,12.22-3.77,.46-7.94-.03-11.09-2.14-.53-.36-1.02-.78-1.46-1.24,.83-.59,1.58-1.26,2.12-2.01,.14-.2-.12-.45-.34-.34-.72,.37-1.55,.99-2.43,1.6-.57-.75-1.02-1.58-1.3-2.46,.57-.01,1.14-.05,1.7-.15,.27-.05,.29-.45,.02-.51-.64-.15-1.3-.22-1.96-.27-.18-.98-.14-1.99,.16-2.96,.66-.03,1.28-.17,1.67-.43,.12-.08,.13-.26-.03-.31-.4-.12-.84-.13-1.27-.15,.07-.14,.13-.27,.22-.41,3.33-5.47,15.31-2.82,16.04-10.52,.06-.65-.98-.65-1.07-.03-.67,4.3-6.15,5.08-9.8,6.13-2.8,.8-5.45,2.15-6.59,4.69-.44-.11-.89-.25-1.34-.28,.08-.41,.16-.83,.24-1.24,1.17-6.35,1.42-12.96,.48-19.36-.08-.52-1.05-.43-.99,.09,.7,6.59,.7,13.13-.55,19.67-.91,4.73-3.44,11.97-9.37,12.58,.06-.97-.04-1.92-.32-2.75-.09-.28-.56-.26-.57,.05-.03,.93-.05,1.83-.17,2.73-.38-.01-.76-.04-1.16-.11-.9-.14-1.73-.46-2.46-.9,.43-.58,.79-1.19,.98-1.85,.07-.25-.26-.48-.48-.28-.49,.47-.9,1-1.32,1.53-.8-.66-1.43-1.49-1.83-2.42,.56-.55,1.1-1.17,1.33-1.89,.07-.2-.2-.34-.36-.21-.47,.36-.87,.79-1.29,1.2-.14-.55-.21-1.13-.18-1.71,.14-3,1.88-5.89,2.48-8.84,1.09-5.34,.56-10.85-1.59-15.9-.09-.22-.5-.08-.42,.15,2.03,5.6,2.45,11.62,.77,17.35-.94,3.21-2.68,6.48-1.8,9.58-.31,.24-.62,.47-.96,.68-.38,.23-.81,.4-1.12,.71-.31,.31-.05,.83,.43,.74,.71-.14,1.42-.7,2-1.21,.27,.57,.64,1.14,1.14,1.7,.25,.28,.53,.53,.81,.76-.18,.21-.36,.41-.55,.6-.9,.89-2.09,1.56-2.92,2.47-.37,.41,.04,.94,.57,.74,1.26-.46,2.36-1.67,3.22-2.62,.17-.19,.35-.39,.52-.59,1.22,.76,2.61,1.13,4.03,1.15-.07,.31-.15,.63-.26,.94-.53,1.52-1.52,2.64-2.36,3.98-.26,.41,.27,.76,.65,.5,1.7-1.17,2.77-3.32,3.09-5.48,1.51-.17,3-.72,4.31-1.62,3.5-2.38,4.92-6.26,5.77-10.09,.33,.17,.74,.29,1.18,.36-.28,1.03-.35,2.01-.24,2.94-.52-.04-1.04-.05-1.52,.08-.42,.11-.44,.65-.03,.79,.54,.18,1.15,.19,1.75,.17,.3,1.12,.88,2.15,1.64,3.06-1.33,.82-2.74,1.4-4.08,.91-.41-.15-.79,.41-.46,.68,1.17,.98,2.61,.57,3.87-.09,.44-.23,.9-.49,1.35-.76,2.2,2.17,5.51,3.58,8.72,3.94,7.29,.82,14.88-2.3,19.37-7.64,1.51-1.8,2.64-3.84,3.4-5.99,3.41,1.49,7.4,.63,10.25-1.58,3.25-2.52,4.76-6.55,5.09-10.37,.33-3.85-.96-6.96-3.93-9.62Zm-34.23-10.23c-.18-1.85-.37-3.7-.54-5.56-.03-.35-.52-.69-.83-.35-2.33,2.43-4.66,4.88-7.3,7.02-1.29,1.05-2.67,2.16-4.26,2.8-2.06,.83-6.08,.24-5.18-2.67,.14-.47-.46-.82-.85-.5-2.24,1.85-4.55,3.61-6.91,5.31-.88-2.22-1.96-4.33-3.28-6.36-.17-.26-.56-.34-.81-.12-2.15,1.85-3.96,3.93-5.48,6.25-3.36-1.88-6.32-4.25-8.74-7.13-.24-.28-.74-.13-.85,.18-.46,1.38-.71,2.77-.78,4.2-4.76-1.79-8.53-5.32-10.32-9.82-.11-.29-.51-.48-.78-.22-1,.97-1.06,1.42-2.32,.44-.47-.37-.93-.75-1.38-1.14-1.13-.98-2.19-2.03-3.17-3.13-2.02-2.26-3.67-4.76-5.01-7.42-.13-.26-.5-.27-.71-.11-1.11,.87-1.88,1.89-2.39,3.1-3.42-3.72-5.26-8.57-4.91-13.48,.1-1.36,.56-3.15-1.08-3.88-1.68-.75-4.36-.22-6.2,.23-1.53-7.54-.64-15.25,2.59-22.32,.08-.18-.07-.42-.27-.47-1.38-.34-2.7-.37-4.07-.12,1.36-6.18,4.87-11.7,10.06-15.79,.23-.18,.13-.46-.06-.61-1.6-1.23-3.36-2.09-5.34-2.62,4.55-6.04,11.22-10.41,18.89-12.33,.25-.06,.45-.37,.29-.6-.84-1.18-1.84-2.16-3.03-3,7.36-2.83,15.38-3.63,23.21-2.23,.3,.05,.71-.24,.48-.54-.49-.65-.99-1.3-1.48-1.94,4.43-.42,8.89-.27,13.27,.46-.16,.32,.09,.8,.56,.67,.42-.12,.85-.22,1.28-.33,.09,.02,.17,.03,.26,.05,.19,.04,.33-.08,.38-.21,5.82-1.42,11.82-2.02,17.84-1.69,5.12,.28,12.79,.71,16.29,4.84-1.1,.11-2.09,.44-3.07,1.03-.37,.22-.36,.76,.09,.9,11.32,3.38,20.14,12.53,22.42,23.37-1.42-.73-2.96-1.03-4.64-.88-.45,.04-.64,.44-.38,.78,4.56,5.87,7.49,12.64,8.64,19.79-1.22-.29-2.44-.57-3.66-.86-.33-.08-.77,.19-.63,.55,2.22,5.74,2.45,11.87,.69,17.72-1.23-1.38-2.61-2.59-4.18-3.66-.34-.23-.85,.12-.73,.49,2.64,8.36-.7,17.75-8.18,22.99-.41-.7-.83-1.41-1.24-2.11-.16-.27-.65-.32-.81-.03-2.61,4.64-6.51,8.43-11.35,11.08Zm33.68,9.75c-.13-.11-.27-.23-.41-.34,.22-.34,.41-.68,.6-1.03-.07,.37-.13,.74-.21,1.1-.02,.09,0,.18,.02,.27Zm-10.71,21.62c.47-1.46,.78-2.96,.9-4.48,1.22,1.06,3.27,1.36,4.84,1.11,2.56-.41,4.63-2.2,5.81-4.28,1.27-2.24,1.89-5.19,1.55-7.71-.18-1.3-.81-2.41-1.54-3.52-.39-.59-.77-1.19-1.16-1.78,1.55,1.36,2.9,2.85,3.53,4.83,2.43,7.69-4.24,18.94-13.92,15.83Z"/></g></g></g></svg>