<?xml version="1.0" encoding="UTF-8"?><svg id="Layer_2" xmlns="http://www.w3.org/2000/svg" width="178.58" height="249.45" viewBox="0 0 178.58 249.45"><defs><style>.cls-1{fill:#fff;}.cls-2{fill:#fceef4;}.cls-3{fill:#b1d8ef;}.cls-4{fill:#231f20;}</style></defs><g id="cartes-couleurs"><g id="card-bg"><rect id="bg" class="cls-1" width="178.58" height="249.45" rx="8.5" ry="8.5"/><path id="fg" class="cls-2" d="M171.5,58.26V10.09c0-1.66-1.35-3.01-3.01-3.01H10.09c-1.66,0-3,1.35-3,3.01V239.35c0,1.66,1.34,3.01,3,3.01H168.49c1.66,0,3.01-1.35,3.01-3.01V91.4m0-.01V58.29M29.01,44.95s.01-.03,.02-.04c-.01,.02-.02,.04-.02,.06"/></g></g><g id="cartes"><g id="octopus"><path class="cls-3" d="M137.6,132.53c-.2,.07-.37,.2-.47,.38-.11,.18-.22,.37-.32,.55-.51,.86,.79,1.94,1.46,1.1,.04-.05,.07-.08,.11-.12,1.83,1.79,3.85,3.4,2.75,6.43-.76,2.09-4.5,3.01-6.36,3.37-.81,.15-1.58,.24-2.32,.29-4.8-.52-9.47-2.01-13.48-4.76-4.95-3.39-7.26-9.41-8.92-15l.34,.09c.3,.29,.66,.38,.99,.32,.29,.26,.62,.51,1,.77,.11,.07,.22,.12,.33,.15,.72,.78,1.51,1.5,2.35,2.16,8.22,8.77,23.56,3.95,29.68-5.53,4.44-6.86,2.95-17.9-2.74-24.36-.6-.95-1.57-1.76-2.44-2.28-1.86-1.41-4.02-2.37-6.45-2.73-.81-.2-1.61-.29-2.35-.23-2.3,.19-4.59,1.14-6.04,2.95-1.31,1.63-1.31,2.94-1.09,4.42-.06,.03-.11,.08-.12,.16-.19,1.16,.02,1.77,.62,2.82,.39,.68,1.39,.33,1.43-.38,.09-1.45-.23-2.55,.21-3.84,.41-.18,.79-.43,1.28-.69,2.54-1.33,5-.6,6.86,1.46,.43,.48,.78,.99,1.09,1.53,.54,5.59-.41,11.87-3.74,16.29-1.96,2.61-5.31,5.98-8.75,6.27-1.83,.15-4.32-1.26-6.46-2.49-.04-.19-.11-.39-.25-.58-4.69-6.38-4.12-12.51-1.91-19.68,1.05-3.41,2.48-6.96,2.77-10.53,2.06-5.51,2.68-11.54,1.55-17.07-2.2-10.81-10.47-18.81-20.63-20.98-2.52-1.56-6.63-1.95-9.74-1.35-13.24-2.07-26.87,9.65-29.13,22.46-1.55,8.74,1.35,16.33,4.78,24.25,.85,1.95,1.66,3.91,2.47,5.87-.06,.12-.09,.27-.06,.42,1.52,7.67,4.81,15.11-1.59,21.72-3.97,4.09-9.37,5.22-14.37,3.97-1.78-1.02-3.61-2-5.39-3.01-.94-1.26-1.83-2.45-2.43-3.83-.07-.87-.2-1.72-.21-2.35-.03-1.83,.09-3.64,.29-5.45,1.27-3.26,3.94-6.03,7.59-3.83-.03,.39,0,.7,.11,1.79,.04,.48,.62,.78,1.01,.41,2.04-1.98,1.74-5.29-.29-7.27-2.69-2.62-7.02-2.15-10.2-.87-6.87,2.77-8.82,9.71-7.47,16.19,.74,12.46,14.47,22.7,26.78,17.64,4.42-1.81,7.91-4.45,10.67-7.82-.72,3.93-1.42,7.81-3.19,11.52-.6,.81-1.11,1.73-1.56,2.73-.75,1.08-1.66,2.16-2.68,3.17-.9,.69-1.79,1.45-2.65,2.23-4.78,3.41-10.44,4.29-12.3-3.13,.39-.05,.75-.29,.97-.61,.11-.15,.21-.31,.32-.46,.34-.49,.11-1.26-.41-1.53l-.51-.27c-.41-.22-.91-.16-1.25,.16l-.12,.11c-.78,.06-2,.29-2.66,1.05-.49,.57-.83,1.22-1.06,1.93-.02,.05-.04,.08-.06,.13-.34,1.06-.49,1.99-.46,2.89-.18,4.45,2.22,8.45,6.55,10.67,6.17,3.15,13.65,1.6,19.56-1.34,4.61-2.29,8.43-5.76,10.8-10.18,.3,2.45,.81,4.88,1.53,7.24,.58,2.83,1.76,5.47,3.24,8.04,.61,1.39,1.31,2.76,2.13,4.1,.38,.62,1.04,.87,1.69,.85,4.27,4.24,10.82,6.21,16.67,3.57,6.12-2.76,9.68-11.7,6.99-17.81-1.3-2.96-3.91-4.5-6.38-4.38-2.15-.31-4.6,.58-5.69,2.31-.47,.75-.08,1.63,.6,2.02-.03,.86,1.39,1.13,1.76,.19,.06-.06,.13-.11,.19-.17,1.24-.04,2.23,.6,3.35,1.18,.16,.08,.33,.13,.48,.15,.03,.69,0,1.39,0,1.76-.13,3.08-2.32,5.18-5.51,5.05-3.5-.14-5.94-2.69-7.76-5.59-2.38-6.22-.71-14.55-1.13-21.38,.8-3.26,1.46-6.55,2.07-9.86,.66-.39,1.33-.76,2.02-.97,.12-.04,.21-.04,.31-.06,.66,.52,1.38,.98,1.94,1.64,.25,.8,.54,1.59,.86,2.37,1.09,4.12,2.54,8.33,4.99,11.67,2.74,3.73,6.77,7.04,10.68,9.56,4.77,3.09,9.95,3.83,14.94,2.87,.27,.06,.56,.06,.88,0,2.05-.47,3.91-1.16,5.66-2.06,.51-.23,1-.48,1.49-.74,5.8-2.03,9.82-9.38,9.49-15.02-.32-5.55-5.68-8.76-9.59-4.81Z"/><g><path class="cls-4" d="M146.82,132.82c-1.53-2.34-4.6-4.01-7.45-3.14-2.65,.8-4.19,3.46-3.59,6.06,.12,.5,.82,.67,1.17,.3,1.04-1.09,2.49-.97,3.52,.04,1.16,1.13,.96,2.84,.15,4.12-1.09,1.73-3.22,2.49-5.16,2.86-3.88,.73-8.01,.17-11.63-1.33-6.74-2.78-10.96-8.69-12.24-15.5,3.47,5.03,10.88,7.58,16.75,7.15,7.06-.51,13.59-4.78,16.98-10.83,3.72-6.64,3.58-15.28-.31-21.82-3.24-5.44-9.85-10.02-16.53-8.07-2.97,.87-5.75,3.14-6.1,6.3-.33,2.92,1.26,5.72,4.12,6.68,.35,.12,.6-.05,.73-.3,.6-.15,.93-1.03,.24-1.42-2.08-1.18-1.3-4.48,.79-5.25,3.53-1.3,6.25,2.82,6.54,5.66,.48,4.59-1.68,10.52-4.59,14.08-3.16,3.86-9.28,6.04-13.39,2.2-3.27-3.05-3.9-7.8-3.36-11.97,.62-4.83,2.53-9.4,3.78-14.09,1.1-4.15,1.91-8.4,2.14-12.69,.42-7.8-1.33-15.81-6.71-21.8-11.24-12.5-32.88-12.41-45.84-2.5-6.57,5.03-9.68,13.03-9.71,21.05-.03,9.8,4.49,18.02,8.16,26.83,2.09,5.01,3.41,10.52,1.22,15.72-1.97,4.68-6.35,8.3-11.64,8.61-5.28,.31-10.47-2.48-12.18-7.51-.75-2.2-.78-4.69-.05-6.89,.45-1.35,1.2-2.7,2.25-3.69,3.04-2.89,6.94,1.39,3.51,3.58-.17,.06-.34,.11-.51,.16-.21,.06-.17,.37,.05,.37,.06,0,.11-.01,.17-.01,.07,.22,.31,.4,.58,.25,.21-.12,.4-.26,.58-.4,2.13-.5,3.78-2.21,4.09-4.46,.42-3-1.56-5.49-4.3-6.6-6.56-2.66-13.75,1.8-16.27,7.76-5.53,13.07,5.88,29.53,20.24,29.62,6.31,.04,12.84-2.98,16.36-8.15-.96,4.81-2.77,9.37-5.85,13.35-1.94,2.5-4.39,5.01-7.6,5.83-1.5,.38-3.19,.27-4.6-.41-.68-.32-1.34-.78-1.84-1.34-.6-.67-1.77-3.97,.15-3.54,.58,.13,.97-.43,.73-.93-.88-1.86-3.06-2.58-5.03-1.95-2.31,.74-3.39,3.14-3.62,5.34-.6,5.67,3.39,11.35,8.68,13.46,6.15,2.45,14.68,.89,20.37-2.09,3.9-2.04,7.29-5.46,8.89-9.52,.18,11.2,6.32,24.19,18.87,24.73,5.95,.26,11.69-2.85,13.79-8.43,1.97-5.25,1.61-13.69-4.3-16.43-2.4-1.11-5.47-1-7.28,1.08-1.69,1.93-1.78,4.71-.07,6.62,.41,.46,1.15,.07,1.17-.47,1.37-2.26,2.72-2.48,4.04-.67,.5,.8,.63,1.67,.38,2.61-.28,1.1-1.19,2.15-2.15,2.75-2.06,1.28-4.57,.8-6.47-.5-3.68-2.52-4.5-7.22-4.94-11.28-.86-7.96-.42-16.06,2.59-23.57,.08-.19,.05-.35-.03-.47,.79-.55,1.56-.24,2.32,.94,.27,.37,.44,.94,.59,1.37,.28,.79,.47,1.61,.73,2.4,.57,1.75,1.25,3.48,2.04,5.14,1.51,3.17,3.44,6.15,5.8,8.78,4.68,5.22,11.19,8.9,18.31,9.64,6.71,.7,13.48-1.54,18.14-6.37,4.05-4.2,7.15-11.65,3.63-17.03Zm-4.65,16.04c-5.84,6.08-14.76,7.45-22.66,4.79-8.3-2.79-14.36-9.46-17.92-17.11-.95-2.04-1.62-4.13-2.36-6.24-.37-1.05-.79-2.24-1.76-2.91-1.34-.92-3.32-.58-3.74,1.07-.03,.13,.02,.21,.1,.26-2.55,6.47-3.19,13.41-2.74,20.31,.37,5.64,.99,12.91,6.77,15.86,3.9,1.99,10.15-.02,9.74-5.09-.29-3.62-5.12-5.09-6.67-2.46-.4-1.38,.09-2.97,1.25-3.93,1.64-1.35,4.03-1.07,5.76-.09,3.28,1.86,4.12,5.94,4.04,9.36-.16,6.95-4.92,12.27-12.11,12.66-6.36,.35-11.87-3.69-15.08-8.78-3.57-5.68-3.8-11.97-4.23-18.37,.06-.58,.09-1.17,.06-1.77-.03-.81-1.24-.81-1.29,0-.58,11.15-11.38,16.58-21.7,16.9-5.24,.16-10.05-1.52-12.87-6.05-1.19-1.92-1.91-4.18-1.83-6.43,.05-1.37,.43-3.01,1.46-4.01,1.13-1.1,2.99-1.26,4.14-.3-1.66,.69-1.41,3.74-.37,5.15,2.18,2.96,6.41,3.36,9.62,1.99,4.2-1.79,7.28-5.97,9.38-9.81,2.11-3.86,3.4-8.15,3.55-12.52,.04-.09,.08-.17,.12-.26,.09-.22,.02-.42-.11-.56,0-.19,.01-.38,0-.57-.01-.5-.73-.48-.79,0-.01,.12-.03,.25-.05,.37-.12,.05-.23,.12-.3,.26-3.17,6.03-9.26,9.89-16.27,9.98-7.2,.09-13.69-4.26-17.31-10.15-3.83-6.21-4.93-15.35,.25-21.2,2.4-2.71,6.19-4.44,9.89-4.09,2.5,.24,5.35,1.5,6.06,4.07,.59,2.13-.36,3.91-1.94,5.07,.78-1.74,.13-3.93-2.15-4.62-3.78-1.14-6.43,3.82-7.03,6.7-1.86,8.85,6.35,15.88,15.09,14.58,9.72-1.44,14.24-11.56,12.25-20.21-1.35-5.89-4.67-11.13-6.82-16.74-2.26-5.87-3.66-12.19-2.99-18.48,.62-5.88,3.09-11.63,7.58-15.68,4.37-3.93,10.21-6.2,15.97-7.33,11.93-2.33,25.48,1.32,31.96,12.02,6.12,10.11,3.76,22.81,.49,33.43-1.59,5.17-3.61,10.58-2.75,16.06,.61,3.88,2.73,7.91,6.58,9.52,11.15,4.66,19.46-11.44,17.77-20.23-.72-3.75-4.92-7.95-9.09-5.84-2.12,1.07-2.98,3.73-2.22,5.78-2.43-2.41-.93-6.92,2.14-8.59,3.55-1.94,7.91-1.15,11.2,.91,6.92,4.34,9.61,13.3,7.96,20.91-1.62,7.45-7.57,13.54-15.18,15.3-3.71,.86-7.62,.52-11.16-.85-3.55-1.37-6-3.73-8.56-6.34-.02-.14-.04-.28-.05-.42-.08-.79-1.31-.82-1.29,0,.29,11.22,10.07,20.28,21.44,20.52,4.18,.09,10.45-1,11.12-5.99,.41-3.09-2.82-5.72-5.51-4.4,.16-2.73,3.48-4.14,6.04-2.95,2.67,1.23,3.74,4.09,3.77,6.81,.04,3.98-1.93,7.87-4.67,10.72Z"/><path class="cls-4" d="M76.47,74.55c.07-.22,.09-.46,.03-.69-.04-.15-.1-.26-.17-.35-.25-.76-.9-1.53-1.72-1.44-.42,.05-.71,.24-.91,.52-.36,.07-.69,.24-.95,.51-.68,.72-.49,2.01,.34,2.54,.07,.05,.15,.08,.23,.11,.1,.1,.21,.19,.33,.26,.35,.37,.91,.54,1.48,.39,.56-.15,.92-.55,1.08-1.03,.16-.25,.26-.53,.27-.82Z"/><path class="cls-4" d="M105.46,74.61c-.03-.69-.4-1.35-1.04-1.66-.37-.27-.81-.42-1.21-.25-.17,.07-.29,.2-.39,.34-.54,.25-.95,.75-.95,1.46,0,.2,.05,.39,.12,.55,.03,.26,.16,.47,.32,.65,.29,.56,.81,1.08,1.39,.98,.24-.05,.46-.17,.65-.33,.09-.03,.18-.07,.27-.12,.24-.13,.41-.32,.55-.52,.29-.33,.37-.72,.3-1.1Z"/><path class="cls-4" d="M93.76,74.89c-.24-.44-1-.25-.98,.26,.05,1.08,.27,2.05-.11,3.11-.45,1.26-1.52,2.24-2.9,2.39-1.13,.12-2.39-.3-3.05-1.24-.68-.96-.34-2.16-.9-3.13-.06-.1-.19-.08-.25,0-.9,1.23-.3,3.32,.75,4.34,.98,.95,2.48,1.35,3.83,1.15,2.96-.44,5.09-4.22,3.62-6.87Z"/><path class="cls-4" d="M38.99,123.96c-.74-.34-1.79-.25-2.19,.56-.48,.98-.53,1.96-.19,2.88,.06,.45,.22,.89,.48,1.24,.33,.47,1.01,.89,1.62,.65,1.17-.46,1.86-1.4,1.87-2.65,.02-1.07-.57-2.22-1.59-2.68Z"/><path class="cls-4" d="M46.02,131.98c-.81-1.26-2.72-1.72-3.59-.22-.69,1.18-.46,2.53,.41,3.55,.31,.36,.88,.51,1.4,.44,.63,.07,1.27-.2,1.68-.72,.68-.86,.7-2.13,.11-3.05Z"/><path class="cls-4" d="M52.84,134.24c-1.15-.87-2.94-.5-3.64,.76-.48,.87-.15,1.72,.61,2.28,.19,.14,.39,.24,.59,.31,.28,.24,.6,.45,1,.6,.11,.04,.22,.05,.33,.06,.44,.12,.99,0,1.29-.32,.21-.23,.34-.47,.42-.72,.54-.96,.29-2.29-.6-2.97Z"/><path class="cls-4" d="M64.46,133.57c-.19-1-1.14-1.8-2.18-1.78-.31,0-.6,.1-.86,.24-.3-.01-.6,.05-.89,.23-.4,.25-.65,.59-.76,.97-.05,.02-.11,.04-.16,.07-.64,.31-.86,1.24-.49,1.81,.6,.92,1.82,1.25,2.83,.81,.56,.05,1.15-.05,1.66-.29,.79-.37,1-1.31,.86-2.06Z"/><path class="cls-4" d="M48.19,155.17l-.08,.04c-1.14,.53-.93,2.12,0,2.7l.08,.05c1.07,.66,2.48-.2,2.48-1.39,0-1.3-1.38-1.9-2.48-1.39Z"/><path class="cls-4" d="M56.35,158.25c-.93-.55-2.3-.41-2.9,.54-.78,.32-.98,1.61-.13,1.98,.05,.04,.11,.06,.16,.1,.13,.17,.3,.33,.52,.44,.28,.15,.57,.21,.85,.22,.16,.06,.32,.12,.47,.18,.69,.26,1.42-.19,1.79-.71,.67-.93,.16-2.19-.76-2.74Z"/><path class="cls-4" d="M65.69,156.46c-.36-.54-1.15-.98-1.83-.73-.02,0-.02,0-.03,.01-.09,.01-.18,.02-.26,.04-.85-.03-1.52,.43-1.92,1.16-.4,.4-.53,.96-.44,1.49,0,.18,0,.35,.06,.55,.19,.66,.82,1.11,1.51,1.13,.31,0,.59-.05,.86-.14,.32-.03,.64-.1,.94-.26,.27-.14,.5-.35,.68-.59,.03-.02,.06-.04,.08-.07,.71-.69,.91-1.75,.36-2.59Z"/><path class="cls-4" d="M75.06,150.84c.06-.9-.75-1.68-1.62-1.79-.7-.09-1.26,.18-1.65,.65-.93,.45-1.51,1.4-1.53,2.43,0,.17,.03,.33,.08,.49-.03,.15-.04,.31-.02,.45,.08,.66,.35,1.2,1.02,1.48,.64,.27,1.29,.1,1.81-.33,.44-.37,.77-.85,1.01-1.37,.51-.53,.85-1.2,.9-2.01Z"/><g><path class="cls-4" d="M86.29,158.57s-.02,.03-.04,.05c.06-.07,.06-.08,.04-.05Z"/><path class="cls-4" d="M86.85,156.87c-.12-.84-.85-1.52-1.74-1.54-.83-.02-1.49,.5-1.73,1.27-.02,.06-.01,.13-.02,.19-.29,.43-.46,.95-.4,1.44,.14,1.14,1.14,1.73,2.23,1.25,.25-.11,.47-.26,.68-.44,.05-.05,.35-.39,.42-.46,.43-.53,.65-1.01,.56-1.71Z"/></g><path class="cls-4" d="M90.4,165.64c-.1-.35-.26-.62-.5-.9-.05-.05-.13-.18-.15-.21-.08-.22-.17-.43-.3-.62-.37-.55-.97-.86-1.65-.77-.59,.08-1.27,.54-1.37,1.16-.09,.51-.08,.95,.04,1.4-.02,.35,.02,.7,.12,1.04,.17,.58,.68,1.01,1.29,1.09,.21,.03,.4,0,.58-.04,.07,.01,.13,.03,.2,.03,.17,0,.35-.05,.51-.11,.87-.24,1.5-1.08,1.23-2.06Z"/><path class="cls-4" d="M96.88,168.91c-.26-.14-.53-.2-.81-.22-.2-.09-.4-.16-.6-.24-1.3-.51-2.54,.98-2.2,2.15,.32,1.11,1.55,1.91,2.68,1.81,.41,.07,.84-.02,1.11-.32,.15-.17,.25-.34,.32-.52,.59-.85,.52-2.11-.5-2.65Z"/><path class="cls-4" d="M106.68,168.09c-.52-.1-.96-.09-1.48-.02-.31,.04-.52,.22-.82,.27l.07-.07c-.12,.02-.24,.04-.36,.06-.64,.1-1.18,.86-1.15,1.47,.03,.62,.46,1.36,1.15,1.47,0,0,.31,.02,.35,.01,.26,.06,.49,.21,.77,.25,.52,.07,.95,.08,1.48-.02,1.73-.32,1.73-3.1,0-3.42Z"/><path class="cls-4" d="M115.59,145.35c-.52,.11-.88,.45-1.1,.88-.14,.06-.29,.12-.43,.19-.37,.19-.46,.67-.27,1.01,.11,.21,.27,.39,.43,.56,.18,.32,.39,.57,.66,.77,.04,.04,.09,.07,.14,.11,.03,.02,.05,.04,.08,.05,.04,.03,.08,.06,.13,.09v-.02c.14,.07,.26,.13,.41,.19,.68,.26,1.62-.17,1.95-.78,0-.02,.01-.03,.02-.05,.26-.27,.44-.62,.5-.99,.2-1.45-1.22-2.28-2.53-2.01Z"/><path class="cls-4" d="M127.46,149.96c.24,.52-.01-.13-.12-.31-.24-.39-.57-.61-.99-.78-.53-.22-1.11-.25-1.66-.08-1.18,.35-1.67,1.6-1.11,2.66,.39,.73,1.32,1.3,2.18,1.2,.91-.1,1.8-.7,1.85-1.65,.04-.33,0-.69-.16-1.03Z"/><path class="cls-4" d="M136.11,148.43c-.39-.63-1.22-.97-1.95-.77-.08-.01-.16-.02-.25-.01-.76,.03-1.41,.49-1.64,1.22-.06,.18-.1,.36-.1,.55,0,.06,0,.09,.01,.1-.08,.65,.34,1.42,1.08,1.45,.35,.17,.74,.26,1.12,.24,1.41-.06,2.54-1.46,1.72-2.78Z"/><path class="cls-4" d="M143.85,144.45c-.22-1.11-1.64-1.5-2.55-1.01-.42,.23-.73,.56-.93,.94-.27,.15-.51,.43-.64,.7-.29,.65-.32,1.45,.26,1.98,.58,.52,1.32,.57,2.02,.25,.2-.09,.38-.21,.55-.33,1.04-.38,1.49-1.46,1.28-2.53Z"/><path class="cls-4" d="M134.38,123.98c-.87-.14-1.65-.14-2.37,.41-.56,.42-.86,1.13-.8,1.82-.72,.68-.42,2.03,.8,2.07,.55,.02,1.05-.11,1.51-.32,.05,0,.1,0,.15-.01,.42-.09,.76-.34,1-.66,.32-.22,.58-.5,.75-.83,.44-.87,.15-2.29-1.03-2.48Z"/><path class="cls-4" d="M141.45,119.1c-.45-.44-1.11-.61-1.72-.44-.15,.04-.29,.1-.41,.17-1.36,.31-2.24,1.91-1.4,3.15,.13,.18,.28,.33,.44,.44,.24,.31,.58,.54,1,.59,.68,.09,1.55-.33,1.67-1.07l.02-.14c.94-.58,1.28-1.84,.4-2.71Z"/><path class="cls-4" d="M144.61,112.09c-.49-.66-1.27-1-2.08-.67-.47,.19-.81,.58-.95,1.03-.35,.32-.54,.77-.47,1.35,0,.03,.02,.05,.02,.08-.07,.3-.08,.62,.02,.96,.3,.98,1.75,1.53,2.5,.65,.02-.03,.04-.06,.06-.08,1.18-.47,1.7-2.2,.88-3.31Z"/><g><path class="cls-4" d="M143.22,104.27c-.01-.1-.13-.46-.16-.55-.12-.27-.25-.5-.47-.71-.49-.49-1.3-.72-1.97-.48-.73,.27-1.36,.88-1.33,1.71,.01,.4,.17,.82,.44,1.14-.02,.2,.02,.43,.12,.65,.14,.29,.29,.59,.54,.89,.6,.74,1.9,.44,2.32-.29,.26-.45,.37-.92,.37-1.39,.12-.3,.18-.63,.13-.96Z"/><path class="cls-4" d="M143.06,103.72s.04,.07,.05,.11c-.06-.15-.07-.16-.05-.11Z"/></g></g></g></g></svg>