<?xml version="1.0" encoding="UTF-8"?><svg id="Layer_2" xmlns="http://www.w3.org/2000/svg" width="178.58" height="249.45" viewBox="0 0 178.58 249.45"><defs><style>.cls-1{fill:#f4bd8c;}.cls-2{fill:#fff;}.cls-3{fill:#fceef4;}.cls-4{fill:#7f6a54;}.cls-5{fill:#aa9277;}.cls-6{fill:#231f20;}</style></defs><g id="cartes-couleurs"><g id="card-bg"><rect id="bg" class="cls-2" width="178.58" height="249.45" rx="8.5" ry="8.5"/><path id="fg" class="cls-3" d="M171.5,58.26V10.09c0-1.66-1.35-3.01-3.01-3.01H10.09c-1.66,0-3,1.35-3,3.01V239.35c0,1.66,1.34,3.01,3,3.01H168.49c1.66,0,3.01-1.35,3.01-3.01V91.4m0-.01V58.29M29.01,44.95s.01-.03,.02-.04c-.01,.02-.02,.04-.02,.06"/></g></g><g id="cartes"><g id="owl"><path class="cls-1" d="M92.48,108.8s-.02-.01-.03-.02c.02-.19,.05-.39,.04-.58-.01-.29-.46-.45-.61-.16-.14,.26-.3,.49-.45,.73-.14,.11-.24,.25-.29,.42-.19,.25-.38,.5-.58,.75-.39,.48-1.09,1.06-1.28,1.66-.17,.52,.03,.82,.34,1.22,.55,.71,1.12,1.34,1.59,2.11,.31,.51,1.1,.5,1.41,0,.56-.9,1.89-2.27,1.83-3.38-.05-1.01-1.34-2.02-1.97-2.74Z"/><path class="cls-4" d="M52.61,110.92c-.25,.48-.48,.97-.71,1.46-4.94,5.02-8.04,11-9.81,17.68-2.14,8.08-.42,15.35-.47,23.47-.01,1.55,2.51,1.94,2.89,.37,0-.14,0-.25,0-.37h.06c0-.37,0-.73,0-1.1,.12-.5,.4-.44,.83,.18,.36,3.15,5.1,3.31,5.3,.07,.57,0,1.19-.42,1.15-1.02-.28-4.39-.47-8.78-.64-13.17,.56-9.04,.35-18.31,2.62-27.08,.18-.68-.88-1.16-1.23-.49Z"/><path class="cls-4" d="M136.01,122.91c-.06-.29-.11-.58-.17-.86-.78-3.37-2.03-6.14-3.7-9.14-.96-1.74-1.67-4.39-3.7-5.21-.59-.24-1.37,.36-1.31,.95l.02,.21c.03,.29,.2,.58,.45,.75,.22,.31,.41,.65,.6,.99h0c-.18,5.58,.17,11.21,.13,16.79-.04,5.5-1.57,11.47-.84,16.86,.06,.45,.22,.84,.43,1.17-.69,2.82-1.2,5.63-1.81,8.55-.13,.61,.74,.83,.97,.26,.39-.95,.77-1.88,1.16-2.81,.14,.35,.3,.79,.36,1.73,.12,1.81,3.05,2.42,3.49,.45,.15-.66,.28-1.32,.42-1.98,.03,.12,.05,.24,.08,.35,.42,1.59,3.32,1.79,3.59,0,1.28-8.47,4.47-20.93-.18-29.07Z"/><path class="cls-5" d="M108.91,84.17c-.24-.58-.65-.92-1.21-1.23-.27-.15-.54-.22-.81-.27-1.26-.87-3.07-1.39-4.29-1.73-.95-.26-2.11-.53-3.29-.63-.58-.18-1.18-.25-1.8-.23-1.99-.49-4.12-.69-6.18-.69-1.2-.43-2.15-.16-3.15,.17-.97,.13-1.87,.34-2.74,.6-1.53,.06-2.71-.23-4.24,.8-.36,.24-.62,.54-.81,.85-2.3,.39-4.48,1.43-6.57,2.61-.48,.27-.28,1.01,.29,1.01,2.18-.03,4.46-.61,6.67-.64,.45,.44,1.1,.71,1.89,.66,2.17,1.24,4.92,2.55,6.59,4.15l.09,.1c.05,.05,.1,.09,.15,.14,.66,.69,1.12,1.44,1.24,2.27,.17,1.2,2.25,1.14,2.48,0,.71-3.58,3.93-5.91,7.35-7.18,.17-.06,.32-.14,.46-.23,.21,0,.41-.01,.62-.01,1.29,0,2.57-.08,3.86-.01,.34,.02,.63,.05,.91,.06,.25,.25,.52,.51,.82,.66,.8,.4,2.09-.28,1.7-1.24Z"/><path class="cls-5" d="M127.95,131.22c.16-3.68,.24-7.37,.25-11.08,.02-6.6,.11-13.97-3.85-19.44-1.69-4.74-3.8-10.38-8.51-12.34-.38-.16-.87,.1-.74,.54,.67,2.19,2.12,3.83,3.29,5.8,.3,.52,.58,1.03,.86,1.54-.11,2.07,.3,4.11-.09,6.23-.47,2.61-1.62,5.23-3.18,7.41-2.01,2.81-4.8,4.47-7.86,5.09-3.87-.19-6.89,.2-10.57-1.76-.05-.03-.1-.04-.15-.07-.58-.78-1.61-.97-2.48-.27-.63,.5-1.15,1.18-1.62,1.92-.32,.04-.61,.15-.85,.35-.33,.2-.65,.42-.96,.65-.45-.76-.9-1.51-1.36-2.25-.84-1.35-3.22-1.53-4.01,0-.1,.18-.22,.33-.34,.49-1.03-.56-2.45-.06-3.52,.15-1.44,.27-3.01,.22-4.31,.92-2.85-.75-5.62-2.1-6.9-3-4.25-2.99-5.67-6.85-7.86-11.03-.03-.76-.07-1.52-.22-2.26,.34-1.01,.69-2.01,1.09-3,.2-.47,.39-.94,.57-1.42,.15-.36-.02-.67-.29-.87,.09-.29,.18-.58,.28-.87,.1-.29-.34-.45-.5-.2-.19,.3-.4,.6-.6,.9-.14,.03-.28,.09-.39,.2-2.32,2.32-3.66,5.16-5.05,8.06-.05,.11-.08,.21-.11,.31-.01,.03-.03,.05-.04,.08-.89,.34-1.6,1.04-1.81,2.17-.24,1.29-.47,2.59-.68,3.89-1.01,2.92-1.78,5.94-2.36,9.07-.82,4.44-2.21,10.4-1.13,15.32-.71,4.05-.51,8.34,.12,12.27-1.03,4.32,.69,9.08,3.23,13.18,.68,1.65,1.61,3.23,2.97,4.13,.49,.6,.99,1.17,1.49,1.7,4,4.31,11.43,9.24,18.07,9.38,10.92,3.77,24.57,1.95,34.62-2.33,7.75-3.3,11.07-8.69,13.41-16.2,2.27-7.27,4.26-15.85,2.13-23.39Z"/><g><path class="cls-6" d="M138.62,130.64c-.54-4.13-1.61-8.2-3.21-12.07-1.53-3.7-3.51-7.96-6.55-10.77-.13-.12-.32,.03-.24,.18,1.88,3.69,4.31,6.96,5.87,10.84,1.43,3.57,2.43,7.29,2.95,11.08,.52,3.78,.59,7.63,.18,11.42-.35,3.31-.78,8.57-3.35,11.22-.47-.9-.8-1.81-1.01-2.82-.14-.67-1.09-.43-1.15,.15-.18,1.63-.71,3.07-1.54,4.43-.48-1.05-.96-2.1-1.44-3.15-.21-.45-.93-.29-1.05,.13-.37,1.26-.87,2.41-1.53,3.51,.55-1.63,.99-3.29,1.31-4.95,1.37-7.05,1.21-14.27,1.22-21.4,0-4.06,0-8.12,0-12.19,0-3.49,.13-6.98-1.24-10.28-.07-.18-.21-.28-.36-.33-1.83-7.72-6.54-14.67-12.98-19.56,2.22-1.46,4.1-2.96,6.9-3.76,3.95-1.13,7.93-.82,11.96-1.23,.96-.1,.97-1.35,0-1.43-4.35-.36-9.4,.08-13.51,1.59-2.22,.81-4.91,2.14-6.28,4.15-1.03-.73-2.1-1.41-3.21-2.04,.49-.65,.92-1.37,1.45-1.98,1.31-1.52,2.79-2.88,4.43-4.08,1.53-1.12,3.18-2.08,4.93-2.85,1.78-.78,3.77-1.05,5.48-1.91,.6-.3,.28-1.12-.33-1.15-3.75-.19-8.27,2.56-11.09,4.68-1.8,1.34-5.05,4.01-6.23,6.58-.96-.48-1.93-.94-2.93-1.34,.18-.58,.38-1.15,.62-1.68,1.02-2.26,2.38-4.38,4.03-6.27,1.5-1.72,3.24-3.27,5.16-4.57,1.89-1.28,4.06-2.01,6-3.17,.68-.41,.22-1.31-.53-1.19-4.65,.75-9.24,4.85-12.03,8.24-1.61,1.96-3.79,5.06-4.76,8.08-.87-.3-1.74-.57-2.64-.8-9.55-2.46-19.56-1.02-27.87,3.51-.58-3.19-4.74-6.27-6.79-8.1-1.88-1.68-3.88-3.26-6.11-4.52-2.51-1.42-5.17-2.48-7.56-4.08-.05-.09-.11-.17-.21-.23-.21-.12-.43-.25-.64-.37-.76-.44-1.67,.62-.97,1.2,3.64,3.04,8.49,4.33,12.29,7.22,3.41,2.59,7.27,5.57,8.96,9.47-1.07,.62-2.09,1.32-3.09,2.04-.7-2.92-4.22-4.8-6.94-5.77-5.13-1.84-10.88-3.04-16.24-4.09-1.06-.21-1.52,1.34-.45,1.55,4.35,1.27,8.85,2.14,13.25,3.25,2.04,.51,4.13,1.07,5.95,2.12,1.61,.93,2.62,2.15,3.79,3.43-.83,.63-1.63,1.3-2.41,1.99-2.88-2.3-7.5-2.74-11.13-3.03-4.81-.37-9.65-.01-14.46,.35-1.11,.08-1.14,1.7,0,1.67,.54-.01,.79-.03,1.14-.09,3.95-.32,7.91-.59,11.88-.47,2.32,.07,4.62,.26,6.9,.67,1.82,.33,3.6,.93,5.45,1.09-1.03,.93-2.01,1.92-2.93,2.98-4.78,5.55-8.01,12.22-9.75,19.19-.16-.04-.34,.02-.38,.23-1.41,6.49-2.15,13.13-2.51,19.75-.34,6.38-.53,12.97,.42,19.31,.09,.57,.2,1.13,.31,1.68-.59-.35-1.08-.77-1.53-1.33-.28-.34-.97-.15-1.04,.26l-.34,2.02c-.18,1.08,.31,2.32-1.09,1.51-1.44-.85-1.55-3.45-1.72-4.89-.06-.47-.8-.83-1.07-.28-.81,1.66-1.26,3.33-1.43,5.1-1.28-1.14-1.44-4.01-1.68-5.43-.34-2.02-.52-4.07-.56-6.11-.07-3.76,.35-7.52,1.24-11.19,1.87-7.71,5.72-14.19,10.88-20.31,.29-.35-.18-.83-.53-.5-6.46,6.07-10.56,14.78-12.13,23.21-.78,4.2-.99,8.49-.54,12.73,.28,2.63,.29,8.44,3.7,9.18,.4,.09,.81-.18,.8-.58,0-1.18,.15-2.27,.44-3.34,.31,2.06,.97,4.45,2.64,4.8,2.03,.42,2.34-2.5,2.47-4.38,.41,.35,.88,.64,1.47,.9,.13,.06,.25,.06,.36,.04,2.47,9.13,9.49,15.83,18.95,19.24,1.21,.43,2.44,.79,3.68,1.11-.95,3.13,1.79,5.84,3.74,8.03,.98,1.1,1.86,1.78,1.77,3.27-.04,.69-.26,1.23-.2,1.95,.12,1.31,.74,2.36,1.69,3.29,.5,.49,1.33-.02,1.17-.65-.08-.29-.15-.57-.23-.86-.07-.27-.35-.33-.57-.25-.56-.94-.66-1.94-.44-3.11,.03-.18,.11-.35,.17-.52,.44,.5,.9,.99,1.29,1.52,.32,.43,.61,.88,.88,1.34,.27,.46,.36,.8,.87,1.03,.23,.1,.57,.04,.63-.24,.19-.97-.81-1.92-1.41-2.64-.38-.46-.82-.94-1.3-1.36,.83,.15,1.64,.31,2.44,.72,1.18,.6,1.85,1.59,2.87,2.34,.41,.3,1.04-.2,.88-.64-.87-2.26-4.85-3.9-7.3-3.24h0c-.19-.46-.47-.87-.81-1.32-.83-1.12-1.9-2.07-2.81-3.13-1.46-1.69-2.19-3.32-2.8-5.39,4.69,1.14,9.6,1.52,14.42,1.48,5.09-.04,10.52-.27,15.63-1.25v.09c.01,.11,.18,.14,.21,.03-.66,2.17-1.65,4.39-2.86,6.54-.8-.11-1.67,.06-2.42,.24-1.02,.25-2.5,.65-3.02,1.59-.14,.25,.03,.67,.38,.63,1.04-.12,1.93-.88,2.94-1.19,.51-.15,1.04-.22,1.57-.3-.87,1.44-1.85,2.84-2.92,4.15-.46,.57,.35,1.38,.85,.81,1.29-1.21,2.41-2.64,3.34-4.18,.27,.43,.51,.88,.64,1.41,.13,.53,.15,1.07,.09,1.62-.03,.26-.08,.5-.16,.74-.03,.09-.1,.22-.15,.3,0,0-.02,.01-.03,.02-.19,.22-.29,.42-.19,.71,.08,.22,.32,.47,.6,.44,1.43-.17,1.34-2.28,1.17-3.3-.16-.95-.64-2.15-1.45-2.88,1.21-2.26,2.02-4.72,2.29-7.14,.02-.16-.11-.31-.24-.39l-.05-.03c.98-.2,1.94-.42,2.89-.69,8.44-2.36,13.98-8.95,16.99-16.48,.25,.17,.63,.19,.86-.12,.85-1.17,1.51-2.37,2.02-3.66,.42,.94,.85,1.88,1.27,2.82,.19,.42,.79,.3,1.01,0,.85-1.16,1.43-2.36,1.81-3.64,.23,.53,.49,1.06,.82,1.58,.21,.33,.63,.34,.92,.11,2.96-2.32,3.45-6.96,3.97-10.33,.65-4.26,.7-8.58,.14-12.86Zm-33.01-48.04c1,.42,1.98,.89,2.94,1.39-.02,.12-.02,.24-.02,.36-.47-.14-.95-.26-1.45-.35-.64-.11-1.28-.16-1.92-.18,.17-.4,.32-.81,.46-1.22Zm1.1,2.66c6.09,.99,10.88,6.02,11.8,11.75,.91,5.65-1.78,13.36-7.36,16.22-4.62,2.36-11.7,1.4-15.59-2.11-.05-.08-.12-.14-.21-.17-1.28-1.22-2.18-2.73-2.48-4.51,.67-1.85,1.05-3.79,1.08-5.61,.05-2.3-.42-4.5-1.29-6.53,.06-.06,.1-.14,.13-.24,1.44-5.79,7.7-9.81,13.91-8.8Zm-12.32,26.45c-.3,.48-.54,.99-.85,1.46-.46,.69-1,1.33-1.57,1.94-.47-.57-.94-1.14-1.42-1.7-.38-.45-.71-.95-1.16-1.32,1.13-1.15,2.06-2.51,2.77-3.98,.26,1.41,1.07,2.6,2.22,3.59Zm-20.34-27.18c4.77-2.67,10.16-4.28,15.79-4.6,5.03-.28,9.87,.51,14.33,2.13-.12,.61-.17,1.2-.14,1.78-5.47,.3-10.5,3.84-12.14,8.89-2.15-3.83-5.81-6.86-10.25-8.38-.43-.15-.72,.13-.78,.46-2.25-.52-4.64-.39-6.89,.22,.04-.17,.07-.34,.09-.51Zm7.7,1.22c7.27,2.72,11.89,9.83,10.63,17.3-.63,3.75-2.74,7.82-6.19,9.9-3.43,2.07-8.2,1.59-11.83,.25-7.73-2.86-12.14-10.87-9.52-18.51,2.4-7,9.76-10.01,16.91-8.94Zm30.95,84.46c-5.5,2.88-12.31,3.19-18.45,3.54-6.28,.36-12.67,.2-18.8-1.3-10.57-2.59-19.68-9.47-22.15-19.91-1.51-6.36-1.36-13.19-1.17-19.67,.21-7.09,1.04-14.11,2.06-21.13,2.23-7.15,5.5-14.1,10.62-19.79-2.66,4.73-2.5,10.8,.38,15.43,3.52,5.67,10.95,9.07,17.81,8.07,2.25-.33,4.17-1.33,5.75-2.73,.27,.46,.65,.87,.99,1.3,.58,.73,1.16,1.46,1.75,2.19,.21,.26,.6,.37,.87,.11,1.05-1.02,2.38-2.43,2.98-3.89,3.5,2.38,9.03,3.3,12.42,2.93,8-.88,12.42-9.93,12.06-16.86-.18-3.37-1.52-6.63-3.71-9.23,5.09,4.65,8.79,10.74,10.36,17.63,.07,.31,.31,.43,.57,.43,1.53,5.34,.64,11.63,.62,17.06-.02,6.05,.14,12.12-.3,18.16-.76,10.46-4.29,22.25-14.63,27.68Z"/><path class="cls-6" d="M106.63,97.56c-.18-.65-.75-1.01-1.3-.96-.33-.12-.69-.15-1.03-.07-.15,.04-.28,.09-.4,.15-.36,.03-.63,.14-.86,.52-.24,.4-.27,.93-.16,1.37,.07,.28,.2,.52,.38,.73,.33,.71,1.03,1.28,1.88,1.13,.82-.15,1.29-.89,1.34-1.64,.19-.38,.27-.82,.15-1.23Z"/><path class="cls-6" d="M78.39,97.97c.16-1.06-1.11-1.51-1.91-1.05-.11,.01-.21,.04-.31,.07-.03,0-.07-.02-.1-.02-.29-.02-.52,.1-.68,.29,.05-.08,.1-.15,.16-.21,.07-.08-.02-.19-.12-.14-.97,.46-1.46,1.66-.58,2.46,.32,.28,.74,.41,1.14,.38,.1,.04,.2,.09,.31,.11,1.17,.27,2.1-.65,2-1.68,.03-.07,.07-.14,.08-.22Z"/></g></g></g></svg>