<?xml version="1.0" encoding="UTF-8"?><svg id="Layer_2" xmlns="http://www.w3.org/2000/svg" width="178.58" height="249.45" viewBox="0 0 178.58 249.45"><defs><style>.cls-1{fill:#e9e9e9;}.cls-2{fill:#fff;}.cls-3{fill:#fceef4;}.cls-4{fill:#231f20;}</style></defs><g id="cartes-couleurs"><g id="card-bg"><rect id="bg" class="cls-2" width="178.58" height="249.45" rx="8.5" ry="8.5"/><path id="fg" class="cls-3" d="M171.5,58.26V10.09c0-1.66-1.35-3.01-3.01-3.01H10.09c-1.66,0-3,1.35-3,3.01V239.35c0,1.66,1.34,3.01,3,3.01H168.49c1.66,0,3.01-1.35,3.01-3.01V91.4m0-.01V58.29M29.01,44.95s.01-.03,.02-.04c-.01,.02-.02,.04-.02,.06"/></g></g><g id="cartes"><g id="panda"><path class="cls-1" d="M82.36,147.22c-3.82-.51-7.78,.43-11.54-.37-3.23-.68-6.26-2.63-9.09-4.24-5.54-3.14-11-6.58-16.17-10.34-.03-.56-.02-1.09,.06-1.57,.29-1.6-1.43-3.01-2.73-2.62-.72-1.2-2.49-1.22-3.45-.33-.34-.34-.94-.25-1.3,.03-3.28,2.57-2.93,7.65-2.43,11.39,.23,1.73,.53,3.46,.84,5.18,0,7.39,2.39,14.96,5.54,21.44,4.29,8.81,10.38,16.74,20.89,17.24,8.9,.42,18.53-3.82,17.18-14.23-.08-.6-.2-1.19-.34-1.76,.5-.21,.95-.49,1.38-.82,1.84-.34,2.87-2.11,2.95-3.95,1.38-2.8,2.24-6.14,3.18-8.55,1.36-3.48-2.03-6.12-4.95-6.5Z"/><path class="cls-1" d="M120.06,146.34c-3.5-5.95-15.44-3.35-20.77-2.1-2.66,.62-4.26,4.21-2.66,6.54v.02c.57,3.69,1.5,7.23,2.65,10.81,1.19,3.69,2.25,7.92,4.28,11.24,1.79,2.92,5.05,3.24,8.13,2.35,3.4-.97,4.93-3.21,5.92-6.43,1.86-6.04,6.03-16.35,2.45-22.43Z"/><path class="cls-1" d="M135.08,90.51c-.02-4.36-.66-8.72-2.39-12.74-1.75-4.08-4.47-7.71-7.43-10.99-1.69-1.87-3.66-4.03-5.92-5.5-.07-.14-.14-.27-.24-.41-2.87-3.8-6.84-4.59-11.36-5.34-5.45-.91-10.97-1.53-16.5-1.73-11.36-.41-22.26,1.22-33.01,4.89-.17,.06-.32,.13-.47,.21-.33,.03-.67,.11-1.02,.29-1.43,.71-2.46,2.03-3.26,3.6-3.05,3.81-4.28,9.59-5.77,14.29-.29,.62-.57,1.24-.83,1.87-.62,1.5-1.08,3.04-1.51,4.59-1.45,2.15-1.94,5.21-2.65,7.63-.13,.44-.27,.89-.41,1.33-.35,.84-.62,1.69-.69,2.56-.29,.61-.58,1.21-.86,1.82-.55,1.18-.15,2.7,1.24,3.05,1.42,.36,2.75,.86,4.05,1.45,0,.04,.01,.09,.02,.13,.34,1.68,2.1,2.18,3.48,1.74,1.93,1.17,3.79,2.49,5.65,3.84,.97,.7,1.87,.65,2.58,.2,.53,.25,1.12,.36,1.69,.32,.35,.22,.71,.41,1.07,.62,.4,.44,.92,.71,1.48,.82,10.99,5.79,24.39,7.21,37.35,5.69,1.28,.06,2.58,.07,3.9,0,8.47-.43,16.49-2.57,23.28-7.53,.28,.7,.73,1.31,1.44,1.73,1.59,.96,4.07,.44,4.94-1.3,.85-1.68,1.32-3.7,1.6-5.81,.92-1.48,1.46-3.29,1.46-5.49,0-2-.38-3.94-.93-5.83Zm-56.23-13.77c-2.28,2.64-3.64,5.62-4.63,8.75-1-.7-2.65-.49-3.47,.61-.16-.85-.69-1.43-1.34-1.72-.03-.2-.06-.39-.09-.59-.17-.96-.89-1.45-1.69-1.56,.19-.66,.38-1.32,.58-1.98,.37-.35,.74-.69,1.11-1.04,0-.08-.02-.15-.02-.23-.08-2.26,2.08-3.44,4.09-3.37,.03,0,.07,0,.1,.01,1.27-1,2.56-1.96,3.92-2.84,.14-.09,.29-.17,.43-.26,.26,1.16,.58,2.3,.94,3.43,.04,.25,.07,.5,.11,.75-.01,.02-.03,.03-.05,.05Zm38.17,9.45c-.03,.45-.06,.91-.09,1.37-3.23-1.09-6.36-2.4-9.44-3.94-2.42-1.21-4.79-2.75-7.32-3.72,.04-2.15,.18-4.31,.39-6.46,2.65-2.67,7.83-2.91,11.29-3.6,.12-.02,.23-.06,.34-.1,.61,.39,1.18,.83,1.69,1.36,.71,1.28,1.46,2.55,2.28,3.79,.66,1,1.74,1.43,2.81,1.43,.4,.6,1.07,.89,1.78,.91,.07,.37,.13,.75,.2,1.12,.06,1.38,.14,2.77,.24,4.16-1.94-.13-3.99,1.09-4.18,3.67Z"/><g><path class="cls-4" d="M139.67,138.94c-.31-14.14-.91-28.29-2.59-42.34-1.51-12.67-4.57-26.18-14.76-34.71,5.02-2.19,5.9-9.33,1.28-12.7-.1-.07-.21-.13-.31-.2-.66-.55-1.41-.96-2.25-1.12-.14-.03-.28-.04-.42-.06-4.63-1.1-9.42,2.24-10.42,7.13-.08,.25-.15,.49-.22,.74-7.64-1.83-15.88-2.24-23.7-2.03-7.64,.21-15.9,.94-23.16,3.49,.85-2.24,.31-4.74-1.23-6.66-.56-.7-1.21-1.22-1.92-1.61-.67-.45-1.37-.66-2.06-.7-1.47-.23-3.04,.03-4.49,.71-3.02,1.4-5.41,4.57-5.13,8.01,.24,2.9,2.28,5.25,4.99,5.97-12.6,23.81-20.33,51.48-18.38,78.58,.87,12.02,4.18,24.27,12.16,33.59,3.88,4.53,8.66,7.17,14.61,7.75,3.23,.31,6.56,.18,9.78-.12,2.67-.25,4.9-.96,6.42-3.3,.09-.13,.16-.29,.25-.43,1.28,.88,1.99,2.17,3.15,3.14,.4,.33,.98,.02,.87-.51-.3-1.45-1.71-2.87-3.36-3.81,.67-1.33,1.2-2.78,1.52-4.28,.61,.4,1.17,.86,1.84,1.22,.5,.26,.95-.25,.73-.73-.38-.83-1.17-1.47-2.13-1.89,.1-.63,.05-1.29-.12-1.98-.02-.92-.13-1.82-.36-2.69,.51-.02,1-.06,1.48-.17,.04,.43,.07,.86,.12,1.28,.71,6.14,3.32,11.44,8.61,14.12,.09,2.07,.95,4.26,2.14,5.55,.42,.46,1.03-.12,.81-.62-.62-1.4-1.35-2.7-1.67-4.21-.01-.05-.01-.1-.02-.15,.56,.22,1.14,.43,1.75,.6,.87,.24,1.85,.44,2.86,.57,.47,1.5,1.36,2.89,2.46,3.65,.45,.31,.96-.29,.71-.71-.54-.96-1.21-1.82-1.69-2.81,1.57,.06,3.12-.13,4.44-.72,.84,1.21,2.16,2.12,3.41,2.15,.47,.01,.61-.63,.23-.86-.94-.58-1.87-1.06-2.57-1.93,.67-.5,1.19-1.14,1.61-1.84,.6-.87,.96-1.86,1.14-2.92,.13-.54,.22-1.08,.29-1.61,2.08,.15,4.32-.25,6.37-1.02,.17,1.93,.81,3.77,2.24,5.4,.13,.15,.28,.27,.42,.41-.11,.2-.22,.4-.34,.58-.71,1.1-1.63,2.08-2.28,3.21-.32,.56,.4,1.06,.86,.66,1.02-.87,1.73-2.15,2.38-3.31,.07-.12,.14-.25,.21-.38,.9,.72,1.92,1.28,3,1.7-.02,.06-.04,.13-.07,.19-.47,1.07-1.25,2.06-1.41,3.22-.05,.37,.47,.65,.76,.44,.98-.72,1.4-2.05,1.77-3.18,.03-.09,.06-.19,.1-.28,1.74,.49,3.6,.6,5.36,.32-.03,.22-.05,.44-.1,.65-.25,1.26-.87,2.44-1.01,3.71-.05,.44,.59,.68,.87,.36,.99-1.14,1.48-3.12,1.5-5,4.03-1.1,7.31-4.24,9.38-7.8,2.9-4.98,3.5-10.83,3.57-16.48,.09-7.07-.13-14.16-.29-21.22Zm-58.01,27.31c-.57-.15-1.2-.14-1.83-.06-.53-1.26-1.34-2.4-2.51-3.33-1.84-1.47-3.88-2.16-5.98-2.3-1.15-.25-2.6-.36-3.72,.04-.14-.05-.3-.06-.49,0-2.71,.73-5.18,1.87-7.76,2.69-.71,.09-1.41,.17-2.12,.24-2.1,.21-4.11,.24-6.1,.11-.44-.09-.88-.21-1.3-.34-4.37-1.43-7.71-4.15-11.11-7.14-1.94-6.77-2.7-13.9-2.76-20.9-.01-1.54,.02-3.08,.07-4.62,2.19,4.04,15.42,10.14,17.05,10.8,6,2.41,12.24,4.19,18.58,5.42,.05,.03,.1,.05,.15,.08,1.2,.17,2.32,.62,3.44,1.1,1.08,.25,2.16,.51,3.26,.71,1.65,.31,3.36,.56,3.75,2.36,.18,.31,.26,.66,.23,1.01,.01,.01,.02,.03,.04,.04h0c-.98,4.64-1.23,9.48-.89,14.1Zm36.11-9.74c-1.38,4.9-3.29,9.63-4.64,14.55-.04,.15-.1,.28-.16,.4-.16,1.03-.27,2.06-.27,3.08-.91,.38-1.86,.68-2.9,.87-1.16,.21-2.24,.21-3.31,.13,0-.1,.02-.2,.03-.29,.24-4.92-2.23-9.41-4.09-13.94-.8-1.25-1.4-2.58-1.71-4.08-.19-.89-.41-1.92-.4-2.91-.16-.49-.26-1.01-.3-1.48-.09-1.11,0-2.43,.86-3.14,.16-.17,.34-.33,.57-.46,1.53-.92,3.79-1.09,5.5-1.31,3.14-.4,6.29-.43,9.39-1.11,1.14-.25,2.09,.51,2.17,1.65,0,.11,0,.23,0,.34,.82,2.44-.08,5.32-.75,7.7Zm18.01-56.81c-3.25,2.76-6.3,5.54-9.98,7.75-3.47,2.08-7.18,3.73-11.04,4.91-8.53,2.62-17.65,3.07-26.5,2.39-8.85-.68-17.61-2.66-25.86-5.94-7.69-3.06-14.37-7.42-21.32-11.81,3.16-11.9,7.68-23.48,13.67-34.24,.07-.13,.09-.26,.08-.37,1.05-.04,2.14-.34,3.15-.86,1.7-.86,3.42-1.88,4.4-3.42,.1,.06,.24,.06,.31-.06,.08-.13,.12-.27,.19-.4,7.68-1.03,15.16-2.49,22.94-2.67,8.1-.19,15.9,.84,23.89,2.05,.24,.04,.44-.04,.59-.17,.13,.12,.3,.21,.48,.27v.02c.17,.05,.34,.07,.52,.09,1.65,.28,3.65,1.98,5.07,2.73,1.2,.64,2.52,1.44,3.91,1.57-.02,.25,.1,.53,.32,.7,9.33,7.16,12.79,18.87,14.41,30.03,.36,2.44,.66,4.9,.93,7.35-.05,.03-.1,.05-.15,.09Z"/><path class="cls-4" d="M74.96,71.47c-5.84-1.14-12.1,2.77-15.27,7.46-1.68,2.48-2.62,5.62-.98,8.36,1.53,2.55,4.55,3.77,7.43,3.67,3.86-.13,7.19-2.17,10.38-4.12,2.57-1.57,5.16-2.91,5.99-6.05,1.26-4.73-2.75-9.84-7.56-9.32Z"/><path class="cls-4" d="M119.14,74.55c-2.23-2.6-4.82-4.77-8.14-5.77-.01,0-.02,0-.03,0-4.62-1.63-10.22,.59-11.63,5.6-.71,2.53-.24,5.31,1.56,7.28,2.12,2.32,5.34,3,8.18,3.98,2.98,1.03,6.34,3.74,9.69,3.08,2.58-.51,4.15-2.96,4.32-5.47,.23-3.33-1.89-6.28-3.95-8.68Z"/><path class="cls-4" d="M94.65,86.17c.32-.34,.15-.82-.26-.98-.12-.05-.25-.07-.37-.11-.06-.18-.19-.33-.39-.36-.06,0-.11-.01-.17-.02-.07-.08-.16-.15-.29-.17-1.03-.16-2.01-.11-2.94,.16-1.29,.17-2.55,.54-3.77,1.13-.38,.18-.41,.86,0,1.04,.14,.06,.28,.1,.42,.15-.02,.02-.04,.03-.06,.05-.22,.23-.23,.71,.11,.86,1.23,.55,2.51,.68,3.74,.44-.04,1.36,.02,2.68-.34,4.03-.42,1.61-1.36,2.74-2.19,4.12-.24,.4,.27,.98,.68,.68,1.08-.81,1.94-2.15,2.45-3.63,.07,.33,.17,.64,.29,.93,.34,.82,1.1,2.1,2.09,2.12,.19,0,.38-.21,.31-.4-.32-.79-1.19-1.27-1.6-2.05-.44-.82-.5-1.66-.63-2.55,.14-1.2,.04-2.4-.39-3.41,.75-.24,1.47-.62,2.12-1.16,.43-.23,.84-.51,1.2-.89Z"/><path class="cls-2" d="M73.38,78.52s.01-.04,.02-.07c.29-.23,.27-.61,.08-.98-.03-.19-.08-.36-.18-.52-.24-.38-.63-.53-1.02-.52-.02,0-.03,0-.05,0-.2,.01-.41,.06-.59,.16-.34,.04-.67,.2-.89,.54-.38,.58-.2,1.31,.23,1.71,.24,.35,.63,.58,1.08,.56,.12,0,.24,0,.35-.04,.2,.03,.41,0,.6-.17,.13-.11,.21-.25,.28-.39,.03-.06,.05-.13,.07-.19,0-.03,.02-.05,.02-.08Z"/><path class="cls-2" d="M108.31,76.13c-.09-.23-.23-.41-.42-.54-.18-.26-.45-.42-.75-.46-.45-.17-1.01-.06-1.36,.34-.49,.56-.3,1.41,.26,1.82,.24,.42,.69,.71,1.23,.6,.06-.01,.1-.04,.15-.06,.73-.15,1.16-.96,.89-1.7Z"/></g></g></g></svg>