<?xml version="1.0" encoding="UTF-8"?><svg id="Layer_2" xmlns="http://www.w3.org/2000/svg" width="178.58" height="249.45" viewBox="0 0 178.58 249.45"><defs><style>.cls-1{fill:#f2f7fc;}.cls-2{fill:#fff;}.cls-3{fill:#ffe9ed;}.cls-4{fill:#fceef4;}.cls-5{fill:#231f20;}</style></defs><g id="cartes-couleurs"><g id="card-bg"><rect id="bg" class="cls-2" width="178.58" height="249.45" rx="8.5" ry="8.5"/><path id="fg" class="cls-4" d="M171.5,58.26V10.09c0-1.66-1.35-3.01-3.01-3.01H10.09c-1.66,0-3,1.35-3,3.01V239.35c0,1.66,1.34,3.01,3,3.01H168.49c1.66,0,3.01-1.35,3.01-3.01V91.4m0-.01V58.29M29.01,44.95s.01-.03,.02-.04c-.01,.02-.02,.04-.02,.06"/></g></g><g id="cartes"><g id="penguin"><path class="cls-1" d="M124.98,140.13c-.92-6.66-2.03-13.28-3.08-19.91-2.24-14.09-2.64-28.19-4.31-42.32-1.13-9.59-4.44-19.32-14.56-17.97-5.02,.67-10.25,4.49-12.46,9.71-2.09-3.95-7.4-6.44-11.33-6.68-9.06-.56-13.5,8.68-13.44,17.83,.04,6.59,.81,12.68-.18,19.28-.89,5.93-2.27,11.74-3,17.7-.73,6.04-.34,12.16-1.34,18.16-.7,4.21-1.67,8.36-2.57,12.52-1.54,.42-2.74,1.93-2.06,4.09-.21,.29-.36,.64-.38,1.03-.37,7.65,5.61,13.83,11,17.42,7.31,4.88,16.28,5.67,24.58,5.57,9.22-.11,16.86-1.46,24.4-7.85,3.32-2.81,6.46-6.56,7.85-10.82,.21-.26,.4-.54,.57-.89,2.58-5.2,1.07-11.28,.3-16.88Z"/><path class="cls-3" d="M96.19,79.01c-2.08,.22-4.16,.39-6.24,.6-1.37,.14-2.75-.01-4.11,.11-.09-.08-.2-.12-.32-.07-.14,.05-.29,.1-.43,.16-.41,.15-.43,.71-.15,.95,0,.05,.01,.09,.04,.14,.56,1.01,1.79,1.54,2.72,1.99,1.28,.62,2.43,1.25,3.61,2.09,.1,.07,.21,.1,.32,.11,.23,.27,.56,.32,.82,.05,1.54-1.55,2.17-3.68,4.01-5.01,.4-.29,.29-1.17-.27-1.11Z"/><path class="cls-3" d="M77.41,175.94c-4.28-1.39-8.61-2.75-12.11-6.02-.42-.39-1.09-.11-1.2,.39-1.17,.7-2.32,1.38-3.56,1.92-.02,.01-.04,.03-.06,.04-.21,.07-.43,.17-.68,.37-.49,.38-.19,1.2,.4,1.07,1.36-.3,5.29-.8,5.35,1.21,.03,.9-.63,2.23-.7,3.25-.05,.76,.81,.83,1.13,.35,.02-.03,.05-.05,.07-.09,.12,.08,.26,.1,.42,.04,1.72-.74,3.4-1.12,5.16-1.49-.19,1.52-.13,3.66,1.41,3.93,1.65,.28,3.39-2.96,4.5-3.86,.36-.29,.34-.95-.13-1.11Z"/><path class="cls-3" d="M124.9,171.01c-1.16-.62-2.4-1.05-3.66-1.42-1.03-.4-2.09-.67-3.2-.83l-.07-.02h0c-.07,0-.14-.02-.21-.03-.46-.06-.72,.36-.74,.8-3.09,1.33-6.09,3.5-9.04,5.19-.54,.31-.42,1.11,0,1.45,2.66,2.11,5.23,4.45,8.04,6.31,.55,.36,1.17-.24,1.04-.9-.21-1.04-.32-2.08-.37-3.13,.03-.05,.05-.11,.07-.18,.1-.58,.24-1.09,.39-1.62,1.21,.28,3.34,.49,4.1,1.12,.1,.11,.19,.23,.29,.34,.52,.65,1.54-.21,1.09-.95-.04-.06-.07-.1-.11-.16h0l-.02-.03c-.15-.21-.31-.39-.49-.55-1.23-1.37-2.49-2.75-3.47-4.35,.16,.06,.33,.08,.48,.06,1.4-.22,2.5-.19,3.89,.09,.31,.06,.58-.09,.76-.32,.34,.04,.67,.06,1.01,.07,.43,.01,.64-.74,.23-.96Z"/><g><path class="cls-5" d="M136.31,108.17c-1.25-4.34-2.72-8.23-5.05-12.06-1.72-2.83-3.16-6.5-5.77-8.55-.13-.1-.26-.12-.37-.1-.77-4.65-1.87-9.21-3.53-13.58-3.38-8.86-9.92-18.23-18.75-21.62-10.9-4.18-24.35-1.1-33.12,6.61-4.13,3.63-7.2,8.23-8.72,13.67-.91,3.26-1.9,6.55-2.44,9.91-.46,2.83-.33,5.65-.26,8.5-.02,.03-.03,.06-.05,.09v.74s-.02,.08-.02,.12c.06,.38,.11,.76,.14,1.16-6.72,3.3-10.27,11.26-13.11,18.03-1.88,4.47-2.34,9.15-3.1,13.92-.8,5.05-1.65,9.96-1.97,15.08-.04,.64,.78,.77,1.08,.31,3.52-5.45,8.1-10.04,11.51-15.54-.29,2.23-.54,4.46-.69,6.7-.54,8.29,.28,17.53,3.52,25.44,.03,1.04,.28,1.98,1.08,2.49,.02,.01,.03,0,.05,.02,.91,1.83,1.95,3.57,3.17,5.19,1.24,1.64,2.59,3.1,4.04,4.39-2.2,1.28-4.4,1.96-5.68,4.53-.2,.41,.05,.9,.5,.91,1.95,.05,3.89,0,5.83,.04-.5,1.4-.68,2.77-.66,4.36,0,.44,.36,.64,.73,.59,1.16-.16,2.17-.58,3.28-.95,.67-.22,2.03-.97,2.56-.56,.33,.26,.15,.6,.27,1.05,.27,.98,.12,2.26,1.04,2.94,2.5,1.84,5.94-3.69,7.38-5.41,1.8,.38,3.65,.64,5.52,.79,7.4,.58,15.07,.73,22.04-1.64,.02,.09,.05,.18,.12,.27,2.63,3.54,6.81,5.12,9.8,8.25,.36,.37,.98,.1,.99-.43,.01-2.15-.3-4.3,.12-6.4,1.91,.79,3.74,1.64,5.82,1.82,.46,.04,.69-.54,.5-.91-1.04-1.99-2.3-3.79-3.65-5.55,2.07,0,4.13,.37,6.21,.34,.5,0,.76-.66,.41-1.04-2.05-2.23-5.17-4.03-8.21-4.35,4.67-5.11,7.67-11.71,8.65-18.83,.81-5.86,.39-11.95,.3-17.85-.04-2.88-.12-5.76-.21-8.64,1.72,2.56,3.78,4.74,5.9,7.06,2.55,2.79,4.66,5.99,7.77,8.16,.34,.24,.92-.07,.87-.52-1.09-9.74-3.11-19.52-5.82-28.9Zm-60.9,71.03c-.85,.88-2.08,2.49-3.38,.65-.32-.45-.2-1.91-.25-2.46-.03-.34-.24-.59-.58-.61-2.18-.11-4.04,.94-6.11,1.41,.04-1.37,.24-2.61,.84-3.93,.19-.42-.04-.9-.5-.91-1.88-.06-3.75-.02-5.63-.04,1.29-1.73,3.26-2.32,5.07-3.42,3.82,3.15,8.26,5.21,13.01,6.38-.82,.98-1.59,2.02-2.48,2.93Zm49.69-7.37c-1.94-.11-3.87-.41-5.82-.26-.52,.04-.73,.62-.41,1.04,1.31,1.67,2.54,3.37,3.61,5.21-1.72-.37-3.3-1.17-4.95-1.83-.3-.12-.63,.13-.71,.42-.56,1.98-.41,3.98-.34,5.99-2.8-2.47-6.28-4.09-8.62-7.09,2.34-.9,4.59-2.1,6.72-3.7,1.12-.85,2.17-1.77,3.16-2.75,2.55-.05,5.3,1.22,7.37,2.96Zm-8.15-3.81c-3.59,3.52-8.12,6.28-12.92,7.43-5.13,1.23-10.66,1.03-15.89,.87-8.36-.25-16.14-2.15-22.55-7.45-.08-.23-.27-.41-.5-.41-1.01-.87-1.99-1.83-2.93-2.88-2.37-2.68-4.17-5.79-5.54-9.14,.04-2.6,1.52-6.77,1.87-7.97,1.11-3.85,2.27-7.68,3.28-11.56,2.92-11.2,3.91-22.77,4.2-34.35,.26-10.48-1.96-23.15,3.91-32.4,2.53-3.98,6.62-6.83,11.31-6.32,2.75,.3,6.47,1.79,8.26,4.37,.58,.69,1.06,1.47,1.34,2.33,.22,.65,.32,1.51,.57,2.22,.3,.23,.77,.19,.86-.3,.78-4.37,4.97-8.22,8.99-9.02,4.36-.86,8.55,.55,11.37,4.18,2.81,3.62,3.75,8.1,4.18,12.63,.49,5.14,.75,10.29,1.1,15.44,.72,10.52,.58,21.05,1.23,31.56,.29,4.73,.48,9.52,1.14,14.21,.36,2.57,.88,5.17,1.55,7.67,.63,2.33,1.86,4.28,2.65,6.54,.03,.08,.07,.15,.12,.2-1.61,4.55-4.12,8.72-7.62,12.15Z"/><path class="cls-5" d="M74.75,73.83c-.05-.41-.19-.81-.43-1.17-.45-.66-1.1-.86-1.71-.64-.54,0-1.07,.25-1.43,.87-.35,.61-.43,1.3-.29,1.93,0,.12-.03,.24-.02,.36,.06,.86,.61,1.26,1.27,1.3,.07,.03,.14,.06,.21,.08h0c.28,.1,.57,.16,.9,.13,.83-.08,1.42-.73,1.47-1.6,0-.13,0-.26,0-.41,.08-.29,.08-.58,.03-.85Z"/><path class="cls-5" d="M111.87,71.09c-.31-.19-.6-.18-.87-.06-.5-.4-1.1-.32-1.58,.02-.56,.21-.86,.8-.94,1.46-.25,.41-.33,1.04-.31,1.43,.06,1.18,.98,2.55,2.25,2.21,.53-.14,.92-.48,1.18-.92,.35-.27,.63-.64,.79-1.07,.32-.85,.36-2.53-.52-3.07Z"/><path class="cls-5" d="M98.79,77.55c-2.97,1.08-6.43,1.14-9.58,1.11-1.68-.02-3.74-.18-5.28,.72-.39,.4-.56,.92-.18,1.45,.02,0,.04,0,.07,0,.54,.64,1.3,1,2.07,1.37,2.18,1.04,4.46,1.94,5.4,4.53,.17,.47,.79,.63,1.06,.15,1.75-3.18,3.86-6.26,6.89-8.21,.54-.35,.19-1.34-.45-1.11Zm-6.89,7.73c-.56-1.02-1.32-1.81-2.35-2.52-1.17-.81-3.58-1.36-4.7-2.52,1.86-.81,4.44-.29,6.34-.36,1.68-.06,3.46-.18,5.17-.48-1.78,1.67-3.22,3.73-4.47,5.88Z"/></g></g></g></svg>