<?xml version="1.0" encoding="UTF-8"?><svg id="Layer_2" xmlns="http://www.w3.org/2000/svg" width="178.58" height="249.45" viewBox="0 0 178.58 249.45"><defs><style>.cls-1{fill:#f9d9e2;}.cls-2{fill:#fff;}.cls-3{fill:#ffe9ed;}.cls-4{fill:#fceef4;}.cls-5{fill:#231f20;}</style></defs><g id="cartes-couleurs"><g id="card-bg"><rect id="bg" class="cls-2" width="178.58" height="249.45" rx="8.5" ry="8.5"/><path id="fg" class="cls-4" d="M171.5,58.26V10.09c0-1.66-1.35-3.01-3.01-3.01H10.09c-1.66,0-3,1.35-3,3.01V239.35c0,1.66,1.34,3.01,3,3.01H168.49c1.66,0,3.01-1.35,3.01-3.01V91.4m0-.01V58.29M29.01,44.95s.01-.03,.02-.04c-.01,.02-.02,.04-.02,.06"/></g></g><g id="cartes"><g id="pig"><path class="cls-1" d="M166.83,117.75c-1.03,.32-2.21,.1-3.2-.45,.11-.69,.14-1.37,.09-2-.09-.95-.64-3.39-2.06-3.26-1.67,.15-1.15,3.04-.67,3.97,.35,.68,.88,1.26,1.48,1.74-.14,.58-.35,1.14-.66,1.63-.51,.79-1.13,1.18-1.77,1.29,.01-.05,.03-.1,.04-.15,.3-1.61-.1-3.93-1.43-5.04-.94-.79-2.51-.97-3.13,.27-1.05,2.09,.85,5,3.09,5.84-1.3,2.28-4.48,1.54-6.19-.09-.15-.15-.33-.16-.48-.11-.52-1.55-1.14-3.08-1.88-4.61-5.97-12.23-19.15-17.68-31.97-19.6-8.61-1.29-17.22-.77-25.86-.06-5.02,.41-10.04,.93-15.06,1.41-2.33,.23-4.93,.64-7.25,.13-1.57-.34-2.96-1.23-4.59-1.2,.11-.18,.13-.42-.03-.62-.65-.83,0-3.22,.14-4.09,.22-1.42,.52-2.82,.68-4.25,.4-3.45-.22-7.48-1.44-10.72-.16-.42-.68-.5-.94-.12-1.43,2.06-3.61,2.98-5.75,4.11-1.85,.98-3.35,2.16-4.81,3.66-1.63,1.68-3.1,3.6-4.11,5.72-.87,1.82-.68,4.56-3.19,4.72-8.26,.54-14.53,7.79-16.85,15.29-1.62,5.23-3.23,9.4-8.23,12.24-2.49,1.41-6.73,2.98-6.25,6.52,.26,1.91,1.6,3.59,2.58,5.17,1,1.6,1.44,3.52,2.5,5.07,.63,.91,1.46,1.48,2.6,1.42,.97-.06,1.92-.66,2.84-.94,1.22-.37,2.47-.65,3.71-.94,4.89-1.13,9.48-1.44,13.05,2.66,2.75,3.15,4.22,7.54,4.56,11.67,.49,6.02-1.07,12.17,.14,18.16,.45,2.22,1.34,3.12,3.56,3.57,1.99,.4,5.71,1,7.37-.58,2-1.91,1.29-6.23,1.12-8.61-.11-1.55-.28-3.1-.22-4.65,.03-.72,.07-1.45,.14-2.16,.04-.44,.05-1.18,.27-1.58,1.75-3.23,2.65-.46,2.95,.47,1.02,3.18,.67,6.59,.81,9.9-.23,.22-.18,.61,.05,.79,.11,1.48,.35,2.94,.89,4.35,1.19,3.06,4.15,2.16,6.89,1.72,3.61-.58,4.58-2.64,4.66-6.15,.1-4.01-.66-8-.78-12.02,5.22,3.83,12.68,3.01,18.8,2.95,4.76-.05,9.48-.66,14.18-1.38,3.94-.6,8.2-.72,11.95-2.21-.4,2.86,.01,5.7,0,8.59-.03,3.51-.54,6.8,.3,10.26,.07,.29,.36,.4,.63,.36,2.71-.44,5.16-.77,7.88-.22,.25,.05,.59-.07,.63-.36,.6-4.03,1.1-8.06,1.44-12.12,.15-1.82-.22-4.6,.4-6.28,.28-.75,.1-.57,.98-.79,.71-.18,2.54-.38,3.22-.05,1.86,.91,.79,5.6,.72,7.31-.11,2.57-.2,5.33,.32,7.86,.38,1.88,1.2,3.55,3.28,3.75,1.3,.12,2.65-.21,3.96-.23,.85-.01,1.87,.16,2.68-.19,2.05-.89,1.85-4.01,1.92-5.82,.17-4.4,1.96-8.86,3.11-13.08,2.97-10.87,4.84-22.06,1.71-32.8,2.43,1.77,5.97,1.8,7.3-.94,.64,.04,1.27-.11,1.84-.53,.94-.68,1.55-1.77,1.9-2.94,1.15,.59,2.47,.8,3.71,.41,.63-.2,.36-1.19-.27-.99Zm-149.91,15.06c1.78-.73,2.57,2.19,1.85,3.39-.29-.71-.58-1.4-.94-1.96-.3-.47-.61-.94-.91-1.42Zm10.05,6.24c-.99,.25-1.98,.48-2.94,.82-1.51,.52-2.68,.56-3.8-.79-.46-.55-.81-1.32-1.14-2.11,.19,.05,.41,0,.55-.22,1.39-2.14-.5-5.99-3.23-4.83-.89-1.68-1.25-3.39,.59-5.04,.67-.6,1.43-1.08,2.23-1.52,.25,5.31,3.97,10.82,8.53,13.5-.26,.07-.52,.13-.78,.2Zm30.56,33.48c-.51,2.36-2.26,2.54-4.4,2.48-1.29-.04-3.65-.02-4.71-.96-.87-.77-.97-2.61-1.08-3.66-.06-.59-.09-1.18-.11-1.77,3.49,.54,7.11,1.93,10.27-.33,.1-.07,.15-.16,.18-.25,.1,1.49,.17,3.05-.14,4.49Zm16.1-.46c-.82,2.33-3.47,2.31-5.57,2.52-.88,.09-1.74,.3-2.55-.09-1.09-.51-1.32-1.86-1.54-2.98-.15-.76-.24-1.53-.29-2.3,1.68-.25,3.52,.44,5.21,.43,1.75,0,3.5-.31,5.16-.88,.02,1.13-.05,2.27-.41,3.3Zm54.07,2.38c-2.48-.4-4.84-.16-7.31,.23-.39-1.88-.4-3.7-.33-5.54,2.78,.14,5.55,1.01,8.3,.32-.2,1.66-.42,3.32-.66,4.98Zm18.81-5.83c-.07,1.81,.27,4.45-1.96,4.99-1.09,.26-2.62,.04-3.76,.13-2.33,.18-3.59-.49-4.1-2.9-.21-.96-.27-1.96-.3-2.95,3.36,.38,6.64,.31,10.01-.05,.06,0,.11-.03,.16-.05-.02,.28-.05,.55-.06,.83Zm12.5-48.06c-.83-.26-1.6-.95-2.11-1.91-.17-.31-.45-.86-.45-1.23-.36-.93-.02-1.14,1-.62,.76-.2,1.18,.01,1.27,.64,.53,.81,.52,2.14,.28,3.12Zm3.01-4.81c-.1-.17-.74-2.53,.09-2.28,.4,.12,.53,1.61,.56,1.9,.03,.39,.03,.79,0,1.19-.25-.25-.47-.51-.64-.8Z"/><g><path class="cls-3" d="M25.04,135.97s-.04,.02-.06,.03c-.11-.14-.2-.29-.3-.43-1.98-2.21-3.56-4.94-4.45-7.5-.07-.21-.08-.39-.05-.56-.21-.54-.36-1.11-.33-1.68-.66-1.16-2.63-1.2-3.24,.04-.12,.24-.21,.48-.28,.73-.14,.17-.26,.37-.34,.62-1.07,3.18,.65,4.95,2.3,7.12-.03,.08-.08,.15-.1,.23-1.36,5.15,6.65,8.05,9.48,3.91,.04-.06,.07-.12,.1-.18-.96-.65-1.88-1.44-2.73-2.34Z"/><path class="cls-3" d="M61.85,88.93c.52-1.5-1.03-2.54-2.33-2.33-1.36,.22-2.68,1.53-3.56,2.5-.98,1.09-2,2.51-1.88,4.04-.99,1.59,.73,3.47,2.33,2.75,.69,.15,1.45,.06,2.14-.37,1.24-.76,2.09-2.21,2.76-3.46,.34-.64,.28-1.25,.02-1.75,.02-.07,.03-.15,.04-.23,.18-.37,.35-.76,.49-1.15Z"/><path class="cls-3" d="M57.59,168.64c-.19-.26-.41-.45-.65-.6-3.17,1.86-7.23,.96-10.48-.38-.12,.23-.2,.5-.21,.82-.08,2.16,.44,4.42,1.98,6,.74,.76,2,.7,2.7-.02,1.6,.87,3.59,.72,5.18-.28,1.88-1.19,2.89-3.58,1.47-5.53Z"/><path class="cls-3" d="M73.72,168.17c-1.63,.54-3.36,.42-5.09,.51-1.78,.1-3.66,.5-5.27-.47-.66,.52-.99,1.41-.43,2.34,.28,.47,.68,.82,1.14,1.09-.34,.68-.14,1.62,.38,2.13,1.45,1.4,3.47,1.47,5.32,.91,.92-.28,1.8-.73,2.48-1.43,.67-.68,1.02-1.59,1.67-2.27,.86-.9,.56-2.15-.21-2.81Z"/><path class="cls-3" d="M127.11,168.91c-2.43,.32-4.84-.12-7.22-.73-.45,.31-.75,.8-.68,1.46,.02,.16,.05,.33,.08,.5h-.02c.01,.06,.03,.1,.05,.16,.14,.65,.31,1.34,.12,1.92-.41,1.25,.67,2.31,1.83,2.4,2.64,.2,7.62,.78,7.42-3.3-.06-1.17-.7-1.95-1.59-2.41Z"/><path class="cls-3" d="M147.05,168.8c-.23-.83-.99-1.36-1.83-1.39-1.05-.04-2.1,.05-3.15,.08-.7,.02-1.63,.12-2.38-.05-.01-.04-.03-.07-.04-.11-1.06-.06-2.12-.2-3.22-.29-.05,0-.09-.02-.14-.03-.19,.27-.31,.61-.33,1.01-.09,1.73,.41,4.02,2.09,4.87,.46,.23,.93,.33,1.41,.35,3.26,1.42,8.84-.06,7.59-4.44Z"/></g><path class="cls-5" d="M166.83,117.75c-1.03,.32-2.21,.1-3.2-.45,.11-.69,.14-1.37,.09-2-.09-.95-.64-3.39-2.06-3.26-1.67,.15-1.15,3.04-.67,3.97,.35,.68,.88,1.26,1.48,1.74-.14,.58-.35,1.14-.66,1.63-.51,.79-1.13,1.18-1.77,1.29,.01-.05,.03-.1,.04-.15,.3-1.61-.1-3.93-1.43-5.04-.94-.79-2.51-.97-3.13,.27-1.05,2.09,.85,5,3.09,5.84-1.3,2.28-4.48,1.54-6.19-.09-.15-.15-.33-.16-.48-.11-.52-1.55-1.14-3.08-1.88-4.61-5.97-12.23-19.15-17.68-31.97-19.6-8.61-1.29-17.22-.77-25.86-.06-5.02,.41-10.04,.93-15.06,1.41-2.33,.23-4.93,.64-7.25,.13-1.57-.34-2.96-1.23-4.59-1.2,.11-.18,.13-.42-.03-.62-.65-.83,0-3.22,.14-4.09,.22-1.42,.52-2.82,.68-4.25,.4-3.45-.22-7.48-1.44-10.72-.16-.42-.68-.5-.94-.12-1.43,2.06-3.61,2.98-5.75,4.11-1.85,.98-3.35,2.16-4.81,3.66-1.63,1.68-3.1,3.6-4.11,5.72-.87,1.82-.68,4.56-3.19,4.72-8.26,.54-14.53,7.79-16.85,15.29-1.62,5.23-3.23,9.4-8.23,12.24-2.49,1.41-6.73,2.98-6.25,6.52,.26,1.91,1.6,3.59,2.58,5.17,1,1.6,1.44,3.52,2.5,5.07,.63,.91,1.46,1.48,2.6,1.42,.97-.06,1.92-.66,2.84-.94,1.22-.37,2.47-.65,3.71-.94,4.89-1.13,9.48-1.44,13.05,2.66,2.75,3.15,4.22,7.54,4.56,11.67,.49,6.02-1.07,12.17,.14,18.16,.45,2.22,1.34,3.12,3.56,3.57,1.99,.4,5.71,1,7.37-.58,2-1.91,1.29-6.23,1.12-8.61-.11-1.55-.28-3.1-.22-4.65,.03-.72,.07-1.45,.14-2.16,.04-.44,.05-1.18,.27-1.58,1.75-3.23,2.65-.46,2.95,.47,1.02,3.18,.67,6.59,.81,9.9-.23,.22-.18,.61,.05,.79,.11,1.48,.35,2.94,.89,4.35,1.19,3.06,4.15,2.16,6.89,1.72,3.61-.58,4.58-2.64,4.66-6.15,.1-4.01-.66-8-.78-12.02,5.22,3.83,12.68,3.01,18.8,2.95,4.76-.05,9.48-.66,14.18-1.38,3.94-.6,8.2-.72,11.95-2.21-.4,2.86,.01,5.7,0,8.59-.03,3.51-.54,6.8,.3,10.26,.07,.29,.36,.4,.63,.36,2.71-.44,5.16-.77,7.88-.22,.25,.05,.59-.07,.63-.36,.6-4.03,1.1-8.06,1.44-12.12,.15-1.82-.22-4.6,.4-6.28,.28-.75,.1-.57,.98-.79,.71-.18,2.54-.38,3.22-.05,1.86,.91,.79,5.6,.72,7.31-.11,2.57-.2,5.33,.32,7.86,.38,1.88,1.2,3.55,3.28,3.75,1.3,.12,2.65-.21,3.96-.23,.85-.01,1.87,.16,2.68-.19,2.05-.89,1.85-4.01,1.92-5.82,.17-4.4,1.96-8.86,3.11-13.08,2.97-10.87,4.84-22.06,1.71-32.8,2.43,1.77,5.97,1.8,7.3-.94,.64,.04,1.27-.11,1.84-.53,.94-.68,1.55-1.77,1.9-2.94,1.15,.59,2.47,.8,3.71,.41,.63-.2,.36-1.19-.27-.99Zm-149.91,15.06c1.78-.73,2.57,2.19,1.85,3.39-.29-.71-.58-1.4-.94-1.96-.3-.47-.61-.94-.91-1.42Zm10.05,6.24c-.99,.25-1.98,.48-2.94,.82-1.51,.52-2.68,.56-3.8-.79-.46-.55-.81-1.32-1.14-2.11,.19,.05,.41,0,.55-.22,1.39-2.14-.5-5.99-3.23-4.83-.89-1.68-1.25-3.39,.59-5.04,.67-.6,1.43-1.08,2.23-1.52,.25,5.31,3.97,10.82,8.53,13.5-.26,.07-.52,.13-.78,.2Zm30.56,33.48c-.51,2.36-2.26,2.54-4.4,2.48-1.29-.04-3.65-.02-4.71-.96-.87-.77-.97-2.61-1.08-3.66-.06-.59-.09-1.18-.11-1.77,3.49,.54,7.11,1.93,10.27-.33,.1-.07,.15-.16,.18-.25,.1,1.49,.17,3.05-.14,4.49Zm16.1-.46c-.82,2.33-3.47,2.31-5.57,2.52-.88,.09-1.74,.3-2.55-.09-1.09-.51-1.32-1.86-1.54-2.98-.15-.76-.24-1.53-.29-2.3,1.68-.25,3.52,.44,5.21,.43,1.75,0,3.5-.31,5.16-.88,.02,1.13-.05,2.27-.41,3.3Zm54.07,2.38c-2.48-.4-4.84-.16-7.31,.23-.39-1.88-.4-3.7-.33-5.54,2.78,.14,5.55,1.01,8.3,.32-.2,1.66-.42,3.32-.66,4.98Zm18.81-5.83c-.07,1.81,.27,4.45-1.96,4.99-1.09,.26-2.62,.04-3.76,.13-2.33,.18-3.59-.49-4.1-2.9-.21-.96-.27-1.96-.3-2.95,3.36,.38,6.64,.31,10.01-.05,.06,0,.11-.03,.16-.05-.02,.28-.05,.55-.06,.83Zm6.49-29.77c-.52,7.2-2.74,14.23-4.65,21.15-.63,2.28-1.35,4.54-1.67,6.87-.07-.04-.16-.06-.26-.05-3.37,.36-6.67,.43-10.03,.05,0-.37,0-.74,0-1.1,0-2.12,.22-4.23,.26-6.35,.02-1.32,.17-3.48-1.18-4.27-1.46-.85-4.13-.3-5.61,.17-.22,.07-.37,.26-.38,.5-.17,4.21-.52,8.41-1,12.59-2.75,.84-5.58-.11-8.37-.26,.05-.98,.1-1.97,.11-2.99,.03-3.11-.51-6.19,.13-9.27,.1-.46-.34-.77-.76-.58-3.6,1.7-7.77,1.73-11.66,2.33-4.61,.71-9.23,1.36-13.9,1.47-6.37,.15-14.81,1.22-19.94-3.35-.33-.29-.88-.1-.88,.36,0,3.67,.55,7.28,.75,10.94,.01,.22,.03,.44,.04,.67-2.04,.73-4.25,1.07-6.41,.86-1.32-.12-2.65-.51-3.96-.37-.05-1.47,0-2.94-.07-4.4-.09-2.08-.14-6.48-2.17-7.83-2.04-1.36-3.46,1.06-3.77,2.73-.51,2.8-.19,5.65,0,8.46,0,.13,.02,.27,.03,.41-.12-.24-.39-.38-.67-.18-2.95,2.12-6.39,.69-9.63,.21-.05,0-.1,0-.15,0-.07-4.93,.76-9.9,.12-14.78-.74-5.59-3.58-12.42-9.31-14.49-2.82-1.02-5.94-.52-8.86,.17-.04-.06-.1-.12-.18-.16-4.71-2.41-8.73-8.15-8.74-13.54,.81-.42,1.63-.84,2.38-1.31,3.25-2.05,5.09-5,6.33-8.58,.72-2.09,1.23-4.25,2.04-6.3,1.11-2.82,2.86-4.92,5.09-6.93,2.17-1.96,4.74-4.06,7.69-4.67,1.31-.27,3.31,.23,4.45-.68,.95-.76,.96-2.35,1.27-3.42,.85-2.85,2.96-5.37,5.05-7.41,2.8-2.72,6.91-3.68,9.47-6.58,1.24,3.79,1.4,7.85,.74,11.75-.3,1.81-1.44,5.21-.16,6.84,.06,.08,.14,.12,.21,.15-.18,.31-.05,.8,.41,.77,1.61-.09,2.94,.83,4.46,1.16,1.13,.25,2.32,.24,3.48,.21,3.85-.09,7.72-.67,11.55-1.03,7.09-.68,14.24-1.41,21.36-1.46,12.38-.09,26.76,2.4,36.35,10.85,8.49,7.47,11.39,19.77,10.6,30.67Zm6.02-18.28c-.83-.26-1.6-.95-2.11-1.91-.17-.31-.45-.86-.45-1.23-.36-.93-.02-1.14,1-.62,.76-.2,1.18,.01,1.27,.64,.53,.81,.52,2.14,.28,3.12Zm3.01-4.81c-.1-.17-.74-2.53,.09-2.28,.4,.12,.53,1.61,.56,1.9,.03,.39,.03,.79,0,1.19-.25-.25-.47-.51-.64-.8Z"/><path class="cls-5" d="M48.49,107.71c-.26,2.35-1.78,4.55-4.41,3.86-2.02-.53-3.13-2.47-2.09-4.37,.32-.58-.57-1.1-.89-.52-1.36,2.48,.02,5.17,2.7,5.88,3.33,.88,5.37-1.85,5.71-4.85,.07-.66-.96-.65-1.03,0Z"/><path class="cls-5" d="M61.83,85.9c-4.38,.49-8.47,4.64-8.93,9.04-.2,.1-.34,.3-.28,.57,.6,2.82,3.93,1.6,5.59,.5,3.18-2.1,2.94-6.24,4.11-9.47,.11-.29-.18-.69-.5-.65Zm-2.81,7.93c-.75,1.09-4.34,3.61-5.26,1.84,.07-.08,.12-.17,.12-.3,.19-3.71,3.55-7.5,7.21-8.32-.64,2.26-.73,4.83-2.07,6.78Z"/><path class="cls-5" d="M82.26,102.32c-1.22-.21-2.8-.15-4.02,.03-1.57,.23-2.81,1.12-4.2,1.79-.06-.05-.12-.1-.21-.12-4.01-1.07-7.23,6.12-7.05,9.24,.13,2.25,.89,5.56,3.51,6.05,2.31,.44,5.54-.7,7.51-1.86,2.05-1.21,3.24-3.1,3.17-5.5-.03-.96-.45-1.97-.37-2.92,.17-2.01,.99-2.09,2.24-2.7,.61-.3,1.54-.56,1.87-1.23,.76-1.55-1.2-2.57-2.43-2.78Z"/><path class="cls-5" d="M120.21,122.47c-.78-1.74-2.42-2.38-2.08-4.62,.13-.89,.78-1.62,.68-2.55-.17-1.56-1.95-2.91-3.45-2.9-2.42,.02-2.53,2.35-3.75,3.81-1.09-.26-2.24,.3-3.03,1.18-1.55,1.75-.35,3.17,.98,4.58,1.33,1.41,2.81,2.69,3.77,4.39,.37,.66,.59,1.5,1.22,1.97,1.42,1.08,3.21-.08,4.28-1.12,1.3-1.27,2.18-2.97,1.39-4.74Z"/><path class="cls-5" d="M146.77,131.75c-.45-2.01-1.64-3.2-1.08-5.4,.31-1.23,.88-2.36,.62-3.66-.35-1.73-2.07-3.31-3.89-3.06-1.78,.25-3.06,1.82-3.75,3.43-.83-.45-1.81,.09-2.29,1.19-1.1,2.47,1.23,5.39,1.31,7.87,.07,2.04-1.09,4.66,1.06,6.02,1.79,1.14,4.36,.33,5.88-.9,1.6-1.3,2.63-3.41,2.17-5.48Z"/><path class="cls-5" d="M135.98,106.28c-.55-1.31-1.55-2.27-2.67-3.11-.75-.56-1.6-1.15-2.53-1.36-.97-.22-1.92,.12-2.88,0-.32-.04-.47,.18-.48,.42-1.82,.31-3.57,2.31-1.88,3.8,.58,.51,1.34,.78,1.96,1.23,.74,.54,1.34,1.25,1.98,1.89,.93,.93,2.03,1.95,3.43,1.95,2.71,0,4.06-2.48,3.07-4.82Z"/><path class="cls-5" d="M96.04,115.69c-1.11-.02-2.12,.38-3.08,.91-.64,.36-1.34,.78-1.79,1.38-.47,.62-.53,1.41-.93,2.06-.13,.21-.03,.4,.15,.48-.36,1.4,.51,3.3,2.12,2.56,.55-.25,.99-.71,1.51-1.01,.62-.36,1.32-.56,1.99-.81,.96-.37,2.05-.83,2.5-1.83,.87-1.94-.47-3.71-2.47-3.75Z"/><path class="cls-5" d="M111.75,99.55c0-.15-.06-.31-.21-.42-2.2-1.67-7.3,.38-8.82,2.32-2.2,2.81,2.13,3.28,3.96,3.62,2.42,.45,7.07,3.18,9.21,.85,2.51-2.73-1.86-5.3-4.14-6.38Z"/><path class="cls-5" d="M95.95,133.06c-.32-.19-.61,0-.71,.27-2.81-.15-6.88-.35-8.13,2.8-1.3,3.26,1.74,3.8,4.23,3.79,2.79-.01,6.62,2.21,8.47-.85,2.23-3.69-1.33-4.49-3.85-6.01Z"/><path class="cls-5" d="M126.21,138.42c-.65-2.53-3.33-3.92-4.87-1.45-1.87-.61-3.67-.49-4.5,1.71-.47,1.23-.08,2.58,1.13,3.2,2.05,1.05,4.38-.51,6.04,1.55,.81,1,1.37,2.7,2.99,2.16,1.25-.42,2.13-2.4,2.57-3.51,1.09-2.74-.81-4.64-3.36-3.66Z"/></g></g></svg>