<?xml version="1.0" encoding="UTF-8"?><svg id="Layer_2" xmlns="http://www.w3.org/2000/svg" width="178.58" height="249.45" viewBox="0 0 178.58 249.45"><defs><style>.cls-1{fill:#e3e4e5;}.cls-2{fill:#fff;}.cls-3{fill:#ffe9ed;}.cls-4{fill:#fceef4;}.cls-5{fill:#231f20;}</style></defs><g id="cartes-couleurs"><g id="card-bg"><rect id="bg" class="cls-2" width="178.58" height="249.45" rx="8.5" ry="8.5"/><path id="fg" class="cls-4" d="M171.5,58.26V10.09c0-1.66-1.35-3.01-3.01-3.01H10.09c-1.66,0-3,1.35-3,3.01V239.35c0,1.66,1.34,3.01,3,3.01H168.49c1.66,0,3.01-1.35,3.01-3.01V91.4m0-.01V58.29M29.01,44.95s.01-.03,.02-.04c-.01,.02-.02,.04-.02,.06"/></g></g><g id="cartes"><g id="rabbit"><path class="cls-3" d="M79.63,90.43c-.94-2.52-.86-5.53-1.44-8.21-.5-2.33-1.33-4.31-2.34-6.42-1.31-2.74-2.04-6.59-4.36-8.37-.04-.49-.22-.97-.58-1.39-1.67-1.94-3.92-3.55-5.97-4.98-1.72-1.21-3.21-2.1-5.11-2.21-.12-.12-.26-.22-.43-.3-2.22-1.07-6.04,.43-5.71,3.7,.43,4.28,5.95,4.7,8.75,5.19,.07,.01,.14,0,.21,.01,.91,.56,1.95,.87,3.04,1.25,2.02,.71,3.24,1.7,4.38,3.22,.88,1.98,1.93,3.91,2.79,5.8,1.88,4.11,3.12,9.08,3.76,13.63,.31,2.18,3.76,1.13,3-.9Z"/><path class="cls-3" d="M108.22,75.67c-.05-1.27-.08-2.62-.3-3.86,.15-.36,.2-.78,.1-1.2-.09-.36-.3-.75-.46-1.11v-.02c.21-.49,.28-1.09,.13-1.77-.45-1.93-1.44-3.79-2.2-5.61-.58-1.4-.97-2.86-1.89-3.84-.07-.35-.23-.69-.43-.98-1.75-2.46-5.63-1.36-4.9,2.09,.35,1.67,1.36,3.37,2.09,4.87,.92,1.88,1.9,3.7,2.97,5.48,.19,.32,.43,.57,.68,.76-.03,1.79,.49,3.63,.71,5.46,.55,4.42,.29,9.02-.59,13.39-.46,2.29,2.8,3.25,3.2,.97,.85-4.9,1.09-9.65,.88-14.62Z"/><path class="cls-1" d="M116.48,166.98c.06-.26,.09-.54,.06-.87-.14-1.29-.3-2.88-.59-4.48-.11-2.9-.82-5.85-1.14-8.69-.47-4.16-.87-8.32-1.15-12.49-.28-4.17-.31-8.33-.43-12.51-.03-1.05-.02-2.15-.03-3.25,.84-6.31,2.07-14.85-.5-20.88,.11-.38,.12-.81-.03-1.26-.1-.3-.18-.55-.27-.78-.07-1.03-.52-2.05-.8-3.19-.2-.81-.35-1.64-.48-2.46,.65-1.31,.42-3.22,.14-4.9,.17-1.15,.23-2.31,.25-3.35,.03-1.59,.04-3.61-.25-5.44,.24-3.67,.08-7.5-.41-11.14,.6-2.75-.63-6.3-1.31-8.77-.41-1.49-.8-3.61-1.71-5.07-.02-.22-.07-.44-.18-.65-1.18-2.43-2.97-4.67-4.88-6.44-1.33-1.23-3.69-3.56-5.64-3.39-1.29-.71-2.67-1.08-4.1-.7-.8,.21-1.46,.84-1.78,1.52-1.04,.26-1.69,1.57-1.49,2.76,.58,3.46,2.47,6.34,3.67,9.56,1.27,3.37,3.11,6.23,4.55,9.48,3.22,7.24,1.87,15.45,1.53,23.25-.48,1.07-.87,2.18-1.53,3.17-1.34,2-3.22,3.47-5.42,4.17-2.34,.75-4.81,.88-6.71-1.08-.32-.33-.6-.7-.86-1.09-.24-.53-.48-1.05-.71-1.56-.13-.29-.28-.51-.45-.69-.04-3.01-.43-6.05-.84-8.84-.47-3.21-.89-7.71-2.72-10.69,.07-.34,.07-.73-.05-1.16-2.14-7.74-6.3-15.44-13.37-18.76-.51-.24-1.03-.46-1.57-.66-.1-.11-.2-.22-.32-.3-3.61-2.51-8.49-2.96-12.67-2.96-.42,0-.89-.02-1.38-.04-1.19-.27-2.36-.4-3.41,.04-.38,.04-.75,.11-1.11,.2-5.77-.03-11.81,7.59-6.6,13.39,3.62,4.03,8.94,5.01,13.73,6.3,6.2,1.66,11.38,4.11,14.39,10.45,.36,.47,.71,.95,1.06,1.43,.21,.15,.43,.28,.67,.36,.08,.34,.18,.68,.27,1.03,.41,.66,.8,1.34,1.13,2.07,1.36,2.99,2.11,6.36,2.59,9.64,.07,.51-.12,.92-.41,1.19-.27,5.69-1.28,10.93-2.4,16.65-.84,4.27-1.77,9.05-.22,13.07,0,1.22,.19,2.5,.3,3.58,.12,1.24,.38,2.47,.54,3.7-2.5,3.09-4.88,6.27-6.4,10.09-1.87,4.69-3.03,9.9-3.66,14.96-.67,5.37-.76,15.28,3.52,19.7,2.08,5.56,8.93,10.33,13.73,10.65,2.57,.17,5.75-.35,7.11-3.08,.48-.96,.32-2.78-.22-4.37,.25,.04,.5,.08,.76,.09,1.02,.03,1.94-.15,2.76-.52,1.12,3.65,3.36,8.25,7.29,8.01,5.54-.35,3.28-7.11,2.31-10.59-.13-.45-.24-.91-.35-1.37,1.24,.73,2.74,1.07,4.18,.99-.11,.9,.15,1.64,.6,2.18-.09,1.1,.13,2.2,.86,3.21,1.49,2.07,4.09,2.32,6.19,1.41,6.54-2.83,6.36-11.58,6.44-17.93,0-.5-.01-1.14-.07-1.87Zm-37.18-74.02c-.16,.04-.31,.08-.47,.11-.03,0-.09,0-.19,.01-.14,.02-.28,.03-.42,.02-.16,0-.32-.01-.48-.02-.03-.05-.06-.1-.09-.16-.98-1.96-1.07-4.5-1.74-6.6-.26-.81-.57-1.6-.93-2.36-.14-2.7-1.52-5.67-2.74-7.86-.26-.46-.99-1.76-1.81-2.6-1.15-1.73-2.92-3.26-3.85-3.95-4.63-3.44-13.29-1.51-13.29-8.82,1.08-1.41,2.29-2.23,3.56-2.59,1.63,.23,3.26,.41,4.89,.55,6.34,2.8,12.84,12.55,14.49,17.55,.17,.53,.46,.91,.81,1.17,.28,3.05,1.67,6.21,2.07,9.16,.3,2.18,.3,4.29,.2,6.38Zm20.8,33.55c-3.04,4.07-12.11,3.58-12.51-2.59-.18-.72-.17-1.49,.11-2.32,.5-1.47,1.53-2.46,2.85-2.8,.03-.02,.05-.05,.09-.07,.22-.13,.44-.21,.64-.27,1.97-.84,4.85-.43,6.31,.27,2.78,1.33,4.71,4.83,2.51,7.78Zm8.57-40.6c-.44,1.62-1.06,3.25-1.51,4.81-.16,.55-.34,1.07-.5,1.57-.02,.03-.05,.05-.07,.08-.02,.02-.13,.14-.14,.16-.06,.05-.13,.1-.2,.14,0,0-.31,.17-.23,.13-.03,.01-.1,.04-.18,.07-.13-.12-.25-.23-.36-.33-.38-.34-.78-.72-1.21-1.04,1.13-6.75,.73-14.77-1.11-20.68-1.09-3.49-3.11-6.57-4.48-9.93-.11-.26-.24-.52-.36-.79,.08-.18,.14-.39,.17-.61,.18-1.6-.05-2.97,.69-4.02,1.8-.43,4.59,2.36,5.57,3.74,.17,.24,.37,.41,.57,.52,.29,.83,.64,1.65,.95,2.55,.23,.64,.43,1.28,.61,1.9,.02,.08,.04,.17,.06,.25,.55,2.45,.3,5.4,1.28,7.68,.13,1.98,.18,3.94,.1,5.94-.09,2.34-.57,4.69,.07,6.96,.06,.2,.15,.36,.28,.51,0,.13,0,.25,0,.37Z"/><g><path class="cls-5" d="M115.89,154.64c-1.51-9.55-3.27-18.89-1.97-28.58,1.15-8.54,1.39-17.78-1.72-25.95-.04-.12-.12-.19-.21-.24-.15-6.93-.02-13.86-.11-20.78-.07-5.38-.09-10.9-1.35-16.16-1.18-4.94-3.67-9.36-7.33-12.82-2.65-2.51-6.69-5.64-10.55-4.44-3.2,.99-3.73,4.33-3.03,7.25,.4,1.67,1.17,3.08,2.08,4.52,1.73,2.75,3.24,5.63,4.45,8.66,2.31,5.76,3.69,12.08,3.9,18.31,.19,5.54-1.3,13.66-7.36,15.38-6.93,1.98-8.31-5.42-8.81-10.52-.49-4.96-1.27-9.74-2.82-14.5-1.63-5.02-3.83-10.24-7.49-14.1-3.11-3.28-7.07-5.7-11.25-7.3-7.08-2.71-19.02-3.84-23.67,3.84-2.11,3.48-1.69,7.25,1.39,9.91,3.24,2.8,7.54,3.69,11.57,4.58,3.13,.69,6.36,1.4,9.14,3.11,3.2,1.97,5.76,5.19,7.73,8.37,3.69,5.96,5.29,12.45,4.31,19.43-.83,5.92-2.87,11.6-3.49,17.56-.27,2.64-.27,5.32,.2,7.94,.14,.8,2.03,5.59,1.66,5.94-.17,.16-.16,.35-.07,.5-8.1,11.95-13.86,26.94-9.09,41.35,1.71,5.15,4.72,10.11,9.37,13,3.49,2.16,9.67,3.89,13.36,1.22,.44,.1,.88,.16,1.3,.2,.57,.05,.54-.85-.02-.9-.13-.01-.28-.03-.42-.05,.14-.15,.29-.3,.42-.47,.37-.47,.63-.98,.82-1.51,.23-.01,.46-.02,.69-.05,.56-.06,.55-.97-.02-.9-.14,.02-.29,.02-.44,.04,.12-.77,.06-1.56-.15-2.31,.03-.01,.06-.02,.08-.03,.49-.22,.1-.9-.37-.79-.3-.69-.72-1.34-1.27-1.89-2.18-2.21-6.42-3.25-7.07-6.65-.11-.57-.96-.3-.85,.26,.84,4.37,6.7,4.89,8.36,8.56-.55,.15-1.12,.21-1.7,.19-.57-.02-.55,.88,.02,.9,.68,.02,1.33-.07,1.96-.25,.05,.21,.11,.43,.13,.66,.05,.5,.04,.95-.03,1.36-.55-.02-1.1-.12-1.58-.37-.51-.26-.94,.53-.43,.79,.54,.28,1.14,.41,1.76,.46-.3,.74-.8,1.32-1.43,1.77-.67-.19-1.32-.5-1.69-1-.34-.46-1.1,.01-.76,.48,.37,.49,.87,.84,1.44,1.09-1.57,.69-3.55,.83-5.18,.65-2.71-.31-5.29-1.31-7.5-2.93-8.91-6.5-10.99-19.84-8.93-30.09,1.68-8.35,5.66-16.08,10.44-23,.21-.3-.03-.58-.31-.63-.08-.52-.3-1.09-.39-1.41-.63-2.19-1.31-4.15-1.51-6.46-.47-5.42,.89-10.73,2.13-15.95,1.13-4.79,2.2-9.72,1.65-14.67-.58-5.16-2.89-10.21-5.88-14.39-2.79-3.9-6.17-7.03-10.7-8.58-4.77-1.64-9.99-1.81-14.47-4.31-1.97-1.1-3.99-2.71-4.54-5.04-.67-2.88,1.15-6,3.33-7.73,3.87-3.05,9.81-3.32,14.46-2.57,4.91,.79,9.69,2.85,13.67,5.87,4.58,3.46,7.32,8.22,9.39,13.55,2,5.17,3.24,10.57,3.74,16.1,.31,3.37,.43,7.76,2.66,10.5,2.36,2.88,6.54,2.87,9.55,1.12,3.75-2.19,5.16-7.29,5.67-11.37,.66-5.3-.34-11.04-1.68-16.17-1.34-5.15-3.45-10.07-6.23-14.58-1.29-2.09-2.55-4.16-2.65-6.71-.13-3.39,2.53-5.22,5.74-4.36,5.64,1.52,10.42,7.53,12.52,12.79,2.27,5.68,2.38,11.98,2.5,18.03,.15,7.63-.04,15.27,.14,22.9,0,.24,.17,.37,.35,.41,2.46,6.68,2.65,14.08,2.05,21.11-.3,3.55-.95,7.05-1.02,10.62-.08,3.96,.31,7.92,.86,11.84,1.1,7.85,2.88,15.63,3.02,23.59,.1,5.87-.43,16.23-6.85,18.91,0-.3,0-.6,0-.9-.02-.58-.91-.56-.89,.02,.01,.4,.01,.79,0,1.19-.71,.19-1.39,.22-2,.09,.08-.37,.15-.74,.21-1.11,.09-.57-.77-.79-.86-.22-.06,.34-.12,.68-.18,1.02-.36-.19-.69-.44-.97-.77,.47-.77,.83-1.6,1.06-2.49,.15-.56-.72-.78-.86-.22-.17,.66-.44,1.26-.75,1.85-.1-.22-.19-.45-.26-.7-.66-2.36,.04-4.8,.45-7.15,.71-4.04,.08-8.08-.6-12.07-.1-.57-.95-.31-.85,.26,.42,2.47,.82,4.96,.89,7.47,.07,2.58-.57,4.96-.9,7.49-.23,1.79-.24,4.01,.71,5.62-.34,.49-.71,.96-1.13,1.39s.24,1.04,.65,.62c.38-.39,.72-.82,1.05-1.26,.23,.25,.5,.48,.81,.68,.16,.1,.33,.2,.49,.28-.15,.59-.33,1.17-.56,1.74-.21,.53,.56,.98,.78,.44,.24-.61,.44-1.23,.61-1.85,.74,.21,1.47,.2,2.18,.03-.08,.85-.22,1.7-.46,2.54-.16,.56,.7,.78,.86,.22,.29-1.01,.44-2.03,.51-3.06,3.07-1.35,5.55-5.59,6.4-8.21,2.57-7.96,1.31-16.96,.03-25.04Z"/><path class="cls-5" d="M100.76,187.21c-.12-.03-.24-.06-.35-.09,.04-.97-.06-1.98-.23-2.88-1.07-5.6-3.66-11.2-1.43-16.9,.21-.54-.57-.98-.78-.44-1.51,3.86-1.01,8.08-.07,12.03,.48,2.03,1.89,5.36,1.8,8.01-.39-.11-.78-.23-1.17-.36-.54-.18-.75,.7-.21,.88,.43,.14,.86,.27,1.29,.39-.12,.65-.37,1.23-.79,1.72-.32-.25-.68-.5-.93-.81-.37-.45-.98,.21-.61,.66,.24,.29,.57,.53,.87,.77-.66,.44-1.38,.55-2.09,.44-.11-.25-.2-.52-.24-.81-.08-.57-.97-.55-.89,.02,.02,.17,.06,.32,.1,.48-1.19-.51-2.29-1.51-3.04-2.42-1.48-1.82-2.32-3.93-2.84-6.22-1.26-5.57-.6-11.39-.21-17.03,.04-.58-.85-.55-.89,.02-.44,6.34-1.23,13.02,.76,19.19,.96,2.96,3.37,6.94,6.68,7.6,.46,.78,1.15,1.4,1.96,1.87,.5,.29,.93-.5,.43-.79-.46-.27-.89-.6-1.24-1,.1,0,.2,0,.31,0,.82-.09,1.45-.36,1.95-.74,.31,.24,.63,.47,.96,.68,.49,.3,.92-.49,.43-.79-.26-.16-.51-.34-.76-.53,.43-.59,.67-1.32,.8-2.1,.08,.02,.15,.04,.22,.06,.56,.12,.77-.76,.21-.88Z"/><path class="cls-5" d="M82.32,115.52c.03-.22,0-.43-.11-.62-.04-.11-.09-.21-.14-.31-.22-.63-.74-1.17-1.45-1.01-.92,.19-1.16,1.22-.94,2.1,0,.34,.12,.64,.37,.83,.11,.61,.51,1.06,1.24,.85,.86-.25,1.13-.89,1.02-1.55,.01-.09,.02-.19,.02-.28Z"/><path class="cls-5" d="M105.57,116.33c.56-.49,.7-1.27,.45-1.96-.25-.7-.9-1.17-1.65-.97-.66,.18-1.17,.81-1.17,1.51,0,.15,.03,.3,.07,.44,.03,.5,.23,.98,.63,1.22,.29,.17,.63,.19,.95,.12,.05,0,.1-.02,.15-.05,.21-.07,.41-.17,.57-.31Z"/><path class="cls-5" d="M96.86,125.81c-.77-.56-2.22-1.72-1.87-2.83,.03-.09,.02-.16,0-.23,.11-.23,.17-.48,.15-.74,.05-.15,.06-.31,0-.48-.04-.13-.12-.23-.21-.32,.05-.28-.18-.64-.56-.58-.1,.02-.19,.06-.28,.09-.06-.02-.12-.05-.18-.05-.13-.02-.24,0-.35,.02,0,0-.02,0-.03,0-.19-.03-.41,.03-.5,.22l-.03,.06c-.32,.17-.48,.49-.46,.87-.09,.35-.04,.74,.19,1.04,.02,.03,.05,.05,.07,.07-.09,.35,.24,.59,.53,.53,.04,.03,.08,.06,.11,.09-.08,.9-.5,1.75-1.41,2.1-.53,.21-.28,1.07,.26,.87,1.04-.4,1.68-1.27,1.92-2.28,.43,.98,1.44,1.82,2.18,2.36,.47,.34,.89-.46,.43-.79Z"/><path class="cls-5" d="M95.08,117.42c-2.16,.06-4.71,0-6.51,1.42-1.63,1.29-2.18,3.46-1.82,5.47,.65,3.57,3.73,5.54,7.15,5.57,3.11,.03,6.62-1.57,7.56-4.82,1.21-4.2-2.54-7.43-6.38-7.63Zm5.05,8.48c-1.25,2.15-3.91,3.1-6.26,3.07-2.75-.03-5.33-1.42-6.12-4.25-.57-2.04-.04-4.42,1.89-5.53,1.61-.92,3.67-.82,5.46-.87,3.7,.19,7.21,3.83,5.03,7.58Z"/><path class="cls-5" d="M107.31,91.69c1.47-6.36,2.18-13.01,1.53-19.52-.32-3.17-1.05-6.18-2.12-9.17-.84-2.34-1.65-5.06-3.55-6.77-1.09-.98-2.89-1.86-4.2-.78-1.27,1.05-1.26,3.26-1.02,4.72,.44,2.73,2.33,4.79,3.69,7.09,2.09,3.55,2.3,8.37,2.61,12.41,.18,2.44,.17,4.92-.15,7.35-.15,1.15-.55,2.4-.42,3.56,.19,1.71,1.42,2.69,2.66,2.14,.21,.23,.67,.23,.77-.17,.04-.17,.08-.35,.12-.52,.09-.12,.11-.24,.08-.35Zm-2.74-1.57c.03-.5,.09-1,.18-1.5,.07-.46,.16-.92,.22-1.38,.22-1.69,.31-3.4,.28-5.1-.04-3.33-.45-6.71-1.04-9.98-.57-3.14-1.78-5.32-3.49-7.94-1.14-1.74-3.45-6.18-1.12-7.98,2.97-2.31,5.53,4.94,6.19,6.77,1.08,3,1.85,6,2.17,9.19,.65,6.44-.05,12.99-1.5,19.27-1.39,.15-2.02-.3-1.88-1.35Z"/><path class="cls-5" d="M79.97,91.57c0-.08-.01-.15-.04-.21-.25-3.88-1.02-7.7-2.06-11.44-1.03-3.72-2.2-7.43-4.26-10.71-1.89-3.01-4.34-5.64-7.18-7.73-2.42-1.79-5.82-4.27-8.98-4.06-5.4,.36-5.86,7.02-1.26,9.06,3.45,1.53,7.36,1.14,10.59,3.33,3.65,2.48,5.74,6.83,7.04,10.95,.7,2.2,1.25,4.47,1.7,6.73,.34,1.68,.52,3.56,1.63,4.93,1.02,1.26,2.07,1.27,2.55,.24,.16-.05,.29-.19,.28-.42,0-.19-.02-.37-.04-.56,0-.04,.02-.07,.02-.12Zm-2.31,.05c-.31-.47-.54-.98-.68-1.54-.29-.92-.41-1.9-.6-2.85-.41-2.01-.89-4.02-1.48-5.99-.95-3.19-2.26-6.34-4.3-8.97-1.69-2.19-3.85-3.89-6.48-4.74-3.13-1.02-9.45-.66-10.26-4.87-.45-2.3,1.41-4.18,3.62-4.33,2.22-.15,4.34,1.27,6.16,2.38,3.3,2.02,6.2,4.62,8.44,7.82,2.23,3.19,3.52,6.77,4.6,10.5,1.2,4.11,2.11,8.31,2.36,12.6-.59,.76-1.05,.76-1.39,0Z"/></g></g></g></svg>