<?xml version="1.0" encoding="UTF-8"?><svg id="Layer_2" xmlns="http://www.w3.org/2000/svg" width="178.58" height="249.45" viewBox="0 0 178.58 249.45"><defs><style>.cls-1{fill:#fff;}.cls-2{fill:#ffe9ed;}.cls-3{fill:#f2d3bd;}.cls-4{fill:#fceef4;}.cls-5{fill:#d7e0e2;}.cls-6{fill:#231f20;}</style></defs><g id="cartes-couleurs"><g id="card-bg"><rect id="bg" class="cls-1" width="178.58" height="249.45" rx="8.5" ry="8.5"/><path id="fg" class="cls-4" d="M171.5,58.26V10.09c0-1.66-1.35-3.01-3.01-3.01H10.09c-1.66,0-3,1.35-3,3.01V239.35c0,1.66,1.34,3.01,3,3.01H168.49c1.66,0,3.01-1.35,3.01-3.01V91.4m0-.01V58.29M29.01,44.95s.01-.03,.02-.04c-.01,.02-.02,.04-.02,.06"/></g></g><g id="cartes"><g id="sheep"><path class="cls-3" d="M78.31,167.84c.17-4.37,.23-8.72-.29-13.09,.06-.39,.13-.78,.22-1.16,.18-.85-.82-1.49-1.47-.86-.14,.14-.3,.26-.47,.38-.13,.05-.24,.12-.34,.21-1.4,.81-3.39,1.09-4.83,1.18-.27,.02-.49,.12-.67,.26-.41-.02-.8,.46-.69,.87,1.44,5.53,.48,11.55,1.41,17.2,.09,.56,.85,.98,1.38,.78,1.55-.58,3.39-.16,4.99-.03,.58,.05,1.12-.54,1.1-1.1-.05-1.51-.18-3.07-.33-4.65Z"/><path class="cls-3" d="M92.6,167.9c-.1-1.89-.52-3.68-.79-5.55-.07-.47-.61-.78-1.04-.79-1.59-.04-3.14-.19-4.71-.45-.27-.04-.56,0-.81,.13-.32-.14-.71,.02-.87,.4-.55,1.37,.28,3.9,.41,5.36,.2,2.34,.22,4.67,.12,7.02-.03,.74,.78,1.37,1.49,1.14,1.58-.52,5.46,.29,6.09-1.79,.46-1.54,.21-3.85,.12-5.46Z"/><path class="cls-3" d="M113.31,169.62c.07-2.11-.42-4.44,.04-6.51,.13-.58-.27-1.17-.89-1.17-1.74,0-3.44-.16-5.17-.35-.21-.02-.37,.04-.52,.14-.26-.12-.6-.06-.67,.28-.77,3.8-.39,8.38,.52,12.14,.11,.46,.57,.78,1.03,.79,1.52,.02,5.14,.84,5.65-1.29,.25-1.04-.04-2.9,0-4.02Z"/><path class="cls-3" d="M129.55,172.78c-.95-4.24,.3-8.7-.94-12.94,.11-1.92,.17-3.83-.06-5.75-.32-2.73-.41-2.81-2.51-3.4-.62-.17-1,.43-.93,.91-.03,.03-.07,.05-.1,.09-.56,.62-.78,2.2-1.15,2.92-.86,1.69-1.99,3.1-3.33,4.45-.28,.28-.42,.73-.29,1.11,.36,1.09,.52,2.25,.66,3.41-.11,1.24-.08,2.49,.06,3.74,.22,1.98,.33,4.38,.86,6.24,.83,2.97,4.84,.77,6.73,.53,.69-.09,1.17-.59,1.01-1.32Z"/><path class="cls-2" d="M63.14,139.22c-2.63-3.76-6.19-6.23-10.93-8.29-6.16-2.68-13.22-5.27-20.04-5.34-.35-.13-.69-.27-1.02-.41-.48-.2-1.12,.22-1.23,.7-1.96,8.7-2.66,17.47,5.04,23.56,4.26,3.37,9.33,4.49,14.38,4.05,5.33,.71,12.18-3.22,14.96-6.95,.43-.57,.74-1.1,.95-1.6,.14-.14,.26-.3,.33-.48,1.02-2.56-.62-3.9-2.46-5.23Z"/><path class="cls-3" d="M67.76,124.14c.37-4.4-.07-8.81,.44-13.2,.05-.45-.35-.83-.73-.96-1.62-.43-2.97-1.28-4.07-2.54-.36-.37-.96-.35-1.33,0-2.8,2.68-7.11,.62-7.03-3.08,.01-.66-.71-1-1.26-.72-.37,.25-.72,.45-1.07,.62-.07,0-.13-.02-.2-.02-.33,0-.61,.15-.8,.38-2.02,.49-3.71-.59-5.07-3.24,.15-.27,.24-.48,.35-.78,.47-.24,.38-1.1-.26-1.1-.11,0-.2,.03-.28,.07-.05-.01-.1-.02-.15-.02-1.22,.03-2.43,.14-3.65,.12-1.03-.02-2.08-.17-3.08,.07-1.68-.26-3.51-.09-4.78,.91-1.18,.92-1.84,2.7-.87,4.02,.57,.78,1.48,1.02,2.45,1.01,1.69,.6,3.84,.2,5.41-.41,1.01-.39,1.98-.93,2.86-1.57,.38-.28,.89-.61,1.17-1,.03,.17,.09,.32,.14,.48-.2,.08-.38,.24-.5,.51-1.77,3.99-5.11,6.43-7.9,9.64-2.68,3.09-4.22,6.97-7.03,9.95-.69,.73-.19,1.91,.81,1.95,6.38,.26,13.2,2.5,19.12,4.82,5.98,2.35,11.35,5.89,14.62,11.55,.71,1.24,2.32,.33,2.1-.88,.02-.04,.04-.08,.05-.13,1.08-5.44,1.56-11,.55-16.43Z"/><path class="cls-3" d="M75.11,108.81c-1.31-1.15-4.35-1.97-5.48-.24-.08,.12-.11,.27-.12,.43-.01,0-.03,0-.04,0-.51-.03-.78,.67-.42,1.01,1.92,1.79,2.64,4.62,4.6,6.32,1.5,1.31,3.86,.85,4.08-1.32,.21-2.06-1.09-4.84-2.62-6.19Z"/><path class="cls-5" d="M146.9,130.02c-.4-.16-.83-.28-1.27-.38,.39-.29,.74-.66,1.02-1.25,1.14-2.37-2.09-4.47-3.54-2.57-.54,.4-1.34,.65-2.06,.99,1.91-3.48,2.49-7.8,1-11.19-1.63-3.71-5.63-5.38-9.84-5.67,1.91-4.13-.74-10.49-4.71-12.42-3.15-1.53-10.79-.79-13.52,2.51-2.34-4.82-7.62-7.68-13.37-7.28-3.72,.26-10.19,3.68-11.3,7.81-1.26-1.19-2.77-2.1-4.53-2.56-5.18-1.37-8.48,2.18-12.22,5.22-.53,.43-.73,1.01-.7,1.58-.04,.05-.07,.1-.1,.14,.02-.43,0-.85-.08-1.27,2.39-1.18,4.02-4.61,2.55-6.84-.96-1.46-3.01-1.96-4.67-2.06-.65-.04-1.29,.07-1.89,.3,1-2.81,.73-5.99-2.25-7.63-1.73-.95-3.9-.61-5.47,.47-.92,.63-2.03,1.67-2.76,2.81-.3-1-1.1-1.84-2.01-2.42-.94-.59-2.05-.75-3.09-.53-1.52-.14-3.09,.84-3.31,2.45-.09,.66,.03,1.38,.27,2.05,.07,.47,.28,.9,.57,1.29-1.18-.09-2.33,.18-3.14,1.18-1.48,1.83-.43,3.51,1.22,4.54-.17,.44-.31,.91-.45,1.38-.33,1.1,.22,2.29,1.17,2.87,1.77,1.1,3.88,1.02,5.73,.16,.31-.15,.65-.32,.99-.52-.02,.32-.03,.63-.03,.94,.04,1.92,.74,3.75,2.8,4.26,1.69,.42,3.45-.12,4.75-1.24,.08-.07,.15-.16,.23-.23,.08,.16,.15,.32,.25,.47,1.06,1.58,3.52,2.59,5.38,2.13,1.41-.35,2.36-1.4,2.85-2.68,.1,.61,.47,1.19,1.14,1.31,3.7,.66,5.69,4.03,5.31,7.58-1.12,.91-2.31,1.49-4.11,.48-1.61-.91-2.32-2.18-3.02-3.86-.46-1.09-.5-1.48-1.46-2.11-.34-.22-.74,.02-.86,.35-.15,.42-.2,.85-.18,1.29-.15,.66-.12,1.21-.04,1.84-1.66,6.98,.4,14.42,.69,21.69-.27,1.79-.83,3.81-1.21,5.29-.67,2.57-1.92,4.79-3.64,6.8-.73,.86-.71,1.88,0,2.74,.07,.08,.14,.17,.21,.26,.48,5.02,8.12,4.89,11.5,3.45,1.18-.5,2.49-1.33,3.76-2.37-.14,6.72,5.73,10.95,12.24,9.38,3.21-.78,6.62-2.69,9.46-5.23,.46,2.02,1.71,3.86,3.56,4.9,1.87,1.05,3.9,1.27,5.91,1.01,2.3,.08,4.96-.75,6.53-1.56,4.26-2.2,7.05-5.12,7.83-9.4,.36,.16,.73,.28,1.13,.35,3.23,.61,7.06-1.3,9.42-3.41,1.49-1.34,2.48-3.53,2.9-5.9,.65,.31,1.41,.26,1.97-.47,.11-.14,.21-.26,.3-.39h0c.24-.33,.46-.65,.66-1.04,.14-.27,.2-.54,.22-.79h0c.87,1.37,2.75,1.39,3.77,0,1-1.36,.89-2.72,.2-3.83,.52,.15,1.12,.11,1.72-.2,.92-.48,1.55-1.33,1.55-2.4,0-1.28-.85-2.11-1.96-2.54Z"/><g><path class="cls-6" d="M146.4,129.61c1.05-1.06,1.35-2.69,.17-4.01-.99-1.1-2.51-1.22-3.61-.55,.04-.09,.06-.19,.05-.28,.88-2.19,1.19-4.59,.65-7.01-1.11-4.91-5.75-8.66-10.74-8.39,1.48-4.44-.4-9.59-4.46-12.06-4.61-2.81-10.62-1.36-14.29,2.29-2.13-5.14-7.56-7.81-13.07-7.49-4.95,.29-10.53,2.78-12.14,7.76-3.94-3.79-10.11-3.67-13.71,.38,.21-.96,.15-1.98-.26-2.96-1.03-2.49-3.88-3.65-6.39-3.07,.73-2.93-.69-6.32-3.63-7.45-2.94-1.13-6.14,.37-7.63,2.96-1.54-2.57-4.74-4.04-7.45-1.99-1.67,1.27-2.03,3.54-1.15,5.17-3.31-.08-4.81,4.17-2.32,6.29-1.83,.06-3.56,.17-5.45-.09-1.3-.18-2.61-.36-3.92-.16-2.12,.33-4.13,1.67-4.22,4-.08,2.17,1.64,3.17,3.59,3.41,2.97,.37,5.78-.91,8.33-2.34-3.56,6.08-8.99,10.6-12.91,16.51-4.57,6.9-5.54,15.95-2,23.52,3.66,7.82,11.78,10.83,20.03,10.42,5.01-.25,9.6-1.97,12.99-5.13-.26,2.15,2.65,4.62,4.23,5.29,.89,.37,1.78,.56,2.67,.6-.57,3.55,.12,7.57,.31,11.16,.21,3.99,.42,7.97,.63,11.96,.02,.3,.23,.5,.53,.53,2.45,.22,4.9,.29,7.37,.21,.32-.01,.52-.24,.55-.55,.7-7.78,.26-15.62-.34-23.4,.84,2.58,2.77,4.77,5.19,6.07-.19,4.62,.07,9.3,.35,13.91,.06,.95-.26,3.04,.5,3.81,.75,.76,2.95,.42,3.89,.47,.99,.05,3.16,.65,4-.1,.76-.68,.39-2.54,.38-3.41-.01-4.62-.19-9.25-.55-13.86,3-.84,5.75-2.72,7.82-5.06,1.01,2.48,2.99,4.07,5.34,4.92-1.01,5.35-.23,11.46,.33,16.83,.03,.26,.21,.54,.51,.51,2.38-.2,4.71-.14,7.07,.21,.32,.05,.66-.13,.65-.5-.16-5.61-.23-11.22-.31-16.84,1.98-.51,4.05-1.33,5.87-2.47,.43,6.31,1.25,12.53,1.24,18.88,0,.3,.24,.51,.53,.53,1.63,.13,3.25,.15,4.88,0,.95-.09,2.3-.07,3.12-.65,1.59-1.12,.79-4.17,.7-5.67-.46-7.16-1.02-14.31-1.65-21.45,3.65-.19,7.17-1.99,9.25-5.12,.84-1.26,1.36-2.65,1.61-4.07,1.16-.21,2.01-.92,2.42-2.04,1.26,.77,2.91,.64,3.94-.58,.96-1.14,.86-2.6,.21-3.79,1.55,.24,3.12-.73,3.31-2.55,.2-2-1.27-3.27-2.99-3.48ZM49.51,93.9c.39,.34,.86,.61,1.43,.77,.36,.1,.61-.44,.26-.62-.36-.18-.67-.42-.94-.68-.04-.09-.11-.16-.21-.21-1.31-1.49-1.21-3.82,.81-4.95,2.45-1.37,5.07,.34,6.01,2.71,.18,.44,.74,.46,.92,0,1.06-2.77,4.52-4.48,7.29-3.03,2.49,1.31,3.32,4.47,2.29,6.95-.18,.44,.38,.69,.71,.55,2.17-.96,5.04-.07,5.97,2.23,.92,2.28-.33,4.9-2.56,5.84-.24,.1-.4,.31-.33,.59,1.28,5.08-5.88,7.56-7.87,2.56-.14-.36-.61-.46-.84-.11-2.46,3.84-8.15,1.41-7.03-3.05,.08-.3-.22-.68-.55-.55-1.35,.54-2.8,1.14-4.29,1.08-1.98-.08-4.45-2.21-2.53-4.17,.25-.26,.11-.63-.2-.75-3.41-1.33-1.69-6.01,1.67-5.16Zm26.91,16.84c.55,.91,.77,2.28,.81,3.32,.01,.35,.07,.73-.04,1.08-.37,1.14-1.86,1.58-2.92,1.06-1.59-.77-2.43-2.45-3.16-3.97-.47-.98-.97-1.98-1.98-2.43,.87-.35,1.64-.93,2.2-1.7,.04,.03,.09,.06,.15,.07,1.77,.48,3.9,.86,4.94,2.57Zm-37.34-5.55c-1.11,.21-3.26,.44-4.2-.33-1.92-1.56-.66-3.83,1.21-4.56,3.5-1.36,7.37,.9,10.88-.55-.27,.43-.42,.89-.46,1.37-.1-.08-.25-.09-.31,.05-.23,.53-.49,1.05-.75,1.56-.13-.06-.28-.07-.44,.01-1.87,1.04-3.81,2.06-5.93,2.46Zm-5.88,15.07c4.26-6.17,11.11-11.22,13.31-18.64,.06,.81,.42,1.6,1.1,2.2,1.93,1.71,4.6,1.04,6.8,.22-.47,4.66,5.3,7.13,8.35,3.57,1.15,2.06,3.17,2.81,5.05,2.56-1.67,8.24,.45,16.56-.22,24.85-.18,2.19-.56,4.4-1.26,6.5-2.58-5.15-8.78-9.07-13.73-11.35-3.29-1.52-6.77-2.64-10.29-3.49-3.59-.87-7.8-2.1-11.55-1.95,.66-1.56,1.47-3.06,2.44-4.46Zm20.42,32.49c-8.32,1.78-18.12-.42-22.35-8.38-3.18-5.98-3.15-13.02-.7-19.16,3.31,1.29,7.23,1.49,10.68,2.34,3.57,.88,7.1,1.96,10.44,3.52,2.87,1.35,5.62,3.01,8.04,5.07,2.41,2.05,4.01,4.55,6.03,6.92-.55,1.3-1.22,2.54-2.08,3.67-2.46,3.24-6.11,5.17-10.04,6.02Zm24.68,20.07c-.23,.08-.47,.15-.7,.23-.08-.02-.16-.04-.25-.05-1.39-.15-3.25-.26-4.72,.11-.44-.12-.87-.21-1.2-.12-.12-2.2-.24-4.4-.37-6.59-.2-3.58,.06-7.68-.9-11.14,2.57,0,5.11-1.11,7.42-2.37,.46,6.66,.87,13.29,.71,19.94Zm10.19,.68c-1.08-.08-2.25-.36-3.32-.13-.01-.7-.02-1.39-.05-2.06-.16-3.24-.18-6.5-.35-9.74,.59,.26,1.19,.48,1.82,.63,1.68,.39,3.36,.38,4.99,.05,.19,3.18,.36,6.35,.43,9.54,.01,.44,.01,.87,.02,1.31-1.18,.37-2.26,.51-3.53,.41Zm21.54,.94c-.59,.01-1.18-.07-1.76-.14-.36-.21-.77-.21-1.12-.08-.16,0-.32-.01-.48,0-.1-1.33-.17-2.66-.22-3.99-.09-2.7,.12-5.49-.15-8.17,2.12,.64,4.48,.69,6.69,.26,0,3.89,.06,7.79,.15,11.68-1.04,.13-2.03,.43-3.1,.45Zm18.88-6.86c.09,1.28,.18,2.56,.26,3.84,.03,.52,.12,1.1,.19,1.7-.02,0-.03,0-.05,0-1.39,.48-2.79,.8-4.27,.86-.98,.04-2-.15-2.96,0-.11-4.95-.5-9.98-1.7-14.73,2.86-1.94,4.99-4.7,4.95-8.29,.75,.17,1.52,.26,2.28,.29,.48,5.44,.92,10.88,1.3,16.33Zm7.86-22.11c-2.56,3.86-7.59,5.42-11.93,4.07-.36-.11-.84,.2-.79,.61,1.08,10.41-19.85,16.53-22.85,5.41-.11-.41-.74-.65-1.04-.27-2.95,3.71-7.51,6.53-12.41,5.86-4.7-.65-8.61-4.88-8.2-9.71,.04-.47-.54-.73-.91-.52-2.6,1.49-5.45,3.17-8.55,3.13-1.22-.02-2.44-.38-3.47-1.02-.68-.42-1.33-1-1.77-1.67-.25-.38-.45-1.44-.78-1.88,.02,0,.04-.01,.06-.02-.09-.22-.15-.45-.13-.68-.03-.14-.04-.28,0-.42,.02-.09,.06-.17,.11-.24h-.04c1.39-1.61,2.52-3.5,3.31-5.7,3.71-10.42-.46-21.54,1.62-32.17,1.39,1.97,2.04,4.54,3.95,6.1,1.21,.99,3.35,1.68,4.57,.32,1.22-1.37,.62-4.34-.02-5.82-.97-2.24-3.38-3.14-5.61-3.64,.36-.85,.5-1.86,.29-2.99,1.04-.53,1.9-1.37,2.46-2.36,.07,0,.14-.02,.2-.09,3.6-4.63,10.15-5.03,14.02-.5,.25,.29,.78,.13,.86-.23,1.16-5.06,6.6-7.51,11.38-7.79,5.32-.31,10.65,2.42,12.22,7.74,.13,.43,.74,.66,1.06,.28,3.1-3.6,8.54-5.39,12.95-3.09,4.08,2.13,6.03,7.46,4.07,11.65-.24,.52,.16,1.04,.72,.94,5.04-.93,9.8,3.27,10.39,8.19,.62,5.19-2.71,9.92-6.96,12.55-.35,.22-.42,.7-.13,1,3.29,3.38,4.02,8.99,1.37,12.99Zm8.34-11.04c-.36-.25-.79,.31-.47,.61,1.06,1,1.31,1.96,.66,3.28-.63,1.28-1.91,2.01-3.32,.76-.21-.19-.6-.13-.67,.18-.18,1.04-.75,1.68-1.69,1.93,.31-3.19-.73-6.5-2.81-9.02,2.09-1.38,3.92-3.27,5.21-5.45,.01,0,.03,0,.04-.02,.42-.59,.98-1.02,1.68-1.3,3.31,.67,3.69,2.1,1.14,4.29-.47,.18-.3,.89,.21,.77,1.19-.28,3.2,.06,3.41,1.66,.27,1.97-1.55,3.56-3.39,2.29Z"/><path class="cls-6" d="M48.15,108.44c-.14-.08-.3-.14-.48-.13-.46,.02-.9,.38-1.04,.81-.19,.6,.11,1.2,.4,1.7,.12,.2,.4,.28,.6,.16,.09-.06,.17-.13,.25-.21,.32-.03,.6-.21,.76-.48,.21-.14,.38-.37,.44-.64,.14-.61-.28-1.23-.93-1.21Z"/><path class="cls-6" d="M64.56,114.27c.21-.42,.18-.95-.25-1.25-.44-.3-1.05-.18-1.39,.17-.89,.12-1.29,1.43-.46,1.99,.05,.09,.12,.18,.21,.26,.71,.67,1.49-.12,1.75-.8,.07-.12,.12-.24,.14-.38Z"/><path class="cls-6" d="M37.01,136.31c-.85-1.94-3.83-2.71-5.63-1.86-.22,.1-.05,.38,.15,.35,1.06-.14,2.08-.1,3.04,.37-.04,.07-.07,.14-.06,.22,.09,.94,.71,2.04,1.77,2.13,.72,.06,1-.6,.73-1.2Z"/><path class="cls-6" d="M57.07,141.96c-.67-.26-1.92-.61-2.86-.45-.06,0-.12,.01-.17,.04-.51,.13-.91,.42-1.04,.98-.27,1.13,.95,1.97,1.94,1.37,.54-.33,.67-.87,.53-1.36,.6,.03,1.2,.09,1.78,.4,.84,.44,1.25,1.16,1.57,2.03,.05,.14,.25,.15,.3,0,.44-1.37-.9-2.55-2.05-3.01Z"/></g></g></g></svg>