<?xml version="1.0" encoding="UTF-8"?><svg id="Layer_2" xmlns="http://www.w3.org/2000/svg" width="178.58" height="249.45" viewBox="0 0 178.58 249.45"><defs><style>.cls-1{fill:#fff;}.cls-2{fill:#fceef4;}.cls-3{fill:#8e937a;}.cls-4{fill:#c4c9b2;}.cls-5{fill:#231f20;}</style></defs><g id="cartes-couleurs"><g id="card-bg"><rect id="bg" class="cls-1" width="178.58" height="249.45" rx="8.5" ry="8.5"/><path id="fg" class="cls-2" d="M171.5,58.26V10.09c0-1.66-1.35-3.01-3.01-3.01H10.09c-1.66,0-3,1.35-3,3.01V239.35c0,1.66,1.34,3.01,3,3.01H168.49c1.66,0,3.01-1.35,3.01-3.01V91.4m0-.01V58.29M29.01,44.95s.01-.03,.02-.04c-.01,.02-.02,.04-.02,.06"/></g></g><g id="cartes"><g id="snail"><path class="cls-4" d="M145.1,172.68c-.66-.13-1.3-.31-1.93-.5-2.18-1.76-3.92-3.78-6.18-5.67-.97-.81-2.96-.29-2.84,1.03,0,.05,.02,.11,.02,.16-5,1.29-9.14,3.4-14.79,3.49-5.22,.09-9.96-1.08-14.63-2.73-1.19-1-2.33-2.05-3.73-3.01-3.23-2.21-7.84-1.48-11.8-.44-1.96-.29-3.85-.75-5.48-1.62-2.26-1.2-3.91-3.02-5.79-4.61-.12-.32-.24-.64-.35-.97-.56-1.7-1.28-2.9-2.58-3.5-.41-.44-.85-.87-1.36-1.27-2.4-3.51-3.43-7.43-4.06-11.48,.21-2.44,.12-4.97,0-7.4,.04-.15,.08-.3,.1-.47,.52-4.22,.94-7.56,.13-10.56,.03-.2,.05-.4,.03-.63-.46-9.25-13.21-11.91-20.77-6.53-3.12,2.22-4.21,5.57-4.11,9.27-.78,1.64-1.04,3.51-.87,5.22,1.03,10.78,10.61,20.89,18.31,29.13,1.13,2.35,1.91,4.84,1.91,7.4,0,3.16-1.69,5.48-2.48,8.39-1.05,3.85,1.1,6.71,5.29,8.16,5.88,2.03,13.84,1.1,19.97,.82,5.53-.25,11.03-.78,16.49-1.5,5.72,.55,11.81,.29,17.17,.32,9.02,.06,18.19-.12,27.15-1.07,1.61-.17,3.11-1.23,3-2.71,.08-.24,.16-.49,.2-.78,.43-3.32-2.81-5.34-6.05-5.97Z"/><path class="cls-4" d="M40.4,78.94c-.41-.1-.8-.16-1.18-.2-.31-.22-.66-.39-1.03-.49-3.42-.91-7.26,1.55-9.08,3.89-4.2,5.41,3.74,15.67,11.12,12.54,6.24-2.65,8.08-13.82,.17-15.74Z"/><path class="cls-4" d="M77.94,78.6c-1.18-.91-2.69-1.63-4.19-1.81-.1-.05-.19-.12-.3-.17-2.97-1.46-5.73-.42-7.81,1.72-1.88,1.93-3.07,4.21-2.19,6.76,.19,.54,.45,1.06,.75,1.56,.38,5.16,8.85,7.61,13.8,5.19,5.83-2.86,4.25-9.92-.06-13.25Z"/><path class="cls-3" d="M130.75,109.11c-10.05-3.21-19.75-1.62-28,2.7-3.89,.09-6.73,2.67-9.09,5.31-6.71,3.3-11.43,12.69-13.52,18.22-2.64,7-5.64,19.21,1.05,25.13,3.7,3.28,13.81,5.92,18.6,2.57,2.4,3.66,7.19,5.09,12.73,6.26,7.94,1.67,16.39,1.48,22.95-3.28,6.65-4.83,10.63-12.8,12.86-19.93,4.5-14.4-.24-31.43-17.6-36.98Z"/><g><path class="cls-5" d="M149.17,173.08c-1.53-.87-3.28-1.38-4.92-2.05-3.13-1.28-5.55-3.21-7.33-5.81h0c.79-.75,1.55-1.52,2.27-2.34,4.28-4.95,8.34-11.13,10.48-17.07,4.11-11.39-.06-26.17-11.05-33.54-10.28-6.89-24.25-7.49-35.74-2.66-14.08,5.93-22.7,18.28-25.36,31.48-.79,3.93-1.15,7.94-.99,11.93,.01,.37,.04,.74,.07,1.1-3.05-2.77-5.12-6.19-5.72-10.1-.73-4.75,.49-9.51,.78-14.25,.36-5.99-.98-13.16-7.51-16.23,.57-3.97,1.1-7.94,1.95-11.87,.63-2.92,2.44-6.4,2.22-9.39,2.3,1.02,5,1.33,7.58,.66,5.43-1.42,7.93-6.23,5.98-10.85-.9-2.14-2.55-3.79-4.57-4.87,1.04-.77,1.77-1.92,2.79-2.72,1.32-1.04,2.92-1.81,4.58-2.36,.69-.23,.25-1.2-.45-1.05-1.89,.41-3.51,1.2-4.93,2.37-1,.82-2.37,2.16-2.52,3.47-1.36-.64-2.87-1.02-4.43-1.13,.45-.84,.55-1.86,.96-2.72,.57-1.2,1.47-2.26,2.41-3.25,.41-.43-.32-1.11-.84-.81-1.44,.85-2.43,2-3.04,3.43-.42,.98-.81,2.3-.34,3.32-1.27,0-2.57,.17-3.83,.56-.19-.98-.67-1.94-.73-2.95-.1-1.5,.3-2.92,.76-4.35,.18-.56-.65-.9-1.03-.43-1.57,1.94-2.29,6.53,.04,8.41,0,.04,0,.08,0,.12-3.59,1.59-4.87,6.84-3.64,9.94,.85,2.15,2.6,3.88,4.77,4.97-2.48,2.48-2.89,7.15-3.54,10.26-.73,3.51-1.27,7.05-1.74,10.59-4.01-1.3-8.6-.88-12.16,1.07-1.56-2.97-3.74-5.76-5.38-8.71-1.79-3.22-2.92-6.33-3.98-9.7,.13-.04,.27-.07,.4-.12,2.97-1.08,4.31-3.9,5-6.48,1.03-3.84-.13-8.26-3.8-10.21,.67-.86,.94-2.04,1.63-2.91,1.04-1.3,2.47-2.11,3.98-2.94,.5-.27,.23-.94-.36-.85-1.9,.29-3.48,1.45-4.57,2.8-.68,.86-1.6,2.37-1.41,3.56-.82-.33-1.74-.56-2.78-.64-.05,0-.08,.01-.13,.01-.25-.1-.52-.16-.78-.23,.19-.98,.29-1.97,.69-2.92,.61-1.45,1.64-2.69,2.8-3.85,.3-.3-.05-.89-.51-.63-2.42,1.39-4.48,4.53-3.93,7.21-1.02-.13-2.06-.08-3.08,.16-.75-.91-1.64-1.58-1.86-2.87-.3-1.7,.38-3.38,.63-5.04,.07-.45-.76-.7-1-.28-1.08,1.92-1.74,4.23-.92,6.33,.31,.78,.95,1.76,1.82,2.27-2.17,.84-4.04,2.41-4.96,4.25-2.22,4.45,.03,10.83,5.23,12.88,2.04,.8,4.68,1.14,6.96,.71-.64,2.87,1.43,6.18,2.69,8.68,1.73,3.44,3.6,7.32,6.25,10.35-.85,.61-1.62,1.33-2.27,2.14-4.77,5.98-2.78,14.34-.31,20.72,1.5,3.87,3.49,7.6,5.97,11.06,2.73,3.82,6.35,7.14,8.82,11.09,1.4,2.24,2.44,4.76,2.4,7.34-.04,2.5-1.38,4.54-2.19,6.86-1,2.85-.69,5.66,1.96,7.73,2.62,2.05,6.25,2.72,9.62,3.15,5.41,.69,10.9,.64,16.34,.34,11.39-.62,22.51-1.48,33.94-1.13,6.22,.19,12.49,.46,18.71,.11,3.78-.22,8.04-.95,9.89-4.22,1.55-2.76,.02-5.39-2.71-6.94ZM65.39,88.33c-2.88-3.77-1.31-8.83,3.12-10.81,4.26-.97,8.77,.06,11.15,3.64,2.61,3.93,1.03,9.05-4.15,10.41-3.83,1.01-7.91-.35-10.13-3.24Zm-25.85,6.15c-2.24,.36-5.2-.08-7.06-1.27-3.56-2.28-4.84-7.03-3.18-10.51,1.58-3.31,5.31-4.48,9-4.08,.06,.28,.29,.54,.71,.57,5.88,.45,6.93,6.2,5.55,10.29-.76,2.26-2.13,4.53-5.03,5Zm39.05,51.64c.99-9.74,4.92-19.47,12.51-26.77,6.76-6.5,16.31-11.1,26.48-11.29,9.5-.18,19.3,3.47,25.05,10.22,7.53,8.83,8.19,22.06,2.7,31.72-4.22,7.42-9.66,17.18-19.73,19.23-9.04,1.83-22.82-.26-27.3-8.28-4.48-8.03-1.81-20.65,5.42-26.83,8.46-7.23,25.74-5.68,26.24,6.68,.22,5.46-4.37,10.53-10.45,11.65-3.55,.66-7.44-.21-9.61-2.86-1.27-1.54-1.7-3.43-.9-5.22,.29-.64,.71-1.27,1.28-1.76,.63-.62,1.41-.98,2.33-1.08,1.18-.58,2.04-.17,2.56,1.21-1.06,.61-.15,2.15,.93,1.54,1.3-.74,1.95-2.02,1.08-3.31-1.13-1.69-3.92-1.67-5.75-1.09-5.17,1.65-6.18,7.24-3.2,10.88,3.44,4.21,10.17,4.6,15.16,2.45,4.95-2.13,8.41-6.63,8.63-11.48,.51-11.49-13.54-16.65-24.24-12.25-11.6,4.76-15.42,18.38-12.79,28.6,.54,2.11,1.51,3.95,2.81,5.53-5.69,.61-12.11,.68-16.42-3.08-4.11-3.59-3.27-9.75-2.8-14.4Zm57.77,36.51c-4.77,.04-9.54-.14-14.31-.27-9.48-.26-18.77,.25-28.21,.95-8.31,.61-18.66,1.73-26.53-1.32-2.05-.79-4.01-2.01-4.52-4.06-.53-2.14,.87-4.27,1.64-6.19,1.19-2.98,1.32-5.87,.22-8.91-2.48-6.87-9.25-11.96-13.04-18.26-3.76-6.24-7.07-14.16-5.84-21.34,1.19-6.94,9.12-11.63,16.51-8.88l.05,.34c.09,.68,.95,.68,1.4,.3,.11,.06,.23,.1,.34,.16,8.6,4.73,5.77,15.49,5.23,22.77-.52,6.91,1.3,13.35,7.48,17.79,.28,1.64,.85,3.2,2.03,4.63,4.63,5.58,12.95,5.61,19.93,4.26,5.87,6.02,16.76,7.85,25.65,6.72,4.37-.56,8.02-2.37,11.1-4.87,1.57,2.24,3.61,4.15,6.25,5.46,2.78,1.39,8.79,2.33,8.72,5.93-.1,5.35-10.24,4.75-14.09,4.79Z"/><path class="cls-5" d="M37.81,84.56c-.1-.03-.2-.04-.3-.05-.35-.07-.73-.07-1.12,.04-1.36,.38-2.22,1.74-1.62,2.91,.13,.25,.43,.32,.7,.27,.2,.23,.46,.43,.79,.56,1.03,.39,2.35,.03,2.92-.82,.07-.1,.11-.21,.15-.31,.07-.12,.12-.24,.16-.36,.29-1.01-.59-1.96-1.67-2.22Z"/><path class="cls-5" d="M74.55,82.46c-.99-.29-2.19,.06-2.78,.82-.64,.84-.35,1.99,.54,2.6,.42,.29,.92,.4,1.41,.36,.04,0,.08,.01,.13,.01,2.33,.07,2.86-3.16,.71-3.79Z"/></g></g></g></svg>