<?xml version="1.0" encoding="UTF-8"?><svg id="Layer_2" xmlns="http://www.w3.org/2000/svg" width="178.58" height="249.45" viewBox="0 0 178.58 249.45"><defs><style>.cls-1{fill:#fff;}.cls-2{fill:#fceef4;}.cls-3{fill:#9bb58c;}.cls-4{fill:#c1e2af;}.cls-5{fill:#231f20;}</style></defs><g id="cartes-couleurs"><g id="card-bg"><rect id="bg" class="cls-1" width="178.58" height="249.45" rx="8.5" ry="8.5"/><path id="fg" class="cls-2" d="M171.5,58.26V10.09c0-1.66-1.35-3.01-3.01-3.01H10.09c-1.66,0-3,1.35-3,3.01V239.35c0,1.66,1.34,3.01,3,3.01H168.49c1.66,0,3.01-1.35,3.01-3.01V91.4m0-.01V58.29M29.01,44.95s.01-.03,.02-.04c-.01,.02-.02,.04-.02,.06"/></g></g><g id="cartes"><g id="tortoise"><path class="cls-3" d="M147.02,141.07c-2.4-4.25-5.31-8.05-7.14-12.63-1.21-3.03-1.75-6.22-3.36-8.95-1.38-6.6-3.57-13.23-7.31-18.3-4.99-6.76-13.95-9.56-22.04-9.42-15.02,.26-32.53,9.2-40.34,22.56-.56,.66-1.05,1.4-1.61,1.99-1.07,1.14-2.17,1.88-3.53,2.44-.41-.15-.87-.25-1.37-.3-.77-.08-1.4,.54-1.59,1.25-.17-.09-.35-.16-.55-.22-.55-.15-1.2,.1-1.48,.6-.6,1.08-.93,2.36-1.18,3.57-.16,.78,.22,1.52,1,1.76,.89,.27,2.56,1.02,4.03,1.26,.11,1.28,.12,2.53,.06,3.6-.02,.4-.08,.93-.17,1.48-.22-.17-.51-.27-.84-.26-.74,.02-1.37,.02-2.08-.17-.69-.18-1.35-.45-2.06-.22-1.09-.3-2.47,.53-2.21,1.75-.45,1.24-.14,2.58,.78,3.7,.09,.11,.2,.2,.32,.27,.24,.22,.55,.36,.87,.4,.11,.1,.22,.19,.33,.29,2.06,5.23,9.02,8.42,13.84,10.43,7.03,2.94,14.75,4.01,22.3,4.63,7.85,.65,15.62,1.11,23.47,.29,.46-.05,.92-.1,1.38-.15,1.82,.17,3.66,.13,5.45-.09,1.26-.16,2.7-.37,4.14-.69,7.23-.29,13.9-4.08,20.17-8.23,.89-.59,1.24-1.7,.7-2.66Z"/><g><path class="cls-4" d="M59.93,126.67c-.31-.31-.74-.41-1.19-.41-.33-.09-.71-.08-1.1,.05-.2,.07-2.89-1.8-3.29-2.01-.43-.23-.86-.46-1.29-.69-.26-.42-.52-.84-.77-1.26-4.29-7.69-3.92-16.39-2.58-24.95,.8-3.3,.92-6.76,.74-10.19-.21-4.11-1.06-8.55-4.54-11.17-8.55-6.46-19.11,1.84-20.41,10.78-1.61,11.02,2.71,22.25,9.84,30.56,3.57,4.16,7.91,7.62,12.64,10.36,2.25,1.3,5.86,3.61,8.87,3.44,.44,.83,1.61,1.18,2.47,.68,.93-.55,.99-1.58,1.05-2.53,.05-.83,.21-2-.44-2.64Z"/><path class="cls-4" d="M79.35,159.02c-.1-1.97-.25-3.96-.75-5.74-.02-.08-.05-.14-.08-.21,.28-.67,.05-1.6-.79-1.82-.79-.22-1.58-.43-2.34-.75-.78-.32-1.49-.76-2.28-1.07-.3-.12-.58-.13-.82-.07-.36-.15-.74-.27-1.14-.32-1.02-.13-1.25,1.15-.72,1.78l-.03,.02c.39,.37,.79,.75,1.19,1.12,.08,2.39,.91,4.66,.1,7-.46,1.34-.86,2.57-1.1,3.87-.57,.44-.88,1.17-.57,2.1,1.26,3.75,5.87,4.7,9.06,2.52,3.31-2.26,2.25-5.8,.28-8.45Z"/><path class="cls-4" d="M95.36,159.63c-.19-.79-.5-1.6-.73-2.41-.04-.3-.09-.61-.13-.93,.02-.71,0-1.42-.03-2.16-.04-.89-1.26-1.41-1.82-.68-1.12-.34-2.53-.34-3.45-.61-.22-.06-.43-.06-.63-.04-.57-.34-1.41-.4-2.08-.1-.56,.25-.64,1.02-.39,1.5,.84,1.63,1.08,3.25,1.05,5.07-.02,1.44-.53,2.85-.48,4.29,.08,2.67,2.28,3.92,4.67,4.25,2.45,.34,4.89-.63,5.48-3.23,.44-1.9-.32-3.55-1.46-4.95Z"/><path class="cls-4" d="M121.77,161.79c-.13-1.22-.81-2.08-1.37-3.11-.62-1.14-.65-2.45-1.24-3.61-1.08-2.11-3.04-1.66-5.13-1.63-.29,0-.54,.08-.75,.2-.82-.26-1.47-.06-2.73-.15-.69-.05-1.02,.88-.55,1.34,1.31,1.28,1.81,2.26,1.76,4.15-.04,1.53-.53,3.1-.41,4.62,.01,.17,.05,.33,.09,.49-.59,.82-.44,2.23,.81,2.7,1.09,.41,2.08,.68,3.24,.63,.12,0,.23-.02,.34-.05,1.04,.02,2.07-.16,3.03-.72,1.69-.97,3.13-2.86,2.92-4.87Z"/><path class="cls-4" d="M139.81,159.69c-.4-1.41-1.49-2.43-2.02-3.78-.58-1.49-.68-2.76-1.71-4.07,.19-.59-.33-1.39-1.06-1.16-1.37,.44-2.88,.86-4.32,.97-.57,.04-.97,.33-1.19,.72-1.07-.43-2.14,.98-1.23,1.85,1.11,1.07,.05,4.58-.05,5.89-.1,1.24-.07,2.42,.51,3.56,1.34,2.65,4.46,3.47,7.14,2.44,2.62-1,4.76-3.51,3.93-6.43Z"/><path class="cls-4" d="M152.55,141.66c-.79,0-1.49,.15-2.25-.19-.54-.24-1.14-.16-1.47,.38-.18,.3-.37,.65-.62,.93-.23,.04-.43,.11-.6,.22-.28,.09-.56,.22-.84,.41-.77,.49-.49,1.54,.32,1.73,.29,.66,.93,1.13,1.83,.82,1.52-.52,4.21-1.17,4.63-3,.15-.64-.3-1.32-1-1.31Z"/></g><g><path class="cls-5" d="M154.61,141.63c-1.77-.03-4.09-.57-5.73,.17-.03,.01-.03,.06,0,.07,1.29,.76,3.17,.69,4.78,.74-.85,1.08-2.02,1.86-3.4,2.17-1.42,.32-2.55,0-3.82-.35,.76-.6,1.5-1.23,2.21-1.88,.24-.22,.26-.71,0-.93-7.27-6.03-9.11-15.61-11.48-24.27-2.22-8.11-5.46-15.71-12.6-20.65-14.97-10.35-35.12-4.54-48.18,6.16-3.62,2.97-6.83,6.41-9.58,10.2-.74,1.02-1.45,2.08-2.12,3.15-.92,1.46-1.81,1.95-3.53,1.97-1.11,.01-2.26-.06-2.87,.94-1.86-.34-2.72,3.26-2.84,5.24-2.83-1.83-4.87-4.84-5.84-8.13-1.73-5.86-.55-12.06,.49-17.93,1.46-8.2,3.47-21.18-6.97-24.34-8.44-2.55-15.92,4.04-18,11.88-2.56,9.65,1.49,20.72,6.93,28.68,5.13,7.51,12.61,13.29,21.17,16.29-.67,2.33-1.26,7.01,1.87,7.5,.02,.02,.02,.05,.04,.07,5.9,7.15,14.25,11.2,23.09,13.32-.49,3.04,.24,5.64,1.5,8.47,1.03,2.31,1.68,4.85-.56,6.69-1.87,1.54-4.99,1.48-7.08,.38-4.22-2.21-.18-6.67,.28-9.93,.32-2.3,.03-6.26-2.13-7.68-.12-.08-.25,.05-.23,.17,.17,1,.76,1.83,1.06,2.8,.38,1.22,.53,2.52,.44,3.79-.17,2.45-1.59,4.3-2.23,6.59-.95,3.42,1.88,5.46,4.95,5.92,3.05,.46,6.7-.79,7.45-4.13,.37-1.66-.27-3.31-.94-4.8-1.22-2.72-2-5.11-1.58-8.05,2.04,.46,4.1,.82,6.16,1.09,.83,1.83,1.45,3.59,1.3,5.71-.13,1.83-.91,3.61-.68,5.46,.38,3,3.11,3.78,5.75,4.02,2.49,.22,5.28-.55,5.8-3.35,.72-3.97-3.33-7.05-2.03-11.06,4.62,.15,9.26,.1,13.88,.11,0,.03,0,.06,.02,.09,1.2,1.92,2.09,4.02,1.97,6.32-.09,1.6-1.16,3.32-.72,4.92,.71,2.6,4.23,3.16,6.48,2.85,2.77-.38,5.39-2.43,5.28-5.43-.11-3.15-3.29-5.63-2.96-8.77,2.84-.08,5.66-.3,8.45-.82-.01,.03-.01,.06,0,.09,.75,2.02,.83,3.8,.32,5.9-.35,1.43-1.07,3.01-.64,4.5,.83,2.86,5.31,3.24,7.72,2.9,2.76-.39,5.14-1.92,5.31-4.92,.09-1.63-.52-3.18-1.33-4.57-1.24-2.1-3.21-4.09-2.38-6.72,3.09-1.37,6.02-3.1,8.71-5.15,2.86,2.48,7.94,.22,9.49-2.7,.18-.34-.04-.77-.44-.77Zm-97.7-20.64c.6-1.05,1.48-1.29,2.17-.08,.28,.5,.43,1.2,.58,1.74,.3,1.15,.47,2.33,.52,3.51-.06-.05-.14-.08-.24-.1-1.49-.22-2.86-.74-4.09-1.47,.18-1.26,.41-2.47,1.06-3.6Zm-1.42,16.3c-.61-.02-1.18-.35-1.54-1.1-.25-.53-.31-1.13-.34-1.71-.05-1.15,.16-2.29,.41-3.41,1.45,.48,2.93,.88,4.44,1.19,.55,.11,.79-.71,.23-.85-9.36-2.3-17.83-7.34-23.87-14.92-6.07-7.61-10.69-18.55-9.08-28.42,.73-4.47,3.02-8.87,6.83-11.46,3.84-2.62,9.21-2.97,13.12-.28,4.48,3.08,4.86,9.09,4.46,14.02-.42,5.19-1.81,10.24-2.33,15.41-.86,8.54,1.74,19.9,11.81,21.41,.25,.04,.44-.07,.56-.23,0,.9-.07,1.81-.2,2.71-.34,2.23-1.06,5.28-2.75,6.91-.44,.43-1.01,.68-1.56,.72-.07,0-.13,0-.19,.01Zm40.05,22.94c.79,1.82,1.84,4.43,.09,6.08-1.21,1.14-3.17,1.01-4.68,.78-2.16-.32-3.99-1.13-4.08-3.6-.06-1.61,.6-3.18,.69-4.79,.1-1.91-.36-3.98-1.44-5.61,.51,.06,1.02,.13,1.53,.18,2.31,.23,4.62,.37,6.93,.46-.99,2.18,.05,4.41,.95,6.49Zm24.5-1.28c.64,1.21,1.38,2.52,1.34,3.93-.06,2.44-2.3,3.89-4.49,4.18-1.75,.23-4.7-.02-5.31-2.1-.38-1.29,.62-3.04,.7-4.36,.16-2.5-.69-5-2.52-6.72,2.89,0,5.79,.07,8.68,.01-.13,1.82,.74,3.41,1.6,5.05Zm17.89-2.33c1.08,1.67,2.09,3.6,1.61,5.65-.49,2.12-2.43,2.97-4.39,3.26-1.73,.25-3.74,.1-5.32-.74-2.46-1.31-1.07-4.07-.68-6.1,.37-1.93,.51-4.23-1.03-5.69,.8-.15,1.59-.32,2.38-.53,1.83-.47,3.6-1.08,5.34-1.8-.41,2.23,.88,4.06,2.09,5.94Zm-6.21-5.86c-6.51,1.97-13.19,1.86-19.92,1.81-13.08-.1-26.59,.66-39.1-3.85-6.12-2.21-11.74-5.68-16.05-10.58,2.66-1.01,3.83-5.75,4.19-7.99,.31-1.92,.3-3.87,0-5.79-.22-1.36-.59-4.24-1.97-5.05,.95-1.02,3.28-.11,4.45-.48,1.45-.46,2.06-2.08,2.84-3.25,2.31-3.49,5.04-6.68,8.1-9.53,6.48-6.06,14.54-10.64,23.21-12.65,8.72-2.03,18.15-1.12,25.77,3.81,7.75,5.01,10.85,13.2,13.11,21.75,2.18,8.26,4.25,17.21,10.88,23.11-4.49,3.95-9.75,6.95-15.49,8.69Z"/><path class="cls-5" d="M32.82,83.63c-.24-.3-.64-.49-1.03-.47-.17-.03-.35-.03-.55,.04-1.14,.4-1.01,1.96,.08,2.35,1.09,.39,2.28-.94,1.5-1.92Z"/><path class="cls-5" d="M46.47,82.8c-.02-.21-.15-.33-.36-.36-.5-.06-.98,.19-1.24,.59-.06,0-.12,0-.18,0-.14,0-.28,.02-.43,.05-.09,.02-.16,.1-.19,.19-.17,.55-.04,1.64,.61,1.61,.05,.09,.1,.18,.17,.27,.08,.1,.29,.13,.39,.05,.05-.04,.09-.08,.13-.12,.47-.02,.8-.57,.86-.98,0-.01,0-.02,0-.03,.22-.35,.26-.85,.23-1.26Z"/><path class="cls-5" d="M46.37,91.32c-3.37,.95-6.26-1.61-5.86-5.05,.06-.53-.69-.53-.86-.12-1.14,2.82-2.95,6.18-6.59,5.04-.2-.06-.31,.23-.14,.33,2.98,1.81,5.36-.95,6.77-3.5,.56,3.09,3.63,5.09,6.92,4.15,.55-.16,.32-1.02-.24-.86Z"/></g></g></g></svg>