<?xml version="1.0" encoding="UTF-8"?><svg id="Layer_2" xmlns="http://www.w3.org/2000/svg" width="178.58" height="249.45" viewBox="0 0 178.58 249.45"><defs><style>.cls-1{fill:#fff;}.cls-2{fill:#fceef4;}.cls-3{fill:#b1d8ef;}.cls-4{fill:#231f20;}</style></defs><g id="cartes-couleurs"><g id="card-bg"><rect id="bg" class="cls-1" width="178.58" height="249.45" rx="8.5" ry="8.5"/><path id="fg" class="cls-2" d="M171.5,58.26V10.09c0-1.66-1.35-3.01-3.01-3.01H10.09c-1.66,0-3,1.35-3,3.01V239.35c0,1.66,1.34,3.01,3,3.01H168.49c1.66,0,3.01-1.35,3.01-3.01V91.4m0-.01V58.29M29.01,44.95s.01-.03,.02-.04c-.01,.02-.02,.04-.02,.06"/></g></g><g id="cartes"><g id="whale"><path class="cls-3" d="M160.24,145.79c-3.38-2.93-5.49-6.25-9.81-8.06-2.89-1.21-5.9-1.57-8.89-.99,1.66-1.69,.86-5.59,.25-8.11-.08-.46-.18-.91-.33-1.36-.04-.13-.1-.26-.16-.37-.01-.04-.01-.07-.03-.11-.57-2.02-1.51-3.87-2.77-5.48-1.1-2.3-2.47-4.52-4.52-5.98-.18-.12-.37-.13-.55-.07-.27,0-.52,.15-.62,.52-.23,.82-.4,1.66-.54,2.5-.15,.32-.22,.69-.17,1.11-.38,2.93-.38,5.93-.29,8.85,.1,3.48-.12,7.71,.97,11.12-2.52,1.77-4.72,3.42-7.89,4.1-3.76,.8-8.42-.45-11.31-3.08-4-3.63-5.27-10.03-6.53-15.42-1.14-13.72-6.42-27.57-17.06-35.72-1.33-1.5-2.88-2.79-4.69-3.79-1.73-.95-3.8-2.01-5.92-2.79-2.05-.94-4.24-1.72-6.66-2.33-7.46-1.86-18.06-2.63-25.17,1.42-.1,0-.21,0-.32,.03-6.31,1.69-11.97,5.93-16.55,10.5-2.49,2.48-4.25,5.1-5.67,7.9v.02c-1.21,1.72-2.14,3.49-2.88,5.31-.24,.13-.44,.35-.57,.66-.87,2.11-1.64,4.37-2.07,6.66-.51,2.33-.79,4.71-.87,7.14-.71,3.68-.09,7.79,.37,11.42,.34,2.67,.77,4.57,3.44,5.52,2.86,1.01,6.3,.67,9.37,.35,2.21,.37,4.62,.09,6.76-.22,2.41,.22,5.05-.1,7.64-.65,5.01,.25,10.46-1.74,14.88-3.25,2.69-.92,5.34-1.91,7.99-2.94,.36-.11,.72-.23,1.07-.35-2.21,2.18-4.22,3.85-7.38,5.16-2.64,1.1-5.35,2.04-8.08,2.88-5.85,1.79-11.86,3.02-17.93,3.73-1.68,.2-3.6,.5-5.6,.75-1.77-.67-3.66-.21-5.54-.05-1.72,.15-3.42,.02-5.13-.03-.34-.09-.66-.19-.98-.31-.28-.11-.52,.13-.55,.39-.02,.07-.04,.15-.02,.25,.78,6.67,5.09,13.47,9.06,18.69,4.21,5.53,9.92,8.84,16.12,11.74,6.99,3.27,13.73,4.97,21.34,6,6.84,.92,14.56,1.95,21.34-.1,4.07,.77,8.87-1.31,12.62-2.48,5.6-1.75,10.88-4.16,15.68-7.57,7.74-5.51,16.76-13.31,20.75-22.37,1.61,1.65,4.37,2.3,6.66,2.83,5.59,1.28,11.39,.72,16.94-.5,1.28-.28,1.82-2.17,.8-3.05Z"/><path class="cls-3" d="M48.56,73.01c.19-.88-.22-1.99-.6-2.68-.65-1.18-1.75-2.02-3.02-2.42-.51-.16-.91,.02-1.16,.34-.02,0-.03,0-.05,0-.5,0-.97,.36-1.1,.84-.39,1.44,.47,2.63,1.58,3.45,.56,.42,1.17,.77,1.75,1.14,.28,.18,.57,.33,.87,.41,.35,.46,1.08,.55,1.5,.14,.34-.32,.41-.82,.22-1.22Z"/><path class="cls-3" d="M57.13,70.7c-.14-.48,.11-1.05,.17-1.53,.07-.61,.11-1.26,.03-1.86-.13-1.07-.57-1.94-1.4-2.57-.3-.49-.88-.79-1.69-.57-.88,.24-1.18,.77-1.18,1.4-.4,.76-.09,1.77,.4,2.46,.3,.43,.7,.72,1.07,1.06,.01,.02,.02,.04,.03,.06,.14,.28,.33,.46,.54,.56h.01c.25,.61,.61,1.15,.78,1.78,.28,1.01,1.83,.41,1.34-.57-.04-.08-.07-.16-.1-.24Z"/><path class="cls-3" d="M67.52,67.69c-.36-.96-1.63-1.23-2.21-.29-.35,.56-.52,1.33-.77,1.94-.14,.33-.13,.63-.22,.95-.11,.38-.46,.72-.64,1.07-.26,.52,.26,1.02,.77,.78,.45-.22,.7-.64,1.12-.88,.41-.25,.73-.33,1.08-.72,.64-.71,1.24-1.87,.87-2.84Z"/><g><path class="cls-4" d="M161.64,148.33c-2.77-7.78-10.65-12.97-18.83-12.38,2.17-8.64-3.37-16.37-9.12-22.31-.35-.36-.94-.17-1.08,.29-2.43,7.82-2.38,15.69-.56,23.63,.26,1.14,.29,1.37-.57,2.19-.67,.63-1.4,1.18-2.19,1.64-1.67,.98-3.57,1.56-5.49,1.73-3.73,.33-7.3-.96-9.92-3.64-6.03-6.19-5.61-15.63-6.93-23.58-1.12-6.71-3.8-13.08-7.73-18.62-7.59-10.7-19.46-17.95-32.55-19.09-13.71-1.19-27.99,4-37.36,14.22-10.39,11.33-14.38,27.87-10.51,42.74-.01,.07,0,.15,.05,.22,.02,.08,.04,.16,.06,.25,.11,.39,.46,.51,.77,.44,2.6,1.85,5.79,2.05,8.95,2.1,4.88,.07,9.75-.2,14.6-.78,8.32-1,16.48-2.94,24.37-5.75-6.14,4.48-14.31,6.52-21.53,8.02-8.97,1.86-18.16,2.34-27.28,1.57-.41-.03-.63,.4-.57,.75,0,.04,.02,.08,.02,.12,.1,.02,.2,.05,.3,.07,2.03,19.06,19.67,31.65,36.97,35.81,19.53,4.69,42.54,3,59.52-8.43,8.65-5.82,15.75-13.76,21.32-22.54,.05,.06,.11,.11,.17,.16v-.02c7.5,4.26,16.54,5.07,24.64,2.05,.33-.12,.61-.47,.48-.84Zm-24.95-2.66c-.12-.07-.25-.09-.37-.08-.26-.1-.58-.06-.78,.25-5,7.75-10.99,14.9-18.35,20.49-7.74,5.88-16.7,9.6-26.23,11.31-9.89,1.78-20.32,1.73-30.22,.07-9.48-1.59-18.88-4.95-26.47-11.01-7.69-6.13-13.09-14.61-14.93-24.32,.06,.02,.13,.04,.19,.07v-.02c9.25,.7,18.57,.08,27.64-1.9,8.21-1.8,17.81-4.26,24.02-10.31,.42-.41,0-1.27-.6-1.04-8.09,3.16-16.5,5.42-25.09,6.69-4.51,.67-9.05,1.05-13.61,1.17-3.78,.1-8.38,.52-11.7-1.62,0-.06,0-.11-.01-.17-3.85-14.19-.28-30.1,9.41-41.17,9.68-11.05,25.1-16.43,39.55-14.28,13.77,2.05,25.81,11.2,32.23,23.52,3.64,6.98,4.39,14.22,5.46,21.9,.91,6.51,3.01,13.94,9.08,17.48,5.31,3.1,12.69,2,16.91-2.46,1.35-1.42,.76-1.89,.3-3.8-.61-2.49-.99-5.04-1.12-7.6-.24-4.57,.32-9.1,1.56-13.48,5.35,5.7,10.31,12.97,7.75,21.14-.12,.37,.21,.89,.63,.84,7.66-.93,15.29,3.57,18.16,10.76-7.78,2.65-16.31,1.82-23.39-2.43Z"/><path class="cls-4" d="M33.86,113.64c-.11-.29-.32-.53-.57-.68-.14-.18-.32-.32-.56-.36-.23-.04-.43,0-.61,.09-.66-.15-1.09,.17-1.36,.67-.45,.33-.78,.89-.79,1.48-.01,.45,.18,.93,.49,1.31,.15,.52,.53,.92,1.15,.91,.29,0,.53-.08,.75-.22,.08,0,.16,0,.25-.01,.47,.11,.96-.08,1.27-.49,.2-.26,.29-.56,.29-.86,.08-.14,.14-.3,.18-.46,.11-.51-.06-1.08-.46-1.39Z"/><path class="cls-4" d="M61.31,116.86c.06-.37,.04-.75-.06-1.12,0-.05,0-.11-.01-.16,0-.2,0-.41-.07-.59,0-.02-.01-.03-.02-.04-.03-.14-.07-.27-.13-.4-.37-.79-1.3-.9-1.98-.46-1.38,.17-2.22,1.84-1.49,3.09,.21,.98,1.26,1.66,2.29,1.32,.15-.02,.32-.06,.49-.15,.32-.17,.56-.43,.72-.72,.14-.22,.23-.48,.26-.75Z"/><path class="cls-4" d="M43.57,67.47c-1.45,.31-1.84,1.88-1.28,3.12,.88,1.93,3.31,3.39,5.07,4.42,.33,.19,.63-.02,.74-.29,.05-.02,.1-.05,.13-.1,1.74-3-.91-7.95-4.66-7.14Zm.98,4.33c-.33-.28-.67-.58-.95-.9-.82-.95-.94-2.76,.79-2.64,1.24,.08,2.46,.94,3.11,1.98,.75,1.21,.72,2.53,.39,3.84-1.18-.66-2.31-1.4-3.33-2.29Z"/><path class="cls-4" d="M57.45,65.73c-.58-1.48-2.11-2.83-3.78-2.16-4.19,1.68,1.37,6.72,2.72,8.94-.01,.17,.08,.32,.21,.4,0,.02,.02,.05,.03,.07,.05,.14,.23,.12,.27,0,.11-.01,.21-.08,.28-.22,.96-2.02,1.09-4.95,.27-7.05Zm-.87,6.26c-.71-1.57-1.94-2.66-2.83-4.21-.31-.55-.72-1.32-.64-1.99,.72-1.68,1.68-1.96,2.87-.86,.45,.5,.74,1.08,.86,1.75,.39,1.64,.37,3.71-.26,5.31Z"/><path class="cls-4" d="M67.89,66.96c-.68-1.01-1.93-1.2-2.85-.4-.63,.55-.84,1.37-1,2.16-.26,1.24-.59,2.34-1.28,3.42-.08,.12-.09,.24-.06,.34-.11,.11-.07,.33,.12,.33,.07,0,.14-.01,.21-.02,.13,.04,.26,.03,.38-.05,2.47-.43,6.27-3.09,4.48-5.78Zm-2.01,3.9c-.6,.51-1.29,.88-2.01,1.18,.4-.72,.69-1.48,.88-2.29,.21-.92,.99-4.4,2.44-2.19,.76,1.15-.48,2.6-1.31,3.31Z"/></g></g></g></svg>