<?xml version="1.0" encoding="UTF-8"?><svg id="Layer_2" xmlns="http://www.w3.org/2000/svg" width="178.58" height="249.45" viewBox="0 0 178.58 249.45"><defs><style>.cls-1{fill:#fff;}.cls-2{fill:#fceef4;}.cls-3{fill:#9f9c9f;}.cls-4{fill:#231f20;}</style></defs><g id="cartes-couleurs"><g id="card-bg"><rect id="bg" class="cls-1" width="178.58" height="249.45" rx="8.5" ry="8.5"/><path id="fg" class="cls-2" d="M171.5,58.26V10.09c0-1.66-1.35-3.01-3.01-3.01H10.09c-1.66,0-3,1.35-3,3.01V239.35c0,1.66,1.34,3.01,3,3.01H168.49c1.66,0,3.01-1.35,3.01-3.01V91.4m0-.01V58.29M29.01,44.95s.01-.03,.02-.04c-.01,.02-.02,.04-.02,.06"/></g></g><g id="cartes"><g id="zebra"><path class="cls-3" d="M34.17,120.2c-.3,.27-.6,.54-.9,.81-.06,.05-.12,.11-.2,.18-9.11,5.36-5.91,19.26-8.78,27.89-.3,.9,1.04,1.24,1.37,.39,2.21-5.8,2.21-12.15,3.68-17.98,.91-1.5,2-2.85,3-4.27,.61-.31,1.29-.53,1.7-1.08,.85-1.15,.74-4.1,1.18-5.11,.3-.7-.45-1.36-1.04-.83Z"/><path class="cls-3" d="M130.29,93.95c-.92-3.94-3.96-8.63-7.61-10.49-.56-.47-1.15-.82-1.77-.92-.13-.02-.27,.08-.22,.23,.5,1.6,1.85,3.03,2.73,4.43,.56,.9,1.03,1.77,1.41,2.67-.16,.9-.04,1.83,.09,2.74,.1,.68,.13,1.37,.17,2.05-.39-.8-.94-1.55-1.36-2.22-.56-.89-1.21-1.68-1.87-2.46-1.03-1.85-2.35-3.46-3.92-4.44-.22-.14-.5,.14-.36,.37,1.28,2.08,2.44,3.91,3.16,6.29,.23,.75,.37,1.57,.52,2.38-.07-.03-.14-.07-.22-.1-.8-.89-1.41-1.96-2.21-2.86-.99-1.11-2.21-2.08-3.51-2.78-2.43-1.31-4.78-1.74-7.3-.74-.63,.19-.54,1.24,.16,1.21,.04,0,.07,0,.11,0,1.67,1.2,3.4,2.14,4.8,3.75,1.02,1.17,1.72,2.48,2.39,3.84-1.28-.82-2.55-1.65-3.89-2.32-1.58-.79-3.46-1.73-5.23-1.44-.38-.19-.8-.28-1.15-.15-.18,.07-.27,.23-.23,.42,.09,.42,.4,.63,.67,.94,.34,.4,.46,.81,.61,1.31,.27,.87,.65,1.86,1.53,2.24,.19,.08,.38,.11,.56,.09,.64,.68,1.39,1.28,2.24,1.84,1.4,.94,4.55,3.11,6.15,1.74,.45,.24,1.02,.19,1.31-.39,1.51-2.37,4.75-1.27,6.57-2.85,1.34-.25,2.62-.84,3.9-1.41,1.52-.67,2.18-1.21,1.77-2.97Z"/><path class="cls-3" d="M109.94,109.89c-3.73,1.05-9.49-.18-11.76-3.48,.06-.24,.17-.51,.35-.83,.24-.44,.81-.94,1.17-1.27,.92-.85,1.98-1.68,3.06-2.31,.21-.12,.28-.48,.08-.64-1.72-1.44-3.91-1.92-6.04-2.42-1.26-.29-3.12-.94-3.99,.34,0,0,0,.02-.01,.03-.08,0-.16,0-.24,.03-.2,.06-.35,.3-.28,.51,.28,.8,1.14,1.31,1.67,1.94,.4,.47,.73,1,1.01,1.56-1.21-.69-2.58-1.13-3.92-1.37-1.65-.3-3.43-1.16-5.11-.81-.02-.01-.03-.02-.05-.03-.5-.38-1.33,.26-1.09,.86,.56,1.4,2.4,2.29,3.41,3.34,.61,.63,1.09,1.32,1.41,2.14-1.07-.28-2.2-.43-3.21-.65-1.11-.24-2.27-.37-3.36-.73-.95-.31-1.78-.83-2.71-1.16-.39-.33-.8-.6-1.26-.76-.23-.08-.47,.18-.4,.41,.36,1.15,1.28,2.12,1.93,3.11,.23,.35,.44,.78,.67,1.22-2.69-.98-5.41-1.9-8.09-2.92-2.07-.78-4.84-1.88-6.9-.78-.14-.02-.27-.04-.41-.05-.56-.03-.92,.79-.48,1.18,.63,.55,1.37,.94,1.99,1.51,.16,.15,.32,.33,.48,.51-.46,.1-.92,.2-1.4,.23-1.37,.1-2.73-.15-4.06-.43-1.7-.36-3.42-1.01-4.79,.36-.09,.1-.14,.2-.16,.31-.35,.23-.34,.88,.05,1.07l.23,.11c1.96,2.06,4.99,2.47,7.68,2.83,1.32,.18,3.69,.51,5.68,.23-1.19,4.73,11.58,2.49,16.47,1.43-.05,.05-.09,.1-.13,.15-.9,.97-2.2,1.8-2.88,2.94-.19,.31,.05,.84,.44,.79,.26-.03,.51-.1,.75-.2,4.41-.01,9.16-2.13,13.47-3.97,.32,0,.61,0,.84,0,3.5,.03,7.23-1.67,10.38-3.12,.68-.31,.19-1.4-.5-1.21Z"/><path class="cls-3" d="M152.91,119.52c-1.14-.61-2.92,.12-4.03,.35-2.33,.5-4.62,1.18-6.85,2.02-1.9,.71-3.77,1.52-5.6,2.41-2.69,.77-5.36,2.04-7.53,3.4-1.69,1.07-4.54,2.8-6.1,4.81-.8,.59-1.52,1.27-1.96,2.17v.02c-.19,.09-.37,.18-.55,.27-.45,.22-.54,.76-.48,1.2,.27,1.89,1.75,4.19,2.86,5.69,.37,.5,.8,.96,1.25,1.37,3.11,4.41,8.96,5.08,14.2,4.16,3.47-.21,6.23-1.2,9.44-2.68,2.96-1.36,4.73-3.96,5.67-6.99,1.33-2.93,1.85-6.62,2-9.58,.11-2.25-.02-7.39-2.33-8.63Z"/><g><path class="cls-4" d="M138.49,108.76c-.14-.45,.05-.96,.46-1.23,.5-.33,1.16-.24,1.57,.2,.21,.23,.31,.52,.29,.8,0,.04,.01,.08,.01,.12,0,.39-.25,.69-.58,.84-.03,.09-.06,.18-.11,.26-.09,.17-.31,.22-.47,.13-.16-.09-.3-.22-.4-.37-.48,0-.74-.35-.79-.75Z"/><path class="cls-4" d="M119.56,118.18c.24,.47,.73,.8,1.25,.47,.25-.16,.4-.41,.47-.69,.33-.46,.34-1.16-.12-1.53-.19-.16-.45-.23-.69-.22-.44-.07-.91,.17-1.14,.56-.08,.14-.12,.29-.13,.44-.09,.39,.08,.75,.37,.98Z"/><path class="cls-4" d="M130.62,115.92c.07-.04,.15-.05,.25-.03,.04,.01,.06,.02,.08,.02,0,0,0-.01,.01-.02h0c-.01-.06-.03-.11-.04-.16,.04-.03,.08-.06,.11-.11,0-.13,0-.25-.02-.38,0-.07,0-.12,.02-.17-3.17-5.82-10.27-6.96-14.39-11.78-.1-.12-.32-.19-.47-.13-.97,.39-1.2,.96-1,1.6,.11,.94,1.16,1.73,1.82,2.27,.96,.79,2.02,1.43,3.11,1.99,1.73,.96,3.53,1.77,5.26,2.72,1.05,.57,2.26,1.21,3.3,2,.59,.54,1.14,1.14,1.6,1.84,.08,.11,.17,.17,.28,.2,.02,.04,.04,.08,.07,.12Z"/><path class="cls-4" d="M152.38,115.88c-2-3.22-4.67-5.9-7.35-8.52-2.8-2.74-5.37-5.55-7.84-8.6,1.34-.46,2.59-1.22,3.67-2.14,3.18-2.73,4.75-6.8,6.06-10.71,.11-.33-.18-.62-.48-.64-3.86-.26-7.71,.51-11.14,2.36-2.11,1.14-4.48,2.92-4.84,5.38-1.33-5.26-5.2-9.58-10.18-11.57-.34-.14-.59,.25-.54,.55,.37,2.09,1.64,3.63,2.82,5.3,1.2,1.7,1.93,3.52,2.14,5.5-2.01-3.82-5.02-6.96-8.74-9.11-.46-.27-.87,.34-.55,.73,2.01,2.39,4.07,4.95,4.86,8.02-1.57-2.11-3.65-3.77-6.08-4.78-2.13-.88-6.56-1.99-7.09,1.47-.04,.27,.07,.48,.32,.58,2.83,1.09,5.15,3.13,6.65,5.75-2.73-2.29-6.26-3.4-9.84-3.02-.45,.05-.61,.59-.23,.87,1.11,.81,1.05,1.68,1.32,2.86,.1,.45,.19,.67,.5,1,.99,1.07,2.71,1.81,3.92,2.61,.18,.12,.37,.25,.57,.39-2.28-.06-4.65,.48-6.82,1.34-2.22-1.53-4.67-2.56-7.33-2.96-1.54-.23-3.54-.43-4.4,1.2-.09,.16-.04,.38,.12,.48,1.11,.63,1.97,1.47,2.59,2.53-1.39-.81-2.87-1.42-4.45-1.76-.9-.2-1.83-.32-2.76-.35-.56-.02-2.31-.19-2.77,.16-.75,.56-.46,1.69,.06,2.33,.59,.72,1.55,1.06,2.24,1.66,.77,.66,1.34,1.48,1.78,2.39-3.52-1.06-6.98-2.33-10.35-3.81-.26-.11-.67,.08-.54,.43,.59,1.6,1.38,3.05,2.36,4.39-5.17-1.21-10.44-5.81-15.67-2.54-.28,.17-.21,.59,.09,.69,1.12,.38,2.03,.99,2.82,1.82-1.43,.06-2.82-.05-4.24-.33-1.24-.24-2.49-.52-3.75-.34-.89,.12-3.57,1-3.02,2.45,.03,.08,.09,.16,.14,.23-1.44-.31-2.91-.45-4.38-.44-.14-.05-.27-.04-.37,0-3.51,.09-6.99,1.1-9.98,3.05-2.64,1.72-4.85,4.1-6.35,6.88-4.94,1.04-7.92,6.09-9.01,10.84-1.47,6.41-.47,13.3-2.7,19.5-.18-.02-.36-.03-.53-.03-.06-.16-.19-.29-.41-.28-1,.04-1.92,.29-2.84,.68-.59,.25-1.62,.49-1.82,1.2-.05,.19,.03,.45,.22,.54l.07,.04c.1,.05,.22,.07,.33,.06,.02,.31,.37,.62,.67,.4,.8-.6,1.67-1.24,2.62-1.56-1.03,.7-1.98,1.51-2.69,2.59-.28,.43,.35,.9,.68,.54,.35-.38,.73-.72,1.11-1.05-.21,.34-.42,.68-.61,1.04-.23,.43,.32,.89,.66,.53,.39-.41,.76-.83,1.14-1.25-.36,.78-.72,1.56-1.07,2.34-.2,.45,.39,.82,.65,.39,.74-1.21,1.89-2.59,2.23-3.98,.01-.06,0-.1-.04-.13,6.87-6.34,1.6-19.1,9.17-24.61-.3,4.91,.98,9.83,2.3,14.52,3.61,12.85,4.96,25.82,3.23,39.13-.03,.23,.19,.49,.4,.54,2.11,.51,4.25,.85,6.42,.95,1.01,.05,2.34,.15,2.65-1.09,.02-.09,.02-.17,0-.25,.42-1.13,.66-2.29,.8-3.47,.03-.02,.06-.05,.09-.08,0-.27,0-.55,0-.82,.01-.29,.04-.56,.1-.84-.02-.02-.03-.05-.05-.07,.08-1.52,.05-3.06,.06-4.58,.04-4.02,.02-8.03,.09-12.05,.03-1.93,.12-3.86,.48-5.76,.19-1.01,.22-1.93,1.44-1.9,.7,.01,1.65,.47,2.3,.71,1.47,.56,1.57,1.47,1.56,2.96,0,.88-.01,1.76-.02,2.64-.01,1.76-.02,3.52-.04,5.27-.03,3.62-.05,7.25-.08,10.88-.01,1.7-.13,3.44-.01,5.13,.06,.8,.19,1.67,.68,2.32,.65,.87,1.6,1.05,2.61,1.06,1.44,0,3.06-.01,4.48-.25,2.4-.4,1.66-3.93,1.68-5.71,.02-1.65,.04-3.3,.06-4.95,.06-.18,.07-.38,0-.57,.02-1.68,.04-3.37,.06-5.05,.02-1.92,.02-3.85,.05-5.77,.03-1.62,.23-3.03,1.28-4.25,.15-.08,.29-.2,.41-.34,.04,.04,.07,.08,.13,.11,5.12,2.98,11.51,3.86,17.31,3.51,3.21-.19,6.39-.77,9.48-1.64,2.31-.65,5.2-1.33,7.31-2.73-.81,6.67-.79,13.4,.08,20.07,.21,1.61,.47,3.21,.78,4.81,.17,.89,.24,3.04,.92,3.66,.76,.7,2.79,.72,3.77,.8,1.42,.12,2.83,.02,4.24-.19,.19-.03,.36-.28,.35-.47-.42-4.94-.67-9.89-.74-14.84-.03-2.37-.02-4.74,.03-7.11,.03-1.18,.06-2.37,.11-3.55,.04-.89-.2-2.76,.22-3.57,1.23-2.42,2.09,.94,2.18,1.3,.15,.62,.25,1.25,.36,1.88,.19,1.04,.36,2.09,.52,3.14,0,.03,0,.05,.01,.08,0,.01,0,.02-.01,.04,.04,.33,.07,.67,.09,1,.03,.05,.06,.11,.09,.16,.3,2.16,.53,4.34,.72,6.51,.42,4.77,.62,9.55,.83,14.33,0,.23,.2,.49,.45,.47,2.65-.29,5.29-.32,7.94-.07,.18,.02,.42-.16,.45-.35,.82-6.27,.5-12.57,.15-18.86-.05-.85-.09-1.7-.14-2.56,.06-.17,.06-.37-.03-.57-.11-2.25-.19-4.5-.18-6.75,.01-3.09,.05-6.35,.75-9.38,2.58,2.24,5.79,3.62,9.58,3.67,4.06,.05,8.31-1.05,12.04-2.64,3.49-1.49,6.14-4.02,7.8-7.51,3.38-7.11,2.65-16-1.45-22.62Zm-44.05-18.17c-1.02-.67-1.74-.92-2.13-2.22-.11-.36-.08-.69-.21-1.06-.15-.45-.38-.82-.66-1.15,3.84-.07,7.47,1.63,9.94,4.73,.29,.37,.92-.03,.77-.46-1.35-3.95-4.19-7.02-7.95-8.59,.89-2.77,5.91-.53,7.49,.4,2.14,1.27,3.84,3.09,5.06,5.29,.21,.38,.86,.23,.84-.23-.18-3.17-1.67-5.82-3.49-8.24,2.96,2.31,5.29,5.34,6.8,8.9,.19,.46,.8,.17,.83-.23,.16-2.37-.3-4.69-1.48-6.75-1.08-1.88-2.67-3.39-3.34-5.46,4.96,2.29,8.38,7.04,9.43,12.5-1.58,2.36-5.98,3.02-8.5,3.34-.88,.11-1.79,.15-2.6,.56-.9,.47-1.3,1.32-2.02,1.99-1.63,1.52-3.52,.13-5.01-.84-1.26-.82-2.52-1.65-3.77-2.47Zm20.75,10.31c-.96-1.15-2.05-2.19-3.2-3.11-1.48-1.18-3.14-2.01-4.77-2.87-.31-.23-.62-.47-.93-.7-.36-.28-.7-.61-1.07-.8-.05-.05-.1-.1-.15-.13,.33-.32,.71-.59,1.22-.74,1.44-.41,3.02-.39,4.49-.75,1.15-.28,2.51-.62,3.73-1.18-.26,.73-.35,1.56-.42,2.19-.31,2.8,.22,5.49,1.11,8.09Zm-17.92-6.88c.15-.01,.26-.07,.33-.16,1.68,1.17,3.69,2.31,5.44,1.37,.04-.02,.08-.05,.12-.08,.77,.79,2.03,.91,3.04,1.24,.56,.18,1.12,.38,1.67,.59,.85,.42,1.67,.89,2.46,1.42,.42,.31,.84,.61,1.27,.93,1.16,.92,2.23,1.96,3.21,3.14,.07,.08,.15,.11,.23,.13,.46,.61,.94,1.2,1.52,1.71,.53,1.16,1.09,2.3,1.65,3.42,.21,.42,.81,.2,.82-.23,.12-5.09-2.63-10.69,.05-15.46,.07-.13,.04-.24-.04-.32,0-.05,0-.11-.01-.17-.3-.89-.85-1.96-1.68-2.42-.07-.2-.13-.4-.19-.62l.02-.03c-.11-.29-.13-.58-.07-.89-.04-.02-.08-.04-.13-.05,.04-3.66,3.42-5.69,6.37-6.93,2.71-1.13,5.6-1.6,8.5-1.5-.97,2.84-2.08,5.7-3.99,8.02-.89,1.08-1.94,2.02-3.14,2.73-.68,.4-1.4,.72-2.16,.94-.35,.1-2.13,.64-2.44,.22-.27-.37-.86-.17-.75,.32,.2,.89,1.18,.89,2.04,.75-1.01,2.34-.77,4.83-.58,7.32,.25,3.32,.5,6.64,.76,9.96,.03,.39,.62,.67,.81,.23,1.7-4.08,.32-8.39-.22-12.64-.04-1.59-.03-3.18,.07-4.78,0-.1-.03-.18-.08-.25h0c.06-.01,.11-.03,.16-.04,.19-.04,.38-.09,.56-.15,1.7,3.29,4.53,5.94,7.1,8.52,2.71,2.72,5.5,5.44,7.57,8.72,.63,1.01,1.18,2.08,1.65,3.19-3.21-.75-6.68,.17-9.72,1.23-3.16,1.1-6.28,2.42-9.32,3.84-5.48,2.56-10.79,5.84-14.62,10.67-.32-1-.6-2.01-.81-3.03-.88-4.09-1.1-8.29-1.58-12.44-.22-1.85-.47-3.69-.85-5.51-.14-.67-.3-1.34-.48-2,1.14,.79,2.52,1.35,3.72,1.88,2.05,.9,4.17,1.66,6.09,2.83,1.58,.96,2.83,2.33,4.37,3.34,.28,.18,.61-.12,.53-.42-1.65-6.78-11.6-6.55-14.94-11.83-.13-.21-.33-.35-.54-.44,0-.14-.07-.26-.18-.35,.22-.26,.45-.51,.68-.76,.21-.22-.06-.54-.31-.41-.94,.47-1.52,1.26-2.28,1.96-1.03,.95-2.32,1.54-3.67,1.8-2.72,.52-5.45-.33-7.87-1.55-.47-.24-1.08-.47-1.49-.82-1.54-1.29-.96-2.03,.35-2.96,.99-.7,2.11-1.26,3.22-1.72,2.53-1.05,5.06-1.31,7.75-1.5Zm-53.46,7.71c.43-.42,1.52-.61,2.07-.64,1.03-.06,2.06,.17,3.07,.37,1.77,.35,3.49,.48,5.29,.32,.36-.03,.49-.41,.28-.69-.82-1.08-1.79-1.82-2.96-2.32,4.98-2.52,10.48,2.52,15.41,3.22,.37,.05,.62-.33,.36-.64-1.03-1.25-1.84-2.6-2.47-4.08,3.41,1.47,6.88,2.74,10.43,3.79,.26,.08,.58-.2,.47-.49-.4-1.1-.96-2.1-1.75-2.95-.37-.39-.77-.73-1.2-1.04-.22-.16-.6-.3-.78-.5-.22-.09-.32-.26-.32-.49-.26-.18-.53-.43-.52-.76,.01-.52,.61-.61,1-.63,.03,0,.05,0,.08,0,.6-.14,1.68,.07,2.21,.12,.86,.09,1.71,.27,2.54,.51,1.53,.45,2.94,1.16,4.27,2.06,.24,.17,.64-.12,.52-.41-.64-1.64-1.68-2.91-3.13-3.81,1.15-1.44,4.19-.55,5.6-.16,1.7,.47,3.3,1.18,4.82,2.08-.65,.28-1.28,.58-1.88,.91-1.71,.94-4.89,3.01-2.46,5.06,2.43,2.05,6.38,3.34,9.5,3.11,.69-.05,1.37-.17,2.04-.36-.24,.2-.49,.38-.74,.57-.54,.04-1.06,.45-1.53,1.01-.65,.37-1.32,.69-2.04,.93-2.29,.75-4.73,.8-7.06,1.39-1.4,.35-2.79,.87-4.17,1.4-.16,0-.32,.04-.47,.12-.11,.05-.21,.13-.31,.19-2.38,.92-4.77,1.81-7.25,1.96-.42,.11-.84,.19-1.28,.14-.11-.01-.19-.07-.25-.14-.09,0-.18,0-.27-.01l.19-.2c-.03-.2,.08-.41,.33-.38,.01,0,.03,0,.04,0,.74-.76,1.48-1.51,2.22-2.27,.29-.3,.05-.73-.31-.77-2.75-.29-5.3,.51-7.97,1.05-1.28,.26-2.59,.44-3.89,.35-.38-.03-1.78-.33-2.86-.82-.01-.03-.04-.05-.05-.08-.4-.16-.76-.39-.92-.7-.07-.02-.13-.04-.2-.05-.2-.29-.22-.61,.09-.95,.27-.31,0-.81-.4-.7-1.8,.48-3.59,.49-5.35,.22-.01-.03-.03-.07-.05-.1-1.25-.03-2.53-.44-3.66-1-.08,.02-.16,.04-.23,.06-1.26-.45-2.49-.98-3.7-1.52-.69-.31-1.09-.57-.35-1.29Zm-24.41,17.39c-7.99,5.02-3.72,16.59-8.53,23.46,1.55-4.91,1.32-10.18,1.84-15.32,.59-5.83,2.82-11.92,8.43-14.14-.66,1.35-1.17,2.79-1.47,4.28-.12,.57-.2,1.15-.27,1.72Zm14.79,48.9c-.88-.46-1.94-.69-2.82-.85-1.14-.21-2.8-.55-3.58,.56-.08,.12-.08,.32,0,.44,.62,.96,1.98,.94,2.98,1.24,1.07,.32,2.12,1.07,3.21,1.31-.04,.26-.08,.52-.12,.78-.29-.19-.62-.11-.95-.09-.18,0-.36,0-.54,.01-1.14-.28-2.37-.38-3.6-.38-.79-.19-1.79-.43-2.5-.27,.19-1.95,.32-3.9,.38-5.86,.09,.1,.19,.19,.31,.26,2.37,1.4,4.89,.32,7.26-.5,0,1.11,0,2.23-.03,3.35Zm.05-5.34c-1.25-.2-2.41,.22-3.64,.39-.72,.1-1.39,.07-2.07-.18-.54-.2-.92-.35-1.49-.15-.13,.05-.24,.11-.34,.19,.02-1.68,0-3.36-.07-5.04,.62,.71,1.64,1.08,2.59,1.19,1.77,.21,3.39-.66,5.08-1.09-.02,1.56-.04,3.12-.06,4.68Zm15.2,8.75c-1.17,.34-2.64,.01-3.83-.07-1.2-.08-2.41-.13-3.62-.19,0-.4,.02-.8,.02-1.17v-1.07c.74,1.24,2.69,1.3,3.98,1.27,1.15-.03,2.54-.23,3.51-.96,0,.43-.01,.87-.02,1.3,0,.25,.02,.55,.04,.87-.03,0-.06,0-.09,0Zm.16-8.2c-.95-.21-2.05,.04-3.02-.08-.94-.12-2.13-.77-3.05-.38-.32,.14-.51,.41-.43,.78,.3,1.27,2.06,1.74,3.17,1.96,1.05,.21,2.28,.31,3.3-.1-.01,.75-.02,1.5-.04,2.25v.08c-1.18-.03-2.34,.38-3.54,.35-1.16-.02-2.44-.76-3.55-.38-.18,.06-.32,.18-.42,.32l.02-3.3c.01-1.65,.02-3.29,.03-4.94,2.04,1.29,5.55,.44,7.59-.52-.02,1.32-.04,2.64-.06,3.97Zm.12-7.75c-.01,.62-.02,1.23-.03,1.85-.18-.07-.37-.1-.58-.05-1.25,.29-2.47,.51-3.75,.51-1.1,0-2.21-.4-3.27-.1,0-1.17,.01-2.33,.02-3.5,.02,.02,.03,.04,.05,.07,.91,1.06,2.38,1.04,3.65,.97,1.21-.07,2.9-.13,3.91-.96,0,.42,0,.83,0,1.22Zm.01-2.51c-.96-.43-2.1-.25-3.13-.27-1.18-.02-2.17-.1-3.27-.53-.53-.2-.96,0-1.21,.37,.01-1.65,.03-3.3,.03-4.95,0-.05,0-.09,0-.14,.71,1.07,1.88,1.8,3.11,2.13,1.87,.52,3.8-.15,5.67-.37-.92,.92-1.15,2.33-1.2,3.75Zm37.22,3.71c.91,.67,2.29,.69,3.36,.67,.93-.02,1.85-.12,2.78-.05,.69,.05,1.32,.27,1.99,.22,0,.33-.02,.66-.02,.99,0,.56,0,1.12,0,1.68-1.1-.56-2.73-.22-3.86-.17-.84,.04-1.68,.02-2.49-.26-.7-.24-1.06-.5-1.76-.34-.02-.91-.03-1.83-.01-2.74Zm.36,8.64c-.02-.17-.04-.33-.05-.5-.08-.85-.14-1.71-.19-2.57,1.93,1.33,6.1,.77,8.01-.47,.02,1.52,.06,3.05,.11,4.57-.84-.51-2.05-.41-2.99-.45-1.45-.07-2.85,.11-4.16-.53-.25-.12-.5-.14-.73-.05Zm7.8,6.65c-2.31,.27-4.55,.29-6.84-.08-.24-1.28-.46-2.57-.64-3.86,.92,.41,2.18,.22,3.13,.16,1.24-.08,3.32,.12,4.46-.67,.06,1.55,.14,3.1,.23,4.65-.08-.12-.22-.22-.35-.2Zm.21-22.51c-.12,2.3-.19,4.61-.23,6.91-.7-.73-1.96-.85-2.93-.89-.92-.05-1.86,.03-2.78-.08-.85-.11-1.56-.52-2.4-.65,.03-.73,.05-1.46,.1-2.19,.59,.5,1.34,1.12,2.05,1.32,1.99,.59,4.26-.82,5.7-2.12,.58-.53,.14-1.76-.67-1.66-1.17,.15-2.2,.63-3.34,.92-1.18,.3-1.93-.57-3-.94-.18-.06-.36-.07-.54-.03,.05-.51,.1-1.01,.16-1.52,.49,.33,1.19,.3,1.63-.38,.64-1,1.16-2.08,1.71-3.13,.33-.62,.72-2.06,1.28-2.45,1.62-1.15,3.49,2.41,4.07,3.42,.02,.04,.06,.07,.09,.1-.94,.63-.86,2.33-.91,3.37Zm4.85,3.84c-.19-1.27-.41-2.53-.65-3.79-.03-.13-.05-.28-.08-.43,1.13,.74,2.71,.9,3.97,.82,.93-.06,1.75-.31,2.6-.68,.99-.43,2.13-.7,3.02-1.31,0,1.76,.03,3.53,.09,5.29-.95-.42-2.38-.21-3.23-.14-1.05,.08-2.1,.29-3.16,.28-.92-.01-1.71-.33-2.57-.04Zm.6,4.51c-.07-.61-.14-1.21-.22-1.82,2.31,1.12,6.43-1.34,8.57-.95,.03,0,.05,0,.07,0,.02,.38,.03,.75,.05,1.13,.05,1.04,.09,2.08,.14,3.12-2.13-1.5-6.03-1.23-8.25-.89-.11,.02-.2,.04-.29,.08-.02-.22-.05-.45-.07-.67Zm.3,2.92c.21,.1,.45,.14,.71,.1,1.49-.21,3.01-.3,4.51-.26,1.02,.03,2.13,.29,3.14,.13,.03,.87,.06,1.75,.08,2.62-.89-.39-1.97-.37-2.93-.46-1.56-.13-3.3-.04-4.78,.55-.21,.08-.36,.23-.48,.4-.08-1.03-.16-2.06-.26-3.09Zm8.34,11.17s-.05-.05-.08-.06c-1.1-.58-2.7-.45-3.92-.46-1.19,0-2.48-.09-3.6,.35-.05-.86-.08-1.72-.13-2.58,.12,.06,.26,.1,.42,.11,1.51,.11,3.02,.28,4.52,.41,.96,.08,1.98,.33,2.9,.06-.02,.72-.06,1.44-.11,2.17Zm.13-3.46c-.8-.41-1.78-.42-2.68-.56-1.5-.24-3-.44-4.49-.69-.33-.06-.6,.01-.81,.15-.04-.71-.08-1.42-.13-2.13,.15,.13,.36,.2,.63,.18,1.41-.14,2.8-.46,4.2-.66,1.08-.16,2.23,.04,3.28-.2,.02,1.3,.02,2.61,0,3.91Zm-.5-21.82c0,.13,0,.27,0,.4-1.03-.98-2.67-.25-3.9,.08-1.16,.31-2.25,.44-3.43,.13-.9-.24-1.53-.69-2.46-.73-.24-.01-.45,.08-.61,.22-.36-.55-.87-.92-1.64-.88-.09,0-.17,.02-.26,.03,0-.02,.01-.04,.01-.07,.15-2.25-1.89-4.99-4.03-5.54-1.31-.34-2.2,.47-2.88,1.53-.98,1.54-1.94,3.22-2.72,4.89-.21,0-.43,.14-.47,.46,0,.03,0,.05,0,.08-2.47,.43-4.93,1.71-7.35,2.37-3.02,.83-6.12,1.41-9.24,1.61-6.03,.38-11.61-.84-17.09-3.34-.09-.04-.18-.05-.26-.04-.07-.08-.17-.15-.28-.16-.04,0-.07,0-.11,0-.46-.13-1.03-.02-1.46,.03-.29,.04-.58,.07-.88,.11-.71-.15-1.47-.07-2.29-.1-1.92-.07-2.77-1.21-4.09-2.41-.54-.5-1.41-.34-1.8,.17-.07-.11-.16-.23-.27-.33-.88-.83-2.56-1.17-3.67-1.44-.83-.21-1.7-.45-2.28,.37-.67,.96-.76,2.66-.91,3.8-.2,1.49-.27,3-.31,4.51-.06-.1-.14-.2-.24-.29-1.14-1.03-2.96-1.26-4.41-1.6-1.09-.25-2.42-.4-3.2,.59-.17,.22-.32,.52-.21,.8l.05,.12c.28,.75,1.74,.58,2.36,.78,1.43,.45,3.05,1.58,4.56,1.42,.45-.05,.85-.35,1.07-.73-.02,1.01-.03,2.01-.05,3.02-1.17-.36-2.31-.08-3.52,.09-.85,.12-1.62,.1-2.38-.34-.52-.3-.84-.52-1.45-.56-.16,0-.32,.04-.46,.13-.04-.56-.07-1.11-.12-1.67-.23-2.72-.58-5.43-1.06-8.11,.99,.71,2.11,1.08,3.35,1.34,1.82,.38,3.36,.78,5.07,1.55,.52,.24,1.02-.25,.77-.79-1.46-3.19-6.21-2.2-8.39-4.55-.41-.44-.91-.44-1.31-.22-.37-1.78-.78-3.55-1.24-5.3,.32,.23,.73,.43,1.28,.6,1.83,.56,3.7,1.7,5.58,2.22,1.39,.52,2.82,.92,4.22,1.47,.54,.21,.84-.54,.52-.92-1.05-1.22-2.5-1.84-3.92-2.5-.56-.39-1.19-.69-1.84-.96-2.1-1.27-3.92-2.92-5.99-4.23-.32-.2-.72-.15-1.04,.04-.39-1.38-.77-2.78-1.1-4.18,1.04,1.33,2.63,2.22,3.94,3.19,.37,.28,.76,.2,1.04-.05,.78,.71,1.6,1.35,2.45,1.96,2.07,1.68,4.42,2.99,6.8,4.2,1.09,.56,2.05-1.08,.97-1.69-1.23-.74-2.46-1.48-3.66-2.27-2.11-1.43-4-2.99-5.62-4.81-1.13-1.37-2.09-2.98-3.15-4.48-.18-.33-.35-.69-.52-1.04-.54-1.91-1.62-3.92-2.95-5.26-.05-.05-.11-.06-.17-.06,.17-1.5,.52-2.95,1.05-4.32,.1,.1,.23,.18,.38,.23,2.1,.69,3.98,3.79,5.14,5.58,1.27,1.97,2.24,4.06,3.01,6.28,.43,1.26,2.35,.75,1.97-.56-1.04-3.51-2.16-7.11-4.06-10.24-1.07-1.76-2.83-4.44-5.08-4.08,.86-1.44,1.92-2.76,3.16-3.91,.04,.46,.31,.87,.88,.99,4.35,.92,5.26,5.72,5.96,9.56,.45,2.49,.76,4.99,.93,7.5-.05,2.09-.08,4.18,.1,6.26,.11,1.25,1.94,1.29,1.93,0,0-.83-.02-1.66-.04-2.5,.02-5.09,.55-10.28-.66-15.23-.83-3.38-2.7-7.56-6.15-8.77,1.24-.74,2.53-1.31,3.87-1.73,0,.38,.15,.76,.5,.99,3.73,2.39,5.79,5.26,6.08,9.83,.24,3.89-.38,7.75-1.39,11.49-.26,.96,1.13,1.33,1.44,.41,1.69-5.13,2.64-10.45,2.2-15.88-.2-2.51-.3-5.91-2.16-7.73,1.66,.04,3.31,.24,4.94,.59,.29,.1,.55,.18,.74,.27,.58,.25,1.16,.49,1.75,.72-2.3,1.63-3.23,5.85-3.36,8.68-.13,2.91,.41,6.24,.82,9.6-.13,4.92-.05,9.9-1.55,13.74-.78,1.46,1.64,2.83,2.36,1.28,4.6-10.01-1.3-23.01,7.42-31.11,.23-.21,.29-.47,.24-.7,1.22,.1,2.45,.06,3.68-.17-.04,.27,.01,.53,.14,.78-5.85,1.73-7.09,8.19-7.08,13.74,0,4.82,.89,9.58,1.69,14.34,.19,3.13,.41,6.27,1.19,9.31h.03c.29,.85,1.62,1.05,1.85,0,1.26-5.7,.37-11.71-.21-17.46-.3-2.97-.62-6.02-.07-8.98,.51-2.72,2.38-7.64,5.64-7.86,.47-.03,.79-.42,.89-.83,.14,.03,.28,.06,.39,.07,.72,.09,1.44,.1,2.15,.05-.29,.16-.52,.42-.62,.77-.87,3.14-1.45,6.21-1.58,9.38-.45,2.16-.66,4.34-.8,6.56-.37,5.82-.24,12.09,2.41,17.39,.29,.58,1.01,.13,.94-.41-.84-6.13-2.1-12.13-.71-18.3,.57-2.53,1.38-5.05,2.32-7.46,.9-2.29,2.08-4.42,2.34-6.91,.07-.7-.66-1.38-1.31-1.35-.31,.02-.62,.03-.92,.05,2.39-.43,4.75-1.18,7.18-1.15-.91,.93-1.82,1.85-2.73,2.78-.22,.23-.14,.7,.2,.77,.17,.03,.34,.05,.51,.07-2.7,2.62-2.55,6.33-2.51,10.13,.05,3.92-.02,7.95-1.09,11.69-.62,1.53-1.3,3.04-1.95,4.57-.51,1.19,1.11,2.24,1.74,1.04,2.59-3.98,4.16-7.91,4.74-12.67,.61-5.05-.23-11.5,4.32-14.77,.13-.1,.2-.24,.2-.39,.86-.22,1.71-.49,2.55-.78-1.72,2.77-1.21,7.33-1.22,10.21-.02,4.72-.07,9.47-1.51,13.82-.74,1.84-1.63,3.61-2.68,5.31-.8,1.3,1.2,2.48,2,1.2,3.09-4.36,4.99-9.19,5.58-14.56,.73-6.62-.43-12.66,4-18.15,.22-.06,.44-.13,.67-.18,1.11-.27,2.24-.44,3.37-.61-5.79,7.9-4.05,18.45-6.62,27.64-.46,1.29-.93,2.58-1.4,3.88h.02c-.26,1.22,1.32,2.1,2.05,.9,2.95-4.79,4.55-10.38,5.38-15.95,.81-5.37,.23-11.09,3.55-15.67,.35-.48-.1-1.13-.61-1.2v-.02c.68-.16,1.36-.35,2.02-.61-.29,.57-.5,1.1-.6,1.45-.56,1.97-1.32,4.57-1.09,6.8-.45,2.66-.48,5.3-.11,7.32,.72,3.89,3.25,6.84,5.45,9.95,2.46,3.48,4.72,7.27,7.53,10.45,.62,.7,1.65-.2,1.23-.98-3.24-5.97-8.98-10.97-11.21-17.48-1.22-3.56-.47-7.73,.57-11.27,.81-2.73,2.53-5.25,2.98-8.04,.02-.11,0-.21-.03-.31,.12-.31,.05-.64-.16-.85,.72-.62,1.41-1.27,2.1-1.92,.03,.21,.08,.41,.13,.6-.94,2.01-.61,4.3-1.55,6.4-.76,1.7-1.65,3.22-2.04,5.06-.68,3.2-.55,6.95,.92,9.93v.05c1.11,5.32,4.49,11.48,9.08,14.4,.81,.51,1.53-.62,.96-1.28-2.27-2.66-4.74-4.75-6.45-7.93-.7-1.3-1.26-2.64-1.66-4.02,.02-.09,.04-.2,.02-.31-.38-2.23-.62-4.21-.63-6.13,.02-.2,.03-.41,.06-.61,.46-3.4,2.42-6.32,2.86-9.63,.03-.25,.05-.5,.07-.75,.41,2.04,.68,4.12,.9,6.2,.54,5.03,.82,10.17,2.41,15.01,.04,.11,.08,.22,.12,.34-.09,.23,.01,.44,.2,.55,1.14,3.08,2.86,5.83,5.09,7.91-.89,2.92-.98,6.1-1.04,9.14Zm29.82-15.27c-1.92,3.73-4.99,5.94-8.84,7.25-3.51,1.2-7.29,2.12-11.01,1.84-6.62-.5-10.8-5.42-13.01-11.27,3.8-4.93,9-8.22,14.5-10.84,6.05-2.89,12.23-5.79,19.01-5.48,2.3,5.9,2.27,12.85-.64,18.5Z"/><path class="cls-4" d="M96.75,148.84c3.36-3.68,5.79-7.84,6.72-12.83,.17-.89,1.29-.83,1.71-.23,3.01,4.28,6.16,9.01,7.86,14.03,.15,.44-.48,.83-.77,.46-2.71-3.37-4.74-7.33-7.06-11.03-.65,2.2-1.49,4.33-2.56,6.35-1.04,1.97-2.21,4.39-4.2,5.49-1.4,.78-2.79-1.05-1.7-2.26Z"/><path class="cls-4" d="M146.37,133.17c.1,.25,.41,.39,.61,.17,.42-.47,1.66-1.42,.94-2.13,.11-.07,.23-.14,.34-.19,.82-.4,1.65-.42,2.53-.49,.22-.02,.27-.32,.05-.39-1.6-.52-5.41,.65-4.48,3.03Z"/><path class="cls-4" d="M128.84,138.64c.66-.78,1.63-1.27,2.61-1.49,.65-.15,1.79-.35,2.29,.27,.88,1.09-1.19,2.24-1.54,.66-.03-.13,.02-.29,.14-.36,.08-.04,.15-.07,.22-.1-.77-.34-3.09,.97-3.55,1.25-.14,.09-.27-.11-.17-.23Z"/></g></g></g></svg>