<?xml version="1.0" encoding="UTF-8"?><svg id="Layer_2" xmlns="http://www.w3.org/2000/svg" width="86.35" height="84.93" viewBox="0 0 86.35 84.93"><defs><style>.cls-1{fill:#91a3e2;}.cls-2{fill:none;stroke:#fff;stroke-linecap:round;stroke-miterlimit:10;stroke-width:5px;}</style></defs><g id="about_background"><path class="cls-1" d="M86.35,47.91c0,20.44-16.58,37.02-37.03,37.02-6.6,0-12.79-1.73-18.15-4.76l-13.93,4.28c-2.2,.68-4.3-1.27-3.78-3.51l3.46-15.12c-2.94-5.31-4.62-11.41-4.62-17.91C12.3,27.46,28.88,10.89,49.32,10.89s37.03,16.57,37.03,37.02Z"/></g><g id="about_outline"><g><path class="cls-2" d="M6.85,58.44c-2.78-5.34-4.35-11.43-4.35-17.9,0-9.95,3.72-19,9.8-25.78"/><path class="cls-2" d="M65.71,67.43c-6.7,6.88-15.96,11.14-26.18,11.14-6.94,0-13.43-1.96-18.98-5.37"/><path class="cls-2" d="M25.28,5.42c4.38-1.88,9.2-2.92,14.24-2.92,20.45,0,37.03,17.03,37.03,38.03,0,4.79-.86,9.37-2.43,13.59"/><path class="cls-2" d="M6.85,58.44l-4.17,17.52c-.09,.36,.23,.68,.59,.61l17.28-3.38"/><g><path class="cls-2" d="M29.86,25.42c3.75-6.62,12.02-8.72,17.78-5.27,6.26,3.75,7.04,12.55,4.32,16.82-1.26,1.99-3.99,5.42-12.18,7.64-3.23,.88-5.78,2.85-6.4,5.53-.33,1.44,.08,2.79,.49,3.7"/><circle class="cls-2" cx="32.02" cy="62.73" r="1.09"/></g></g></g></svg>