<?xml version="1.0" encoding="UTF-8"?><svg id="Layer_2" xmlns="http://www.w3.org/2000/svg" width="81.92" height="79.9" viewBox="0 0 81.92 79.9"><defs><style>.cls-1{fill:none;stroke:#fff;stroke-linecap:round;stroke-miterlimit:10;stroke-width:5px;}.cls-2{fill:#91a3e2;}</style></defs><g id="house_background"><path class="cls-2" d="M79.42,40.2v36.67c0,1.67-1.36,3.03-3.03,3.03H26.96c-1.67,0-3.03-1.36-3.03-3.03V40.2c0-.87,.37-1.69,1.02-2.26L49.66,15.96c1.15-1.02,2.88-1.02,4.03,0l24.72,21.97c.65,.57,1.02,1.4,1.02,2.26Z"/></g><g id="house_outline"><g><line class="cls-1" x1="2.5" y1="38.23" x2="40.96" y2="2.5"/><line class="cls-1" x1="79.42" y1="38.23" x2="40.96" y2="2.5"/><line class="cls-1" x1="11.68" y1="29.71" x2="11.68" y2="72.73"/><line class="cls-1" x1="69.96" y1="29.71" x2="69.96" y2="72.73"/><line class="cls-1" x1="11.68" y1="72.73" x2="69.96" y2="72.73"/><line class="cls-1" x1="31.15" y1="47.78" x2="50.09" y2="47.78"/><line class="cls-1" x1="31.15" y1="63.49" x2="31.15" y2="47.78"/><line class="cls-1" x1="50.09" y1="72.73" x2="50.09" y2="47.78"/><line class="cls-1" x1="57.65" y1="18.01" x2="57.65" y2="7.58"/><line class="cls-1" x1="69.96" y1="7.58" x2="57.65" y2="7.58"/><line class="cls-1" x1="69.96" y1="29.71" x2="69.96" y2="7.58"/></g></g></svg>