<?xml version="1.0" encoding="UTF-8"?><svg id="Layer_2" xmlns="http://www.w3.org/2000/svg" width="120.56" height="120.56" viewBox="0 0 120.56 120.56"><defs><style>.cls-1{fill:#91a3e2;}.cls-2{fill:#dfe7ff;}.cls-3,.cls-4{fill:none;stroke:#000;stroke-miterlimit:10;stroke-width:5px;}.cls-4{stroke-linecap:round;}</style></defs><g id="testtube_background"><g id="testtube_circle"><circle class="cls-2" cx="60.28" cy="60.28" r="60.28"/></g><path class="cls-1" d="M100.96,55.6l-56.52,48.02-.03-.03c-5.75,4.89-14.97,3.48-20.58-3.13-5.62-6.61-5.52-15.93,.24-20.82,.24-.2,.48-.39,.73-.57L80.61,31.66l20.34,23.94Z"/></g><g id="testtube_outline"><g><circle class="cls-4" cx="38.46" cy="82.48" r="1.73"/><circle class="cls-4" cx="62.57" cy="43.93" r="2.29"/><circle class="cls-4" cx="58.92" cy="60.97" r="3.86"/><circle class="cls-4" cx="40.26" cy="66.4" r="6.12"/><line class="cls-4" x1="76.1" y1="9.94" x2="107.06" y2="46.38"/><path class="cls-3" d="M101.77,40.15l-56.52,48.02-.03-.03c-5.75,4.89-14.97,3.48-20.58-3.13s-5.52-15.93,.24-20.82c.24-.2,.48-.39,.73-.57L81.42,16.2l20.34,23.94Z"/></g></g></svg>